<svg width="50" height="50" viewBox="0 0 50 50" fill="none" xmlns="http://www.w3.org/2000/svg">
<path d="M10.3325 50C9.9874 50 9.70752 49.7202 9.70752 49.375C9.70752 47.7457 10.4722 46.9142 11.1466 46.1806C11.7666 45.5062 12.2563 44.9737 12.2563 43.8309C12.2563 42.6881 11.7666 42.1554 11.1466 41.481C10.4721 40.7474 9.70752 39.9159 9.70752 38.2868C9.70752 36.6566 10.4723 35.8249 11.147 35.091C11.7667 34.417 12.2563 33.8845 12.2563 32.7426C12.2563 32.3973 12.5361 32.1176 12.8813 32.1176C13.2264 32.1176 13.5063 32.3973 13.5063 32.7426C13.5063 34.3718 12.7416 35.2032 12.0672 35.9369C11.4472 36.6112 10.9574 37.1439 10.9574 38.2867C10.9574 39.4286 11.447 39.9609 12.0667 40.6351C12.7414 41.3689 13.5062 42.2008 13.5062 43.831C13.5062 45.461 12.7414 46.2928 12.0667 47.0266C11.447 47.7006 10.9574 48.233 10.9574 49.375C10.9574 49.7202 10.6775 50 10.3325 50Z" fill="#666666"/>
<path d="M35.395 50C35.0499 50 34.77 49.7202 34.77 49.375C34.77 47.7456 35.5349 46.9141 36.2098 46.1805C36.83 45.5061 37.3199 44.9736 37.3199 43.831C37.3199 42.6882 36.83 42.1556 36.2098 41.4812C35.5351 40.7476 34.77 39.9161 34.77 38.2868C34.77 36.6566 35.5351 35.8248 36.2102 35.0909C36.8302 34.4169 37.3199 33.8845 37.3199 32.7426C37.3199 32.3973 37.5998 32.1176 37.9449 32.1176C38.29 32.1176 38.5699 32.3973 38.5699 32.7426C38.5699 34.3718 37.8051 35.2034 37.1302 35.937C36.51 36.6113 36.02 37.1438 36.02 38.2867C36.02 39.4286 36.5098 39.9609 37.1298 40.635C37.8048 41.3688 38.5699 42.2007 38.5699 43.831C38.5699 45.4612 37.8049 46.2929 37.1298 47.0268C36.5098 47.7008 36.02 48.2332 36.02 49.3751C36.0199 49.7202 35.7401 50 35.395 50Z" fill="#666666"/>
<path d="M22.7593 44.2729C22.4142 44.2729 22.1343 43.9932 22.1343 43.6479C22.1343 42.0187 22.8991 41.1871 23.574 40.4535C24.1942 39.7792 24.6842 39.2467 24.6842 38.1038C24.6842 36.9611 24.1942 36.4285 23.574 35.7543C22.8993 35.0207 22.1343 34.1892 22.1343 32.5598C22.1343 30.9296 22.8993 30.0979 23.5744 29.364C24.1943 28.6899 24.6842 28.1575 24.6842 27.0156C24.6842 26.6704 24.9641 26.3906 25.3092 26.3906C25.6543 26.3906 25.9342 26.6704 25.9342 27.0156C25.9342 28.6448 25.1693 29.4765 24.4944 30.2101C23.8742 30.8844 23.3843 31.4169 23.3843 32.5596C23.3843 33.7015 23.874 34.2338 24.494 34.9079C25.169 35.6417 25.9342 36.4735 25.9342 38.1037C25.9342 39.7339 25.1691 40.5657 24.494 41.2996C23.8741 41.9736 23.3843 42.5061 23.3843 43.6479C23.3843 43.9932 23.1044 44.2729 22.7593 44.2729Z" fill="#666666"/>
<path d="M37.4266 29.2783L39.5583 32.9702H38.9106H35.2949L37.4266 29.2783Z" fill="#F7B239"/>
<path d="M12.5722 29.2783L14.705 32.9702H13.8471H10.4404L12.5722 29.2783Z" fill="#F95428"/>
<path d="M24.9999 23.5511L27.1316 27.243H26.2748H22.8682L24.9999 23.5511Z" fill="#9AD14B"/>
<path d="M37.4265 5.72705C42.6239 5.72705 46.8386 11.1518 46.8386 17.8424C46.8386 24.5341 42.624 29.9589 37.4265 29.9589C33.6971 29.9589 30.4733 27.1647 28.9507 23.1149C32.1756 21.1934 34.0743 8.43711 33.4755 6.84395C34.6767 6.12695 36.0163 5.72705 37.4265 5.72705Z" fill="#F7B239"/>
<path d="M32.9019 17.8435C32.9019 12.24 35.8566 7.52568 39.8693 6.14043C39.0901 5.87148 38.2716 5.72705 37.4266 5.72705C32.2291 5.72705 28.0156 11.1518 28.0156 17.8435C28.0156 24.5353 32.2291 29.96 37.4266 29.96C38.2715 29.96 39.0899 29.8154 39.8689 29.5466C35.8564 28.1611 32.9019 23.4469 32.9019 17.8435Z" fill="#E09B2D"/>
<path d="M33.476 6.84404C34.0748 8.43711 34.4111 10.2269 34.4111 12.1165C34.4111 16.9913 32.176 21.1934 28.9512 23.1148C27.7501 23.8318 26.4115 24.2318 25.0002 24.2318C23.5889 24.2318 22.2492 23.8318 21.0492 23.1148C21.648 21.5206 19.7481 8.7666 16.5244 6.84395C18.046 2.79424 21.2697 0 25.0002 0C28.7307 0 31.9544 2.79424 33.476 6.84404Z" fill="#9AD14B"/>
<path d="M20.4755 12.1165C20.4755 6.51299 23.4303 1.79863 27.443 0.413379C26.6639 0.144434 25.8452 0 25.0003 0C19.8028 0 15.5894 5.42471 15.5894 12.1165C15.5894 18.8083 19.8028 24.233 25.0003 24.233C25.8452 24.233 26.6637 24.0884 27.4427 23.8195C23.4302 22.4341 20.4755 17.7199 20.4755 12.1165Z" fill="#90BC42"/>
<path d="M21.9841 17.8435C21.9841 19.7321 21.6478 21.5207 21.0489 23.1149C19.5263 27.1659 16.3025 29.96 12.5721 29.96C7.37461 29.96 3.16113 24.5353 3.16113 17.8435C3.16113 11.1518 7.37461 5.72705 12.5721 5.72705C13.9834 5.72705 15.322 6.12705 16.5241 6.84404C19.7479 8.7666 21.9841 12.9687 21.9841 17.8435Z" fill="#F95428"/>
<path d="M8.04736 17.8435C8.04736 12.24 11.0021 7.52568 15.0148 6.14043C14.2356 5.87148 13.4171 5.72705 12.5721 5.72705C7.37461 5.72705 3.16113 11.1518 3.16113 17.8435C3.16113 24.5353 7.37471 29.9599 12.5722 29.9599C13.4171 29.9599 14.2355 29.8153 15.0146 29.5465C11.002 28.1611 8.04736 23.4469 8.04736 17.8435Z" fill="#E54728"/>
</svg>
