<svg width="50" height="50" viewBox="0 0 50 50" fill="none" xmlns="http://www.w3.org/2000/svg">
<path d="M14.6742 9.78262H6.52207C5.62197 9.78262 4.8916 9.05225 4.8916 8.15215V1.63047C4.8916 0.730371 5.62187 0 6.52207 0H14.6742C15.5743 0 16.3047 0.730371 16.3047 1.63047V8.15225C16.3047 9.05225 15.5743 9.78262 14.6742 9.78262Z" fill="#36D9D9"/>
<path d="M6.52256 0V22.2363C6.52256 23.1141 5.84844 23.8694 4.97168 23.9112C4.03535 23.9558 3.26172 23.2092 3.26172 22.2826V1.63047C3.26162 0.72998 3.9917 0 4.89209 0H6.52256Z" fill="#736056"/>
<path d="M30.9784 27.1739H24.4566C23.5565 27.1739 22.8262 26.4435 22.8262 25.5434C22.8262 24.6433 23.5565 23.913 24.4566 23.913H30.9784C31.8785 23.913 32.6089 24.6433 32.6089 25.5434C32.6089 26.4435 31.8786 27.1739 30.9784 27.1739Z" fill="#665247"/>
<path d="M24.4566 30.4348C23.5565 30.4348 22.8262 29.7044 22.8262 28.8043V22.2825C22.8262 21.3824 23.5565 20.652 24.4566 20.652C25.3567 20.652 26.0871 21.3824 26.0871 22.2825V28.8043C26.087 29.7045 25.3567 30.4348 24.4566 30.4348Z" fill="#736056"/>
<path d="M17.9353 36.9566H11.4137C10.5136 36.9566 9.7832 36.2262 9.7832 35.3261V19.0218C9.7832 16.3246 11.9773 14.1305 14.6745 14.1305C17.3717 14.1305 19.5658 16.3246 19.5658 19.0218V35.3262C19.5658 36.2262 18.8354 36.9566 17.9353 36.9566Z" fill="#A6673A"/>
<path d="M17.9347 36.9566C18.8348 36.9566 19.5651 36.2262 19.5651 35.3261V19.0218C19.5651 16.3246 17.371 14.1305 14.6738 14.1305V36.9566H17.9347V36.9566Z" fill="#99522E"/>
<path d="M45.1086 43.4782H4.89121C3.99082 43.4782 3.26074 42.7482 3.26074 41.8477V20.6521H8.15205C9.05244 20.6521 9.78252 21.3821 9.78252 22.2826V33.6957H29.3478V22.2826C29.3478 21.3822 30.0777 20.6521 30.9782 20.6521H35.3261C41.6293 20.6521 46.7392 25.7619 46.7392 32.0652V41.8478C46.7391 42.7482 46.009 43.4782 45.1086 43.4782Z" fill="#FFC033"/>
<path d="M35.3261 20.6521H30.9782C30.0781 20.6521 29.3478 21.3825 29.3478 22.2826V33.6957H25V43.4783H45.1087C46.0088 43.4783 46.7392 42.7479 46.7392 41.8478V32.0652C46.7392 25.7717 41.6195 20.6521 35.3261 20.6521Z" fill="#F9A926"/>
<path d="M45.1087 50H4.89131C2.19414 50 0 47.8059 0 45.1087C0 42.4115 2.19414 40.2174 4.89131 40.2174H45.1087C47.8059 40.2174 50 42.4115 50 45.1087C50 47.8059 47.8059 50 45.1087 50Z" fill="#E6563A"/>
<path d="M45.1087 40.2174H25V50H45.1087C47.8059 50 50 47.8059 50 45.1087C50 42.4115 47.8059 40.2174 45.1087 40.2174Z" fill="#D9472B"/>
</svg>
