<svg width="50" height="50" viewBox="0 0 50 50" fill="none" xmlns="http://www.w3.org/2000/svg">
<path d="M29.9441 18.4636H20.4639V49.4646H29.9441V18.4636Z" fill="#797882"/>
<path d="M29.9438 18.4636H24.957V49.4646H29.9438V18.4636Z" fill="#2D2E30"/>
<path d="M44.1024 49.9999H6.41641C5.52949 49.9999 4.81055 49.2809 4.81055 48.3941C4.81055 47.5072 5.52959 46.7882 6.41641 46.7882H44.1024C44.9894 46.7882 45.7083 47.5073 45.7083 48.3941C45.7083 49.2809 44.9894 49.9999 44.1024 49.9999Z" fill="#E61F00"/>
<path d="M13.2539 23.4178H10.042V33.9641H13.2539V23.4178Z" fill="#797882"/>
<path d="M13.2534 23.4178H11.584V33.9641H13.2534V23.4178Z" fill="#2D2E30"/>
<path d="M40.3408 23.1499H37.1289V33.6962H40.3408V23.1499Z" fill="#797882"/>
<path d="M40.3406 23.1499H38.6191V33.6962H40.3406V23.1499Z" fill="#2D2E30"/>
<path d="M30.4421 4.79404C30.499 4.88877 30.5007 5.00674 30.4462 5.10283C30.3917 5.19893 30.2899 5.2585 30.1794 5.2585H24.9004V1.69629H30.1794C30.2899 1.69629 30.3918 1.75576 30.4462 1.85195C30.5006 1.94814 30.499 2.06602 30.4421 2.16074L29.65 3.47744L30.4421 4.79404Z" fill="#9D2217"/>
<path d="M11.7897 24.7235C13.6136 24.7235 15.0922 23.2449 15.0922 21.421C15.0922 19.5971 13.6136 18.1186 11.7897 18.1186C9.96586 18.1186 8.4873 19.5971 8.4873 21.421C8.4873 23.2449 9.96586 24.7235 11.7897 24.7235Z" fill="#C6C5CA"/>
<path d="M38.2097 24.7235C40.0336 24.7235 41.5121 23.2449 41.5121 21.421C41.5121 19.5971 40.0336 18.1186 38.2097 18.1186C36.3858 18.1186 34.9072 19.5971 34.9072 21.421C34.9072 23.2449 36.3858 24.7235 38.2097 24.7235Z" fill="#797882"/>
<path d="M24.9993 5.98492L1.88184 21.4213H48.117L24.9993 5.98492Z" fill="#E61F00"/>
<path d="M8.48672 21.4213C8.48672 23.2452 7.00811 24.7237 5.18428 24.7237C3.36045 24.7237 1.88184 23.2451 1.88184 21.4213H8.48672Z" fill="#9D2217"/>
<path d="M18.3942 24.7235C20.2181 24.7235 21.6967 23.2449 21.6967 21.421C21.6967 19.5971 20.2181 18.1186 18.3942 18.1186C16.5704 18.1186 15.0918 19.5971 15.0918 21.421C15.0918 23.2449 16.5704 24.7235 18.3942 24.7235Z" fill="#9D2217"/>
<path d="M25.0007 24.7235C26.8246 24.7235 28.3031 23.2449 28.3031 21.421C28.3031 19.5971 26.8246 18.1186 25.0007 18.1186C23.1768 18.1186 21.6982 19.5971 21.6982 21.421C21.6982 23.2449 23.1768 24.7235 25.0007 24.7235Z" fill="#C6C5CA"/>
<path d="M31.6042 24.7235C33.4281 24.7235 34.9066 23.2449 34.9066 21.421C34.9066 19.5971 33.4281 18.1186 31.6042 18.1186C29.7803 18.1186 28.3018 19.5971 28.3018 21.421C28.3018 23.2449 29.7803 24.7235 31.6042 24.7235Z" fill="#9D2217"/>
<path d="M48.1176 21.4213C48.1176 23.2452 46.639 24.7237 44.8151 24.7237C42.9912 24.7237 41.5127 23.2451 41.5127 21.4213H48.1176Z" fill="#9D2217"/>
<path d="M21.6982 21.4213L25.0007 5.98492L28.3033 21.4213H21.6982Z" fill="black"/>
<path d="M21.6978 21.4213H15.0928L25.0002 5.98492L21.6978 21.4213Z" fill="#E61F00"/>
<path d="M8.4873 21.4213L24.9997 5.98492L15.0923 21.4213H8.4873Z" fill="#EFEFEF"/>
<path d="M28.3033 21.4213L25.0007 5.98492L21.6982 21.4213H28.3033Z" fill="#EFEFEF"/>
<path d="M28.3026 21.4213H34.9076L25 5.98492L28.3026 21.4213Z" fill="#E61F00"/>
<path d="M41.5126 21.4213L25 5.98492L34.9076 21.4213H41.5126Z" fill="#C6C5CA"/>
<path d="M24.9004 8.93369C23.9636 8.93369 23.2041 8.17432 23.2041 7.2374V1.69629C23.2041 0.759473 23.9635 0 24.9004 0C25.8373 0 26.5967 0.759375 26.5967 1.69629V7.2375C26.5966 8.17432 25.8372 8.93369 24.9004 8.93369Z" fill="#2D2E30"/>
<path d="M20.2051 9.18614C21.2395 10.7331 23.0018 11.7523 25.0024 11.7523C27.0018 11.7523 28.7633 10.7345 29.7979 9.18907L24.9993 5.98486L20.2051 9.18614Z" fill="#E61F00"/>
<path d="M25 5.98492V11.7522C25.0011 11.7522 25.0021 11.7523 25.0031 11.7523C27.0025 11.7523 28.764 10.7345 29.7986 9.18913L25 5.98492Z" fill="#9D2217"/>
<path d="M44.102 46.788H24.9561V49.9999H44.102C44.9889 49.9999 45.7079 49.2809 45.7079 48.3941C45.7079 47.5071 44.9889 46.788 44.102 46.788Z" fill="#9D2217"/>
<path d="M21.0556 35.0347C21.185 34.9172 21.253 34.7469 21.2403 34.5726C21.1973 33.9802 21.089 32.577 20.9732 31.767C20.9028 31.2747 20.6317 30.5517 20.1859 30.1897C20.1748 30.1808 20.163 30.1705 20.1517 30.1612L20.1052 28.5734C20.1029 28.4911 20.0494 28.4188 19.9714 28.3926C19.8933 28.3662 19.8071 28.3912 19.7553 28.4552L18.778 29.6613C18.1803 29.6687 17.4446 29.9215 16.8098 30.8308C13.944 34.9354 9.33373 31.9514 7.32611 34.2349C7.31566 34.2468 7.30424 34.2646 7.29232 34.2854C6.68363 34.086 6.10092 33.968 5.35404 34.2501C4.45004 34.5893 4.27103 34.974 2.56107 37.26C2.49809 37.3442 2.47279 37.4509 2.49125 37.5545C2.50971 37.6581 2.57006 37.7497 2.65824 37.8071L4.11273 38.7518C4.20121 38.8094 4.30971 38.8274 4.41205 38.8018C4.51439 38.7763 4.6015 38.7093 4.65268 38.6169C6.07611 36.0491 5.96371 36.2071 6.13158 36.0947C6.26908 36.0021 6.4183 35.9664 6.74428 36.0251C6.55609 36.7462 5.84633 41.6116 5.63051 43.1055C5.61469 43.2146 5.64721 43.3254 5.71947 43.4088C5.79174 43.4922 5.89672 43.5406 6.00697 43.5406H6.71322C6.85053 43.5406 6.97719 43.4667 7.04457 43.3471L9.1974 39.527C9.41 39.1499 9.80922 38.9167 10.2421 38.9167H14.2422C14.6757 38.9167 15.0754 39.1507 15.2877 39.5285L17.4329 43.3467C17.5002 43.4665 17.627 43.5407 17.7645 43.5407H18.2756C18.3921 43.5407 18.5022 43.4874 18.5744 43.3958C18.6465 43.3044 18.6727 43.1849 18.6456 43.0715C18.3958 42.0268 17.7859 39.4836 17.4129 37.9956C17.2042 37.1636 17.3175 36.2837 17.7272 35.5301C17.8652 35.2763 18.0071 35.0152 18.1341 34.7815C18.2343 34.5972 18.4173 34.4726 18.6255 34.4466C18.8337 34.4208 19.0416 34.4969 19.1839 34.6512L19.847 35.3701C20.0585 35.5995 20.4155 35.6153 20.6464 35.4056L21.0556 35.0347Z" fill="#F7DC4D"/>
<path d="M47.8105 35.0347C47.9399 34.9172 48.0079 34.7469 47.9952 34.5726C47.9522 33.9802 47.8439 32.577 47.7281 31.767C47.6577 31.2747 47.3866 30.5517 46.9408 30.1897C46.9297 30.1808 46.9179 30.1705 46.9066 30.1612L46.8601 28.5734C46.8578 28.4911 46.8042 28.4188 46.7263 28.3926C46.6482 28.3662 46.562 28.3912 46.5102 28.4552L45.5329 29.6613C44.9352 29.6687 44.1995 29.9215 43.5647 30.8308C40.6989 34.9354 36.0886 31.9514 34.081 34.2349C34.0705 34.2468 34.0591 34.2646 34.0472 34.2854C33.4385 34.086 32.8558 33.968 32.1089 34.2501C31.2049 34.5893 31.0259 34.974 29.316 37.26C29.253 37.3442 29.2277 37.4509 29.2461 37.5545C29.2646 37.6581 29.3249 37.7497 29.4131 37.8071L30.8676 38.7518C30.9561 38.8094 31.0646 38.8274 31.1669 38.8018C31.2693 38.7763 31.3564 38.7093 31.4076 38.6169C32.831 36.0491 32.7186 36.2071 32.8865 36.0947C33.024 36.0021 33.1732 35.9664 33.4992 36.0251C33.311 36.7462 32.6012 41.6116 32.3854 43.1055C32.3696 43.2146 32.4021 43.3254 32.4744 43.4088C32.5466 43.4922 32.6516 43.5406 32.7619 43.5406H33.4681C33.6054 43.5406 33.7321 43.4667 33.7995 43.3471L35.9523 39.527C36.1649 39.1499 36.5641 38.9167 36.997 38.9167H40.9971C41.4306 38.9167 41.8303 39.1507 42.0426 39.5285L44.1877 43.3467C44.2551 43.4665 44.3819 43.5407 44.5194 43.5407H45.0305C45.147 43.5407 45.2571 43.4874 45.3292 43.3958C45.4014 43.3044 45.4276 43.1849 45.4005 43.0715C45.1507 42.0268 44.5408 39.4836 44.1678 37.9956C43.9591 37.1636 44.0724 36.2837 44.4822 35.5301C44.6202 35.2763 44.7621 35.0152 44.8891 34.7815C44.9893 34.5972 45.1723 34.4726 45.3805 34.4466C45.5887 34.4208 45.7966 34.4969 45.9389 34.6512L46.602 35.3701C46.8135 35.5995 47.1705 35.6153 47.4014 35.4056L47.8105 35.0347Z" fill="#EA971E"/>
</svg>
