<svg width="50" height="50" viewBox="0 0 50 50" fill="none" xmlns="http://www.w3.org/2000/svg">
<g clip-path="url(#clip0)">
<path d="M7.75195 11.6515L7.75897 11.6434C10.108 8.90922 14.4503 9.29999 16.2734 12.4097C17.5476 14.5832 20.1858 15.5456 22.5603 14.7031L23.3175 14.4345C23.3175 14.4345 22.7461 16.9687 21.4269 17.2973" fill="#45CE83"/>
<path d="M42.2487 11.3404L42.2417 11.3323C39.8927 8.59812 35.5504 8.98889 33.7273 12.0986C32.453 14.2721 29.8149 15.2345 27.4403 14.3921L26.6831 14.1234C26.6831 14.1234 27.2546 16.6576 28.5737 16.9862" fill="#45CE83"/>
<path d="M9.29655 40.3778L0.982997 36.9548C0.238277 36.6482 -0.158739 35.8323 0.0597682 35.057L6.74669 11.3301L23.2463 18.1237L11.2884 39.6802C10.8977 40.3845 10.0413 40.6844 9.29655 40.3778Z" fill="#46B9CC"/>
<path d="M9.58408 38.5557C9.49422 38.5557 9.40305 38.5336 9.31878 38.4868C9.05425 38.34 8.95869 38.0065 9.10553 37.7419L9.86 36.382C10.0068 36.1174 10.3402 36.0218 10.6049 36.1686C10.8695 36.3155 10.965 36.6489 10.8182 36.9136L10.0637 38.2735C9.96367 38.4538 9.77683 38.5557 9.58408 38.5557Z" fill="white"/>
<path d="M11.4537 35.1852C11.3638 35.1852 11.2727 35.1631 11.1884 35.1163C10.9239 34.9695 10.8283 34.636 10.9752 34.3714L16.5874 24.2541C16.7341 23.9896 17.0675 23.8939 17.3323 24.0407C17.5969 24.1876 17.6924 24.521 17.5456 24.7857L11.9333 34.903C11.8333 35.0834 11.6465 35.1852 11.4537 35.1852Z" fill="white"/>
<path d="M23.5198 19.0224L5.9201 11.7759C5.54884 11.623 5.37186 11.1982 5.52462 10.8269C5.67749 10.4556 6.10234 10.2787 6.4736 10.4314L24.0733 17.6779C24.4445 17.8307 24.6215 18.2556 24.4687 18.6268C24.3159 18.9982 23.891 19.1753 23.5198 19.0224Z" fill="#F4E84A"/>
<path d="M40.7033 40.3778L49.0169 36.9548C49.7616 36.6482 50.1586 35.8323 49.9401 35.057L43.2532 11.3301L26.7534 18.1238L38.7115 39.6802C39.1021 40.3845 39.9585 40.6844 40.7033 40.3778Z" fill="#F48438"/>
<path d="M47.5525 35.617C47.3132 35.617 47.0935 35.4592 47.0254 35.2175L46.3488 32.8168C46.2667 32.5255 46.4364 32.2229 46.7275 32.1408C47.0193 32.0587 47.3215 32.2282 47.4035 32.5195L48.0801 34.9202C48.1622 35.2115 47.9925 35.5142 47.7014 35.5963C47.6516 35.6103 47.6017 35.617 47.5525 35.617Z" fill="white"/>
<path d="M46.1571 30.6655C45.9179 30.6655 45.6982 30.5077 45.63 30.266L42.3517 18.6338C42.2697 18.3425 42.4392 18.0399 42.7305 17.9578C43.0216 17.8758 43.3244 18.0452 43.4065 18.3365L46.6847 29.9687C46.7668 30.26 46.5973 30.5627 46.306 30.6448C46.2565 30.6589 46.2064 30.6655 46.1571 30.6655Z" fill="white"/>
<path d="M42.217 16.6854C41.9777 16.6854 41.758 16.5276 41.6899 16.286L41.2121 14.5907C41.13 14.2995 41.2995 13.9968 41.5908 13.9147C41.8819 13.8329 42.1847 14.0022 42.2668 14.2934L42.7446 15.9887C42.8267 16.2799 42.6571 16.5826 42.3659 16.6647C42.3162 16.6787 42.2662 16.6854 42.217 16.6854Z" fill="white"/>
<path d="M26.4804 19.0224L44.0801 11.776C44.4513 11.6231 44.6283 11.1983 44.4756 10.827C44.3227 10.4558 43.8978 10.2788 43.5266 10.4315L25.9269 17.678C25.5557 17.8308 25.3787 18.2557 25.5315 18.627C25.6843 18.9982 26.1092 19.1753 26.4804 19.0224Z" fill="#F4E84A"/>
</g>
<defs>
<clipPath id="clip0">
<rect width="50" height="50" fill="white"/>
</clipPath>
</defs>
</svg>
