<svg width="130" height="56" viewBox="0 0 130 56" fill="none" xmlns="http://www.w3.org/2000/svg">
<path d="M75.9925 44L77.4094 48.584H81.9872L78.2848 51.416L79.696 56L75.9925 53.1668L72.2889 56L73.7035 51.416L70 48.584H74.5779L75.9925 44Z" fill="#FCC000"/>
<path d="M87.9956 44L89.4103 48.584H93.9881L90.2903 51.416L91.7003 56L87.9956 53.1668L84.2921 56L85.7067 51.416L82.0032 48.584H86.581L87.9956 44Z" fill="#FCC000"/>
<path d="M100 44L101.415 48.584H105.993L102.289 51.416L103.705 56L100 53.1668L96.2954 56L97.71 51.416L94.0076 48.584H98.5854L100 44Z" fill="#FCC000"/>
<path d="M112.004 44L113.419 48.584H117.997L114.292 51.416L115.71 56L112.004 53.1668L108.301 56L109.714 51.416L106.011 48.584H110.59L112.004 44Z" fill="#FCC000"/>
<path d="M124.008 44L125.422 48.584H130L126.296 51.416L127.711 56L124.008 53.1668L120.304 56L121.715 51.416L118.015 48.584H122.593L124.008 44Z" fill="#FCC000"/>
<path d="M54.5382 55.7347C53.9337 55.5685 53.4517 55.3619 53.0924 55.1104L53.8322 53.4217C54.1746 53.6553 54.5847 53.8394 55.0666 53.9876C55.5485 54.1313 56.022 54.2077 56.487 54.2077C57.4255 54.2077 57.8906 53.9607 57.8906 53.4711C57.8906 53.2421 57.7637 53.0759 57.5059 52.9726C57.2522 52.8738 56.8591 52.7885 56.3264 52.7166C55.7007 52.6178 55.185 52.501 54.7792 52.3708C54.3733 52.2406 54.0182 52.007 53.7223 51.6792C53.4264 51.3468 53.2742 50.8752 53.2742 50.2644C53.2742 49.7525 53.4137 49.2988 53.6927 48.8991C53.9717 48.5039 54.3775 48.194 54.9144 47.9739C55.4471 47.7539 56.0812 47.6416 56.8083 47.6416C57.3494 47.6416 57.8821 47.7045 58.419 47.8302C58.9516 47.956 59.3955 48.1311 59.7464 48.3512L59.0066 50.0264C58.3344 49.6267 57.6031 49.4246 56.8083 49.4246C56.3349 49.4246 55.9797 49.4965 55.743 49.6357C55.5063 49.7749 55.3879 49.959 55.3879 50.1791C55.3879 50.4306 55.5147 50.6058 55.7726 50.7046C56.0262 50.8034 56.4363 50.9022 56.9943 50.992C57.62 51.1043 58.1273 51.2211 58.5247 51.3468C58.922 51.4726 59.2687 51.7016 59.5604 52.034C59.8521 52.3663 60 52.8289 60 53.4217C60 53.9247 59.8563 54.3694 59.5731 54.7646C59.2898 55.1553 58.8755 55.4607 58.3302 55.6763C57.7849 55.8919 57.1423 55.9997 56.394 55.9997C55.7599 55.9817 55.1427 55.9009 54.5382 55.7347Z" fill="#6D6D71"/>
<path d="M52.9065 47.7539L50.1417 55.865H48.0153L46.2947 50.8304L44.5192 55.865H42.3928L39.6407 47.7539H41.7249L43.5258 53.2421L45.3985 47.7539H47.2713L49.0891 53.2421L50.9492 47.7539H52.9065V47.7539Z" fill="#6D6D71"/>
<path d="M39.273 52.4694H33.4983C33.604 52.9724 33.8492 53.3677 34.2381 53.6596C34.627 53.9515 35.1089 54.0952 35.6839 54.0952C36.0812 54.0952 36.4321 54.0323 36.7407 53.9066C37.0493 53.7808 37.3326 53.5832 37.5989 53.3093L38.7783 54.6656C38.0597 55.5414 37.0113 55.977 35.6289 55.977C34.7665 55.977 34.0056 55.7974 33.3461 55.4426C32.6824 55.0878 32.1751 54.5893 31.8158 53.956C31.4564 53.3227 31.2747 52.6042 31.2747 51.8002C31.2747 51.0053 31.4522 50.2912 31.8073 49.6534C32.1624 49.0157 32.6486 48.5172 33.27 48.1624C33.8914 47.8076 34.5805 47.6279 35.3499 47.6279C36.0982 47.6279 36.7745 47.7986 37.3791 48.1399C37.9836 48.4813 38.4613 48.9708 38.8037 49.6085C39.1504 50.2463 39.3195 50.9873 39.3195 51.8317C39.3152 51.8676 39.2983 52.0787 39.273 52.4694ZM34.0944 49.8645C33.7519 50.1654 33.5448 50.5786 33.4687 51.0996H37.2269C37.1508 50.5876 36.9436 50.1789 36.6012 49.869C36.2588 49.5636 35.8445 49.4109 35.3541 49.4109C34.8553 49.4109 34.4325 49.5636 34.0944 49.8645Z" fill="#6D6D71"/>
<path d="M27.6814 46.2456C27.4278 45.9941 27.2968 45.6842 27.2968 45.3114C27.2968 44.9387 27.4236 44.6288 27.6814 44.3773C27.9351 44.1258 28.2691 44 28.6749 44C29.0807 44 29.4147 44.1213 29.6683 44.3638C29.922 44.6063 30.053 44.9072 30.053 45.2665C30.053 45.6572 29.9262 45.9806 29.6683 46.2366C29.4147 46.4926 29.0807 46.6228 28.6749 46.6228C28.2648 46.6228 27.9351 46.4971 27.6814 46.2456ZM27.5673 47.7546H29.7825V55.8657H27.5673V47.7546Z" fill="#6D6D71"/>
<path d="M26.6582 47.7539L23.4369 55.865H21.1541L17.9497 47.7539H20.2325L22.3462 53.2691L24.5318 47.7539H26.6582V47.7539Z" fill="#6D6D71"/>
<path d="M17.7045 52.4694H11.9298C12.0355 52.9724 12.2807 53.3677 12.6696 53.6596C13.0585 53.9515 13.5405 54.0952 14.1154 54.0952C14.5128 54.0952 14.8637 54.0323 15.1723 53.9066C15.4809 53.7808 15.7641 53.5832 16.0304 53.3093L17.2099 54.6656C16.4912 55.5414 15.4428 55.977 14.0604 55.977C13.198 55.977 12.4371 55.7974 11.7776 55.4426C11.1139 55.0878 10.6066 54.5893 10.2473 53.956C9.88796 53.3227 9.70618 52.6042 9.70618 51.8002C9.70618 51.0053 9.88373 50.2912 10.2388 49.6534C10.5939 49.0157 11.0801 48.5172 11.7015 48.1624C12.323 47.8076 13.012 47.6279 13.7814 47.6279C14.5297 47.6279 15.2061 47.7986 15.8106 48.1399C16.4151 48.4813 16.8928 48.9708 17.2352 49.6085C17.5819 50.2463 17.751 50.9873 17.751 51.8317C17.7468 51.8676 17.7341 52.0787 17.7045 52.4694ZM12.5259 49.8645C12.1835 50.1654 11.9763 50.5786 11.9002 51.0996H15.6584C15.5823 50.5876 15.3752 50.1789 15.0327 49.869C14.6903 49.5636 14.276 49.4109 13.7857 49.4109C13.2868 49.4109 12.8683 49.5636 12.5259 49.8645Z" fill="#6D6D71"/>
<path d="M6.32848 55.8658L4.41345 52.9285H4.29931H2.29973V55.8658H0V45.3115H4.29931C5.17862 45.3115 5.94379 45.4687 6.59058 45.7786C7.23738 46.0885 7.73622 46.5331 8.0871 47.1035C8.43798 47.6784 8.6113 48.3565 8.6113 49.138C8.6113 49.9195 8.43375 50.5976 8.07865 51.1635C7.72354 51.7294 7.22047 52.1651 6.56945 52.466L8.79731 55.8568H6.32848V55.8658ZM5.7451 47.7772C5.38576 47.4628 4.86156 47.3011 4.16826 47.3011H2.2955V50.9794H4.16826C4.85733 50.9794 5.38154 50.8177 5.7451 50.4988C6.10443 50.1755 6.28621 49.7263 6.28621 49.1425C6.28621 48.5497 6.10443 48.096 5.7451 47.7772Z" fill="#6D6D71"/>
<path d="M120.36 33.0157C117.75 32.9654 115.062 31.848 112.99 29.4176C111.427 27.585 110.649 25.4284 110.526 23.0427C110.402 20.6682 110.85 18.411 112.127 16.3772C113.908 13.5446 116.495 11.9913 119.85 11.7902C123.311 11.5779 126.01 13.0082 128.054 15.7515C128.894 16.8801 129.443 18.1595 129.942 19.4613C130.048 19.7295 130.037 19.7407 129.673 19.886C127.315 20.8581 124.963 21.8303 122.605 22.808C120.483 23.6852 118.366 24.5568 116.243 25.434C116.187 25.4563 116.131 25.4843 116.075 25.501C115.863 25.5681 115.84 25.691 115.947 25.8754C116.747 27.3057 117.879 28.3225 119.514 28.6578C122.051 29.1774 124.386 28.4119 125.977 26.1547C126.178 25.8698 126.178 25.8698 126.464 26.0597C127.505 26.747 128.542 27.4286 129.578 28.1214C129.858 28.3058 129.858 28.3169 129.673 28.5628C127.505 31.4513 124.481 33.0325 120.36 33.0157ZM115.034 22.0314C115.202 21.9755 115.297 21.9476 115.392 21.9085C118.243 20.7296 121.093 19.5451 123.938 18.3663C124.599 18.0925 124.61 18.0534 124.173 17.4835C123.434 16.5225 122.42 16.0699 121.244 15.9191C118.909 15.623 116.686 17.0756 115.711 18.9473C115.224 19.8915 115.006 20.8972 115.034 22.0314Z" fill="#DB4437"/>
<path d="M103.744 16.7339C103.744 11.7055 103.744 6.67709 103.744 1.64309C103.744 1.06203 103.688 1.10114 104.265 1.10114C105.525 1.10114 106.785 1.10672 108.045 1.11231C108.42 1.11231 108.42 1.1179 108.426 1.48106C108.426 1.55369 108.426 1.63191 108.426 1.70455C108.426 11.7334 108.426 21.7623 108.426 31.7912C108.426 32.417 108.526 32.3667 107.854 32.3667C106.667 32.3667 105.485 32.3667 104.298 32.3667C104.192 32.3667 104.085 32.3611 103.985 32.3667C103.822 32.3723 103.733 32.3108 103.738 32.1321C103.744 32.0147 103.738 31.8918 103.738 31.7745C103.744 26.7628 103.744 21.7512 103.744 16.7339Z" fill="#0F9D58"/>
<path d="M96.0938 14.0976C96.2282 13.9802 96.1778 13.835 96.1834 13.7065C96.189 13.3768 96.189 13.0472 96.1834 12.7175C96.1778 12.522 96.2282 12.4102 96.4578 12.4102C97.7626 12.4158 99.0675 12.4158 100.372 12.4102C100.557 12.4102 100.652 12.4829 100.647 12.6728C100.647 12.779 100.647 12.8796 100.647 12.9857C100.647 19.0198 100.652 25.0483 100.647 31.0824C100.647 32.7474 100.524 34.4012 100.003 35.9991C98.8211 39.6363 96.3122 41.7483 92.5488 42.3852C90.8856 42.6701 89.2335 42.6199 87.6039 42.1505C85.4198 41.5192 83.6781 40.2621 82.3173 38.463C81.8749 37.8764 81.494 37.245 81.1916 36.5746C81.0516 36.2617 81.0516 36.2561 81.3764 36.1164C82.5245 35.6359 83.6725 35.161 84.8262 34.6861C85.1342 34.5576 85.1454 34.5632 85.2966 34.8705C85.8174 35.9265 86.5342 36.8148 87.5311 37.4574C88.6007 38.1502 89.7767 38.4128 91.0424 38.3122C91.9552 38.2396 92.8232 38.044 93.6129 37.5803C94.8785 36.8372 95.5785 35.6862 95.937 34.3006C96.2282 33.172 96.2002 32.0155 96.1946 30.8645C96.1946 30.7919 96.2058 30.6969 96.1274 30.6634C95.9762 30.6019 95.9202 30.7472 95.8474 30.8254C94.6657 32.0602 93.1929 32.7139 91.524 32.9318C89.6087 33.1832 87.7775 32.8368 86.075 31.9429C82.7989 30.2164 80.8444 27.5067 80.3236 23.8527C79.8812 20.7462 80.7156 17.9415 82.7093 15.5111C84.1485 13.7567 85.9686 12.5555 88.1863 12.0247C90.4824 11.4716 92.6832 11.6839 94.7161 12.9745C95.0969 13.2148 95.4497 13.4941 95.7634 13.8182C95.8586 13.9355 95.937 14.0696 96.0938 14.0976ZM96.4914 22.238C96.5026 21.4837 96.357 20.5898 96.0154 19.7294C95.3769 18.1091 94.3073 16.8855 92.6384 16.271C90.3256 15.4217 87.6655 16.2933 86.1758 18.3605C85.2014 19.7182 84.815 21.2435 84.9214 22.8973C85.0502 24.8863 85.851 26.5457 87.4807 27.7302C89.9223 29.5013 93.2937 29.1158 95.1697 26.6127C96.1106 25.3668 96.5026 23.9533 96.4914 22.238Z" fill="#4285F4"/>
<path d="M67.6392 33.0101C63.2094 32.8369 59.8269 30.9541 57.9004 26.8755C55.9795 22.8136 56.926 17.8132 60.1237 14.7235C61.8037 13.0976 63.831 12.1534 66.1551 11.8629C68.8768 11.522 71.4249 12.0305 73.7042 13.5725C76.4595 15.433 77.9547 18.059 78.2795 21.3498C78.4812 23.3779 78.1731 25.3334 77.2435 27.1492C75.457 30.6356 72.5505 32.5297 68.6752 32.971C68.496 32.9934 68.3168 32.999 68.1376 33.0101C67.9696 33.0101 67.8016 33.0101 67.6392 33.0101ZM73.6314 22.3778C73.6314 21.009 73.3066 19.8301 72.6345 18.7518C70.4561 15.2487 65.4831 14.9972 62.9742 18.2657C61.2213 20.5453 61.1709 23.9702 62.851 26.3335C64.9903 29.3506 69.3136 29.6746 71.8673 26.9928C73.0938 25.7078 73.6314 24.1434 73.6314 22.3778Z" fill="#F4B400"/>
<path d="M44.6279 11.7393C48.4585 11.8901 51.6394 13.5216 53.7115 17.0414C54.8819 19.0249 55.2627 21.1983 55.0443 23.4834C54.8259 25.7238 54.0083 27.724 52.5074 29.4113C50.3849 31.7971 47.6912 32.9983 44.5103 33.0039C40.4838 33.0039 37.3141 31.3333 35.1916 27.8805C32.8955 24.1427 33.0691 18.4047 36.8828 14.7284C38.5405 13.1305 40.5342 12.1974 42.8191 11.8678C43.3567 11.7895 43.8943 11.7784 44.6279 11.7393ZM50.4017 22.1537C50.413 21.3994 50.2225 20.4384 49.8137 19.5221C48.0553 15.5273 42.7743 14.7116 39.9462 18.0024C38.0645 20.1926 37.8629 23.6901 39.4757 26.1317C41.7102 29.5231 46.4536 29.7466 48.9961 26.5731C49.9761 25.3551 50.4017 23.9471 50.4017 22.1537Z" fill="#DB4437"/>
<path d="M24.4167 15.0193C26.7576 15.0193 29.0985 15.0193 31.4394 15.0193C31.5458 15.0193 31.6522 15.0248 31.753 15.0193C31.9602 15.0081 32.0498 15.1142 32.0722 15.3098C32.117 15.7121 32.1898 16.1088 32.2178 16.511C32.397 19.0923 32.0946 21.6121 31.1594 24.0425C30.3306 26.2047 28.9641 27.9758 27.2112 29.4676C25.0272 31.3225 22.5127 32.4232 19.679 32.831C16.5093 33.2836 13.4067 33.0601 10.4554 31.7807C4.65922 29.272 1.10309 24.9141 0.179053 18.6509C-0.520972 13.8962 0.851078 9.63885 3.95359 5.96252C6.33928 3.12984 9.36339 1.30844 12.9587 0.43126C14.7956 -0.0157109 16.6605 -0.0883436 18.5365 0.0904446C21.415 0.358627 24.0079 1.35872 26.3432 3.04604C26.8808 3.43714 27.3905 3.85617 27.8721 4.30314C28.0345 4.45399 28.0681 4.57132 27.8945 4.74453C26.9704 5.68316 26.0576 6.63298 25.1336 7.5772C24.9432 7.77275 24.932 7.76158 24.6632 7.52133C23.5207 6.50447 22.2327 5.72227 20.7878 5.20826C19.3262 4.69424 17.8197 4.48752 16.274 4.56574C13.0315 4.72218 10.293 5.99046 8.09215 8.36499C6.54649 10.03 5.55525 11.9966 5.16884 14.2371C4.54161 17.8575 5.29204 21.1763 7.58813 24.0816C9.34099 26.3053 11.6483 27.6853 14.4316 28.2328C16.8845 28.7189 19.3038 28.5513 21.6222 27.5847C23.6719 26.7299 25.3352 25.3946 26.4216 23.4223C27.0376 22.3105 27.3625 21.0981 27.5529 19.841C27.5921 19.5672 27.5753 19.5504 27.2561 19.5504C26.3544 19.5448 25.4584 19.5392 24.5568 19.5392C22.1879 19.5392 19.8134 19.5392 17.4445 19.5392C17.3269 19.5392 17.2037 19.5337 17.0861 19.5392C16.8789 19.5504 16.7893 19.4666 16.7893 19.2487C16.7949 17.9302 16.7949 16.6116 16.7893 15.2986C16.7893 15.0863 16.8733 15.0081 17.0805 15.0137C17.4557 15.0248 17.8309 15.0137 18.2061 15.0137C20.2782 15.0193 22.3503 15.0193 24.4167 15.0193Z" fill="#4285F4"/>
</svg>
