<svg width="20" height="25" viewBox="0 0 20 25" fill="none" xmlns="http://www.w3.org/2000/svg">
<path d="M2.22661 24.6011L2.23231 24.2049H2.42332C2.75784 24.2049 3.02963 24.1597 3.2387 24.0692C3.44967 23.9787 3.60553 23.8458 3.70626 23.6703C3.807 23.493 3.85736 23.2732 3.85736 23.0109C3.85736 22.7449 3.80795 22.5233 3.70911 22.346C3.61028 22.1669 3.45728 22.0321 3.25011 21.9417C3.04484 21.8512 2.77875 21.806 2.45183 21.806H2.26082L2.25512 21.4098H2.45754C2.91939 21.4098 3.29192 21.4776 3.57512 21.6133C3.85831 21.749 4.06453 21.9371 4.19378 22.1777C4.32492 22.4166 4.39049 22.6943 4.39049 23.0109C4.39049 23.3148 4.32587 23.5871 4.19663 23.8277C4.06928 24.0665 3.86116 24.2555 3.57227 24.3948C3.28527 24.5323 2.90039 24.6011 2.41762 24.6011H2.22661ZM1.97287 24.6011C1.60985 24.6011 1.30289 24.5613 1.05201 24.4817C0.801123 24.4021 0.597753 24.2908 0.4419 24.1479C0.287948 24.0032 0.17581 23.8349 0.105486 23.6431C0.035162 23.4496 0 23.2388 0 23.0109C0 22.6943 0.0646221 22.4166 0.193866 22.1777C0.32311 21.9371 0.52933 21.749 0.812527 21.6133C1.09762 21.4776 1.4711 21.4098 1.93296 21.4098H2.13253L2.12682 21.806H1.93581C1.6127 21.806 1.34756 21.8512 1.14039 21.9417C0.933217 22.0321 0.780215 22.1669 0.681382 22.346C0.582548 22.5233 0.533132 22.7449 0.533132 23.0109C0.533132 23.2732 0.582548 23.493 0.681382 23.6703C0.782116 23.8458 0.937969 23.9787 1.14894 24.0692C1.35991 24.1597 1.63171 24.2049 1.96432 24.2049H2.15533L2.16104 24.6011H1.97287ZM1.93581 24.9403C1.93581 24.8408 1.93581 24.8607 1.93581 24.772C1.93581 24.6834 1.93581 24.5929 1.93581 24.5007L1.94721 24.4898C1.94721 24.365 1.94721 24.2374 1.94721 24.1072C1.94721 23.9751 1.94721 23.8376 1.94721 23.6947V22.3161C1.94721 22.1732 1.94721 22.0366 1.94721 21.9064C1.94721 21.7743 1.94721 21.6459 1.94721 21.521L1.93581 21.5102C1.93581 21.4179 1.93581 21.3275 1.93581 21.2388C1.93581 21.1483 1.94721 21.1681 1.94721 21.0704L2.45754 21.0706C2.45754 21.1682 2.45183 21.1483 2.45183 21.2388C2.45183 21.3275 2.45183 21.4179 2.45183 21.5102L2.44043 21.521C2.44043 21.6459 2.44043 21.7743 2.44043 21.9064C2.44043 22.0366 2.44043 22.1732 2.44043 22.3161V23.6947C2.44043 23.8376 2.44043 23.9742 2.44043 24.1045C2.44043 24.2347 2.44043 24.3632 2.44043 24.4898L2.45183 24.5007C2.45183 24.5911 2.45183 24.6816 2.45183 24.772C2.45183 24.8607 2.45754 24.8408 2.45754 24.9403H1.93581Z" fill="#030404"/>
<path d="M4.6061 24.9403C4.68593 24.7322 4.7686 24.5133 4.85413 24.2836C4.94156 24.0538 5.02519 23.8358 5.10502 23.6296L5.60964 22.2999C5.69897 22.0611 5.7807 21.8458 5.85482 21.654C5.92895 21.4604 6.00307 21.2659 6.0772 21.0706H6.75573C6.82986 21.2696 6.90303 21.4649 6.97525 21.6567C7.04748 21.8485 7.12826 22.0638 7.21759 22.3026L7.71936 23.635C7.79919 23.8485 7.88091 24.0683 7.96454 24.2944C8.05007 24.5188 8.1318 24.7341 8.20972 24.9403H7.67374C7.59201 24.7142 7.50744 24.4817 7.42001 24.2429C7.33448 24.0023 7.2537 23.7761 7.17767 23.5645L6.43642 21.5129H6.38796L5.641 23.5455C5.55927 23.7662 5.47469 23.9977 5.38726 24.2402C5.29983 24.4808 5.21336 24.7142 5.12783 24.9403H4.6061ZM5.35875 23.9688L5.40437 23.5834H7.46277L7.49983 23.9688H5.35875Z" fill="#030404"/>
<path d="M8.90211 24.9403C8.90211 24.725 8.90211 24.5179 8.90211 24.3189C8.90211 24.1199 8.90211 23.901 8.90211 23.6621V22.3623C8.90211 22.1217 8.90211 21.9 8.90211 21.6974C8.90211 21.4948 8.90211 21.2858 8.90211 21.0706C9.05606 21.0706 9.25468 21.0706 9.49796 21.0706C9.74315 21.0706 10.0235 21.0706 10.339 21.0706C10.6488 21.0706 10.9044 21.1095 11.1059 21.1872C11.3093 21.265 11.4613 21.3863 11.5621 21.5509C11.6628 21.7137 11.7132 21.9227 11.7132 22.1777C11.7132 22.4147 11.6666 22.6255 11.5735 22.81C11.4822 22.9928 11.3283 23.1366 11.1116 23.2415C10.8968 23.3464 10.6032 23.3989 10.2307 23.3989C10.1356 23.3989 10.0339 23.3989 9.92561 23.3989C9.81727 23.3989 9.71179 23.3989 9.60915 23.3989C9.50652 23.3989 9.41718 23.3989 9.34116 23.3989V22.9919H10.1337C10.377 22.9919 10.5756 22.9647 10.7296 22.9104C10.8854 22.8562 11.0004 22.7693 11.0745 22.6499C11.1487 22.5305 11.1857 22.374 11.1857 22.1805C11.1857 22.0213 11.1582 21.8946 11.1031 21.8005C11.0498 21.7065 10.9786 21.6368 10.8892 21.5916C10.8018 21.5445 10.7068 21.5138 10.6041 21.4993C10.5015 21.4848 10.4017 21.4776 10.3048 21.4776H9.1587L9.40958 21.1411C9.40958 21.3582 9.40958 21.5681 9.40958 21.7707C9.40958 21.9715 9.40958 22.1922 9.40958 22.4328V23.6621C9.40958 23.901 9.40958 24.1199 9.40958 24.3189C9.40958 24.5179 9.40958 24.725 9.40958 24.9403H8.90211Z" fill="#030404"/>
<path d="M14.2987 25C13.9547 25 13.6535 24.9475 13.395 24.8426C13.1365 24.7359 12.9208 24.5902 12.7478 24.4057C12.5767 24.2194 12.4484 24.0059 12.3629 23.7653C12.2774 23.5246 12.2346 23.2705 12.2346 23.0027C12.2346 22.6264 12.3145 22.2872 12.4741 21.9851C12.6357 21.6829 12.8685 21.4432 13.1726 21.2659C13.4767 21.0886 13.8464 21 14.2816 21C14.6123 21 14.9041 21.0516 15.1569 21.1547C15.4116 21.2578 15.6254 21.4007 15.7983 21.5834C15.9713 21.7662 16.1015 21.9787 16.1889 22.2212C16.2764 22.4636 16.3201 22.7232 16.3201 23C16.3201 23.3817 16.2402 23.7237 16.0806 24.0258C15.9209 24.3261 15.69 24.564 15.3878 24.7395C15.0856 24.9132 14.7226 25 14.2987 25ZM14.2845 24.5767C14.5449 24.5767 14.7691 24.5341 14.9573 24.4491C15.1455 24.3623 15.3004 24.2447 15.422 24.0963C15.5456 23.948 15.6368 23.7797 15.6957 23.5916C15.7546 23.4016 15.7841 23.2044 15.7841 23C15.7841 22.7793 15.7518 22.5739 15.6872 22.384C15.6244 22.1922 15.5294 22.0249 15.4021 21.882C15.2766 21.7372 15.1208 21.6251 14.9345 21.5455C14.7482 21.464 14.5316 21.4233 14.2845 21.4233C14.0298 21.4233 13.8074 21.4659 13.6173 21.5509C13.4292 21.6359 13.2724 21.7526 13.1469 21.9009C13.0215 22.0475 12.9274 22.2157 12.8647 22.4057C12.802 22.5938 12.7706 22.7919 12.7706 23C12.7706 23.2099 12.801 23.4089 12.8618 23.597C12.9227 23.7852 13.0148 23.9534 13.1384 24.1018C13.2638 24.2483 13.4216 24.3641 13.6116 24.4491C13.8017 24.5341 14.026 24.5767 14.2845 24.5767Z" fill="#030404"/>
<path d="M16.8839 24.9403V24.6038C16.9808 24.4989 17.0892 24.3813 17.2089 24.251C17.3305 24.119 17.4541 23.9851 17.5795 23.8494C17.7069 23.7119 17.8238 23.5853 17.9302 23.4695L18.4833 22.867V23.0923L17.8903 22.4437C17.7363 22.2754 17.5843 22.1099 17.4341 21.9471C17.284 21.7825 17.131 21.6151 16.9751 21.445V21.0706H19.9287V21.4939C19.6417 21.4939 19.3642 21.4939 19.0962 21.4939C18.8302 21.4939 18.5774 21.4939 18.3379 21.4939H17.4142L17.514 21.3256L18.0585 21.9254C18.2162 22.0991 18.3759 22.2754 18.5375 22.4545C18.7009 22.6318 18.8596 22.8046 19.0136 22.9729C18.8501 23.1483 18.681 23.3302 18.5061 23.5183C18.3331 23.7047 18.1649 23.8856 18.0015 24.0611L17.4341 24.6771L17.3629 24.5034H18.2951C18.4643 24.5034 18.6515 24.5034 18.8568 24.5034C19.0639 24.5034 19.2673 24.5034 19.4669 24.5034C19.6683 24.5034 19.846 24.5034 20 24.5034V24.9403H16.8839Z" fill="#030404"/>
<path d="M20 19H0V20.0002H20V19Z" fill="#B3B3B3"/>
<path d="M15 18.9997H5L5.1078 17.7844L5.44066 14.0455L5.72681 10.8226L6.05917 7.08318L6.18684 5.64582L6.22858 5.1792H13.7714L13.8127 5.64582L13.9865 7.60032L14.2538 10.6071L14.5638 14.096L14.8311 17.1022L15 18.9997Z" fill="#E6E6E6"/>
<path d="M9.99949 0L6.75 1.31434H13.249L9.99949 0Z" fill="#F93030"/>
<path d="M12.6342 1.31445H7.36816V3.8651H12.6342V1.31445Z" fill="#E6E6E6"/>
<path d="M14.8311 17.1025L9.96746 18.9999H5L5.1078 17.7846L14.5638 14.0962L14.8311 17.1025Z" fill="#F93030"/>
<path d="M14.2546 10.6074L5.44141 14.0457L5.72756 10.8229L13.9873 7.60059L14.2546 10.6074Z" fill="#F93030"/>
<path d="M10.9391 5.1792L6.05859 7.08318L6.228 5.1792H10.9391Z" fill="#F93030"/>
<path d="M8.22792 1.69971H7.59863V3.4335H8.22792V1.69971Z" fill="#2D4151"/>
<path d="M11.2748 1.69824H8.72461V3.43204H11.2748V1.69824Z" fill="#2D4151"/>
<path d="M12.4008 1.69824H11.7715V3.43204H12.4008V1.69824Z" fill="#2D4151"/>
<path opacity="0.34" d="M13.8133 5.64582H6.1875L6.22923 5.1792H13.7721L13.8133 5.64582Z" fill="#2D4151"/>
<path d="M8.8767 16.0845V18.9998H6.12793V16.0845C6.12793 15.7049 6.27945 15.3613 6.52537 15.1113C6.77426 14.8582 7.12003 14.7012 7.50207 14.7012C8.26117 14.7012 8.8767 15.3203 8.8767 16.0845Z" fill="#2D4151"/>
<path d="M7.73357 14.7212C7.44444 14.7702 7.1861 14.9107 6.98888 15.1113C6.74296 15.3613 6.59144 15.7049 6.59144 16.0845V18.9998H6.12793V16.0845C6.12793 15.7049 6.27945 15.3613 6.52537 15.1113C6.77426 14.8582 7.12003 14.7012 7.50206 14.7012C7.58105 14.7012 7.65855 14.7077 7.73357 14.7212Z" fill="#B3B3B3"/>
<path opacity="0.34" d="M12.6342 1.31445H7.36816V1.61453H12.6342V1.31445Z" fill="#2D4151"/>
<path opacity="0.2" d="M8.87305 3.32843H11.1289V2.0293C11.1289 2.0293 10.7666 3.16929 8.87305 3.32843Z" fill="#FCFAFA"/>
<path d="M14.4544 3.79346H5.5459V5.24888H14.4544V3.79346Z" fill="#B3B3B3"/>
<path d="M6.12891 4.90291V4.14746H6.2227V4.81843H6.61641V4.90291C6.61641 4.90291 6.12891 4.90291 6.12891 4.90291Z" fill="white"/>
<path d="M6.88672 4.89851V4.14307H6.98051V4.89851H6.88672Z" fill="white"/>
<path d="M7.27344 4.52058C7.27344 4.4021 7.30225 4.30688 7.35983 4.23481C7.41825 4.16359 7.4956 4.12793 7.59188 4.12793C7.66347 4.12793 7.72681 4.15029 7.78196 4.19505C7.83705 4.24061 7.87083 4.29857 7.88315 4.36899L7.78936 4.37894C7.78111 4.33093 7.75806 4.29117 7.7202 4.25966C7.68319 4.22821 7.64042 4.21245 7.59188 4.21245C7.52357 4.21245 7.46927 4.24061 7.42893 4.29692C7.3878 4.35244 7.36723 4.42701 7.36723 4.52058C7.36723 4.6117 7.3878 4.68502 7.42893 4.74049C7.46927 4.79515 7.52357 4.82251 7.59188 4.82251C7.65438 4.82251 7.7046 4.801 7.74246 4.75789C7.78032 4.71563 7.79924 4.65892 7.79924 4.5877H7.59188V4.49447H7.89304V4.87967H7.82637L7.81281 4.7989C7.78891 4.83371 7.75682 4.86062 7.71653 4.87967C7.67783 4.89788 7.6363 4.90698 7.59188 4.90698C7.4956 4.90698 7.41825 4.87177 7.35983 4.80135C7.3022 4.73098 7.27344 4.63736 7.27344 4.52058Z" fill="white"/>
<path d="M8.19434 4.89851V4.14307H8.28813V4.45495H8.66336V4.14307H8.75715V4.89851H8.66336V4.53942H8.28813V4.89851H8.19434Z" fill="white"/>
<path d="M9.02734 4.22754V4.14307H9.59015V4.22754H9.35443V4.89851H9.26063V4.22754H9.02734Z" fill="white"/>
<path d="M9.8584 4.89851V4.14307H9.95219V4.45495H10.3274V4.14307H10.4212V4.89851H10.3274V4.53942H9.95219V4.89851H9.8584Z" fill="white"/>
<path d="M10.7129 4.52058C10.7129 4.4021 10.7437 4.30688 10.8054 4.23481C10.8672 4.16359 10.949 4.12793 11.0511 4.12793C11.1531 4.12793 11.2345 4.16354 11.2954 4.23481C11.3571 4.30688 11.388 4.40215 11.388 4.52058C11.388 4.63736 11.3571 4.73098 11.2954 4.8014C11.2345 4.87182 11.153 4.90703 11.0511 4.90703C10.949 4.90703 10.8671 4.87182 10.8054 4.8014C10.7437 4.73098 10.7129 4.63736 10.7129 4.52058ZM10.8067 4.52058C10.8067 4.6117 10.8289 4.68502 10.8734 4.74049C10.9178 4.79515 10.977 4.82251 11.0511 4.82251C11.1243 4.82251 11.1832 4.7952 11.2276 4.74049C11.2721 4.68502 11.2943 4.6117 11.2943 4.52058C11.2943 4.42696 11.2721 4.35244 11.2276 4.29692C11.1832 4.24061 11.1243 4.21245 11.0511 4.21245C10.977 4.21245 10.9178 4.24061 10.8734 4.29692C10.8289 4.35239 10.8067 4.42696 10.8067 4.52058Z" fill="white"/>
<path d="M11.6699 4.67235V4.14307H11.7637V4.67235C11.7637 4.71711 11.783 4.75397 11.8217 4.78293C11.8579 4.80944 11.9011 4.82269 11.9513 4.82269C12.0015 4.82269 12.0447 4.80944 12.0809 4.78293C12.1196 4.75392 12.1389 4.71706 12.1389 4.67235V4.14307H12.2327V4.67235C12.2327 4.74112 12.2039 4.79788 12.1463 4.84259C12.092 4.88566 12.027 4.90721 11.9513 4.90721C11.8756 4.90721 11.8106 4.88566 11.7563 4.84259C11.6987 4.79788 11.6699 4.74112 11.6699 4.67235Z" fill="white"/>
<path d="M12.5049 4.64361H12.5987C12.5987 4.70078 12.616 4.74634 12.6505 4.7803C12.6842 4.8151 12.7295 4.83246 12.7863 4.83246C12.843 4.83246 12.8883 4.81966 12.922 4.79395C12.9566 4.76829 12.9739 4.73388 12.9739 4.69082C12.9739 4.65191 12.9537 4.62086 12.9134 4.59765C12.8838 4.58105 12.8414 4.56779 12.7863 4.55789C12.713 4.54464 12.6525 4.52023 12.6048 4.48457C12.5505 4.44316 12.5234 4.3922 12.5234 4.33173C12.5234 4.27042 12.5472 4.22115 12.595 4.18384C12.6426 4.14653 12.7064 4.12793 12.7863 4.12793C12.8661 4.12793 12.9298 4.14989 12.9776 4.1938C13.0253 4.23771 13.0492 4.29612 13.0492 4.36899H12.9553C12.9471 4.32178 12.9278 4.28367 12.8973 4.25466C12.8661 4.22651 12.829 4.2124 12.7863 4.2124C12.7352 4.2124 12.6941 4.22315 12.6629 4.24471C12.6324 4.26626 12.6172 4.29527 12.6172 4.33168C12.6172 4.36979 12.6349 4.4017 12.6703 4.42736C12.6999 4.44971 12.7386 4.46507 12.7863 4.47332C12.8677 4.48742 12.9315 4.50893 12.9776 4.53793C13.0376 4.57439 13.0676 4.62241 13.0676 4.68207C13.0676 4.75329 13.0421 4.81005 12.9911 4.85226C12.9393 4.89538 12.871 4.91688 12.7863 4.91688C12.7015 4.91688 12.6332 4.89202 12.5814 4.84231C12.5304 4.7927 12.5049 4.72648 12.5049 4.64361Z" fill="white"/>
<path d="M13.3525 4.89851V4.14307H13.8685V4.23254H13.4464V4.46365H13.8216V4.55312H13.4464V4.80909H13.8685V4.89856H13.3525V4.89851V4.89851Z" fill="white"/>
</svg>
