<svg width="50" height="50" viewBox="0 0 50 50" fill="none" xmlns="http://www.w3.org/2000/svg">
<g clip-path="url(#clip0)">
<path d="M50 25.1517V32.0652C50 33.2658 49.0267 34.2391 47.8261 34.2391H39.1304H2.17391C0.973261 34.2391 0 33.2658 0 32.0652V13.5869C0 12.3863 0.973261 11.413 2.17391 11.413H36.9565C38.1572 11.413 39.1304 12.3863 39.1304 13.5869H41.3043V13.0435C41.3043 12.7434 41.5477 12.5 41.8478 12.5H42.9348C43.2349 12.5 43.4783 12.7434 43.4783 13.0435V16.3043C43.4783 16.6044 43.2349 16.8478 42.9348 16.8478H41.8478C41.5477 16.8478 41.3043 16.6044 41.3043 16.3043V14.6739H39.1304V20.3045C39.1304 20.8227 39.4962 21.2688 40.0042 21.3704L48.2524 23.0201C49.2686 23.2232 50 24.1154 50 25.1517Z" fill="#6C6559"/>
<path d="M42.9346 16.8478H41.8477C41.5476 16.8478 41.3042 16.6045 41.3042 16.3044V13.0435C41.3042 12.7434 41.5476 12.5 41.8477 12.5H42.9346C43.2347 12.5 43.4781 12.7434 43.4781 13.0435V16.3044C43.4781 16.6045 43.2347 16.8478 42.9346 16.8478Z" fill="#454748"/>
<path d="M50 24.5546V30.9782H48.4965C48.0896 30.9782 47.7072 30.8015 47.4276 30.5058C46.437 29.4581 45.034 28.8043 43.4783 28.8043C41.2499 28.8043 39.3358 30.1461 38.497 32.0652H19.1117C18.2729 30.1461 16.3589 28.8043 14.1304 28.8043C11.902 28.8043 9.98793 30.1461 9.14913 32.0652H0V12.8587C0 12.0603 0.647283 11.413 1.44565 11.413H37.6848C38.4831 11.413 39.1304 12.0603 39.1304 12.8587V20.3045C39.1304 20.8227 39.4962 21.2688 40.0042 21.3704L48.8378 23.1371C49.5136 23.2723 50 23.8656 50 24.5546Z" fill="#E5B352"/>
<path d="M18.4784 34.2391C18.4784 36.6403 16.5317 38.587 14.1305 38.587C11.7293 38.587 9.78271 36.6403 9.78271 34.2391C9.78271 31.8379 11.7293 29.8913 14.1305 29.8913C16.5317 29.8913 18.4784 31.8379 18.4784 34.2391ZM43.4784 29.8913C41.0772 29.8913 39.1305 31.8379 39.1305 34.2391C39.1305 36.6403 41.0772 38.587 43.4784 38.587C45.8796 38.587 47.8262 36.6403 47.8262 34.2391C47.8262 31.8379 45.8796 29.8913 43.4784 29.8913Z" fill="#454748"/>
<path d="M16.3044 34.2392C16.3044 35.4398 15.3311 36.4131 14.1305 36.4131C12.9298 36.4131 11.9565 35.4398 11.9565 34.2392C11.9565 33.0385 12.9298 32.0652 14.1305 32.0652C15.3311 32.0652 16.3044 33.0385 16.3044 34.2392ZM43.4783 32.0652C42.2776 32.0652 41.3044 33.0385 41.3044 34.2392C41.3044 35.4398 42.2776 36.4131 43.4783 36.4131C44.6789 36.4131 45.6522 35.4398 45.6522 34.2392C45.6522 33.0385 44.6789 32.0652 43.4783 32.0652Z" fill="#A6A293"/>
<path d="M13.0434 21.1956H3.26078C2.66046 21.1956 2.17383 20.709 2.17383 20.1087V15.7608C2.17383 15.1605 2.66046 14.6739 3.26078 14.6739H13.0434C13.6437 14.6739 14.1303 15.1605 14.1303 15.7608V20.1087C14.1303 20.709 13.6437 21.1956 13.0434 21.1956ZM27.1738 20.1087V15.7608C27.1738 15.1605 26.6872 14.6739 26.0869 14.6739H16.3043C15.7039 14.6739 15.2173 15.1605 15.2173 15.7608V20.1087C15.2173 20.709 15.7039 21.1956 16.3043 21.1956H26.0869C26.6872 21.1956 27.1738 20.709 27.1738 20.1087Z" fill="#454748"/>
<path d="M12.5004 20.1087H3.80471C3.5046 20.1087 3.26123 19.8653 3.26123 19.5652V16.3043C3.26123 16.0042 3.5046 15.7609 3.80471 15.7609H12.5004C12.8005 15.7609 13.0438 16.0042 13.0438 16.3043V19.5652C13.0438 19.8653 12.8005 20.1087 12.5004 20.1087ZM26.0873 19.5652V16.3043C26.0873 16.0042 25.8439 15.7609 25.5438 15.7609H16.8482C16.5481 15.7609 16.3047 16.0042 16.3047 16.3043V19.5652C16.3047 19.8653 16.5481 20.1087 16.8482 20.1087H25.5438C25.8439 20.1087 26.0873 19.8653 26.0873 19.5652Z" fill="#555859"/>
<path d="M27.1739 24.6739V25.326C27.1739 25.4462 27.0766 25.5434 26.9565 25.5434H0V24.4565H26.9565C27.0766 24.4565 27.1739 24.5538 27.1739 24.6739ZM26.9565 26.6304H0V27.7174H26.9565C27.0766 27.7174 27.1739 27.6201 27.1739 27.5V26.8478C27.1739 26.7277 27.0766 26.6304 26.9565 26.6304Z" fill="#454748"/>
<path d="M46.7388 26.6304C46.7388 26.0301 47.2254 25.5435 47.8257 25.5435H49.9996V27.7174H47.8257C47.2254 27.7174 46.7388 27.2307 46.7388 26.6304Z" fill="#CE7341"/>
<path d="M30.4351 14.6739H35.8699C36.4702 14.6739 36.9569 15.1605 36.9569 15.7608V34.2391H29.3481V15.7608C29.3481 15.1605 29.8348 14.6739 30.4351 14.6739Z" fill="#454748"/>
<path d="M32.6085 15.7609V34.2391H30.4346V16.3043C30.4346 16.0042 30.6779 15.7609 30.978 15.7609H32.6085ZM35.3259 15.7609H33.6954V34.2391H35.8694V16.3043C35.8694 16.0042 35.626 15.7609 35.3259 15.7609Z" fill="#555859"/>
</g>
<defs>
<clipPath id="clip0">
<rect width="50" height="50" fill="white"/>
</clipPath>
</defs>
</svg>
