<svg width="51" height="17" viewBox="0 0 51 17" fill="none" xmlns="http://www.w3.org/2000/svg">
<path d="M13.1809 13.7301C13.1167 13.7212 13.0675 13.6622 13.0676 13.5911C13.0676 13.5128 13.1259 13.4487 13.1985 13.4482L21.588 13.3911C21.6612 13.3907 21.7191 13.4537 21.7196 13.5322C21.7198 13.6099 21.6608 13.674 21.5883 13.6744L13.1988 13.7316C13.1926 13.7312 13.187 13.731 13.1809 13.7301Z" fill="#030404"/>
<path d="M14.5761 14.8752C14.5124 14.8663 14.4631 14.8079 14.4627 14.7361C14.4621 14.6582 14.5205 14.5941 14.593 14.5937L19.4061 14.5414C19.4777 14.5402 19.5373 14.6029 19.5378 14.6814C19.538 14.7592 19.4796 14.8232 19.407 14.8243L14.5945 14.8761C14.5883 14.8763 14.5821 14.876 14.5761 14.8752Z" fill="#030404"/>
<path d="M12.9026 14.8933C12.8389 14.8844 12.7896 14.826 12.7892 14.7542C12.7886 14.6765 12.847 14.6124 12.9195 14.6118L14.0433 14.5993C14.1153 14.5987 14.1744 14.6614 14.175 14.7391C14.1751 14.8175 14.1167 14.8817 14.0441 14.8822L12.921 14.8942C12.9148 14.8944 12.9086 14.8942 12.9026 14.8933Z" fill="#030404"/>
<path d="M11.823 14.9049C11.7593 14.8962 11.71 14.8375 11.7097 14.766C11.7091 14.688 11.7674 14.624 11.84 14.6236L12.4199 14.617C12.492 14.6158 12.5516 14.6791 12.5517 14.7568C12.5522 14.8354 12.4938 14.8994 12.4213 14.8998L11.8414 14.9058C11.8352 14.9062 11.8291 14.9057 11.823 14.9049Z" fill="#030404"/>
<path d="M36.0403 12.748C35.9761 12.7391 35.9264 12.68 35.927 12.6079C35.927 12.5295 35.9863 12.4667 36.0583 12.4661L36.9054 12.4651C36.9776 12.4645 37.0365 12.5283 37.0361 12.6065C37.0355 12.6848 36.9767 12.7483 36.9043 12.7482L36.057 12.7493C36.0514 12.749 36.0458 12.7488 36.0403 12.748Z" fill="#030404"/>
<path d="M33.3946 12.7516C33.3304 12.7426 33.2807 12.6835 33.2814 12.6114C33.2813 12.5331 33.3406 12.4697 33.4126 12.4697L35.3527 12.4678C35.4243 12.4672 35.4837 12.5305 35.4833 12.6088C35.4829 12.687 35.4241 12.7505 35.3516 12.7504L33.4113 12.7528C33.4057 12.7526 33.4 12.7523 33.3946 12.7516Z" fill="#030404"/>
<path d="M16.9952 12.7703C16.9311 12.7613 16.8813 12.7022 16.882 12.6301C16.882 12.5518 16.9413 12.4884 17.0133 12.4884L32.6258 12.4702C32.6975 12.4696 32.7563 12.5334 32.7565 12.6117C32.7559 12.69 32.6971 12.7535 32.6246 12.7534L17.0121 12.7715C17.0064 12.7713 17.0008 12.771 16.9952 12.7703Z" fill="#030404"/>
<path d="M40.1577 12.7528C40.0941 12.744 40.0447 12.686 40.0444 12.6143C40.0436 12.5364 40.1021 12.4723 40.1742 12.4713L43.209 12.4267C43.2815 12.4262 43.3406 12.4878 43.3413 12.5661C43.3419 12.644 43.2835 12.7081 43.2113 12.7097L40.1767 12.7538C40.1699 12.754 40.1637 12.7537 40.1577 12.7528Z" fill="#030404"/>
<path d="M23.7683 14.4488L23.5728 14.4488L23.4301 16.1271L24.0814 16.1259L24.113 15.7521L24.6032 15.7513L24.5153 16.7817L22.5694 16.7833L22.6241 16.1404L22.7955 16.1399L22.9391 14.4495L22.7678 14.4496L22.8225 13.8062L23.823 13.8053L23.7683 14.4488Z" fill="#030404"/>
<path d="M26.185 16.1238L26.3276 14.446L26.0806 14.4461L26.1353 13.8028L27.2012 13.8016L27.1463 14.4449L26.9612 14.4453L26.808 16.2494C26.8026 16.3141 26.788 16.3776 26.7644 16.4405C26.7405 16.5038 26.7083 16.5604 26.6676 16.6108C26.6268 16.6618 26.5765 16.702 26.5166 16.7332C26.4572 16.7644 26.3884 16.7792 26.3108 16.7796L25.3001 16.7807C25.227 16.7805 25.1635 16.7662 25.1101 16.7364C25.0565 16.7075 25.0131 16.668 24.9797 16.619C24.9462 16.5697 24.9218 16.513 24.9068 16.4488C24.8921 16.3845 24.8873 16.3183 24.8926 16.2514L25.0499 14.4473L24.8852 14.4471L24.9401 13.8038L25.9539 13.8025L25.8991 14.446L25.6799 14.4466L25.5374 16.1244L26.185 16.1238Z" fill="#030404"/>
<path d="M29.062 15.4396L29.1467 14.4433L28.9719 14.4434L29.0266 13.7999L29.9035 13.7991L29.8489 14.4426L29.6502 14.4427L29.4504 16.793L28.8578 16.7939L28.0383 14.9906L28.0214 14.9905L27.9241 16.1347L28.0989 16.1346L28.0442 16.7779L27.2217 16.7786L27.2764 16.1351L27.4514 16.135L27.5949 14.4446L27.4201 14.4449L27.4748 13.8013L28.2834 13.8006L29.0451 15.4396L29.062 15.4396Z" fill="#030404"/>
<path d="M31.1246 14.5502L30.8406 15.3496L31.2794 15.3489L31.1451 14.5503L31.1246 14.5502ZM31.3879 15.8872L30.6477 15.8875L30.5619 16.1316L30.8222 16.1312L30.7673 16.7747L29.8358 16.7756L29.8907 16.1323L30.0516 16.1324L30.9584 13.7683L31.6367 13.7676L32.1275 16.13L32.2922 16.1301L32.2373 16.7736L31.0863 16.7746L31.141 16.1313L31.4321 16.1312L31.3879 15.8872Z" fill="#030404"/>
<path d="M34.4179 14.451L34.3733 14.9765L34.9046 14.9765L34.9493 14.4505L34.4179 14.451ZM33.7787 14.4389L33.6037 14.4395L33.6586 13.7955L35.2344 13.7941C35.3028 13.7942 35.3623 13.808 35.4124 13.8361C35.4624 13.8642 35.503 13.9009 35.5347 13.9475C35.5661 13.9935 35.588 14.0461 35.6001 14.1049C35.6123 14.1638 35.6158 14.2226 35.6112 14.2814L35.5411 15.1016C35.5363 15.1604 35.5223 15.2207 35.5001 15.2826C35.4774 15.3445 35.4469 15.4007 35.4085 15.4531C35.3697 15.5049 35.3226 15.5479 35.2676 15.5813C35.212 15.6147 35.1487 15.632 35.0782 15.6316L34.3174 15.6324L34.2753 16.1289L34.4877 16.1288L34.4331 16.7723L33.4053 16.7733L33.4602 16.1298L33.635 16.1297L33.7787 14.4389Z" fill="#030404"/>
<path d="M36.7022 14.5453L36.4182 15.3447L36.8571 15.3439L36.7227 14.5454L36.7022 14.5453ZM36.9655 15.8823L36.2254 15.8828L36.1395 16.1269L36.3998 16.1263L36.345 16.7698L35.4135 16.7707L35.4683 16.1274L35.6292 16.1274L36.536 13.7634L37.2143 13.7627L37.7052 16.1251L37.8698 16.1252L37.815 16.7687L36.6639 16.7697L36.7186 16.1264L37.0097 16.1263L36.9655 15.8823Z" fill="#030404"/>
<path d="M39.0366 14.4461L38.9991 14.8876L39.5299 14.887L39.5673 14.4455L39.0366 14.4461ZM39.0514 15.5225L38.9449 15.5227L38.8938 16.124L39.0652 16.1239L39.0104 16.7672L38.024 16.7685L38.0786 16.1249L38.2531 16.1248L38.3966 14.4344L38.2222 14.4347L38.2771 13.7906L39.8531 13.7892C39.9215 13.7893 39.9804 13.8031 40.0308 13.8312C40.0809 13.8594 40.1217 13.896 40.1534 13.9426C40.1847 13.9887 40.2064 14.0412 40.2187 14.1001C40.2308 14.1589 40.2343 14.2177 40.2291 14.2765L40.1634 15.0505C40.1586 15.1093 40.1468 15.1672 40.1285 15.2229C40.1098 15.2793 40.0839 15.3289 40.0508 15.372C40.0171 15.4157 39.9747 15.4516 39.9234 15.4794C39.8716 15.5076 39.8106 15.5221 39.7397 15.5217L39.6888 15.5218L39.8684 16.14L40.1323 16.1394L40.0793 16.766L39.3906 16.7668L39.0514 15.5225Z" fill="#030404"/>
<path d="M41.7774 13.7875L42.7676 13.7863L42.7093 14.4297L42.4558 14.43L42.0327 14.8956L42.4598 16.1204L42.6274 16.1203L42.5726 16.7638L41.5691 16.7648L41.6234 16.1213L41.7572 16.121L41.5227 15.453L41.1745 15.8385L41.1506 16.1262L41.3081 16.1258L41.2539 16.7649L40.2842 16.766L40.3385 16.1271L40.5067 16.1266L40.6503 14.4317L40.4826 14.4323L40.5373 13.7889L41.507 13.7876L41.4523 14.4311L41.2942 14.4313L41.2337 15.1461L41.8699 14.4307L41.7228 14.431L41.7774 13.7875Z" fill="#030404"/>
<path d="M43.0816 2.04474L43.149 1.30255L39.4514 1.39717L39.3707 2.0909L39.9078 2.08277L38.9738 10.1264L38.437 10.1345L38.3565 10.8277L42.0671 10.7821L42.1476 10.0883L41.6108 10.0964L42.5445 2.05285L43.0816 2.04474Z" fill="#F2788F"/>
<path d="M48.8107 2.01033L49.5743 1.30828L46.4656 1.33202L44.5823 1.25625L44.4723 1.26038L44.0455 1.25938L43.9488 2.03859L44.4856 2.03546L43.4886 10.0575L42.9518 10.0606L42.8644 10.7668L43.4013 10.7636L43.4013 10.7647L47.1896 10.7427L47.1898 10.7411L47.7266 10.738L47.8127 10.0456L47.2759 10.0487L48.2739 2.01345L48.8107 2.01033Z" fill="#F2788F"/>
<path d="M20.9637 1.76034L21.0496 1.06793L18.6183 1.08203L16.7244 1.09307L16.1876 1.09619L16.0907 1.87596L16.6275 1.87284L16.5993 2.10055L16.0022 6.90694L15.9749 7.12646C15.8771 7.50837 15.5314 7.76526 15.1578 7.7133C14.8019 7.66381 14.5389 7.35115 14.513 6.97982L14.5498 6.66331L15.0747 2.14351L15.12 1.7543L15.6569 1.74619L15.7136 1.09083L12.0267 1.09862L11.9462 1.79235L12.4831 1.78424L12.0297 5.73626C11.7755 7.78234 12.907 9.76113 14.653 10.3861C14.7727 10.4289 14.8946 10.4658 15.0199 10.4966C15.1402 10.5261 15.2632 10.5498 15.3881 10.5672C15.518 10.5853 15.6468 10.596 15.7748 10.6004C15.8629 10.6032 15.9505 10.6021 16.0378 10.5987C17.8209 10.5283 19.3776 9.0628 19.7579 7.14813C19.7791 7.03944 19.7983 6.93045 19.8122 6.81851C19.8261 6.7071 19.8342 6.59602 19.8403 6.48577L20.4269 1.76346L20.9637 1.76034Z" fill="#F2788F"/>
<path d="M26.9547 6.1709L26.5927 6.18721L25.5987 6.23176L25.8569 4.08736L26.782 4.05438L26.9174 4.06652C27.6682 4.19979 27.8013 4.51105 27.7337 5.21658C27.6806 5.77635 27.3684 6.06957 26.9547 6.1709ZM29.8186 4.91045C29.9366 2.50716 28.2919 1.21524 26.2332 1.11505L24.3423 1.12597L22.4593 1.0502L21.9116 1.14069L21.8255 1.83309L22.3623 1.82997L21.9817 4.89388L21.7806 6.51349L21.3641 9.8652L21.3472 9.86505L20.8273 9.86832L20.7414 10.5607L21.2782 10.5576L21.278 10.5587L25.0665 10.5367L25.0665 10.5356L25.6034 10.5324L25.6895 9.83951L25.1527 9.84263L25.1901 9.54175L25.2659 8.93235L25.7125 8.95838C29.7768 8.88086 29.814 5.00482 29.8186 4.91045Z" fill="#F2788F"/>
<path d="M35.7186 6.12181L35.3566 6.13812L34.3626 6.18265L34.6208 4.03825L35.5459 4.00527L35.6811 4.01741C36.4319 4.1507 36.565 4.46195 36.4974 5.16747C36.4443 5.72724 36.1323 6.02048 35.7186 6.12181ZM38.5823 4.86136C38.7005 2.45805 37.0556 1.16615 34.9971 1.06596L33.1063 1.07688L31.2122 1.08847L30.6754 1.09159L30.5894 1.784L31.1262 1.78088L30.7456 4.84479L30.5444 6.4644L30.1281 9.81609L30.1111 9.81596L29.5912 9.81921L29.5053 10.5116L30.0421 10.5085L30.0419 10.5096L33.8304 10.4876L33.8305 10.4865L34.3673 10.4834L34.4534 9.79042L33.9166 9.79354L33.9539 9.49266L34.0296 8.88326L34.4764 8.90929C38.5408 8.83175 38.5779 4.95571 38.5823 4.86136Z" fill="#F2788F"/>
<path d="M10.68 1.76757L11.1355 1.7648L11.2215 1.0724L6.35942 1.10065L6.27336 1.7936L6.62749 1.79118L5.26784 4.419L4.15912 1.79346L4.57701 1.80768L4.66308 1.11473L1.16011 1.09923L1.0741 1.79163L1.46778 1.78972L3.55779 7.32973L3.22514 10.0076L2.78624 10.0093L2.75266 10.6068L2.95593 10.6056L6.20146 10.5781L6.20158 10.577L6.73888 10.574L6.82491 9.88157L6.28761 9.88461L6.47914 8.18534L10.68 1.76757Z" fill="#F2788F"/>
<path d="M11.2494 1.7773L11.7049 1.77453L11.7909 1.08213L7.33024 1.0051L7.19693 1.80093L5.8373 4.42873L4.72856 1.80319L5.14645 1.81741L5.24476 1.09228L2.12821 1.04219L2.11655 1.11945L2.03722 1.79945L4.12725 7.33946L3.7946 10.0173L3.71895 10.6428L3.32209 10.6165L3.52539 10.6154L6.7709 10.5878L6.77104 10.5867L7.30834 10.5837L7.39435 9.8913L6.85705 9.89436L7.0486 8.19509L11.2494 1.7773Z" fill="#F59CBA"/>
<path d="M43.6745 2.01352L43.7643 1.33608L40.5769 1.36336L40.5007 2.05157L39.5668 10.0952L39.4709 10.9206L42.6601 10.7508L42.7406 10.0571L42.2037 10.0652L43.1375 2.02162L43.6745 2.01352Z" fill="#F59CBA"/>
<path d="M49.3551 2.07967L49.4735 1.2457L47.0428 1.25986L45.1484 1.27084L45.1159 1.41242L44.6116 1.27396L45.1159 1.41242L45.03 2.10481L44.0318 10.14L43.9284 11.0045L43.4088 10.8361L43.9456 10.833L43.9455 10.8341L47.734 10.8121L47.7342 10.8104L48.271 10.8073L48.389 9.97716L47.8522 9.98028L48.8183 2.08279L49.3551 2.07967Z" fill="#F59CBA"/>
<path d="M21.5607 1.81643L21.6468 1.12402L19.2156 1.13812L17.3216 1.14916L16.7848 1.15228L17.3216 1.14916L17.2356 1.84156L17.1964 2.15664L16.5994 6.96303L16.5721 7.18255C16.4742 7.56446 16.1286 7.82135 15.755 7.76939C15.3991 7.7199 15.136 7.40725 15.1102 7.03591L15.1469 6.7194L15.6719 2.1996L15.7063 1.89777L16.2432 1.88965L16.3108 1.14692L13.1871 1.05472L13.0802 1.84033L12.6268 5.79235C12.3727 7.83843 13.5149 9.7304 15.261 10.3554C15.3806 10.3981 15.5026 10.4351 15.6279 10.4653C15.7482 10.4948 15.888 10.5531 16.0129 10.5705C16.1428 10.5885 16.2523 10.626 16.3799 10.6299C16.4685 10.6327 16.5585 10.5714 16.6458 10.5679C18.4289 10.4971 19.9749 9.11889 20.3551 7.20422C20.3763 7.09553 20.3955 6.98654 20.4094 6.87459C20.4232 6.76321 20.4315 6.65213 20.4373 6.54186L21.0241 1.81955L21.5607 1.81643Z" fill="#F59CBA"/>
<path d="M27.5395 6.15384L27.1774 6.17015L26.1834 6.21468L26.4416 4.07028L27.3669 4.0373L27.5021 4.04944C28.2529 4.18273 28.386 4.49398 28.3184 5.1995C28.2653 5.75927 27.9533 6.05249 27.5395 6.15384ZM30.4033 4.89339C30.5213 2.49008 28.8766 1.19818 26.8179 1.09799L24.9271 1.10891L23.0332 1.1205L22.4964 1.12362L23.0332 1.1205L22.9471 1.81288L22.5665 4.87682L22.3654 6.49643L21.8323 10.5796L21.8629 10.5405L21.8627 10.5416L25.6276 10.5196L25.6513 10.5196L25.6515 10.5185L26.1883 10.5154L26.2742 9.82244L25.7374 9.82557L25.7749 9.52469L25.854 8.95354L26.2974 8.94132C30.3616 8.86378 30.3987 4.98774 30.4033 4.89339Z" fill="#F59CBA"/>
<path d="M36.2867 6.14553L35.9248 6.16186L34.9306 6.20639L35.1888 4.06199L36.1141 4.029L36.2493 4.04115C37.0001 4.17444 37.1332 4.48569 37.0656 5.19121C37.0125 5.75098 36.7005 6.0442 36.2867 6.14553ZM30.6101 10.5322L30.6101 10.5333L34.3985 10.5113L34.3987 10.5102L34.9355 10.5071L35.0214 9.81415L34.4848 9.81728L34.5221 9.5164L34.5978 8.907L35.0446 8.93301C39.1089 8.85549 39.1461 4.97945 39.1505 4.88508C39.2685 2.48179 37.6238 1.18987 35.5653 1.0897L33.669 0.948787L31.8086 0.885035L31.3107 0.893562L31.7875 0.97988L31.6943 1.80459L31.3137 4.86853L31.1126 6.48812L30.6962 9.83982L30.5825 10.5351" fill="#F59CBA"/>
<path d="M49.3653 1.99587L48.8285 1.99899L47.8305 10.0342L48.3673 10.0311L48.2812 10.7235L47.7444 10.7266L47.7442 10.7283L42.8664 10.7499L42.9526 10.0575L43.4894 10.0544L43.521 9.79991L44.4625 2.22064L44.4876 2.01914L43.9508 2.02227L44.0367 1.32932L44.5442 1.32657L44.5735 1.3262L46.4676 1.31517L48.8988 1.30107L49.4514 1.30347L49.3653 1.99587ZM38.3567 10.8205L38.4372 10.1273L38.974 10.1192L39.289 7.40997L39.7735 3.23563L39.908 2.07556L39.3715 2.08375L39.452 1.39002L43.2137 1.35206L43.7643 1.33255L43.6749 2.0067L43.1381 2.0148L43.1379 2.01534L42.2565 9.60851L42.2041 10.0584L42.741 10.0503L42.6601 10.7434L38.3567 10.8205ZM38.5038 7.11523C37.9543 8.03204 36.9353 8.89022 35.0445 8.92613L34.5976 8.90012L34.5219 9.50952L34.4846 9.81039L35.0213 9.80727L34.9353 10.4997L34.3985 10.5033L34.3983 10.5044L30.6477 10.4989L30.6107 10.4993L30.0765 10.5023L29.5053 10.5045L29.5914 9.8121L30.1117 9.80891L30.1282 9.80898L30.4013 7.61054L30.5446 6.45727L30.7456 4.83766L30.9589 3.12196L31.1262 1.77375L30.5894 1.77687L30.6756 1.08393L31.2124 1.0808L33.1064 1.06977L34.9977 1.05892C35.1025 1.06405 35.5656 1.08288 35.5656 1.08288C35.7185 1.09026 35.8684 1.1039 36.0166 1.1245C37.3755 1.31346 38.4945 2.05675 38.944 3.32692C39.1035 3.77793 39.1792 4.29506 39.1509 4.87828C39.1482 4.92847 39.1361 6.06054 38.5038 7.11523ZM26.2681 8.93444L26.1445 8.92672C26.0384 8.93695 25.9284 8.94333 25.8164 8.94773L25.7455 9.51727L25.7081 9.81871L26.2449 9.81558L26.159 10.508L25.604 10.5247L25.0666 10.5283L25.0665 10.5294L21.2785 10.5515L21.2787 10.5504L20.7419 10.5535L20.828 9.86054L21.3477 9.85783L21.3648 9.85742L21.7811 6.50627L21.9822 4.88666L22.3302 2.0854L22.3628 1.82275L21.826 1.82587L21.9121 1.13291L23.0039 1.11308L24.8977 1.10205L26.7888 1.09058C26.9416 1.09795 27.0921 1.11221 27.2397 1.13273C28.5587 1.31616 29.652 2.02089 30.1263 3.22396C30.314 3.70055 30.4051 4.25481 30.374 4.88653C30.3715 4.9395 30.3584 6.19252 29.6211 7.29097C29.0494 8.14193 28.0429 8.9002 26.2681 8.93444ZM16.6394 10.5785C16.552 10.5819 15.8741 10.5954 15.7855 10.592C15.6579 10.5881 15.5286 10.5773 15.3992 10.5593C15.2738 10.5419 15.1514 10.5176 15.0311 10.4881C14.9057 10.4579 14.7833 10.4209 14.6637 10.3782C12.9181 9.75326 11.7759 7.8613 12.03 5.81522L12.4543 2.11411L12.4886 1.78836L11.9517 1.79647L12.0321 1.1033L17.3151 1.16023L19.2096 1.14872L21.0911 1.13818L21.6403 1.13456L21.5542 1.8275L21.0176 1.83062L21.0142 1.8574L20.431 6.55293C20.4253 6.66327 20.4167 6.77428 20.4029 6.88567C20.389 6.99706 20.3704 7.10666 20.3486 7.21476C19.9683 9.12996 18.4224 10.5081 16.6394 10.5785ZM11.2481 1.78473L11.1364 1.95528L7.04782 8.20204L6.85627 9.90131L7.39306 9.89819L7.30698 10.5911L6.77018 10.5943L6.77005 10.5954L3.32268 10.5959L2.95614 10.5988L2.75292 10.5994L2.78652 10.002L3.22536 10.0008L3.55799 7.3229L1.46798 1.78291L1.0743 1.78482L1.16031 1.09242L5.23117 1.13189L5.14517 1.8243L4.72727 1.81008L5.5753 3.81833L6.62769 1.78437L6.27363 1.78625L6.35964 1.09385L11.7896 1.08902L11.7035 1.78196L11.2481 1.78473ZM50.1712 2.10792L50.2572 1.41554C50.2883 1.16434 50.2181 0.91126 50.0636 0.722019C49.9329 0.561624 49.7537 0.459496 49.5595 0.432513C49.5242 0.427585 49.4879 0.425323 49.4513 0.42579L48.9897 0.428267C48.9594 0.424581 48.9292 0.423168 48.8987 0.423388L46.4675 0.437485L44.5736 0.448523L44.0368 0.451644C43.9678 0.452062 43.9006 0.462715 43.8368 0.48048C43.8028 0.475779 43.7686 0.473248 43.7342 0.473448L40.0473 0.481259C39.9747 0.48118 39.904 0.491893 39.8362 0.511352L39.4545 0.512711C39.0436 0.51332 38.6959 0.844928 38.6447 1.28553L38.6337 1.38342C37.9913 0.791386 37.1389 0.395103 36.1247 0.254081C35.9553 0.230536 35.781 0.214619 35.6066 0.205916C35.5929 0.205127 35.579 0.204855 35.5656 0.205224L35.3504 0.206415C35.2398 0.194915 35.1374 0.186788 35.0387 0.181948C35.025 0.181139 35.0111 0.180888 34.9972 0.181174L33.1063 0.192088L31.2124 0.203125L30.6756 0.206247C30.2679 0.209006 29.9238 0.536107 29.8698 0.971855L29.8218 1.35792C29.1833 0.784187 28.3438 0.400827 27.3478 0.262332C27.1786 0.238767 27.0046 0.222373 26.8299 0.213629C26.8165 0.21342 26.8026 0.213168 26.7887 0.212916L24.8978 0.22383L23.0039 0.235406L22.4671 0.238528C22.4182 0.238412 22.3697 0.243342 22.3233 0.252986L21.9116 0.255165C21.8654 0.255403 21.8193 0.260684 21.7747 0.268903C21.7661 0.267702 21.7571 0.265343 21.7484 0.264142C21.7131 0.259234 21.6769 0.256972 21.6404 0.256901L19.2091 0.270978L17.3151 0.282015L16.7783 0.285695C16.7397 0.285873 16.7018 0.288944 16.6645 0.294869L16.4607 0.295979C16.4447 0.292627 16.4286 0.289832 16.4124 0.287575C16.3775 0.282729 16.3423 0.280074 16.3068 0.280128L12.6199 0.28792C12.5767 0.288034 12.5346 0.292159 12.4931 0.299158L12.1474 0.299987C12.0691 0.259098 11.9852 0.230776 11.8977 0.2186C11.8624 0.213691 11.8261 0.21143 11.7896 0.211339L11.4226 0.213633C11.3923 0.205522 11.3612 0.198981 11.3299 0.194632C11.2945 0.189703 11.2582 0.187442 11.2217 0.187909L6.35963 0.216165C6.1347 0.217664 5.92887 0.317925 5.78054 0.481151C5.65766 0.36074 5.50418 0.28386 5.33937 0.260937C5.3065 0.25636 5.27287 0.253913 5.23889 0.254194L4.84931 0.252223C4.82336 0.245849 4.79771 0.241171 4.77142 0.237506C4.73804 0.232867 4.70492 0.230482 4.67102 0.230206L1.16802 0.214699C0.757882 0.212661 0.408993 0.541333 0.354455 0.980347L0.268444 1.67275C0.237242 1.92395 0.307631 2.17703 0.46207 2.36627C0.580743 2.51219 0.740369 2.60993 0.913811 2.64628L2.72293 7.44176L2.50709 9.17932C2.21159 9.29765 1.99507 9.59583 1.97481 9.95353L1.94121 10.551C1.9275 10.798 2.01028 11.0383 2.16989 11.215C2.2979 11.3561 2.46526 11.4455 2.64472 11.4704C2.68871 11.4765 2.73367 11.4789 2.77868 11.4768L2.87792 11.4728C2.90433 11.4754 2.9309 11.4769 2.95824 11.4762L3.11932 11.4753C3.15019 11.4835 3.18127 11.49 3.21312 11.4945C3.25711 11.5006 3.30162 11.5023 3.34706 11.5009L3.44579 11.4968C3.47223 11.4994 3.49936 11.5004 3.52613 11.5002L6.77209 11.4733C6.786 11.473 6.79942 11.4727 6.81341 11.4718L7.30699 11.4688C7.71458 11.4666 8.05872 11.139 8.11285 10.7032L8.19892 10.0102C8.23005 9.7596 8.15966 9.50652 8.00529 9.31674C7.93652 9.23273 7.85397 9.16459 7.76347 9.11479L7.83015 8.52414L11.5524 2.83694L11.2236 5.70807C10.9247 8.13066 12.2619 10.4447 14.4043 11.2115C14.5506 11.2635 14.6993 11.3086 14.8475 11.3448C14.9968 11.381 15.1465 11.4097 15.2911 11.4298C15.4428 11.4508 15.5995 11.4643 15.7567 11.4695C15.8576 11.473 15.9616 11.4724 16.0742 11.4681C16.1388 11.4654 16.2047 11.4607 16.2791 11.4544C16.3015 11.4558 16.3245 11.4568 16.3471 11.4577C16.448 11.4606 16.552 11.4601 16.6646 11.4558C17.7102 11.4145 18.7313 10.9899 19.5397 10.2608C19.7114 10.1058 19.8717 9.93752 20.0203 9.75932L19.9356 10.4414C19.9044 10.6925 19.9752 10.9452 20.1297 11.1349C20.2599 11.2952 20.4396 11.3969 20.6332 11.4238C20.6691 11.4288 20.7053 11.4311 20.7418 11.4312L21.236 11.4282C21.2502 11.4291 21.2641 11.4293 21.2786 11.4291L25.067 11.4071C25.0814 11.4069 25.0959 11.4067 25.11 11.4053L25.604 11.4029C25.6528 11.4025 25.7008 11.3975 25.7473 11.3884L26.1589 11.3856C26.566 11.3834 26.9105 11.0563 26.9649 10.62L27.0508 9.92764C27.0581 9.86866 27.0599 9.80947 27.0562 9.75119C28.0973 9.60543 28.8696 9.21399 29.4416 8.73639L29.4143 8.9559C29.0874 9.03655 28.8316 9.32872 28.7855 9.70003L28.6996 10.3924C28.6684 10.6436 28.7387 10.8962 28.8931 11.086C29.0238 11.2463 29.203 11.3479 29.3972 11.3749C29.4327 11.3798 29.4688 11.3826 29.5054 11.3822L29.8723 11.3799C29.9025 11.3885 29.9337 11.3945 29.9651 11.3989C30.001 11.4039 30.0372 11.4067 30.0733 11.4062L30.5678 11.4033C30.5815 11.4041 30.596 11.4044 30.6099 11.4041L34.3983 11.3821C34.4127 11.3819 34.4272 11.3817 34.4417 11.3804L34.9353 11.3779C35.343 11.3751 35.6875 11.0481 35.7416 10.6118L35.8278 9.91941C35.835 9.86043 35.8366 9.80178 35.8332 9.7435C36.9418 9.58771 37.7459 9.15405 38.3275 8.63387L38.2531 9.27346C37.9275 9.35649 37.6734 9.65112 37.6303 10.0229L37.55 10.716C37.5208 10.967 37.5934 11.2187 37.7484 11.4069C37.879 11.5645 38.0568 11.6648 38.2486 11.6914C38.286 11.6966 38.3237 11.6991 38.3619 11.6983L42.0725 11.6527C42.1374 11.6517 42.2002 11.6427 42.2608 11.6261L42.6651 11.6212C42.6899 11.6208 42.7144 11.6192 42.7383 11.6169C42.7454 11.6179 42.7518 11.6194 42.7583 11.6203C42.7938 11.6252 42.8299 11.628 42.8666 11.6276L43.3293 11.6247C43.3592 11.6283 43.3887 11.6302 43.4191 11.63L43.9137 11.6271C43.9276 11.6279 43.9419 11.6282 43.9558 11.6279L47.7443 11.6059C47.7586 11.6057 47.773 11.605 47.7877 11.6042L48.2813 11.6012C48.6888 11.599 49.0329 11.2719 49.0871 10.8356L49.173 10.1432C49.2042 9.89198 49.1337 9.63943 48.9795 9.44965C48.913 9.36818 48.8342 9.3017 48.7473 9.25293L49.5424 2.85151C49.8693 2.7714 50.1251 2.47925 50.1712 2.10792Z" fill="#030404"/>
<path d="M16.1077 1.81849L15.7099 1.82427L15.6652 2.21357L15.1402 6.73335L15.1035 7.04987C15.124 7.35269 15.3027 7.61584 15.5606 7.73002C15.7588 7.63315 15.9138 7.44474 15.9745 7.20877L16.0018 6.9887L16.5988 2.18285L16.6443 1.80867L16.1077 1.81849Z" fill="#030404"/>
<path d="M26.9176 4.06272L26.805 4.05265L26.412 4.06684L26.1548 6.20306L26.5928 6.18343L26.9549 6.1671C27.3682 6.06571 27.6802 5.77246 27.7337 5.21332C27.8009 4.50718 27.6681 4.19655 26.9176 4.06272Z" fill="#030404"/>
<path d="M35.7947 4.03664L35.1888 4.05848L34.9367 6.15318L35.3567 6.13436L35.7188 6.11805C36.1319 6.01664 36.4441 5.72341 36.4976 5.16426C36.5616 4.49546 36.4448 4.18147 35.7947 4.03664Z" fill="#030404"/>
</svg>
