<svg width="50" height="50" viewBox="0 0 50 50" fill="none" xmlns="http://www.w3.org/2000/svg">
<g clip-path="url(#clip0_96:70)">
<path d="M25 0C16.1766 0 9.0249 7.15174 9.0249 15.9751C9.0249 19.78 10.3628 23.2687 12.5859 26.0111C13.3024 26.8937 14.5013 28.2835 15.1261 29.2337C18.7243 34.7 23.3403 42.6388 24.6855 49.1537C24.9163 50.2662 25.1945 50.2857 25.494 49.1898C26.4535 45.6769 28.942 38.0014 34.081 29.9699C34.6938 29.0121 35.9362 27.6717 36.7075 26.8372C37.8247 25.6273 38.7545 24.2422 39.461 22.7319C40.4243 20.6718 40.975 18.3912 40.975 15.977C40.975 7.1526 33.8233 0 25 0ZM25 24.6064C20.0753 24.6064 16.0831 20.6142 16.0831 15.6895C16.0831 10.7655 20.0753 6.77351 25 6.77351C29.9248 6.77351 33.917 10.7657 33.917 15.6895C33.917 20.6144 29.9248 24.6064 25 24.6064Z" fill="#B62B2B"/>
<rect x="12.5" y="3.75" width="25" height="25" rx="12.5" fill="#AAD1FF"/>
<path d="M33.9734 23.5933H16.9644V24.3642H33.9734V23.5933Z" fill="#B3B3B3"/>
<path d="M27.4924 23.5932H18.8706L18.9636 22.5523L19.2505 19.3502L19.4972 16.5901L19.7838 13.3875L19.8939 12.1565L19.9299 11.7568H26.4331L26.4687 12.1565L26.6186 13.8304L26.849 16.4054L27.1163 19.3934L27.3467 21.9681L27.4924 23.5932Z" fill="#E6E6E6"/>
<path d="M23.1815 7.32129L20.3799 8.44693H25.9831L23.1815 7.32129Z" fill="#F93030"/>
<path d="M25.4516 8.44727H20.9114V10.6317H25.4516V8.44727Z" fill="#E6E6E6"/>
<path d="M27.3467 21.9682L23.1534 23.5933H18.8706L18.9636 22.5525L27.1163 19.3936L27.3467 21.9682Z" fill="#F93030"/>
<path d="M26.849 16.4057L19.2505 19.3504L19.4972 16.5903L26.6185 13.8306L26.849 16.4057Z" fill="#F93030"/>
<path d="M23.9918 11.7568L19.7839 13.3875L19.93 11.7568H23.9918Z" fill="#F93030"/>
<path d="M31.7259 19.0322H25.4299V23.5935H31.7259V19.0322Z" fill="#C69C6D"/>
<path d="M21.6536 8.77588H21.1111V10.2608H21.6536V8.77588Z" fill="#2D4151"/>
<path d="M24.2808 8.77539H22.082V10.2603H24.2808V8.77539Z" fill="#2D4151"/>
<path d="M25.2515 8.77539H24.709V10.2603H25.2515V8.77539Z" fill="#2D4151"/>
<path opacity="0.34" d="M26.4686 12.1565H19.8938L19.9298 11.7568H26.433L26.4686 12.1565Z" fill="#2D4151"/>
<path d="M22.2137 21.0964V23.5931H19.8438V21.0964C19.8438 20.7713 19.9744 20.477 20.1864 20.2628C20.401 20.0461 20.6991 19.9116 21.0285 19.9116C21.683 19.9116 22.2137 20.4419 22.2137 21.0964Z" fill="#2D4151"/>
<path d="M21.2281 19.9288C20.9788 19.9707 20.7561 20.0911 20.586 20.2628C20.374 20.477 20.2434 20.7713 20.2434 21.0964V23.5931H19.8438V21.0964C19.8438 20.7713 19.9744 20.477 20.1864 20.2628C20.401 20.0461 20.6991 19.9116 21.0285 19.9116C21.0966 19.9116 21.1634 19.9172 21.2281 19.9288Z" fill="#B3B3B3"/>
<path d="M31.1728 19.9116H28.8027V23.5934H31.1728V19.9116Z" fill="#A67C52"/>
<path d="M30.9586 20.126H29.0168V23.5936H30.9586V20.126Z" fill="#936134"/>
<path d="M29.838 21.7681H29.1956V22.0251H29.838V21.7681Z" fill="#C69C6D"/>
<path d="M27.8816 19.9116H26.2397V22.3459H27.8816V19.9116Z" fill="#A67C52"/>
<path d="M27.6676 20.126H26.4541V22.132H27.6676V20.126Z" fill="#2D4151"/>
<path d="M27.168 20.019H26.9539V22.2392H27.168V20.019Z" fill="#A67C52"/>
<path d="M27.8141 21.022H26.3364V21.2361H27.8141V21.022Z" fill="#A67C52"/>
<path d="M31.7259 19.0322H25.4299V19.2143H31.7259V19.0322Z" fill="#B78B5E"/>
<path d="M30.4803 20.5259H29.4951V20.9114H30.4803V20.5259Z" fill="#2D4151"/>
<path opacity="0.34" d="M25.4516 8.44727H20.9114V8.70426H25.4516V8.44727Z" fill="#2D4151"/>
<path opacity="0.2" d="M22.2095 10.1722H24.1545V9.05957C24.1544 9.05957 23.8421 10.0359 22.2095 10.1722Z" fill="#FCFAFA"/>
<path d="M27.0217 10.5708H19.3411V11.8173H27.0217V10.5708Z" fill="#B3B3B3"/>
<path d="M19.8447 11.5205V10.8735H19.9256V11.4482H20.265V11.5205C20.265 11.5205 19.8447 11.5205 19.8447 11.5205Z" fill="white"/>
<path d="M20.498 11.5161V10.8691H20.5789V11.5161H20.498Z" fill="white"/>
<path d="M20.8313 11.1927C20.8313 11.0913 20.8561 11.0097 20.9058 10.948C20.9562 10.887 21.0228 10.8564 21.1059 10.8564C21.1676 10.8564 21.2222 10.8756 21.2697 10.9139C21.3172 10.9529 21.3464 11.0026 21.357 11.0629L21.2761 11.0714C21.269 11.0303 21.2491 10.9963 21.2165 10.9693C21.1846 10.9423 21.1477 10.9288 21.1059 10.9288C21.047 10.9288 21.0001 10.9529 20.9654 11.0012C20.9299 11.0487 20.9122 11.1126 20.9122 11.1927C20.9122 11.2708 20.9299 11.3336 20.9654 11.3811C21.0001 11.4279 21.047 11.4513 21.1059 11.4513C21.1597 11.4513 21.203 11.4329 21.2357 11.396C21.2683 11.3598 21.2846 11.3112 21.2846 11.2502H21.1059V11.1704H21.3655V11.5003H21.308L21.2963 11.4311C21.2757 11.4609 21.2481 11.4839 21.2133 11.5003C21.18 11.5159 21.1441 11.5236 21.1059 11.5236C21.0228 11.5236 20.9562 11.4935 20.9058 11.4332C20.8561 11.3729 20.8313 11.2927 20.8313 11.1927Z" fill="white"/>
<path d="M21.625 11.5161V10.8691H21.7059V11.1362H22.0294V10.8691H22.1102V11.5161H22.0294V11.2086H21.7059V11.5161H21.625Z" fill="white"/>
<path d="M22.3435 10.9415V10.8691H22.8287V10.9415H22.6255V11.5161H22.5446V10.9415H22.3435Z" fill="white"/>
<path d="M23.0605 11.5161V10.8691H23.1414V11.1362H23.4649V10.8691H23.5458V11.5161H23.4649V11.2086H23.1414V11.5161H23.0605Z" fill="white"/>
<path d="M23.7971 11.1927C23.7971 11.0913 23.8237 11.0097 23.8769 10.948C23.9302 10.887 24.0007 10.8564 24.0887 10.8564C24.1767 10.8564 24.2469 10.8869 24.2994 10.948C24.3526 11.0097 24.3792 11.0913 24.3792 11.1927C24.3792 11.2927 24.3526 11.3729 24.2994 11.4332C24.2469 11.4935 24.1766 11.5237 24.0887 11.5237C24.0007 11.5237 23.9301 11.4935 23.8769 11.4332C23.8237 11.3729 23.7971 11.2927 23.7971 11.1927ZM23.878 11.1927C23.878 11.2708 23.8971 11.3336 23.9355 11.3811C23.9738 11.4279 24.0249 11.4513 24.0887 11.4513C24.1519 11.4513 24.2026 11.4279 24.2409 11.3811C24.2792 11.3336 24.2984 11.2708 24.2984 11.1927C24.2984 11.1125 24.2792 11.0487 24.2409 11.0012C24.2026 10.9529 24.1519 10.9288 24.0887 10.9288C24.0249 10.9288 23.9738 10.9529 23.9355 11.0012C23.8971 11.0487 23.878 11.1125 23.878 11.1927Z" fill="white"/>
<path d="M24.6218 11.3224V10.8691H24.7027V11.3224C24.7027 11.3608 24.7194 11.3923 24.7527 11.4171C24.7839 11.4398 24.8212 11.4512 24.8644 11.4512C24.9077 11.4512 24.945 11.4398 24.9762 11.4171C25.0095 11.3923 25.0262 11.3607 25.0262 11.3224V10.8691H25.107V11.3224C25.107 11.3813 25.0822 11.4299 25.0325 11.4682C24.9857 11.5051 24.9297 11.5236 24.8644 11.5236C24.7992 11.5236 24.7431 11.5051 24.6963 11.4682C24.6466 11.4299 24.6218 11.3813 24.6218 11.3224Z" fill="white"/>
<path d="M25.3423 11.2981H25.4232C25.4232 11.347 25.4381 11.3861 25.4678 11.4152C25.4969 11.445 25.5359 11.4598 25.5849 11.4598C25.6338 11.4598 25.6729 11.4489 25.7019 11.4268C25.7317 11.4049 25.7466 11.3754 25.7466 11.3385C25.7466 11.3052 25.7292 11.2786 25.6945 11.2587C25.669 11.2445 25.6324 11.2332 25.5849 11.2247C25.5218 11.2133 25.4696 11.1924 25.4285 11.1619C25.3816 11.1264 25.3582 11.0828 25.3582 11.031C25.3582 10.9785 25.3788 10.9363 25.4199 10.9043C25.4611 10.8724 25.5161 10.8564 25.5849 10.8564C25.6537 10.8564 25.7087 10.8752 25.7498 10.9129C25.791 10.9505 25.8116 11.0005 25.8116 11.0629H25.7306C25.7235 11.0225 25.7069 10.9898 25.6807 10.965C25.6537 10.9409 25.6218 10.9288 25.5849 10.9288C25.5409 10.9288 25.5054 10.938 25.4785 10.9565C25.4522 10.9749 25.4391 10.9998 25.4391 11.0309C25.4391 11.0636 25.4544 11.0909 25.4849 11.1129C25.5104 11.132 25.5438 11.1452 25.5849 11.1522C25.6551 11.1643 25.7101 11.1827 25.7498 11.2076C25.8016 11.2388 25.8275 11.2799 25.8275 11.331C25.8275 11.392 25.8055 11.4406 25.7615 11.4768C25.7168 11.5137 25.658 11.5321 25.5849 11.5321C25.5118 11.5321 25.4529 11.5108 25.4082 11.4683C25.3643 11.4258 25.3423 11.3691 25.3423 11.2981Z" fill="white"/>
<path d="M26.073 11.5161V10.8691H26.5178V10.9458H26.1539V11.1437H26.4774V11.2203H26.1539V11.4395H26.5178V11.5162H26.073V11.5161V11.5161Z" fill="white"/>
<path d="M32.6575 19.0962H24.4988L28.5781 17.457L32.6575 19.0962Z" fill="#A67C52"/>
<path d="M32.6575 19.0962H28.5781V17.457L32.6575 19.0962Z" fill="#936134"/>
</g>
<defs>
<clipPath id="clip0_96:70">
<rect width="50" height="50" fill="white"/>
</clipPath>
</defs>
</svg>
