<svg width="50" height="50" viewBox="0 0 50 50" fill="none" xmlns="http://www.w3.org/2000/svg">
<g clip-path="url(#clip0_96:47)">
<path d="M25 0C16.1766 0 9.0249 7.15174 9.0249 15.9751C9.0249 19.78 10.3628 23.2687 12.5859 26.0111C13.3024 26.8937 14.5013 28.2835 15.1261 29.2337C18.7243 34.7 23.3403 42.6388 24.6855 49.1537C24.9163 50.2662 25.1945 50.2857 25.494 49.1898C26.4535 45.6769 28.942 38.0014 34.081 29.9699C34.6938 29.0121 35.9362 27.6717 36.7075 26.8372C37.8247 25.6273 38.7545 24.2422 39.461 22.7319C40.4243 20.6718 40.975 18.3912 40.975 15.977C40.975 7.1526 33.8233 0 25 0ZM25 24.6064C20.0753 24.6064 16.0831 20.6142 16.0831 15.6895C16.0831 10.7655 20.0753 6.77351 25 6.77351C29.9248 6.77351 33.917 10.7657 33.917 15.6895C33.917 20.6144 29.9248 24.6064 25 24.6064Z" fill="#B62B2B"/>
<rect x="12.5" y="3.75" width="25" height="25" rx="12.5" fill="#AAD1FF"/>
<path d="M25.2079 20.9096C24.4313 20.9096 23.655 20.7517 22.9159 20.436C21.4378 19.8046 20.2867 18.6175 19.6745 17.0932C18.4107 13.9465 19.8647 10.3262 22.9159 9.02286C24.3939 8.39147 26.022 8.39147 27.5 9.02286C28.978 9.65425 30.1292 10.8414 30.7414 12.3657C32.0052 15.5123 30.5511 19.1327 27.5 20.4361C26.7611 20.7517 25.9844 20.9096 25.2079 20.9096ZM25.2079 9.24107C24.5183 9.24107 23.8287 9.38124 23.1724 9.66163C20.4628 10.8191 19.1715 14.0342 20.2938 16.8286C20.8375 18.1823 21.8598 19.2365 23.1724 19.7973C24.485 20.358 25.9308 20.358 27.2434 19.7973C29.953 18.6398 31.2444 15.4247 30.122 12.6303C29.5783 11.2767 28.556 10.2224 27.2434 9.66163C26.5871 9.38128 25.8975 9.24107 25.2079 9.24107Z" fill="#FFD039"/>
<path d="M25.208 18.5096C24.7331 18.5096 24.2582 18.4131 23.8062 18.22C22.9023 17.8339 22.1982 17.1078 21.8238 16.1755C21.0508 14.2511 21.9401 12.0369 23.8062 11.2398C24.7102 10.8537 25.7059 10.8537 26.6099 11.2398C27.5138 11.6259 28.2179 12.352 28.5923 13.2843C29.3652 15.2087 28.4759 17.4229 26.6099 18.2201C26.1579 18.4131 25.6829 18.5096 25.208 18.5096ZM25.208 11.3732C24.7863 11.3732 24.3645 11.459 23.9631 11.6304C22.3059 12.3383 21.5162 14.3047 22.2025 16.0137C22.5351 16.8416 23.1603 17.4864 23.9631 17.8293C24.7659 18.1723 25.6501 18.1723 26.4529 17.8293C28.1101 17.1214 28.8998 15.1551 28.2134 13.4461C27.8809 12.6182 27.2557 11.9734 26.4529 11.6304C26.0516 11.459 25.6298 11.3732 25.208 11.3732Z" fill="#FFD039"/>
<path d="M24.7969 14.0519C24.6653 14.0519 24.5405 13.9715 24.487 13.8384L22.7407 9.49068C22.7384 9.48556 22.7362 9.4804 22.7341 9.4751L22.4199 8.69242C22.3491 8.51602 22.4303 8.31381 22.6014 8.24075C22.7724 8.16769 22.9685 8.25149 23.0393 8.42789L23.3473 9.19503C23.3497 9.2001 23.3519 9.20526 23.354 9.21052L25.1065 13.5737C25.1774 13.7501 25.0961 13.9524 24.9251 14.0254C24.8831 14.0434 24.8396 14.0519 24.7969 14.0519Z" fill="#ED2E2E"/>
<path d="M27.6864 21.2452C27.5548 21.2452 27.43 21.1649 27.3765 21.0317L25.3098 15.8858C25.2389 15.7094 25.3201 15.5072 25.4912 15.4341C25.6622 15.361 25.8584 15.4448 25.9292 15.6212L27.9959 20.7671C28.0668 20.9435 27.9856 21.1457 27.8145 21.2188C27.7725 21.2367 27.7291 21.2452 27.6864 21.2452Z" fill="#ED2E2E"/>
<path d="M25.6189 14.0518C25.5761 14.0518 25.5327 14.0433 25.4907 14.0254C25.3197 13.9524 25.2384 13.7501 25.3093 13.5737L27.3765 8.42775C27.4474 8.25139 27.6437 8.16769 27.8145 8.24079C27.9856 8.3139 28.0668 8.51616 27.9958 8.69256L25.9287 13.8383C25.8752 13.9715 25.7504 14.0518 25.6189 14.0518Z" fill="#ED2E2E"/>
<path d="M22.7295 21.2452C22.6867 21.2452 22.6433 21.2367 22.6014 21.2188C22.4303 21.1458 22.3491 20.9436 22.4199 20.7671L24.4866 15.6212C24.5575 15.4448 24.7537 15.3611 24.9246 15.4341C25.0956 15.5072 25.1769 15.7094 25.106 15.8858L23.0393 21.0316C22.9859 21.1648 22.861 21.2452 22.7295 21.2452Z" fill="#ED2E2E"/>
<path d="M26.2009 14.6516C26.0694 14.6516 25.9446 14.5712 25.8911 14.4381C25.8202 14.2617 25.9014 14.0595 26.0725 13.9864L31.0624 11.855C31.2335 11.782 31.4296 11.8657 31.5004 12.0422C31.5712 12.2186 31.49 12.4208 31.3189 12.4938L26.3291 14.6252C26.2872 14.6431 26.2437 14.6516 26.2009 14.6516Z" fill="#ED2E2E"/>
<path d="M19.2253 17.6306C19.0938 17.6306 18.969 17.5502 18.9155 17.4171C18.8447 17.2407 18.9259 17.0385 19.097 16.9654L24.0872 14.834C24.2582 14.7609 24.4543 14.8447 24.5252 15.0211C24.596 15.1975 24.5148 15.3997 24.3437 15.4728L19.3534 17.6042C19.3115 17.6221 19.2681 17.6306 19.2253 17.6306Z" fill="#ED2E2E"/>
<path d="M31.1905 17.6315C31.1478 17.6315 31.1044 17.623 31.0624 17.6051L26.0725 15.4737C25.9015 15.4007 25.8202 15.1985 25.8911 15.0221C25.962 14.8457 26.1582 14.762 26.3291 14.835L31.3189 16.9664C31.4899 17.0394 31.5712 17.2416 31.5004 17.418C31.4469 17.5511 31.3221 17.6315 31.1905 17.6315Z" fill="#ED2E2E"/>
<path d="M24.2153 14.6516C24.1726 14.6516 24.1292 14.6431 24.0872 14.6251L19.0969 12.4938C18.9259 12.4207 18.8446 12.2185 18.9155 12.0421C18.9864 11.8657 19.1827 11.782 19.3535 11.855L24.3437 13.9863C24.5147 14.0594 24.596 14.2616 24.5252 14.438C24.4717 14.5712 24.3469 14.6516 24.2153 14.6516Z" fill="#ED2E2E"/>
<path d="M31.0001 23.0014H19.4155C19.2917 23.0014 19.1781 22.9311 19.1198 22.8184C19.0615 22.7057 19.0682 22.5692 19.1371 22.4632L23.8905 15.1522C23.9937 14.9937 24.2019 14.9513 24.3556 15.0576C24.5094 15.164 24.5504 15.3787 24.4474 15.5373L20.0439 22.31H31.0002C31.1854 22.31 31.3354 22.4648 31.3354 22.6557C31.3354 22.8466 31.1853 23.0014 31.0001 23.0014Z" fill="#666666"/>
<path d="M29.7319 21.0502C29.6238 21.0502 29.5178 20.9965 29.4531 20.897L25.9682 15.5368C25.8651 15.3782 25.9062 15.1635 26.06 15.0571C26.2137 14.9508 26.422 14.9932 26.5251 15.1518L30.01 20.512C30.1131 20.6706 30.072 20.8853 29.9182 20.9917C29.8609 21.0313 29.796 21.0502 29.7319 21.0502Z" fill="#666666"/>
<path d="M33.0162 20.583H29.0383C28.7753 20.583 28.562 20.8029 28.562 21.0742V22.6551H33.4924V21.0742C33.4924 20.8029 33.2792 20.583 33.0162 20.583Z" fill="#ED2E2E"/>
<path d="M30.5281 20.583H29.0383C28.7753 20.583 28.562 20.8029 28.562 21.0742V22.6551H30.0519V21.0742C30.0519 20.8029 30.2651 20.583 30.5281 20.583Z" fill="#D82525"/>
<path d="M18.6398 19.4475V22.6554H16.1592V19.4475C16.1592 19.2335 16.3274 19.0601 16.5348 19.0601H18.2641C18.4716 19.0601 18.6398 19.2335 18.6398 19.4475Z" fill="#B3B3B3"/>
<path d="M18.6398 19.8047V20.4961H17.5C17.315 20.4961 17.1648 20.3417 17.1648 20.1504C17.1648 19.9596 17.315 19.8047 17.5 19.8047H18.6398Z" fill="#666666"/>
<path d="M18.6398 20.9116V21.603H17.5C17.315 21.603 17.1648 21.4482 17.1648 21.2573C17.1648 21.0665 17.315 20.9116 17.5 20.9116H18.6398Z" fill="#666666"/>
<path d="M32.5174 23.001C32.3322 23.001 32.1821 22.8462 32.1821 22.6553V21.6719C32.1821 21.481 32.3322 21.3262 32.5174 21.3262C32.7025 21.3262 32.8526 21.481 32.8526 21.6719V22.6553C32.8526 22.8462 32.7025 23.001 32.5174 23.001Z" fill="#666666"/>
<path d="M25.2082 15.8377C25.8016 15.8377 26.2827 15.3416 26.2827 14.7296C26.2827 14.1177 25.8016 13.6216 25.2082 13.6216C24.6148 13.6216 24.1338 14.1177 24.1338 14.7296C24.1338 15.3416 24.6148 15.8377 25.2082 15.8377Z" fill="#3B9DFF"/>
<path d="M25.208 16.185C25.0252 16.185 24.8425 16.1478 24.6686 16.0735C24.3207 15.9249 24.0497 15.6455 23.9057 15.2868C23.7616 14.928 23.7616 14.5329 23.9057 14.1741C24.0498 13.8154 24.3207 13.5359 24.6686 13.3873C25.0164 13.2387 25.3996 13.2387 25.7475 13.3873C26.0954 13.5359 26.3663 13.8154 26.5104 14.1741C26.6545 14.5329 26.6545 14.928 26.5104 15.2868C26.3663 15.6455 26.0954 15.9249 25.7475 16.0735C25.5736 16.1478 25.3908 16.185 25.208 16.185ZM25.208 13.9677C25.1121 13.9677 25.0164 13.9871 24.9251 14.0261C24.7427 14.104 24.6006 14.2505 24.5251 14.4387C24.4495 14.6268 24.4495 14.834 24.5251 15.0221C24.6006 15.2103 24.7427 15.3568 24.9251 15.4347C25.1075 15.5127 25.3084 15.5127 25.4909 15.4347C25.6733 15.3568 25.8154 15.2103 25.891 15.0221C25.9665 14.834 25.9665 14.6268 25.891 14.4387C25.891 14.4387 25.891 14.4387 25.8909 14.4387C25.8154 14.2506 25.6733 14.104 25.4909 14.0261C25.3998 13.9871 25.3039 13.9677 25.208 13.9677Z" fill="#FFD039"/>
<path d="M34.8213 23.4918H15.1785C15.1785 23.2876 15.229 23.0959 15.3179 22.9286C15.3702 22.8299 15.4359 22.74 15.5123 22.6612C15.7184 22.4483 16.0035 22.3169 16.3182 22.3169H33.6816C34.1129 22.3169 34.4883 22.564 34.6819 22.9286C34.7708 23.0959 34.8213 23.2876 34.8213 23.4918Z" fill="#0FBC30"/>
<path d="M34.8213 23.492H15.1785C15.1785 23.2878 15.229 23.096 15.3179 22.9287H34.6819C34.7708 23.096 34.8213 23.2878 34.8213 23.492Z" fill="#07A521"/>
</g>
<defs>
<clipPath id="clip0_96:47">
<rect width="50" height="50" fill="white"/>
</clipPath>
</defs>
</svg>
