<svg width="20" height="20" viewBox="0 0 20 20" fill="none" xmlns="http://www.w3.org/2000/svg">
<g clip-path="url(#clip0_98:102)">
<path d="M10.0068 0C7.33444 0 4.82211 1.04018 2.9325 2.92891C-0.968364 6.82788 -0.968364 13.172 2.93237 17.071C4.82199 18.9598 7.33444 20 10.0068 20C12.6791 20 15.1916 18.9598 17.0812 17.071C20.9821 13.172 20.9821 6.82788 17.0812 2.92891C15.1916 1.04018 12.6791 0 10.0068 0ZM14.5087 14.4997C14.3311 14.6772 14.0983 14.766 13.8656 14.766C13.6328 14.766 13.4 14.6772 13.2225 14.4997L10.0068 11.2856L6.79121 14.4998C6.61356 14.6773 6.38084 14.7661 6.14806 14.7661C5.91535 14.7661 5.68251 14.6773 5.50504 14.4998C5.14978 14.1448 5.14978 13.5692 5.50504 13.2141L8.7206 10L5.50497 6.78588C5.14972 6.43091 5.14972 5.85527 5.50497 5.50024C5.86011 5.14527 6.43602 5.14527 6.79121 5.50024L10.0068 8.71436L13.2224 5.50024C13.5775 5.14527 14.1534 5.14527 14.5086 5.50024C14.8638 5.85521 14.8638 6.43085 14.5086 6.78588L11.2931 10L14.5087 13.2141C14.8639 13.5691 14.8639 14.1447 14.5087 14.4997Z" fill="#B62B2B"/>
</g>
<defs>
<clipPath id="clip0_98:102">
<rect width="20" height="20" fill="white"/>
</clipPath>
</defs>
</svg>
