<svg width="10" height="10" viewBox="0 0 10 10" fill="none" xmlns="http://www.w3.org/2000/svg">
<g clip-path="url(#clip0_98:102)">
<path d="M5.00342 0C3.66722 0 2.41105 0.520091 1.46625 1.46445C-0.484182 3.41394 -0.484182 6.586 1.46619 8.53552C2.41099 9.47991 3.66722 10 5.00342 10C6.33956 10 7.59579 9.47991 8.5406 8.53552C10.491 6.586 10.491 3.41394 8.5406 1.46445C7.59579 0.520091 6.33956 0 5.00342 0ZM7.25436 7.24985C7.16553 7.33861 7.04917 7.383 6.93278 7.383C6.81642 7.383 6.7 7.33861 6.61127 7.24985L5.00342 5.64282L3.39561 7.24988C3.30678 7.33864 3.19042 7.38303 3.07403 7.38303C2.95767 7.38303 2.84126 7.33864 2.75252 7.24988C2.57489 7.07239 2.57489 6.78458 2.75252 6.60706L4.3603 5L2.75249 3.39294C2.57486 3.21545 2.57486 2.92764 2.75249 2.75012C2.93006 2.57264 3.21801 2.57264 3.39561 2.75012L5.00342 4.35718L6.61118 2.75012C6.78874 2.57264 7.0767 2.57264 7.2543 2.75012C7.43192 2.92761 7.43192 3.21542 7.2543 3.39294L5.64654 5L7.25436 6.60703C7.43195 6.78455 7.43195 7.07236 7.25436 7.24985Z" fill="#B62B2B"/>
</g>
<defs>
<clipPath id="clip0_98:102">
<rect width="10" height="10" fill="white"/>
</clipPath>
</defs>
</svg>
