<svg width="25" height="25" viewBox="0 0 25 25" fill="none" xmlns="http://www.w3.org/2000/svg">
<g clip-path="url(#clip0_96:70)">
<path d="M12.5 0C8.08832 0 4.51245 3.57587 4.51245 7.98757C4.51245 9.89001 5.1814 11.6343 6.29293 13.0056C6.65122 13.4469 7.25063 14.1417 7.56307 14.6169C9.36213 17.35 11.6702 21.3194 12.3428 24.5768C12.4582 25.1331 12.5973 25.1428 12.747 24.5949C13.2267 22.8385 14.471 19.0007 17.0405 14.985C17.3469 14.5061 17.9681 13.8358 18.3538 13.4186C18.9123 12.8136 19.3772 12.1211 19.7305 11.366C20.2121 10.3359 20.4875 9.19558 20.4875 7.9885C20.4875 3.5763 16.9116 0 12.5 0ZM12.5 12.3032C10.0376 12.3032 8.04153 10.3071 8.04153 7.84473C8.04153 5.38277 10.0376 3.38675 12.5 3.38675C14.9624 3.38675 16.9585 5.38286 16.9585 7.84473C16.9585 10.3072 14.9624 12.3032 12.5 12.3032Z" fill="#B62B2B"/>
<rect x="6.25" y="1.875" width="12.5" height="12.5" rx="6.25" fill="#AAD1FF"/>
<path d="M16.9867 11.7969H8.48218V12.1823H16.9867V11.7969Z" fill="#B3B3B3"/>
<path d="M13.7462 11.7966H9.4353L9.48178 11.2762L9.62526 9.67509L9.74862 8.29503L9.8919 6.69373L9.94694 6.07823L9.96493 5.87842H13.2166L13.2343 6.07823L13.3093 6.91518L13.4245 8.20272L13.5581 9.69672L13.6734 10.984L13.7462 11.7966Z" fill="#E6E6E6"/>
<path d="M11.5908 3.66064L10.1899 4.22346H12.9916L11.5908 3.66064Z" fill="#F93030"/>
<path d="M12.7257 4.22363H10.4556V5.31586H12.7257V4.22363Z" fill="#E6E6E6"/>
<path d="M13.6734 10.9841L11.5767 11.7966H9.4353L9.48178 11.2762L13.5581 9.69678L13.6734 10.9841Z" fill="#F93030"/>
<path d="M13.4245 8.20307L9.62524 9.67544L9.7486 8.29538L13.3093 6.91553L13.4245 8.20307Z" fill="#F93030"/>
<path d="M11.9958 5.87842L9.89185 6.69373L9.96488 5.87842H11.9958Z" fill="#F93030"/>
<path d="M15.8631 9.51611H12.7151V11.7967H15.8631V9.51611Z" fill="#C69C6D"/>
<path d="M10.8269 4.38818H10.5557V5.13062H10.8269V4.38818Z" fill="#2D4151"/>
<path d="M12.1404 4.3877H11.041V5.13013H12.1404V4.3877Z" fill="#2D4151"/>
<path d="M12.626 4.3877H12.3547V5.13013H12.626V4.3877Z" fill="#2D4151"/>
<path opacity="0.34" d="M13.2344 6.07823H9.94702L9.96501 5.87842H13.2166L13.2344 6.07823Z" fill="#2D4151"/>
<path d="M11.1068 10.5484V11.7968H9.92188V10.5484C9.92188 10.3859 9.98719 10.2387 10.0932 10.1317C10.2005 10.0233 10.3496 9.95605 10.5142 9.95605C10.8415 9.95605 11.1068 10.2212 11.1068 10.5484Z" fill="#2D4151"/>
<path d="M10.614 9.96462C10.4894 9.98561 10.378 10.0458 10.293 10.1317C10.187 10.2387 10.1217 10.3859 10.1217 10.5484V11.7968H9.92188V10.5484C9.92188 10.3859 9.98719 10.2387 10.0932 10.1317C10.2005 10.0233 10.3496 9.95605 10.5142 9.95605C10.5483 9.95605 10.5817 9.95884 10.614 9.96462Z" fill="#B3B3B3"/>
<path d="M15.5864 9.95605H14.4014V11.7969H15.5864V9.95605Z" fill="#A67C52"/>
<path d="M15.4794 10.063H14.5085V11.7968H15.4794V10.063Z" fill="#936134"/>
<path d="M14.9189 10.8843H14.5977V11.0128H14.9189V10.8843Z" fill="#C69C6D"/>
<path d="M13.9408 9.95605H13.1199V11.1732H13.9408V9.95605Z" fill="#A67C52"/>
<path d="M13.8338 10.063H13.2271V11.066H13.8338V10.063Z" fill="#2D4151"/>
<path d="M13.5841 10.0093H13.4771V11.1193H13.5841V10.0093Z" fill="#A67C52"/>
<path d="M13.9071 10.5112H13.1682V10.6183H13.9071V10.5112Z" fill="#A67C52"/>
<path d="M15.8631 9.51611H12.7151V9.60713H15.8631V9.51611Z" fill="#B78B5E"/>
<path d="M15.2401 10.2627H14.7476V10.4554H15.2401V10.2627Z" fill="#2D4151"/>
<path opacity="0.34" d="M12.7257 4.22363H10.4556V4.35213H12.7257V4.22363Z" fill="#2D4151"/>
<path opacity="0.2" d="M11.1047 5.08609H12.0772V4.52979C12.0772 4.52979 11.921 5.01795 11.1047 5.08609Z" fill="#FCFAFA"/>
<path d="M13.511 5.28516H9.67065V5.90839H13.511V5.28516Z" fill="#B3B3B3"/>
<path d="M9.92236 5.7605V5.43701H9.9628V5.72433H10.1325V5.7605C10.1325 5.7605 9.92236 5.7605 9.92236 5.7605Z" fill="white"/>
<path d="M10.249 5.75806V5.43457H10.2895V5.75806H10.249Z" fill="white"/>
<path d="M10.4155 5.59636C10.4155 5.54563 10.4279 5.50485 10.4528 5.47399C10.478 5.44349 10.5113 5.42822 10.5528 5.42822C10.5837 5.42822 10.611 5.4378 10.6347 5.45696C10.6585 5.47647 10.6731 5.50129 10.6784 5.53145L10.6379 5.53571C10.6344 5.51515 10.6244 5.49813 10.6081 5.48463C10.5922 5.47116 10.5737 5.46442 10.5528 5.46442C10.5234 5.46442 10.4999 5.47647 10.4826 5.50059C10.4648 5.52436 10.456 5.55629 10.456 5.59636C10.456 5.63538 10.4648 5.66678 10.4826 5.69053C10.4999 5.71394 10.5234 5.72565 10.5528 5.72565C10.5797 5.72565 10.6014 5.71644 10.6177 5.69798C10.634 5.67988 10.6422 5.6556 10.6422 5.6251H10.5528V5.58518H10.6826V5.75013H10.6539L10.648 5.71554C10.6377 5.73045 10.6239 5.74197 10.6065 5.75013C10.5899 5.75793 10.572 5.76182 10.5528 5.76182C10.5113 5.76182 10.478 5.74675 10.4528 5.71659C10.4279 5.68646 10.4155 5.64637 10.4155 5.59636Z" fill="white"/>
<path d="M10.8125 5.75806V5.43457H10.8529V5.56812H11.0147V5.43457H11.0551V5.75806H11.0147V5.60429H10.8529V5.75806H10.8125Z" fill="white"/>
<path d="M11.1716 5.47074V5.43457H11.4143V5.47074H11.3126V5.75806H11.2722V5.47074H11.1716Z" fill="white"/>
<path d="M11.5303 5.75806V5.43457H11.5707V5.56812H11.7325V5.43457H11.7729V5.75806H11.7325V5.60429H11.5707V5.75806H11.5303Z" fill="white"/>
<path d="M11.8984 5.59636C11.8984 5.54563 11.9117 5.50485 11.9383 5.47399C11.965 5.44349 12.0002 5.42822 12.0442 5.42822C12.0882 5.42822 12.1233 5.44347 12.1496 5.47399C12.1762 5.50485 12.1895 5.54565 12.1895 5.59636C12.1895 5.64637 12.1762 5.68646 12.1496 5.71661C12.1233 5.74677 12.0882 5.76185 12.0442 5.76185C12.0002 5.76185 11.9649 5.74677 11.9383 5.71661C11.9117 5.68646 11.8984 5.64637 11.8984 5.59636ZM11.9389 5.59636C11.9389 5.63538 11.9484 5.66678 11.9676 5.69053C11.9868 5.71394 12.0123 5.72565 12.0442 5.72565C12.0758 5.72565 12.1012 5.71396 12.1203 5.69053C12.1395 5.66678 12.1491 5.63538 12.1491 5.59636C12.1491 5.55627 12.1395 5.52436 12.1203 5.50059C12.1012 5.47647 12.0758 5.46442 12.0442 5.46442C12.0123 5.46442 11.9868 5.47647 11.9676 5.50059C11.9484 5.52434 11.9389 5.55627 11.9389 5.59636Z" fill="white"/>
<path d="M12.3108 5.66122V5.43457H12.3512V5.66122C12.3512 5.68039 12.3596 5.69617 12.3762 5.70857C12.3918 5.71992 12.4105 5.7256 12.4321 5.7256C12.4537 5.7256 12.4724 5.71992 12.488 5.70857C12.5046 5.69615 12.513 5.68036 12.513 5.66122V5.43457H12.5534V5.66122C12.5534 5.69067 12.541 5.71497 12.5161 5.73412C12.4927 5.75256 12.4647 5.76179 12.4321 5.76179C12.3995 5.76179 12.3714 5.75256 12.348 5.73412C12.3232 5.71497 12.3108 5.69067 12.3108 5.66122Z" fill="white"/>
<path d="M12.6711 5.64905H12.7116C12.7116 5.67352 12.719 5.69303 12.7339 5.70758C12.7485 5.72248 12.768 5.72991 12.7924 5.72991C12.8169 5.72991 12.8364 5.72443 12.851 5.71342C12.8659 5.70244 12.8733 5.6877 12.8733 5.66926C12.8733 5.6526 12.8646 5.6393 12.8472 5.62936C12.8345 5.62225 12.8162 5.61658 12.7924 5.61234C12.7609 5.60666 12.7348 5.59621 12.7142 5.58094C12.6908 5.56321 12.6791 5.54139 12.6791 5.51549C12.6791 5.48924 12.6894 5.46814 12.71 5.45217C12.7305 5.43619 12.758 5.42822 12.7924 5.42822C12.8268 5.42822 12.8543 5.43762 12.8749 5.45643C12.8955 5.47523 12.9058 5.50025 12.9058 5.53145H12.8653C12.8618 5.51123 12.8534 5.49491 12.8403 5.48249C12.8269 5.47043 12.8109 5.46439 12.7924 5.46439C12.7704 5.46439 12.7527 5.469 12.7392 5.47823C12.7261 5.48746 12.7196 5.49988 12.7196 5.51547C12.7196 5.53179 12.7272 5.54545 12.7424 5.55644C12.7552 5.56601 12.7719 5.57259 12.7924 5.57612C12.8276 5.58216 12.855 5.59137 12.8749 5.60379C12.9008 5.6194 12.9137 5.63996 12.9137 5.66551C12.9137 5.69601 12.9027 5.72032 12.8808 5.73839C12.8584 5.75685 12.829 5.76606 12.7924 5.76606C12.7559 5.76606 12.7265 5.75542 12.7041 5.73413C12.6821 5.71289 12.6711 5.68453 12.6711 5.64905Z" fill="white"/>
<path d="M13.0366 5.75806V5.43457H13.259V5.47288H13.0771V5.57185H13.2388V5.61016H13.0771V5.71977H13.259V5.75808H13.0366V5.75806V5.75806Z" fill="white"/>
<path d="M16.3289 9.54811H12.2495L14.2892 8.72852L16.3289 9.54811Z" fill="#A67C52"/>
<path d="M16.3287 9.54811H14.2891V8.72852L16.3287 9.54811Z" fill="#936134"/>
</g>
<defs>
<clipPath id="clip0_96:70">
<rect width="25" height="25" fill="white"/>
</clipPath>
</defs>
</svg>
