<svg width="25" height="25" viewBox="0 0 25 25" fill="none" xmlns="http://www.w3.org/2000/svg">
<g clip-path="url(#clip0_96:47)">
<path d="M12.5 0C8.08832 0 4.51245 3.57587 4.51245 7.98757C4.51245 9.89001 5.1814 11.6343 6.29293 13.0056C6.65122 13.4469 7.25063 14.1417 7.56307 14.6169C9.36213 17.35 11.6702 21.3194 12.3428 24.5768C12.4582 25.1331 12.5973 25.1428 12.747 24.5949C13.2267 22.8385 14.471 19.0007 17.0405 14.985C17.3469 14.5061 17.9681 13.8358 18.3538 13.4186C18.9123 12.8136 19.3772 12.1211 19.7305 11.366C20.2121 10.3359 20.4875 9.19558 20.4875 7.9885C20.4875 3.5763 16.9116 0 12.5 0ZM12.5 12.3032C10.0376 12.3032 8.04153 10.3071 8.04153 7.84473C8.04153 5.38277 10.0376 3.38675 12.5 3.38675C14.9624 3.38675 16.9585 5.38286 16.9585 7.84473C16.9585 10.3072 14.9624 12.3032 12.5 12.3032Z" fill="#B62B2B"/>
<rect x="6.25" y="1.875" width="12.5" height="12.5" rx="6.25" fill="#AAD1FF"/>
<path d="M12.6041 10.4545C12.2158 10.4545 11.8276 10.3756 11.4581 10.2178C10.719 9.90207 10.1435 9.3085 9.83736 8.54634C9.20545 6.97303 9.93249 5.16286 11.4581 4.51119C12.1971 4.19549 13.0111 4.19549 13.7501 4.51119C14.4891 4.82688 15.0647 5.42048 15.3708 6.18261C16.0027 7.75593 15.2757 9.5661 13.7501 10.2178C13.3807 10.3756 12.9923 10.4545 12.6041 10.4545ZM12.6041 4.62029C12.2593 4.62029 11.9145 4.69037 11.5863 4.83057C10.2315 5.4093 9.58585 7.01686 10.147 8.41405C10.4189 9.09089 10.93 9.61802 11.5863 9.89839C12.2426 10.1788 12.9655 10.1788 13.6218 9.89839C14.9766 9.31966 15.6223 7.71212 15.0611 6.3149C14.7893 5.63808 14.2781 5.11093 13.6218 4.83057C13.2937 4.6904 12.9489 4.62029 12.6041 4.62029Z" fill="#FFD039"/>
<path d="M12.6043 9.25433C12.3668 9.25433 12.1294 9.20607 11.9034 9.10953C11.4514 8.91644 11.0994 8.55341 10.9121 8.08728C10.5257 7.12506 10.9703 6.01798 11.9034 5.61941C12.3553 5.42634 12.8532 5.42634 13.3052 5.61941C13.7572 5.81247 14.1092 6.17553 14.2964 6.64165C14.6829 7.60388 14.2382 8.71098 13.3052 9.10955C13.0792 9.20605 12.8417 9.25433 12.6043 9.25433ZM12.6043 5.68613C12.3934 5.68613 12.1825 5.72899 11.9818 5.81473C11.1532 6.16868 10.7583 7.15186 11.1015 8.00637C11.2678 8.42031 11.5804 8.74271 11.9818 8.91418C12.3832 9.08565 12.8253 9.08565 13.2267 8.91418C14.0553 8.56023 14.4502 7.57707 14.107 6.72254C13.9407 6.3086 13.6281 5.9862 13.2267 5.81473C13.026 5.72899 12.8151 5.68613 12.6043 5.68613Z" fill="#FFD039"/>
<path d="M12.3986 7.0257C12.3328 7.0257 12.2704 6.98552 12.2436 6.91894L11.3705 4.74509C11.3693 4.74254 11.3682 4.73995 11.3672 4.7373L11.2101 4.34597C11.1747 4.25777 11.2153 4.15666 11.3008 4.12013C11.3863 4.0836 11.4844 4.1255 11.5198 4.2137L11.6738 4.59727C11.675 4.59981 11.6761 4.60239 11.6771 4.60501L12.5534 6.78663C12.5888 6.87483 12.5482 6.97594 12.4626 7.01247C12.4417 7.02146 12.4199 7.0257 12.3986 7.0257Z" fill="#ED2E2E"/>
<path d="M13.8432 10.6224C13.7774 10.6224 13.715 10.5822 13.6883 10.5156L12.6549 7.94266C12.6195 7.85446 12.6601 7.75335 12.7456 7.71682C12.8311 7.68027 12.9292 7.72217 12.9646 7.81037L13.998 10.3833C14.0334 10.4715 13.9928 10.5726 13.9072 10.6092C13.8863 10.6181 13.8645 10.6224 13.8432 10.6224Z" fill="#ED2E2E"/>
<path d="M12.8094 7.02567C12.7881 7.02567 12.7663 7.02143 12.7454 7.01246C12.6598 6.97594 12.6192 6.87483 12.6547 6.78663L13.6883 4.21363C13.7237 4.12545 13.8218 4.0836 13.9073 4.12015C13.9928 4.1567 14.0334 4.25783 13.9979 4.34603L12.9644 6.91892C12.9376 6.9855 12.8752 7.02567 12.8094 7.02567Z" fill="#ED2E2E"/>
<path d="M11.3649 10.6224C11.3435 10.6224 11.3218 10.6181 11.3008 10.6092C11.2153 10.5727 11.1747 10.4715 11.2101 10.3833L12.2434 7.81035C12.2789 7.72215 12.377 7.6803 12.4624 7.71681C12.5479 7.75333 12.5886 7.85446 12.5531 7.94264L11.5198 10.5156C11.4931 10.5822 11.4306 10.6224 11.3649 10.6224Z" fill="#ED2E2E"/>
<path d="M13.1006 7.32554C13.0348 7.32554 12.9724 7.28537 12.9457 7.21879C12.9102 7.13059 12.9508 7.02948 13.0364 6.99295L15.5313 5.92724C15.6169 5.89076 15.7149 5.93261 15.7503 6.02083C15.7857 6.10904 15.7451 6.21014 15.6596 6.24667L13.1647 7.31236C13.1437 7.3213 13.122 7.32554 13.1006 7.32554Z" fill="#ED2E2E"/>
<path d="M9.61279 8.81532C9.54702 8.81532 9.48461 8.77512 9.45786 8.70854C9.42246 8.62034 9.46306 8.51924 9.54861 8.48271L12.0437 7.41702C12.1292 7.38047 12.2273 7.42237 12.2627 7.51057C12.2981 7.59877 12.2575 7.69987 12.172 7.7364L9.67684 8.80209C9.65588 8.81105 9.63416 8.81532 9.61279 8.81532Z" fill="#ED2E2E"/>
<path d="M15.5954 8.81526C15.574 8.81526 15.5523 8.81102 15.5313 8.80207L13.0364 7.73638C12.9509 7.69986 12.9102 7.59875 12.9457 7.51055C12.9811 7.42235 13.0792 7.38049 13.1647 7.417L15.6596 8.48269C15.7451 8.5192 15.7857 8.6203 15.7503 8.70853C15.7236 8.77504 15.6612 8.81526 15.5954 8.81526Z" fill="#ED2E2E"/>
<path d="M12.1078 7.32553C12.0864 7.32553 12.0647 7.32129 12.0437 7.31233L9.54857 6.24664C9.46306 6.21009 9.42244 6.10898 9.45788 6.02078C9.49332 5.93258 9.59145 5.89075 9.67689 5.92726L12.172 6.99292C12.2575 7.02945 12.2981 7.13056 12.2627 7.21876C12.236 7.28536 12.1736 7.32553 12.1078 7.32553Z" fill="#ED2E2E"/>
<path d="M15.5002 11.5002H9.70789C9.64598 11.5002 9.58915 11.465 9.56001 11.4087C9.53087 11.3524 9.53422 11.2841 9.56868 11.2311L11.9454 7.57562C11.997 7.49634 12.1011 7.47516 12.1779 7.52833C12.2548 7.5815 12.2753 7.68888 12.2238 7.76816L10.0221 11.1545H15.5002C15.5928 11.1545 15.6678 11.2319 15.6678 11.3274C15.6678 11.4228 15.5928 11.5002 15.5002 11.5002Z" fill="#666666"/>
<path d="M14.866 10.5249C14.812 10.5249 14.759 10.498 14.7267 10.4483L12.9842 7.76815C12.9327 7.68887 12.9532 7.58149 13.0301 7.52832C13.107 7.47515 13.2111 7.49636 13.2627 7.57564L15.0051 10.2558C15.0567 10.335 15.0361 10.4424 14.9592 10.4956C14.9306 10.5154 14.8981 10.5249 14.866 10.5249Z" fill="#666666"/>
<path d="M16.5081 10.291H14.5191C14.3876 10.291 14.281 10.401 14.281 10.5366V11.3271H16.7462V10.5366C16.7462 10.4009 16.6396 10.291 16.5081 10.291Z" fill="#ED2E2E"/>
<path d="M15.2641 10.291H14.5191C14.3876 10.291 14.281 10.401 14.281 10.5366V11.3271H15.0259V10.5366C15.0259 10.4009 15.1325 10.291 15.2641 10.291Z" fill="#D82525"/>
<path d="M9.32014 9.72349V11.3274H8.07983V9.72349C8.07983 9.61651 8.16393 9.52979 8.26767 9.52979H9.1323C9.23604 9.52979 9.32014 9.61651 9.32014 9.72349Z" fill="#B3B3B3"/>
<path d="M9.32 9.90234V10.248H8.75013C8.65761 10.248 8.58252 10.1708 8.58252 10.0752C8.58252 9.97978 8.65761 9.90234 8.75013 9.90234H9.32Z" fill="#666666"/>
<path d="M9.32 10.4556V10.8013H8.75013C8.65761 10.8013 8.58252 10.7238 8.58252 10.6284C8.58252 10.533 8.65761 10.4556 8.75013 10.4556H9.32Z" fill="#666666"/>
<path d="M16.2589 11.5C16.1663 11.5 16.0913 11.4226 16.0913 11.3272V10.8354C16.0913 10.74 16.1663 10.6626 16.2589 10.6626C16.3515 10.6626 16.4265 10.74 16.4265 10.8354V11.3272C16.4265 11.4226 16.3515 11.5 16.2589 11.5Z" fill="#666666"/>
<path d="M12.6041 7.91859C12.9008 7.91859 13.1413 7.67055 13.1413 7.36457C13.1413 7.05859 12.9008 6.81055 12.6041 6.81055C12.3074 6.81055 12.0669 7.05859 12.0669 7.36457C12.0669 7.67055 12.3074 7.91859 12.6041 7.91859Z" fill="#3B9DFF"/>
<path d="M12.6041 8.09225C12.5127 8.09225 12.4214 8.07367 12.3344 8.03652C12.1605 7.96222 12.025 7.82251 11.953 7.64314C11.8809 7.46376 11.8809 7.2662 11.953 7.08681C12.025 6.90744 12.1605 6.76773 12.3344 6.69342C12.5083 6.61912 12.6999 6.61912 12.8739 6.69342C13.0478 6.76773 13.1833 6.90744 13.2553 7.08681C13.3274 7.26618 13.3274 7.46374 13.2553 7.64314C13.1833 7.82251 13.0478 7.96222 12.8739 8.03652C12.7869 8.07367 12.6955 8.09225 12.6041 8.09225ZM12.6041 6.98358C12.5562 6.98358 12.5083 6.99333 12.4627 7.01281C12.3715 7.05178 12.3004 7.12502 12.2627 7.2191C12.2249 7.31317 12.2249 7.41677 12.2627 7.51082C12.3004 7.6049 12.3715 7.67814 12.4627 7.71712C12.5539 7.75609 12.6543 7.75609 12.7456 7.71712C12.8368 7.67817 12.9078 7.6049 12.9456 7.51082C12.9834 7.41675 12.9834 7.31315 12.9456 7.2191C12.9456 7.2191 12.9456 7.2191 12.9456 7.2191C12.9078 7.12504 12.8368 7.05178 12.7456 7.01281C12.7 6.99333 12.6521 6.98358 12.6041 6.98358Z" fill="#FFD039"/>
<path d="M17.4108 11.7457H7.58936C7.58936 11.6436 7.61461 11.5477 7.65908 11.464C7.68523 11.4147 7.71808 11.3698 7.75629 11.3304C7.85932 11.2239 8.0019 11.1582 8.15922 11.1582H16.8409C17.0566 11.1582 17.2443 11.2817 17.341 11.464C17.3855 11.5477 17.4108 11.6436 17.4108 11.7457Z" fill="#0FBC30"/>
<path d="M17.4108 11.7455H7.58936C7.58936 11.6434 7.61461 11.5475 7.65908 11.4639H17.341C17.3855 11.5475 17.4108 11.6434 17.4108 11.7455Z" fill="#07A521"/>
</g>
<defs>
<clipPath id="clip0_96:47">
<rect width="25" height="25" fill="white"/>
</clipPath>
</defs>
</svg>
