<svg width="191" height="233" viewBox="0 0 191 233" fill="none" xmlns="http://www.w3.org/2000/svg">
<g clip-path="url(#clip0)">
<path d="M133.14 53.6599H154.22C156.286 53.6565 158.284 54.396 159.85 55.7435C161.416 57.091 162.445 58.9566 162.75 60.9999L164.09 70.0599H123.28L124.61 60.9999C124.919 58.9584 125.949 57.0951 127.514 55.7484C129.079 54.4016 131.075 53.6607 133.14 53.6599V53.6599Z" fill="white" stroke="#30302D" stroke-width="3" stroke-miterlimit="10"/>
<path d="M138.11 32.9399H149.27V53.6599H138.11V32.9399Z" fill="white" stroke="#30302D" stroke-width="3" stroke-miterlimit="10"/>
<path d="M86.9099 14.27L90.5299 23.6L123.28 27.54C123.28 30.89 126 32.94 129.35 32.94H155.13C155.724 32.94 156.313 32.8228 156.862 32.595C157.411 32.3672 157.91 32.0334 158.33 31.6126C158.749 31.1918 159.082 30.6924 159.309 30.1428C159.535 29.5933 159.651 29.0044 159.65 28.41V24.18C159.651 22.8791 159.396 21.5907 158.899 20.3884C158.402 19.1861 157.673 18.0936 156.754 17.1732C155.834 16.2528 154.743 15.5227 153.541 15.0246C152.339 14.5264 151.051 14.27 149.75 14.27H86.9099Z" fill="#82BAFF" stroke="#30302D" stroke-width="3" stroke-miterlimit="10"/>
<path d="M75.04 18.76H57.59" stroke="#30302D" stroke-width="3" stroke-miterlimit="10"/>
<path d="M77.6199 11.07L63.2099 1.23999" stroke="#30302D" stroke-width="3" stroke-miterlimit="10"/>
<path d="M76.8401 25.9199L61.9101 34.9399" stroke="#30302D" stroke-width="3" stroke-miterlimit="10"/>
<path d="M99.93 93.4401V207.89C99.9326 214.082 102.394 220.02 106.772 224.398C111.15 228.776 117.088 231.237 123.28 231.24H165.37C171.562 231.237 177.5 228.776 181.878 224.398C186.256 220.02 188.717 214.082 188.72 207.89V93.4401C188.72 87.2464 186.26 81.3062 181.882 76.9256C177.503 72.545 171.564 70.0827 165.37 70.0801H123.28C117.086 70.0827 111.147 72.545 106.768 76.9256C102.39 81.3062 99.93 87.2464 99.93 93.4401V93.4401Z" fill="white" stroke="#30302D" stroke-width="3" stroke-miterlimit="10"/>
<path d="M99.93 106.78H188.72V194.54H99.93V106.78Z" fill="#82BAFF" stroke="#30302D" stroke-width="3" stroke-miterlimit="10"/>
<path d="M25.64 136.16C26.0411 134.297 26.9956 132.598 28.3785 131.287C29.7614 129.975 31.5082 129.112 33.39 128.81C33.8465 127.479 34.374 126.174 34.97 124.9C32.8947 122.442 31.8047 119.301 31.9108 116.085C32.0169 112.87 33.3116 109.808 35.5445 107.492C37.7774 105.175 40.7898 103.769 43.9993 103.546C47.2088 103.322 50.3872 104.296 52.92 106.28C55.7904 104.807 58.8294 103.689 61.97 102.95C62.0039 102.379 62.0774 101.811 62.19 101.25C62.7629 98.5287 64.3398 96.1231 66.6067 94.5124C68.8736 92.9017 71.6641 92.2041 74.4223 92.5585C77.1805 92.9129 79.7039 94.2933 81.49 96.4247C83.2761 98.5562 84.1937 101.282 84.06 104.06C87.2587 105.16 90.306 106.658 93.13 108.52C93.9636 107.413 95.0297 106.502 96.2533 105.852C97.477 105.201 98.8283 104.827 100.212 104.755C101.596 104.683 102.979 104.916 104.263 105.436C105.548 105.957 106.702 106.752 107.646 107.767C108.59 108.782 109.299 109.991 109.725 111.31C110.151 112.629 110.282 114.025 110.11 115.4C109.938 116.775 109.466 118.096 108.728 119.269C107.991 120.442 107.005 121.439 105.84 122.19C107.799 125.661 109.228 129.406 110.08 133.3C110.47 133.3 110.86 133.39 111.26 133.47C113.522 133.949 115.53 135.239 116.905 137.097C118.281 138.955 118.928 141.253 118.725 143.556C118.522 145.859 117.482 148.008 115.803 149.597C114.124 151.186 111.921 152.105 109.61 152.18C108.475 156.389 106.654 160.383 104.22 164C106.242 166.868 107.062 170.414 106.505 173.878C105.947 177.343 104.057 180.452 101.238 182.542C98.418 184.631 94.8931 185.535 91.4161 185.06C87.9391 184.585 84.7858 182.769 82.63 180C79.271 181.023 75.79 181.591 72.28 181.69C71.1181 183.85 69.2709 185.563 67.029 186.559C64.7871 187.555 62.2778 187.777 59.8958 187.191C57.5138 186.604 55.3944 185.243 53.8709 183.32C52.3474 181.397 51.5063 179.023 51.48 176.57C48.2785 174.761 45.3437 172.516 42.76 169.9C41.1653 170.764 39.3563 171.152 37.5477 171.018C35.739 170.884 34.0067 170.235 32.5561 169.146C31.1055 168.058 29.9975 166.576 29.3637 164.877C28.7298 163.178 28.5967 161.333 28.98 159.56C29.4994 157.152 30.9336 155.04 32.98 153.67C32.3052 151.512 31.8167 149.301 31.52 147.06C29.3933 146.253 27.6283 144.708 26.5484 142.706C25.4685 140.704 25.146 138.38 25.64 136.16Z" fill="white" stroke="#30302D" stroke-width="3" stroke-miterlimit="10"/>
<path d="M38.52 91.9401L123.56 177C132.339 165.308 136.605 150.841 135.575 136.256C134.544 121.671 128.287 107.948 117.951 97.6058C107.615 87.264 93.8954 80.9982 79.3112 79.9593C64.7269 78.9203 50.2574 83.1779 38.56 91.95L38.52 91.9401Z" stroke="#30302D" stroke-width="3" stroke-miterlimit="10"/>
<path d="M14.3301 140.45C14.3273 151.739 17.4709 162.806 23.4081 172.409C29.3453 182.011 37.8411 189.768 47.9421 194.81C58.0431 199.853 69.3494 201.98 80.5921 200.954C91.8349 199.927 102.569 195.788 111.59 189L26.5901 103.95C18.6382 114.457 14.3335 127.273 14.3301 140.45Z" stroke="#30302D" stroke-width="3" stroke-miterlimit="10"/>
<path d="M75.04 66.9199C89.5853 66.9199 103.804 71.2332 115.898 79.3143C127.992 87.3955 137.417 98.8814 142.983 112.32C148.549 125.758 150.005 140.545 147.166 154.811C144.328 169.076 137.323 182.18 127.037 192.464C116.751 202.748 103.647 209.752 89.3809 212.588C75.1148 215.425 60.3281 213.967 46.8906 208.399C33.4531 202.832 21.9684 193.404 13.8889 181.309C5.80944 169.214 1.49807 154.995 1.50005 140.45C1.49873 130.793 3.40007 121.23 7.09546 112.307C10.7908 103.385 16.2079 95.2782 23.0371 88.4499C29.8663 81.6216 37.9739 76.2057 46.8967 72.5115C55.8195 68.8173 65.3827 66.9173 75.04 66.9199V66.9199ZM135.77 140.45C135.768 129.164 132.621 118.102 126.682 108.505C120.743 98.908 112.247 91.1557 102.148 86.1181C92.0487 81.0804 80.7455 78.9566 69.5065 79.985C58.2675 81.0133 47.5374 85.1531 38.5201 91.9399L123.56 177C131.506 166.474 135.794 153.639 135.77 140.45V140.45ZM75.05 201.17C88.2301 201.199 101.06 196.926 111.59 189L26.59 103.95C19.8009 112.967 15.6587 123.697 14.6284 134.936C13.5982 146.176 15.7205 157.48 20.7573 167.581C25.7941 177.682 33.5461 186.179 43.1433 192.119C52.7405 198.059 63.8033 201.207 75.09 201.21L75.05 201.17Z" fill="#FFC3B8" stroke="#30302D" stroke-width="3" stroke-miterlimit="10"/>
<path d="M78.05 115.25L77.14 109.86" stroke="#30302D" stroke-width="3" stroke-linecap="round" stroke-linejoin="round"/>
<path d="M100.46 136.37L92.81 133.98" stroke="#30302D" stroke-width="3" stroke-linecap="round" stroke-linejoin="round"/>
<path d="M76.6599 170.22L67.4899 167.06" stroke="#30302D" stroke-width="3" stroke-linecap="round" stroke-linejoin="round"/>
<path d="M50.96 144.88L47.36 153.89" stroke="#30302D" stroke-width="3" stroke-linecap="round" stroke-linejoin="round"/>
</g>
<defs>
<clipPath id="clip0">
<rect width="190.22" height="232.74" fill="white" transform="matrix(-1 0 0 1 190.22 0)"/>
</clipPath>
</defs>
</svg>
