<svg width="234" height="214" viewBox="0 0 234 214" fill="none" xmlns="http://www.w3.org/2000/svg">
<g clip-path="url(#clip0)">
<path d="M231.34 120C231.291 120.997 230.851 121.935 230.115 122.611C229.38 123.287 228.408 123.645 227.41 123.61C227.285 123.603 227.162 123.586 227.04 123.56L228.35 137.25C225.92 138.01 223.52 138.66 221.11 139.19C217.183 140.047 213.193 140.582 209.18 140.79C207.28 140.88 205.38 140.91 203.5 140.85C199.501 140.73 195.52 140.269 191.6 139.47C188.764 138.889 185.963 138.147 183.21 137.25L184.49 124C184.207 124.098 183.91 124.152 183.61 124.16C182.61 124.201 181.634 123.844 180.895 123.168C180.157 122.491 179.717 121.55 179.67 120.55C179.35 113.39 178.83 97.83 180.05 90.73C181.66 81.47 185.61 72.47 192.18 65.73C192.198 65.6962 192.226 65.6684 192.26 65.65C195.26 62.02 200.2 60.43 205.79 60.43C209.665 60.2775 213.497 61.2912 216.79 63.34C217.775 64.0125 218.655 64.8281 219.4 65.76C225.62 72.4 229.4 81.12 230.92 90.09C232.19 97.28 231.67 112.84 231.34 120Z" fill="#82BAFF" stroke="#30302D" stroke-width="3" stroke-miterlimit="10"/>
<path d="M184.489 124C185.18 123.782 185.795 123.373 186.263 122.821C186.732 122.27 187.036 121.597 187.139 120.88C188.729 107.12 188.009 88.5901 193.069 83.1101" stroke="#30302D" stroke-width="3" stroke-miterlimit="10"/>
<path d="M218.55 83.1301C223.61 88.6101 222.88 107.13 224.47 120.9C224.58 121.772 225.003 122.575 225.66 123.16C226.074 123.56 226.578 123.855 227.13 124.02" fill="#82BAFF"/>
<path d="M218.55 83.1301C223.61 88.6101 222.88 107.13 224.47 120.9C224.58 121.772 225.003 122.575 225.66 123.16C226.074 123.56 226.578 123.855 227.13 124.02" stroke="#30302D" stroke-width="3" stroke-miterlimit="10"/>
<path d="M192.46 65.48C192.39 65.56 192.32 65.62 192.26 65.7" stroke="#30302D" stroke-width="3" stroke-miterlimit="10"/>
<path d="M219.41 65.8102C219.13 65.5102 218.84 65.2002 218.55 64.9102" stroke="#30302D" stroke-width="3" stroke-miterlimit="10"/>
<path d="M205.78 60.47C214.533 60.47 221.63 53.3737 221.63 44.62C221.63 35.8663 214.533 28.77 205.78 28.77C197.026 28.77 189.93 35.8663 189.93 44.62C189.93 53.3737 197.026 60.47 205.78 60.47Z" fill="white" stroke="#30302D" stroke-width="3" stroke-miterlimit="10"/>
<path d="M203.5 140.86L201.21 183.86H194L191.64 139.52C195.548 140.303 199.515 140.751 203.5 140.86V140.86Z" stroke="#30302D" stroke-width="3" stroke-miterlimit="10"/>
<path d="M221.11 139.2L218.73 183.82H211.47L209.18 140.82C213.194 140.606 217.184 140.064 221.11 139.2V139.2Z" stroke="#30302D" stroke-width="3" stroke-miterlimit="10"/>
<path d="M26.8091 127.55L21.8091 183.82H14.3291L12.3291 124.18C17.5091 127.14 22.1691 127.46 26.8091 127.55Z" stroke="#30302D" stroke-width="3" stroke-miterlimit="10"/>
<path d="M45.75 124.19L43.75 183.82H36.25L31.25 127.55C35.88 127.45 40.67 127.08 45.75 124.19Z" stroke="#30302D" stroke-width="3" stroke-miterlimit="10"/>
<path d="M56.2395 127.46C56.2118 128.051 56.0503 128.628 55.7673 129.147C55.4843 129.666 55.0872 130.115 54.6059 130.459C54.1246 130.802 53.5715 131.032 52.9884 131.131C52.4053 131.23 51.8074 131.196 51.2395 131.03C47.9895 130.2 47.6495 128.5 47.7995 123.3C47.8036 123.261 47.7966 123.222 47.7794 123.186C47.7622 123.151 47.7353 123.121 47.702 123.1C47.6686 123.079 47.6301 123.068 47.5908 123.068C47.5514 123.068 47.5129 123.079 47.4795 123.1C46.8995 123.5 46.3095 123.87 45.7295 124.19C40.6495 127.08 35.8595 127.45 31.2595 127.55H28.8695H26.7895C22.1495 127.46 17.4895 127.14 12.3395 124.18C11.7795 123.86 11.2095 123.5 10.6295 123.1C10.5952 123.078 10.5553 123.065 10.5143 123.064C10.4733 123.063 10.4328 123.074 10.3974 123.095C10.362 123.115 10.3332 123.146 10.3141 123.182C10.2951 123.218 10.2866 123.259 10.2895 123.3C10.4395 128.5 10.1095 130.2 6.84954 131.03C6.2818 131.194 5.68444 131.227 5.10212 131.127C4.5198 131.027 3.96758 130.797 3.48674 130.454C3.00591 130.11 2.6089 129.663 2.32539 129.144C2.04188 128.626 1.87921 128.05 1.84954 127.46C0.769541 108.58 2.06954 86.4601 3.90954 77.5701C4.84239 73.0705 7.29632 69.0293 10.8586 66.1263C14.4209 63.2233 18.8742 61.6355 23.4695 61.6301H29.0695H34.6695C39.258 61.6447 43.7019 63.2366 47.256 66.1389C50.8101 69.0411 53.2581 73.0772 54.1895 77.5701C55.9995 86.4101 57.3195 108.58 56.2395 127.46Z" fill="#82BAFF" stroke="#30302D" stroke-width="3" stroke-miterlimit="10"/>
<path d="M7.5498 130.83C8.24636 130.672 8.87432 130.296 9.34205 129.757C9.80978 129.217 10.0928 128.542 10.1498 127.83C10.9998 118.14 8.9998 84.39 13.9998 78.5" fill="#82BAFF"/>
<path d="M7.5498 130.83C8.24636 130.672 8.87432 130.296 9.34205 129.757C9.80978 129.217 10.0928 128.542 10.1498 127.83C10.9998 118.14 8.9998 84.39 13.9998 78.5" stroke="#30302D" stroke-width="3" stroke-miterlimit="10"/>
<path d="M44.1992 78.5C49.1992 84.39 47.1992 118.14 48.0692 127.83C48.1262 128.542 48.4092 129.217 48.877 129.757C49.3447 130.296 49.9727 130.672 50.6692 130.83" stroke="#30302D" stroke-width="3" stroke-miterlimit="10"/>
<path d="M28.89 61.55C37.9419 61.55 45.28 54.212 45.28 45.16C45.28 36.1081 37.9419 28.77 28.89 28.77C19.8381 28.77 12.5 36.1081 12.5 45.16C12.5 54.212 19.8381 61.55 28.89 61.55Z" fill="white" stroke="#30302D" stroke-width="3" stroke-miterlimit="10"/>
<path d="M12.2598 206.25H220.97" stroke="#30302D" stroke-width="3" stroke-miterlimit="10" stroke-linecap="round"/>
<path d="M14.45 213.73L1.5 206.25L14.45 198.77V213.73Z" fill="#30302D"/>
<path d="M218.779 213.73L231.739 206.25L218.779 198.77V213.73Z" fill="#30302D"/>
<path d="M111.899 186.19L105.239 164.48H105.069C105.309 168.887 105.429 171.833 105.429 173.32V186.19H100.189V158.51H108.189L114.739 179.68H114.849L121.849 158.51H129.849V186.19H124.299V173.09C124.299 172.47 124.299 171.76 124.299 170.95C124.299 170.14 124.409 168 124.559 164.51H124.389L117.249 186.19H111.899Z" fill="#30302D"/>
<path d="M113.819 33.12L80.5691 90.71C80.4419 90.9089 80.3712 91.1388 80.3647 91.3749C80.3583 91.611 80.4163 91.8443 80.5324 92.05C80.6486 92.2556 80.8186 92.4257 81.0241 92.5419C81.2297 92.6582 81.463 92.7163 81.6991 92.71H148.199C148.434 92.7145 148.666 92.655 148.87 92.538C149.075 92.4209 149.243 92.2507 149.358 92.0454C149.473 91.8401 149.53 91.6075 149.523 91.3723C149.516 91.1371 149.446 90.9082 149.319 90.71L116.069 33.12C115.955 32.9228 115.791 32.759 115.593 32.6452C115.396 32.5314 115.172 32.4714 114.944 32.4714C114.716 32.4714 114.492 32.5314 114.295 32.6452C114.097 32.759 113.933 32.9228 113.819 33.12V33.12Z" fill="#FFC3B8" stroke="#30302D" stroke-width="3" stroke-miterlimit="10"/>
<path d="M118.17 73.0702H111.76L110.76 54.6802H119.15L118.17 73.0702ZM110.85 79.8702C110.815 79.3673 110.885 78.8627 111.058 78.389C111.23 77.9153 111.5 77.483 111.85 77.1202C112.702 76.4041 113.799 76.0458 114.91 76.1202C116.003 76.0434 117.081 76.403 117.91 77.1202C118.258 77.4841 118.527 77.9165 118.699 78.3899C118.871 78.8634 118.943 79.3675 118.91 79.8702C118.94 80.3747 118.861 80.8798 118.678 81.351C118.495 81.8222 118.213 82.2483 117.85 82.6002C117.018 83.3107 115.942 83.6693 114.85 83.6002C113.76 83.653 112.69 83.2963 111.85 82.6002C111.497 82.2438 111.225 81.8154 111.052 81.3443C110.879 80.8732 110.81 80.3704 110.85 79.8702V79.8702Z" fill="#30302D"/>
<path d="M170.94 184.52C170.939 184.261 170.861 184.008 170.715 183.794C170.569 183.58 170.361 183.415 170.12 183.32C170.098 183.128 170.064 182.938 170.02 182.75C170.327 182.535 170.558 182.228 170.68 181.873C170.801 181.518 170.806 181.133 170.695 180.775C170.584 180.417 170.362 180.103 170.06 179.879C169.759 179.656 169.395 179.533 169.02 179.53C168.726 179.526 168.437 179.598 168.18 179.74C167.82 179.444 167.423 179.195 167 179C167.005 178.924 167.005 178.847 167 178.77C166.981 178.404 166.83 178.056 166.575 177.792C166.32 177.528 165.979 177.365 165.613 177.334C165.247 177.302 164.883 177.404 164.586 177.62C164.29 177.836 164.081 178.152 164 178.51C163.54 178.565 163.09 178.68 162.66 178.85C162.554 178.626 162.387 178.437 162.178 178.305C161.969 178.172 161.727 178.101 161.48 178.1C161.222 178.097 160.97 178.171 160.755 178.312C160.54 178.454 160.372 178.657 160.273 178.894C160.174 179.132 160.148 179.394 160.2 179.646C160.251 179.898 160.376 180.13 160.56 180.31C160.198 180.719 159.901 181.181 159.68 181.68H159.51C159.199 181.689 158.902 181.808 158.672 182.017C158.442 182.225 158.294 182.51 158.255 182.818C158.217 183.126 158.29 183.438 158.461 183.697C158.632 183.956 158.891 184.145 159.19 184.23C159.227 184.823 159.355 185.406 159.57 185.96C159.298 186.211 159.109 186.539 159.026 186.899C158.944 187.26 158.972 187.637 159.107 187.981C159.242 188.326 159.477 188.622 159.783 188.83C160.089 189.038 160.45 189.15 160.82 189.15C161.252 189.151 161.67 188.999 162 188.72C162.422 188.952 162.873 189.13 163.34 189.25C163.431 189.575 163.628 189.86 163.9 190.059C164.172 190.259 164.503 190.362 164.84 190.351C165.177 190.341 165.501 190.218 165.76 190.002C166.019 189.786 166.199 189.49 166.27 189.16C166.75 189.01 167.208 188.795 167.63 188.52C167.865 188.718 168.162 188.828 168.47 188.83C168.815 188.83 169.145 188.693 169.389 188.449C169.633 188.206 169.77 187.875 169.77 187.53C169.77 187.363 169.738 187.198 169.674 187.043C169.611 186.889 169.518 186.748 169.4 186.63C169.55 186.36 169.68 186.079 169.79 185.79C170.103 185.754 170.392 185.605 170.604 185.371C170.815 185.138 170.935 184.835 170.94 184.52Z" fill="#30302D"/>
<path d="M170.939 49.2201C170.94 48.9605 170.863 48.7067 170.716 48.4924C170.57 48.2781 170.362 48.1134 170.119 48.0201C170.097 47.8282 170.064 47.6379 170.019 47.4501C170.327 47.2349 170.558 46.9277 170.679 46.5727C170.8 46.2177 170.806 45.8333 170.695 45.4751C170.583 45.1168 170.361 44.8031 170.06 44.5793C169.759 44.3556 169.394 44.2333 169.019 44.2301C168.726 44.2259 168.436 44.2983 168.179 44.4401C167.836 44.1586 167.46 43.9202 167.059 43.7301C167.064 43.6535 167.064 43.5767 167.059 43.5001C167.041 43.1336 166.89 42.7862 166.635 42.5222C166.38 42.2581 166.038 42.0952 165.673 42.0635C165.307 42.0319 164.942 42.1335 164.646 42.3498C164.349 42.566 164.141 42.8823 164.059 43.2401C163.6 43.2953 163.15 43.4096 162.719 43.5801C162.614 43.3564 162.447 43.1672 162.238 43.0345C162.029 42.9018 161.787 42.8309 161.539 42.8301C161.282 42.8269 161.029 42.9009 160.814 43.0424C160.599 43.1839 160.431 43.3865 160.333 43.6242C160.234 43.8619 160.208 44.1237 160.259 44.376C160.31 44.6284 160.436 44.8596 160.619 45.0401C160.258 45.4491 159.961 45.9111 159.739 46.4101H159.569C159.259 46.4185 158.962 46.5379 158.731 46.7466C158.501 46.9553 158.353 47.2395 158.315 47.5477C158.276 47.856 158.349 48.1679 158.521 48.4269C158.692 48.686 158.95 48.8752 159.249 48.9601C159.287 49.5528 159.415 50.1362 159.629 50.6901C159.358 50.9414 159.169 51.2687 159.086 51.6293C159.003 51.9899 159.031 52.367 159.166 52.7114C159.301 53.0558 159.537 53.3515 159.843 53.56C160.148 53.7685 160.509 53.88 160.879 53.8801C161.311 53.8813 161.729 53.7289 162.059 53.4501C162.482 53.6821 162.932 53.8602 163.399 53.9801C163.49 54.3048 163.688 54.5897 163.96 54.7893C164.231 54.989 164.562 55.0918 164.9 55.0814C165.237 55.0711 165.561 54.9481 165.82 54.7322C166.079 54.5163 166.258 54.2198 166.329 53.8901C166.81 53.7403 167.268 53.525 167.689 53.2501C167.925 53.4481 168.222 53.5578 168.529 53.5601C168.874 53.5601 169.205 53.4231 169.449 53.1793C169.692 52.9355 169.829 52.6049 169.829 52.2601C169.83 52.0931 169.797 51.9277 169.734 51.7732C169.67 51.6188 169.577 51.4784 169.459 51.3601C169.609 51.0899 169.74 50.8091 169.849 50.5201C170.157 50.4698 170.436 50.311 170.636 50.0724C170.836 49.8338 170.943 49.5314 170.939 49.2201V49.2201Z" fill="#30302D"/>
<path d="M139.119 7.24008C139.126 6.97435 139.051 6.71301 138.904 6.4913C138.757 6.26958 138.546 6.09814 138.299 6.00008C138.277 5.81166 138.243 5.62469 138.199 5.44008C138.438 5.28165 138.636 5.06816 138.775 4.81757C138.914 4.56698 138.991 4.28662 138.999 4.00008C138.999 3.52972 138.813 3.07848 138.481 2.74495C138.15 2.41142 137.7 2.22272 137.229 2.22008C136.935 2.21946 136.645 2.29526 136.389 2.44008C136.045 2.16079 135.669 1.92252 135.269 1.73008C135.274 1.65349 135.274 1.57666 135.269 1.50008C135.25 1.13356 135.1 0.786213 134.845 0.522172C134.59 0.258132 134.248 0.0952281 133.883 0.0635404C133.517 0.0318527 133.152 0.133521 132.856 0.349772C132.559 0.566024 132.351 0.882255 132.269 1.24008C131.81 1.29531 131.359 1.40959 130.929 1.58008C130.85 1.40666 130.734 1.25269 130.589 1.12907C130.444 1.00545 130.274 0.915201 130.09 0.86471C129.907 0.814219 129.714 0.804719 129.526 0.836882C129.339 0.869046 129.16 0.942087 129.004 1.05084C128.847 1.15959 128.717 1.30139 128.621 1.4662C128.526 1.63102 128.467 1.81482 128.451 2.0046C128.434 2.19438 128.459 2.3855 128.525 2.56444C128.59 2.74337 128.694 2.90575 128.829 3.04008C128.468 3.44907 128.171 3.91111 127.949 4.41008H127.779C127.436 4.41272 127.108 4.55084 126.866 4.79435C126.625 5.03787 126.489 5.36702 126.489 5.71008C126.489 6.00107 126.588 6.28346 126.77 6.51069C126.952 6.73792 127.205 6.89642 127.489 6.96008C127.527 7.55603 127.655 8.14278 127.869 8.70008C127.682 8.87154 127.533 9.08022 127.432 9.31271C127.33 9.54519 127.278 9.79636 127.279 10.0501C127.282 10.5373 127.477 11.0038 127.821 11.3483C128.166 11.6927 128.632 11.8875 129.119 11.8901C129.551 11.8913 129.969 11.7389 130.299 11.4601C130.72 11.6932 131.171 11.8682 131.639 11.9801C131.727 12.297 131.916 12.5764 132.178 12.7751C132.44 12.9739 132.76 13.081 133.089 13.0801C133.433 13.0797 133.767 12.9629 134.035 12.7486C134.304 12.5342 134.492 12.2351 134.569 11.9001C135.05 11.7503 135.508 11.535 135.929 11.2601C136.165 11.4581 136.462 11.5678 136.769 11.5701C136.94 11.5701 137.109 11.5365 137.267 11.4711C137.424 11.4058 137.568 11.31 137.688 11.1893C137.809 11.0686 137.905 10.9253 137.97 10.7676C138.036 10.6098 138.069 10.4408 138.069 10.2701C138.07 10.1031 138.037 9.93767 137.974 9.78323C137.91 9.6288 137.817 9.4884 137.699 9.37008C137.851 9.09732 137.982 8.81313 138.089 8.52008C138.383 8.45967 138.646 8.29885 138.834 8.06525C139.022 7.83166 139.123 7.53988 139.119 7.24008V7.24008Z" fill="#30302D"/>
<path d="M86.7293 26.6401C86.7297 26.3795 86.6517 26.1247 86.5055 25.909C86.3593 25.6932 86.1516 25.5264 85.9093 25.4301C85.9093 25.2401 85.8493 25.0501 85.8093 24.8601C86.1167 24.645 86.3477 24.3378 86.4691 23.9828C86.5905 23.6278 86.596 23.2434 86.4847 22.8851C86.3734 22.5268 86.1512 22.2131 85.8501 21.9894C85.5489 21.7656 85.1845 21.6433 84.8093 21.6401C84.5132 21.6407 84.2216 21.7128 83.9593 21.8501C83.6199 21.5688 83.2471 21.3303 82.8493 21.1401C82.8547 21.0636 82.8547 20.9867 82.8493 20.9101C82.8506 20.5305 82.7088 20.1643 82.4522 19.8845C82.1957 19.6047 81.8431 19.4318 81.4647 19.4002C81.0864 19.3687 80.7101 19.4809 80.4107 19.7143C80.1113 19.9478 79.9109 20.2855 79.8493 20.6601C79.3865 20.7144 78.9327 20.8287 78.4993 21.0001C78.3936 20.7764 78.2266 20.5873 78.0178 20.4545C77.8089 20.3218 77.5668 20.2509 77.3193 20.2501C76.9745 20.2501 76.6439 20.3871 76.4001 20.6309C76.1563 20.8747 76.0193 21.2053 76.0193 21.5501C76.0193 21.7194 76.0529 21.887 76.1182 22.0432C76.1834 22.1994 76.279 22.3411 76.3993 22.4601C76.038 22.8713 75.7382 23.3328 75.5093 23.8301H75.3493C75.0471 23.8455 74.7598 23.9657 74.5367 24.1702C74.3137 24.3747 74.169 24.6506 74.1275 24.9503C74.086 25.25 74.1504 25.5548 74.3096 25.8122C74.4687 26.0695 74.7126 26.2633 74.9993 26.3601C75.032 26.9535 75.1604 27.5377 75.3793 28.0901C75.1942 28.2631 75.0464 28.4721 74.945 28.7042C74.8435 28.9364 74.7905 29.1868 74.7893 29.4401C74.7928 29.7863 74.8938 30.1245 75.0808 30.4159C75.2678 30.7072 75.5332 30.9399 75.8466 31.0872C76.1599 31.2344 76.5084 31.2903 76.8521 31.2484C77.1957 31.2064 77.5206 31.0684 77.7893 30.8501C78.2105 31.0855 78.6611 31.2638 79.1293 31.3801C79.2203 31.6944 79.4109 31.9705 79.6724 32.1671C79.9339 32.3637 80.2522 32.47 80.5793 32.4701C80.9231 32.4698 81.2566 32.3529 81.5254 32.1386C81.7942 31.9243 81.9824 31.6252 82.0593 31.2901C82.5392 31.1384 82.9966 30.9232 83.4193 30.6501C83.6509 30.8545 83.9505 30.965 84.2593 30.9601C84.6024 30.9601 84.9315 30.8245 85.175 30.5829C85.4186 30.3413 85.5567 30.0132 85.5593 29.6701C85.5606 29.5016 85.5286 29.3344 85.4651 29.1782C85.4016 29.0221 85.3079 28.88 85.1893 28.7601C85.3394 28.4899 85.4698 28.2092 85.5793 27.9201C85.8949 27.8857 86.1867 27.736 86.3989 27.4999C86.6111 27.2637 86.7287 26.9576 86.7293 26.6401V26.6401Z" fill="#30302D"/>
<path d="M73.1793 170.37C73.1803 170.108 73.1014 169.852 72.9531 169.636C72.8048 169.419 72.5942 169.254 72.3493 169.16C72.3291 168.969 72.2991 168.778 72.2593 168.59C72.5667 168.375 72.7977 168.068 72.9191 167.713C73.0405 167.358 73.046 166.973 72.9347 166.615C72.8234 166.257 72.6012 165.943 72.3001 165.719C71.9989 165.496 71.6345 165.373 71.2593 165.37C70.9666 165.372 70.6785 165.444 70.4193 165.58C70.0754 165.3 69.6995 165.062 69.2993 164.87C69.3096 164.794 69.3096 164.716 69.2993 164.64C69.3006 164.26 69.1588 163.894 68.9022 163.614C68.6457 163.335 68.2931 163.162 67.9147 163.13C67.5364 163.099 67.1601 163.211 66.8607 163.444C66.5613 163.678 66.3609 164.015 66.2993 164.39C65.8373 164.443 65.3837 164.554 64.9493 164.72C64.8702 164.546 64.7537 164.392 64.6081 164.268C64.4625 164.144 64.2914 164.054 64.1071 164.004C63.9227 163.954 63.7295 163.945 63.5413 163.978C63.3531 164.011 63.1745 164.085 63.0182 164.195C62.8619 164.305 62.7318 164.448 62.637 164.614C62.5423 164.78 62.4854 164.965 62.4702 165.155C62.455 165.346 62.482 165.537 62.5493 165.716C62.6165 165.895 62.7224 166.057 62.8593 166.19C62.496 166.596 62.196 167.055 61.9693 167.55H61.7993C61.4771 167.538 61.162 167.648 60.9163 167.856C60.6707 168.065 60.5121 168.359 60.472 168.679C60.4318 168.999 60.5129 169.322 60.6994 169.585C60.8859 169.848 61.1641 170.032 61.4793 170.1C61.5071 170.694 61.6356 171.279 61.8593 171.83C61.6742 172.003 61.5264 172.212 61.425 172.444C61.3235 172.676 61.2706 172.927 61.2693 173.18C61.2746 173.665 61.4708 174.128 61.8153 174.468C62.1598 174.809 62.6248 175 63.1093 175C63.5393 175 63.956 174.852 64.2893 174.58C64.7081 174.811 65.1553 174.985 65.6193 175.1C65.7137 175.414 65.9065 175.69 66.1694 175.886C66.4323 176.082 66.7513 176.189 67.0793 176.19C67.4237 176.191 67.7578 176.073 68.0255 175.856C68.2932 175.639 68.4782 175.337 68.5493 175C69.0323 174.857 69.4908 174.641 69.9093 174.36C70.145 174.565 70.4467 174.679 70.7593 174.68C71.1033 174.677 71.4324 174.54 71.6757 174.296C71.9189 174.053 72.0567 173.724 72.0593 173.38C72.0608 173.04 71.9279 172.713 71.6893 172.47C71.8403 172.202 71.9674 171.921 72.0693 171.63C72.3743 171.587 72.6538 171.437 72.8574 171.205C73.061 170.974 73.1752 170.678 73.1793 170.37V170.37Z" fill="#30302D"/>
<path d="M130 148.414H100.847V142.724L114.606 128.299C116.495 126.268 117.887 124.496 118.783 122.983C119.698 121.469 120.156 120.033 120.156 118.672C120.156 116.814 119.679 115.358 118.724 114.305C117.77 113.232 116.407 112.695 114.635 112.695C112.726 112.695 111.217 113.347 110.107 114.649C109.017 115.933 108.471 117.628 108.471 119.736H100C100 117.188 100.613 114.86 101.84 112.753C103.087 110.646 104.839 108.998 107.098 107.81C109.357 106.603 111.918 106 114.781 106C119.163 106 122.561 107.034 124.976 109.103C127.41 111.172 128.627 114.094 128.627 117.868C128.627 119.937 128.082 122.044 126.991 124.19C125.901 126.335 124.031 128.835 121.383 131.69L111.714 141.718H130V148.414Z" fill="#30302D"/>
</g>
<defs>
<clipPath id="clip0">
<rect width="233.24" height="213.73" fill="white"/>
</clipPath>
</defs>
</svg>
