<svg width="50" height="50" viewBox="0 0 50 50" fill="none" xmlns="http://www.w3.org/2000/svg">
<path d="M45.9725 38.7461H4.02754C1.80674 38.7461 0 40.5527 0 42.7736C0 44.9945 1.80674 46.8012 4.02754 46.8012H45.9725C48.1933 46.8012 50 44.9944 50 42.7736C50 40.5529 48.1933 38.7461 45.9725 38.7461Z" fill="#0E4151"/>
<path d="M5.73437 26.0806C4.84834 26.0806 4.13008 25.3623 4.13008 24.4763V8.08447C4.13008 7.15977 3.37764 6.40733 2.45293 6.40733C1.56689 6.40733 0.848633 5.68906 0.848633 4.80303C0.848633 3.91699 1.56689 3.19873 2.45293 3.19873C5.14687 3.19873 7.33867 5.39043 7.33867 8.08447V24.4763C7.33867 25.3623 6.62041 26.0806 5.73437 26.0806Z" fill="#DEE1E7"/>
<path d="M5.73437 26.0806C4.84834 26.0806 4.13008 25.3623 4.13008 24.4763V8.08447C4.13008 7.15977 3.37764 6.40733 2.45293 6.40733C1.56689 6.40733 0.848633 5.68906 0.848633 4.80303C0.848633 3.91699 1.56689 3.19873 2.45293 3.19873C5.14687 3.19873 7.33867 5.39043 7.33867 8.08447V24.4763C7.33867 25.3623 6.62041 26.0806 5.73437 26.0806Z" fill="#CFCDD6"/>
<path d="M17.7897 33.4288H13.7038C11.4337 33.4288 9.43311 31.8193 8.94697 29.6018C8.94043 29.5724 8.93487 29.5428 8.93008 29.5132L8.38389 26.1192C8.24317 25.2443 8.83809 24.4211 9.71289 24.2804C10.5871 24.1397 11.4108 24.7345 11.5518 25.6094L12.0896 28.9512C12.2691 29.6888 12.942 30.2203 13.7038 30.2203H17.7897C18.6757 30.2203 19.3939 30.9385 19.3939 31.8246C19.3939 32.7106 18.6758 33.4288 17.7897 33.4288Z" fill="#F79D1E"/>
<path d="M27.6601 32.9954C27.3578 32.9369 27.069 32.7907 26.8344 32.5571L22.644 28.3835C22.0163 27.7582 22.0142 26.7424 22.6395 26.1146C23.2646 25.4869 24.2806 25.4851 24.9084 26.1101L29.0988 30.2838C29.7265 30.9091 29.7286 31.9249 29.1033 32.5526C28.7117 32.9457 28.1669 33.0934 27.6601 32.9954Z" fill="#0E4151"/>
<path d="M24.7394 30.4665L22.645 28.3835C22.0173 27.7582 22.0152 26.7424 22.6405 26.1146C23.2656 25.4869 24.2816 25.485 24.9093 26.1101L27.0053 28.2008L24.7394 30.4665Z" fill="#144F66"/>
<path d="M22.0039 30.2942C21.7016 30.2357 21.4128 30.0896 21.1782 29.856C20.5504 29.2307 20.5484 28.2148 21.1737 27.5871L24.1066 24.6426C24.7319 24.0147 25.7478 24.0128 26.3755 24.6381C27.0033 25.2634 27.0053 26.2792 26.38 26.9069L23.4471 29.8515C23.0554 30.2444 22.5105 30.3923 22.0039 30.2942Z" fill="#39B7B6"/>
<path d="M21.1782 29.8555C20.5504 29.2302 20.5484 28.2144 21.1737 27.5866L24.1066 24.6421C24.7319 24.0143 25.7478 24.0123 26.3755 24.6376L21.1782 29.8555Z" fill="#66CBC4"/>
<path d="M25.0005 38.7461H4.02754C1.80674 38.7461 0 40.5527 0 42.7736C0 44.9945 1.80674 46.8012 4.02754 46.8012H25.0005V38.7461Z" fill="#144F66"/>
<path d="M13.8786 33.4288H13.7038C11.4337 33.4288 9.43311 31.8193 8.94697 29.6018C8.94043 29.5724 8.93486 29.5428 8.93008 29.5132L8.38389 26.1192C8.24317 25.2443 8.83809 24.4211 9.71289 24.2804C10.5871 24.1397 11.4108 24.7345 11.5518 25.6094L12.0896 28.9512C12.2691 29.6888 12.942 30.2203 13.7038 30.2203H13.8786V33.4288V33.4288Z" fill="#FBB03B"/>
<path d="M5.73437 26.0806C4.84834 26.0806 4.13008 25.3623 4.13008 24.4763V8.08447C4.13008 7.15977 3.37764 6.40733 2.45293 6.40733C1.56689 6.40733 0.848633 5.68906 0.848633 4.80303C0.848633 3.91699 1.56689 3.19873 2.45293 3.19873C3.7042 3.19873 4.84717 3.67158 5.7124 4.44795L5.73437 26.0806Z" fill="#DEE1E7"/>
<path d="M47.1707 32.6654L42.1375 28.8463C39.6608 26.9671 36.5848 25.9321 33.476 25.9321H29.4274C28.5414 25.9321 27.8231 26.6504 27.8231 27.5364C27.8231 30.1847 25.6687 32.3391 23.0205 32.3391H13.0903C11.2409 32.3391 9.73613 30.8344 9.73613 28.9848V26.8738C9.73613 24.6673 7.94092 22.8721 5.73428 22.8721C3.52764 22.8721 1.73242 24.6673 1.73242 26.8738V40.3504C1.73242 41.2364 2.45068 41.9547 3.33672 41.9547H46.201C47.087 41.9547 47.8053 41.2364 47.8053 40.3504V33.9435C47.8054 33.4417 47.5705 32.9687 47.1707 32.6654Z" fill="#BC2A46"/>
<path d="M25 31.9119C24.396 32.1862 23.7258 32.3391 23.0204 32.3391H13.0903C11.2409 32.3391 9.73613 30.8344 9.73613 28.9848V26.8738C9.73613 24.6673 7.94092 22.8721 5.73428 22.8721C3.52764 22.8721 1.73242 24.6673 1.73242 26.8738V40.3504C1.73242 41.2364 2.45068 41.9547 3.33672 41.9547H24.9995L25 31.9119Z" fill="#D62D46"/>
</svg>
