<svg width="50" height="50" viewBox="0 0 50 50" fill="none" xmlns="http://www.w3.org/2000/svg">
<path d="M14.6742 9.78262H6.52207C5.62197 9.78262 4.8916 9.05225 4.8916 8.15215V1.63047C4.8916 0.730371 5.62187 0 6.52207 0H14.6742C15.5743 0 16.3047 0.730371 16.3047 1.63047V8.15225C16.3047 9.05225 15.5743 9.78262 14.6742 9.78262Z" fill="#36D9D9"/>
<path d="M6.52256 0V22.2363C6.52256 23.1141 5.84844 23.8694 4.97168 23.9112C4.03535 23.9558 3.26172 23.2092 3.26172 22.2826V1.63047C3.26162 0.72998 3.9917 0 4.89209 0H6.52256Z" fill="#736056"/>
<path d="M30.9784 27.174H24.4566C23.5565 27.174 22.8262 26.4437 22.8262 25.5436C22.8262 24.6435 23.5565 23.9131 24.4566 23.9131H30.9784C31.8785 23.9131 32.6089 24.6435 32.6089 25.5436C32.6089 26.4437 31.8786 27.174 30.9784 27.174Z" fill="#665247"/>
<path d="M24.4566 30.4346C23.5565 30.4346 22.8262 29.7042 22.8262 28.8041V22.2823C22.8262 21.3822 23.5565 20.6519 24.4566 20.6519C25.3567 20.6519 26.0871 21.3822 26.0871 22.2823V28.8041C26.087 29.7043 25.3567 30.4346 24.4566 30.4346Z" fill="#736056"/>
<path d="M17.9344 36.9564H11.4127C10.5126 36.9564 9.78223 36.2261 9.78223 35.326V19.0217C9.78223 16.3245 11.9764 14.1304 14.6735 14.1304C17.3707 14.1304 19.5648 16.3245 19.5648 19.0217V35.3261C19.5648 36.2261 18.8345 36.9564 17.9344 36.9564Z" fill="#A6673A"/>
<path d="M17.9347 36.9564C18.8348 36.9564 19.5651 36.2261 19.5651 35.326V19.0217C19.5651 16.3245 17.371 14.1304 14.6738 14.1304V36.9564H17.9347V36.9564Z" fill="#99522E"/>
<path d="M45.1086 43.4784H4.89121C3.99082 43.4784 3.26074 42.7484 3.26074 41.848V20.6523H8.15205C9.05244 20.6523 9.78252 21.3823 9.78252 22.2828V33.6959H29.3478V22.2828C29.3478 21.3824 30.0777 20.6523 30.9782 20.6523H35.3261C41.6293 20.6523 46.7392 25.7621 46.7392 32.0654V41.848C46.7391 42.7484 46.009 43.4784 45.1086 43.4784Z" fill="#FFC033"/>
<path d="M35.3261 20.6523H30.9782C30.0781 20.6523 29.3478 21.3827 29.3478 22.2828V33.6959H25V43.4785H45.1087C46.0088 43.4785 46.7392 42.7481 46.7392 41.848V32.0654C46.7392 25.772 41.6195 20.6523 35.3261 20.6523Z" fill="#F9A926"/>
<path d="M45.1087 49.9999H4.89131C2.19414 49.9999 0 47.8058 0 45.1086C0 42.4114 2.19414 40.2173 4.89131 40.2173H45.1087C47.8059 40.2173 50 42.4114 50 45.1086C50 47.8058 47.8059 49.9999 45.1087 49.9999Z" fill="#E6563A"/>
<path d="M45.1087 40.2173H25V49.9999H45.1087C47.8059 49.9999 50 47.8058 50 45.1086C50 42.4114 47.8059 40.2173 45.1087 40.2173Z" fill="#D9472B"/>
</svg>
