<svg width="50" height="50" viewBox="0 0 50 50" fill="none" xmlns="http://www.w3.org/2000/svg">
<g clip-path="url(#clip0_480_336)">
<path d="M34.2392 11.9567H27.7174C26.8173 11.9567 26.0869 11.2264 26.0869 10.3263C26.0869 9.42617 26.8173 8.6958 27.7174 8.6958H34.2392C35.1393 8.6958 35.8696 9.42617 35.8696 10.3263C35.8696 11.2264 35.1393 11.9567 34.2392 11.9567Z" fill="#665247"/>
<path d="M35.326 5.43477H34.2391C33.339 5.43477 32.6086 6.16514 32.6086 7.06523V18.4783H19.0885L13.7185 3.26514C13.0307 1.31191 11.1772 0 9.10635 0H4.89121C3.99111 0 3.26074 0.730371 3.26074 1.63047V27.5029C3.26074 28.403 3.99111 29.1334 4.89121 29.1334H45.1086C46.0087 29.1334 46.7391 28.403 46.7391 27.5029V16.8479C46.7391 10.5544 41.6194 5.43477 35.326 5.43477Z" fill="#FFC033"/>
<path d="M35.3261 5.43506H34.2392C33.3391 5.43506 32.6087 6.16543 32.6087 7.06553V18.4786H25V29.1337H45.1087C46.0088 29.1337 46.7392 28.4033 46.7392 27.5032V16.8481C46.7392 10.5547 41.6195 5.43506 35.3261 5.43506Z" fill="#F9A926"/>
<path d="M27.7174 15.2177C26.8173 15.2177 26.0869 14.4873 26.0869 13.5872V7.06553C26.0869 6.16543 26.8173 5.43506 27.7174 5.43506C28.6175 5.43506 29.3478 6.16543 29.3478 7.06553V13.5873C29.3478 14.4874 28.6175 15.2177 27.7174 15.2177Z" fill="#736056"/>
<path d="M49.5907 31.5218C48.4273 27.7497 44.9094 25 40.7608 25H9.23916C5.09053 25 1.57266 27.7497 0.409277 31.5218C0.144043 32.3814 0 33.2937 0 34.2392C0 34.4223 0.0138672 34.602 0.0242187 34.7826C7.28545 34.7826 42.6778 34.7826 49.9745 34.7826C49.985 34.602 49.9998 34.4223 49.9998 34.2392C50 33.2937 49.8559 32.3814 49.5907 31.5218Z" fill="#D7EBFF"/>
<path d="M40.7608 25H25V34.7826C35.6633 34.7826 46.3278 34.7826 49.9747 34.7826C49.9852 34.602 50 34.4223 50 34.2392C50 33.2938 49.8559 32.3814 49.5907 31.5218C48.4273 27.7497 44.9095 25 40.7608 25Z" fill="#BDDEFF"/>
<path d="M49.5907 31.5215C-4.77608 31.5215 13.0659 31.5215 0.409082 31.5215C0.144043 32.3812 0 33.2934 0 34.2389C0 34.422 0.0138672 34.6017 0.0242187 34.7823C0.272949 39.1249 3.46592 42.6939 7.81143 43.3687L41.8149 43.4186C46.2994 42.9074 49.7147 39.2402 49.9747 34.7823C49.9852 34.6017 50 34.422 50 34.2389C50 33.2934 49.8559 32.3812 49.5907 31.5215Z" fill="#C9D2D9"/>
<path d="M25 31.5215V43.3938L41.8148 43.4186C46.2993 42.9074 49.7146 39.2402 49.9746 34.7823C49.9851 34.6017 49.9999 34.422 49.9999 34.2389C49.9999 33.2935 49.8558 32.3812 49.5906 31.5215C38.8258 31.5215 30.9002 31.5215 25 31.5215Z" fill="#B7C4CC"/>
<path d="M48.4729 37.9296C46.8652 37.8328 45.2511 38.3991 44.0663 39.5024C43.0511 40.447 41.4598 40.447 40.4445 39.5024C38.1837 37.4003 34.6424 37.4003 32.3814 39.5024C31.3662 40.447 29.7749 40.447 28.7597 39.5024C27.6999 38.5166 26.3586 37.9937 24.9999 37.9329C23.4597 37.8623 21.8978 38.3861 20.6967 39.5024C19.6814 40.447 18.0901 40.447 17.0749 39.5024C14.8141 37.4003 11.2728 37.4003 9.01182 39.5024C7.99658 40.447 6.4042 40.4459 5.39121 39.5035C4.39121 38.572 3.09229 38.0144 1.73145 37.9296C1.28799 37.9035 0.841211 38.0601 0.514062 38.3687C0.18584 38.6763 0 39.1067 0 39.5567V48.3698C0 49.2697 0.730469 50.0002 1.63047 50.0002H48.3696C49.2696 50.0002 50.0001 49.2697 50.0001 48.3697V39.5566C50 38.6958 49.3315 37.9828 48.4729 37.9296Z" fill="#36D9D9"/>
<path d="M28.7598 39.5022C27.7 38.5164 26.3587 37.9936 25 37.9327V37.9316" fill="#43BFBF"/>
<path d="M50 39.5568V48.3699C50 49.2699 49.2695 50.0004 48.3695 50.0004H25V37.9329C26.3587 37.9937 27.7 38.5166 28.7598 39.5024C29.775 40.447 31.3663 40.447 32.3815 39.5024C34.6424 37.4003 38.1837 37.4003 40.4446 39.5024C41.4599 40.447 43.0512 40.447 44.0664 39.5024C45.2512 38.3992 46.8653 37.8329 48.4729 37.9296C49.3315 37.9829 50 38.6959 50 39.5568Z" fill="#43BFBF"/>
</g>
<defs>
<clipPath id="clip0_480_336">
<rect width="50" height="50" fill="white"/>
</clipPath>
</defs>
</svg>
