<svg width="50" height="50" viewBox="0 0 50 50" fill="none" xmlns="http://www.w3.org/2000/svg">
<g clip-path="url(#clip0_480_364)">
<path d="M9.40247 18.1289L11.0095 31.5216H38.9894L40.5965 18.1289C40.7129 17.1584 39.9552 16.3042 38.9777 16.3042H11.0213C10.0438 16.3043 9.28597 17.1584 9.40247 18.1289Z" fill="#E6563A"/>
<path d="M38.9782 16.3042H25V31.5216H38.9898L40.597 18.1289C40.7136 17.1583 39.9558 16.3042 38.9782 16.3042Z" fill="#D9472B"/>
<path d="M11.793 38.0435L12.1843 41.3043L13.0555 48.5638C13.1542 49.3832 13.8483 50 14.6741 50H35.3263C36.1522 50 36.8463 49.3833 36.9451 48.5638L38.2074 38.0435H11.793Z" fill="#E6563A"/>
<path d="M25 38.0435V50H35.3261C36.152 50 36.8461 49.3833 36.9449 48.5638L38.2072 38.0435H25Z" fill="#D9472B"/>
<path d="M26.6306 16.3044H23.3697C22.4693 16.3044 21.7393 15.5744 21.7393 14.6739V8.15215C21.7393 3.6499 25.3892 0 29.8914 0H36.4132C37.3136 0 38.0436 0.72998 38.0436 1.63047V4.89131C38.0436 5.7917 37.3137 6.52178 36.4132 6.52178H29.8914C28.991 6.52178 28.2609 7.25176 28.2609 8.15225V14.674C28.2609 15.5743 27.531 16.3044 26.6306 16.3044Z" fill="#36D9D9"/>
<path d="M38.0435 3.26074H29.3479C26.9466 3.26074 25 5.20742 25 7.60859V13.0434H28.2608V8.15205C28.2608 7.25166 28.9908 6.52158 29.8913 6.52158H36.4131C37.3135 6.52158 38.0436 5.7916 38.0436 4.89111V3.26074H38.0435Z" fill="#43BFBF"/>
<path d="M38.5866 13.0435H11.4128C8.71563 13.0435 6.52148 15.2376 6.52148 17.9348C6.52148 18.8349 7.25186 19.5652 8.15195 19.5652H41.8476C42.7477 19.5652 43.478 18.8349 43.478 17.9348C43.4779 15.2376 41.2838 13.0435 38.5866 13.0435Z" fill="#D7EBFF"/>
<path d="M38.5869 13.0435H25V19.5652H41.8479C42.7479 19.5652 43.4783 18.8349 43.4783 17.9348C43.4782 15.2376 41.2841 13.0435 38.5869 13.0435Z" fill="#BDDEFF"/>
<path d="M10.6191 28.2607L12.1844 41.3042H37.8164L39.3815 28.2607H10.6191Z" fill="#FFC033"/>
<path d="M25 41.3043H37.8161L39.3812 28.2607H25V41.3043Z" fill="#F9A926"/>
</g>
<defs>
<clipPath id="clip0_480_364">
<rect width="50" height="50" fill="white"/>
</clipPath>
</defs>
</svg>
