<svg width="50" height="50" viewBox="0 0 50 50" fill="none" xmlns="http://www.w3.org/2000/svg">
<path d="M36.5226 15.3236C36.2347 15.0121 35.8296 14.835 35.4053 14.835H14.5945C14.1702 14.835 13.7652 15.0121 13.4773 15.3236C13.1894 15.6353 13.0446 16.0529 13.0779 16.4759L15.616 48.5983C15.6785 49.3895 16.3388 49.9997 17.1324 49.9997H32.8672C33.6609 49.9997 34.3212 49.3894 34.3836 48.5983L36.9217 16.4759C36.9552 16.0528 36.8105 15.6353 36.5226 15.3236Z" fill="#0E4151"/>
<path d="M24.9997 11.8566C24.1596 11.8566 23.4785 11.1756 23.4785 10.3354V5.28111C23.4785 4.8776 23.6389 4.49068 23.9241 4.20553L27.6842 0.44546C28.2781 -0.148487 29.2414 -0.148487 29.8355 0.44546C30.4295 1.03941 30.4295 2.00269 29.8355 2.59673L26.5209 5.91129V10.3355C26.5209 11.1755 25.8399 11.8566 24.9997 11.8566Z" fill="#BC2A46"/>
<path d="M24.9997 11.8568C24.1596 11.8568 23.4785 11.1757 23.4785 10.3356V5.28125C23.4785 4.87774 23.6389 4.49082 23.9241 4.20567L24.9998 3.12988L24.9997 11.8568Z" fill="#D62D46"/>
<path d="M24.9998 14.835H14.5945C14.1702 14.835 13.7652 15.0121 13.4773 15.3236C13.1894 15.6353 13.0446 16.0529 13.0779 16.4759L15.616 48.5983C15.6785 49.3895 16.3388 49.9997 17.1324 49.9997H24.9997V14.835H24.9998Z" fill="#144F66"/>
<path d="M36.5226 15.3236C36.2347 15.0121 35.8296 14.835 35.4053 14.835H14.5945C14.1702 14.835 13.7652 15.0121 13.4773 15.3236C13.1894 15.6353 13.0446 16.0529 13.0779 16.4759L14.6246 36.0508L26.5055 49.9998H32.8671C33.6608 49.9998 34.3211 49.3895 34.3836 48.5984L36.9216 16.476C36.9552 16.0528 36.8105 15.6353 36.5226 15.3236Z" fill="#BC2A46"/>
<path d="M24.9998 14.835H14.5945C14.1702 14.835 13.7652 15.0121 13.4773 15.3236C13.1894 15.6353 13.0446 16.0529 13.0779 16.4759L14.6246 36.0508L25 48.2322L24.9998 14.835Z" fill="#D62D46"/>
<path d="M34.3838 48.5983L36.9219 16.4759C36.9553 16.0528 36.8106 15.6353 36.5226 15.3236C36.2347 15.0121 35.8296 14.835 35.4053 14.835H14.5945C14.1702 14.835 13.7652 15.0121 13.4773 15.3236C13.1894 15.6353 13.0446 16.0529 13.0779 16.4759L13.7181 24.5777L34.3518 48.8029C34.3665 48.7361 34.3782 48.6682 34.3838 48.5983Z" fill="#DBAD75"/>
<path d="M24.9998 14.835H14.5945C14.1702 14.835 13.7652 15.0121 13.4773 15.3236C13.1894 15.6353 13.0446 16.0529 13.0779 16.4759L13.7181 24.5777L24.9999 37.8233L24.9998 14.835Z" fill="#EABD81"/>
<path d="M36.9216 16.4759C36.955 16.0528 36.8103 15.6353 36.5223 15.3236C36.2344 15.0121 35.8293 14.835 35.405 14.835H14.5942C14.4982 14.835 14.4035 14.8453 14.3105 14.8629L35.1182 39.2992L36.9216 16.4759Z" fill="#0E4151"/>
<path d="M36.9213 16.4759C36.9547 16.0528 36.81 15.6353 36.522 15.3236C36.2341 15.0121 35.829 14.835 35.4047 14.835H23.1504L35.8708 29.7696L36.9213 16.4759Z" fill="#BC2A46"/>
<path d="M24.9995 14.835H14.5942C14.4982 14.835 14.4035 14.8453 14.3105 14.8629L25 27.4166L24.9995 14.835Z" fill="#144F66"/>
<path d="M38.8853 17.1169L38.0347 10.1513C37.9417 9.38809 37.2936 8.81445 36.5248 8.81445H13.4743C12.7055 8.81445 12.0574 9.38809 11.9644 10.1513L11.1138 17.1169C11.0609 17.5493 11.1961 17.9836 11.4849 18.3098C11.7736 18.636 12.1883 18.8227 12.6238 18.8227H37.3753C37.8109 18.8227 38.2256 18.636 38.5143 18.3098C38.803 17.9836 38.9381 17.5492 38.8853 17.1169Z" fill="#CFCDD6"/>
<path d="M24.9995 8.81445H13.4743C12.7055 8.81445 12.0574 9.38809 11.9644 10.1513L11.1138 17.1169C11.0609 17.5493 11.1961 17.9836 11.4849 18.3098C11.7736 18.636 12.1883 18.8227 12.6238 18.8227H24.9996V8.81445H24.9995Z" fill="#DEE1E7"/>
</svg>
