<svg width="50" height="50" viewBox="0 0 50 50" fill="none" xmlns="http://www.w3.org/2000/svg">
<g clip-path="url(#clip0_483_731)">
<path d="M22.8983 1.92773H5.9C5.45205 1.92773 5.08887 2.29092 5.08887 2.73887V5.20557C5.08887 5.65352 5.45205 6.0167 5.9 6.0167C6.34795 6.0167 6.71113 5.65352 6.71113 5.20557H22.0873C22.0873 5.65352 22.4505 6.0167 22.8983 6.0167C23.3462 6.0167 23.7095 5.65352 23.7095 5.20557V2.73887C23.7095 2.29092 23.3463 1.92773 22.8983 1.92773Z" fill="#CFCDD6"/>
<path d="M14.3992 1.92773H5.9C5.45205 1.92773 5.08887 2.29092 5.08887 2.73887V5.20557C5.08887 5.65352 5.45205 6.0167 5.9 6.0167C6.34795 6.0167 6.71113 5.65352 6.71113 5.20557H14.3992V1.92773Z" fill="#DEE1E7"/>
<path d="M26.4199 11.4403C26.2665 11.2742 26.0505 11.1797 25.8242 11.1797H2.97412C2.74785 11.1797 2.53203 11.2742 2.37841 11.4403C2.225 11.6065 2.14775 11.8292 2.16562 12.0547L4.95244 47.325C4.98574 47.7469 5.33779 48.0722 5.76103 48.0722H23.0377C23.4608 48.0722 23.8129 47.7469 23.8463 47.325L26.6331 12.0547C26.6507 11.8292 26.5734 11.6065 26.4199 11.4403Z" fill="#BC2A46"/>
<path d="M14.3992 11.1797H2.97412C2.74785 11.1797 2.53203 11.2742 2.37841 11.4403C2.225 11.6065 2.14775 11.8292 2.16562 12.0547L4.95244 47.325C4.98574 47.7469 5.33779 48.0722 5.76103 48.0722H14.3994V11.1797H14.3992Z" fill="#D62D46"/>
<path d="M28.7933 12.9295L27.8593 5.28115C27.8097 4.87422 27.4643 4.56836 27.0543 4.56836H1.74513C1.33517 4.56836 0.989762 4.87422 0.939957 5.28115L0.0059731 12.9295C-0.0221519 13.1601 0.0499184 13.3916 0.203727 13.5655C0.357731 13.7395 0.578727 13.839 0.811051 13.839H27.988C28.2202 13.839 28.4413 13.7395 28.5952 13.5655C28.7494 13.3916 28.8214 13.1601 28.7933 12.9295Z" fill="#0E4151"/>
<path d="M14.3997 4.56885H1.74513C1.33517 4.56885 0.989762 4.87471 0.939957 5.28164L0.0059731 12.93C-0.0221519 13.1605 0.0499184 13.3921 0.203727 13.566C0.357731 13.7399 0.578727 13.8394 0.811051 13.8394H14.3995V4.56885H14.3997Z" fill="#144F66"/>
<path d="M37.365 25.6025H22.0802C16.3061 25.6025 11.6084 30.3001 11.6084 36.0744H47.8368C47.8367 30.3002 43.1392 25.6025 37.365 25.6025Z" fill="#DBAD75"/>
<path d="M29.7227 25.6025H22.0802C16.3061 25.6025 11.6084 30.3001 11.6084 36.0744H29.7227V25.6025Z" fill="#EABD81"/>
<path d="M11.6084 42.1426C11.6084 45.4122 14.2685 48.0724 17.5381 48.0724H41.907C45.1767 48.0724 47.8367 45.4123 47.8367 42.1426H11.6084Z" fill="#DBAD75"/>
<path d="M11.6084 42.1426C11.6084 45.4122 14.2685 48.0724 17.5381 48.0724H29.7227V42.1426H11.6084Z" fill="#EABD81"/>
<path d="M45.8363 34.7583H13.6103C11.3143 34.7583 9.44629 36.6263 9.44629 38.9224C9.44629 41.2185 11.3143 43.0863 13.6103 43.0863H45.8363C48.1323 43.0863 50.0003 41.2184 50.0003 38.9224C50.0003 36.6264 48.1324 34.7583 45.8363 34.7583Z" fill="#885F3E"/>
<path d="M29.7233 34.7584H13.6103C11.3143 34.7584 9.44629 36.6264 9.44629 38.9225C9.44629 41.2186 11.3143 43.0864 13.6103 43.0864H29.7232V34.7583H29.7233V34.7584Z" fill="#A67C52"/>
</g>
<defs>
<clipPath id="clip0_483_731">
<rect width="50" height="50" fill="white"/>
</clipPath>
</defs>
</svg>
