<svg width="50" height="50" viewBox="0 0 50 50" fill="none" xmlns="http://www.w3.org/2000/svg">
<path d="M46.3026 14.8104L25.9733 0.311421C25.3911 -0.103807 24.6092 -0.103807 24.0271 0.311421L3.69784 14.8104C3.25683 15.1248 2.99512 15.6332 2.99512 16.1747V48.3233C2.99512 49.2487 3.7454 49.9991 4.67097 49.9991H45.3296C46.2551 49.9991 47.0055 49.2488 47.0055 48.3233V16.1747C47.0054 15.6332 46.7436 15.1248 46.3026 14.8104Z" fill="#0E4151"/>
<path d="M25.0003 0C24.6592 0 24.3183 0.103807 24.0271 0.311519L3.69784 14.8105C3.25683 15.1249 2.99512 15.6333 2.99512 16.1748V48.3234C2.99512 49.2488 3.7454 49.9992 4.67097 49.9992H25.0084L25.0003 0Z" fill="#144F66"/>
<path d="M46.3026 14.8104L25.9733 0.311421C25.3911 -0.103807 24.6092 -0.103807 24.0271 0.311421L3.69784 14.8104C3.25683 15.1248 2.99512 15.6332 2.99512 16.1747L4.11248 16.5085H45.8882L47.0056 16.1747C47.0054 15.6332 46.7437 15.1248 46.3026 14.8104Z" fill="#DBAD75"/>
<path d="M25.0003 0C24.6592 0 24.3183 0.103807 24.0271 0.311519L3.69784 14.8105C3.25683 15.1249 2.99512 15.6333 2.99512 16.1748L4.11248 16.5086H25.0003V0Z" fill="#EABD81"/>
<path d="M30.7014 37.0119H27.4581C26.5326 37.0119 25.7822 36.2616 25.7822 35.336C25.7822 34.4104 26.5325 33.6602 27.4581 33.6602H30.7014C31.6269 33.6602 32.3772 34.4104 32.3772 35.336C32.3772 36.2616 31.627 37.0119 30.7014 37.0119Z" fill="#39B7B6"/>
<path d="M16.7891 32.0381C15.8637 32.0381 15.1133 31.2878 15.1133 30.3623V29.0216C15.1133 28.0961 15.8636 27.3457 16.7891 27.3457C17.7147 27.3457 18.465 28.096 18.465 29.0216V30.3623C18.465 31.2877 17.7146 32.0381 16.7891 32.0381Z" fill="#F79D1E"/>
<path d="M16.7891 32.0381C15.8637 32.0381 15.1133 31.2878 15.1133 30.3623V29.0216C15.1133 28.0961 15.8636 27.3457 16.7891 27.3457V32.0381Z" fill="#FBB03B"/>
<path d="M12.3194 32.0381C11.3939 32.0381 10.6436 31.2878 10.6436 30.3623V29.0216C10.6436 28.0961 11.3938 27.3457 12.3194 27.3457C13.245 27.3457 13.9953 28.096 13.9953 29.0216V30.3623C13.9953 31.2877 13.2449 32.0381 12.3194 32.0381Z" fill="#F79D1E"/>
<path d="M12.3194 32.0381C11.3939 32.0381 10.6436 31.2878 10.6436 30.3623V29.0216C10.6436 28.0961 11.3938 27.3457 12.3194 27.3457V32.0381Z" fill="#FBB03B"/>
<path d="M19.4138 29.3037H9.69441C8.76893 29.3037 8.01855 30.054 8.01855 30.9796V36.5653C8.01855 37.4908 8.76884 38.2412 9.69441 38.2412C10.62 38.2412 11.3703 37.4909 11.3703 36.5653H17.7379C17.7379 37.4908 18.4882 38.2412 19.4138 38.2412C20.3393 38.2412 21.0896 37.4909 21.0896 36.5653V30.9796C21.0896 30.054 20.3394 29.3037 19.4138 29.3037Z" fill="#CFCDD6"/>
<path d="M29.0797 37.0119H27.4581C26.5326 37.0119 25.7822 36.2616 25.7822 35.336C25.7822 34.4104 26.5325 33.6602 27.4581 33.6602H29.0797V37.0119Z" fill="#66CBC4"/>
<path d="M40.5324 37.0119H37.2891C36.3637 37.0119 35.6133 36.2616 35.6133 35.336C35.6133 34.4104 36.3636 33.6602 37.2891 33.6602H40.5324C41.4579 33.6602 42.2083 34.4104 42.2083 35.336C42.2083 36.2616 41.4579 37.0119 40.5324 37.0119Z" fill="#39B7B6"/>
<path d="M38.9108 37.0119H37.2891C36.3637 37.0119 35.6133 36.2616 35.6133 35.336C35.6133 34.4104 36.3636 33.6602 37.2891 33.6602H38.9108V37.0119Z" fill="#66CBC4"/>
<path d="M2.99512 35.4478V48.3233C2.99512 49.2488 3.7454 49.9992 4.67097 49.9992H45.3297C46.2552 49.9992 47.0056 49.2489 47.0056 48.3233V35.4478H2.99512Z" fill="#BC2A46"/>
<path d="M14.5541 29.3037H9.69441C8.76893 29.3037 8.01855 30.054 8.01855 30.9796V36.5653C8.01855 37.4908 8.76884 38.2412 9.69441 38.2412C10.62 38.2412 11.3703 37.4909 11.3703 36.5653H14.5541V29.3037Z" fill="#DEE1E7"/>
<path d="M2.99512 35.4478V48.3233C2.99512 49.2488 3.7454 49.9992 4.67097 49.9992H25.0003V35.4478H2.99512Z" fill="#D62D46"/>
<path d="M10.9159 35.4482H7.0127V50H10.9159V35.4482Z" fill="#EABD81"/>
<path d="M18.9344 35.4482H15.0312V50H18.9344V35.4482Z" fill="#EABD81"/>
<path d="M26.952 35.4482H23.0488V50H26.952V35.4482Z" fill="#DBAD75"/>
<path d="M25.0086 35.4482H23.0488V50H25.0086V35.4482Z" fill="#EABD81"/>
<path d="M34.9686 35.4482H31.0654V50H34.9686V35.4482Z" fill="#DBAD75"/>
<path d="M42.9871 35.4482H39.084V50H42.9871V35.4482Z" fill="#DBAD75"/>
<path d="M2.99512 16.1781C2.99883 16.2325 3.00508 16.2861 3.01387 16.339C3.16582 17.7159 3.80829 18.987 4.83239 19.9302C5.89527 20.9095 7.27698 21.4487 8.72286 21.4487C10.1688 21.4487 11.5505 20.9095 12.6134 19.9302C12.6742 19.8743 12.7336 19.817 12.7917 19.7589C12.8498 19.8171 12.9093 19.8743 12.9701 19.9302C14.0329 20.9095 15.4146 21.4487 16.8605 21.4487C18.3064 21.4487 19.6882 20.9095 20.7511 19.9302C20.8117 19.8743 20.8713 19.817 20.9294 19.7588C20.9875 19.8171 21.047 19.8743 21.1077 19.9302C22.1706 20.9095 23.5523 21.4487 24.9982 21.4487C26.4441 21.4487 27.8259 20.9095 28.8887 19.9302C28.9494 19.8743 29.0089 19.817 29.067 19.7588C29.1252 19.8171 29.1846 19.8743 29.2453 19.9302C30.3083 20.9095 31.6899 21.4487 33.1359 21.4487C34.5817 21.4487 35.9635 20.9095 37.0263 19.9302C37.0871 19.8743 37.1465 19.817 37.2046 19.7588C37.2628 19.8171 37.3223 19.8743 37.3831 19.9302C38.4458 20.9095 39.8276 21.4487 41.2734 21.4487C42.7194 21.4487 44.1011 20.9095 45.164 19.9302C46.1751 18.9988 46.8144 17.7477 46.9765 16.3908C46.9904 16.3208 46.9999 16.2491 47.0047 16.1763L2.99512 16.1781Z" fill="#BC2A46"/>
<path d="M2.99512 16.178C2.99883 16.2324 3.00508 16.286 3.01387 16.3389C3.16582 17.7158 3.80829 18.9869 4.83239 19.9301C5.89527 20.9094 7.27698 21.4486 8.72286 21.4486C10.1688 21.4486 11.5506 20.9094 12.6134 19.9301C12.6742 19.8742 12.7336 19.8169 12.7917 19.7588C12.8498 19.817 12.9093 19.8742 12.9701 19.9301C14.0329 20.9094 15.4146 21.4486 16.8605 21.4486C18.3064 21.4486 19.6882 20.9094 20.7511 19.9301C20.8117 19.8742 20.8713 19.8169 20.9294 19.7587C20.9875 19.817 21.047 19.8742 21.1077 19.9301C22.1706 20.9094 23.5523 21.4486 24.9982 21.4486L25 16.1763L2.99512 16.178Z" fill="#D62D46"/>
</svg>
