<svg width="50" height="50" viewBox="0 0 50 50" fill="none" xmlns="http://www.w3.org/2000/svg">
<path d="M34.7832 8.15215H25.0006C24.1005 8.15215 23.3701 7.42178 23.3701 6.52168V1.63047C23.3701 0.730371 24.1005 0 25.0006 0H34.7832C35.6833 0 36.4137 0.730371 36.4137 1.63047V6.52178C36.4136 7.42187 35.6833 8.15215 34.7832 8.15215Z" fill="#D9472B"/>
<path d="M26.631 0V11.3667C26.631 12.2444 25.9568 12.9998 25.0801 13.0416C24.1438 13.0861 23.3701 12.3396 23.3701 11.413V1.63047C23.3701 0.72998 24.1001 0 25.0006 0H26.631Z" fill="#665247"/>
<path d="M16.6939 26.2747L4.48047 24.2218L24.0457 10.0914C24.689 9.62749 25.5743 9.69331 26.141 10.2484C26.7079 10.8045 26.7928 11.6877 26.3406 12.3406L16.6939 26.2747Z" fill="#FFC033"/>
<path d="M25.0002 27.1741H15.2175C14.6115 27.1741 14.0552 26.8375 13.7729 26.3004C13.4916 25.7633 13.5319 25.1137 13.8769 24.6159L23.6594 10.4855C24.066 9.89742 24.8101 9.64586 25.4863 9.85709C26.1667 10.0694 26.6305 10.7 26.6305 11.4131V25.5436C26.6305 26.4437 25.9003 27.1741 25.0002 27.1741Z" fill="#E6563A"/>
<path d="M34.7822 27.1743C34.2473 27.1743 33.7463 26.9121 33.4416 26.4716L23.6589 12.3411C23.2068 11.6883 23.2916 10.8052 23.8585 10.2489C24.4265 9.69384 25.3116 9.62792 25.9538 10.0919L45.5191 24.2224L34.7822 27.1743Z" fill="#E6563A"/>
<path d="M36.1232 24.6159L26.3406 10.4855C26.031 10.0364 25.5243 9.78848 25 9.78809V27.1742H34.7826C35.3887 27.1742 35.9449 26.8377 36.2273 26.3006C36.5086 25.7634 36.4683 25.1138 36.1232 24.6159Z" fill="#FFC033"/>
<path d="M10.5833 50.0001H39.4144C39.4192 50.0001 39.4213 49.994 39.4175 49.9911C26.0626 39.294 26.4814 24.2514 26.6176 25.3408C26.511 24.4879 25.7562 23.857 24.8855 23.917C24.099 23.9712 23.4747 24.6057 23.3763 25.388C21.15 43.1142 14.7246 46.6787 10.58 49.9909C10.5762 49.994 10.5785 50.0001 10.5833 50.0001Z" fill="#99522E"/>
<path d="M11.9564 50H2.17383C1.70147 50 1.25147 49.7951 0.942486 49.4374C0.632525 49.0808 0.492388 48.6073 0.559381 48.1393L3.82022 25.3132C3.93585 24.5096 4.62374 23.9131 5.43467 23.9131H15.2173C15.6897 23.9131 16.1397 24.118 16.4486 24.4757C16.7586 24.8323 16.8987 25.3058 16.8317 25.7738L13.5709 48.5999C13.4552 49.4035 12.7674 50 11.9564 50Z" fill="#F9A926"/>
<path d="M47.8258 50H38.0432C37.2323 50 36.5444 49.4035 36.4287 48.5999L33.1677 25.7738C33.1008 25.3057 33.241 24.8323 33.5508 24.4757C33.8598 24.118 34.3098 23.9131 34.7823 23.9131H44.5649C45.3758 23.9131 46.0637 24.5096 46.1795 25.3132L49.4403 48.1393C49.5072 48.6074 49.3671 49.0808 49.0572 49.4374C48.7482 49.7951 48.2982 50 47.8258 50Z" fill="#D9472B"/>
<path d="M24.9998 23.9271C24.7308 34.5931 19.7538 47.0068 12.5428 50H10.6533L14.3801 23.9131H35.6196L39.3464 50H37.4569C30.2458 47.0068 25.2688 34.5931 24.9998 23.9271Z" fill="#D9472B"/>
<path d="M37.457 50H39.3465L35.6197 23.9131H25.0061L25 23.9272C25.2689 34.5931 30.2459 47.0068 37.457 50Z" fill="#F9A926"/>
</svg>
