<svg width="50" height="50" viewBox="0 0 50 50" fill="none" xmlns="http://www.w3.org/2000/svg">
<g clip-path="url(#clip0_479_87)">
<path d="M3.60789 2.62354H46.3914C47.2332 2.62354 48.0405 2.95793 48.6357 3.55316C49.231 4.14839 49.5654 4.95569 49.5654 5.79747V42.6301C49.5654 43.0469 49.4833 43.4596 49.3238 43.8447C49.1643 44.2298 48.9305 44.5796 48.6357 44.8744C48.341 45.1691 47.9911 45.4029 47.606 45.5624C47.221 45.7219 46.8082 45.804 46.3914 45.804H3.60789C3.19104 45.804 2.77826 45.7219 2.39314 45.5624C2.00802 45.4028 1.65809 45.169 1.36332 44.8743C1.06856 44.5795 0.834746 44.2296 0.675223 43.8445C0.515699 43.4593 0.433594 43.0466 0.433594 42.6297V5.79783C0.433594 4.95596 0.768028 4.14856 1.36332 3.55327C1.95862 2.95797 2.76602 2.62354 3.60789 2.62354V2.62354Z" fill="#483B44"/>
<path d="M0.433594 5.79711V42.6297C0.435987 43.4708 0.771189 44.2768 1.36597 44.8716C1.96075 45.4664 2.76675 45.8016 3.60789 45.804H6.61057C6.45855 43.8524 6.13057 41.3051 6.09211 39.7206C6.07816 37.941 5.64182 36.1902 4.81898 34.6121C4.47902 33.8589 5.03667 32.8648 5.33745 32.4109C8.75411 27.7912 12.1664 17.957 12.0924 10.476C12.0798 7.83394 11.7805 5.20104 11.1999 2.62354H3.60789C2.76687 2.62593 1.96098 2.96103 1.36622 3.55565C0.771465 4.15027 0.436178 4.9561 0.433594 5.79711V5.79711Z" fill="#BC2A38"/>
<path d="M0.433594 5.79711V42.6297C0.435987 43.4708 0.771189 44.2768 1.36597 44.8716C1.96075 45.4664 2.76675 45.8016 3.60789 45.804H4.1884C4.07048 43.8611 3.82559 41.3544 3.79475 39.7863C3.79224 38.0376 3.46154 36.3049 2.81985 34.6782C2.55935 33.9242 2.9853 32.9312 3.21895 32.4773C5.83523 27.8572 8.44898 18.0234 8.39274 10.5421C8.38378 7.88774 8.15148 5.23889 7.6983 2.62354H3.60789C2.76687 2.62593 1.96098 2.96103 1.36622 3.55565C0.771465 4.15027 0.436178 4.9561 0.433594 5.79711V5.79711Z" fill="#ED4D55"/>
<path d="M0.433594 5.79711V42.6297C0.435716 43.3023 0.650706 43.957 1.04776 44.4999C1.44481 45.0428 2.00355 45.4461 2.64388 45.652C2.56007 43.7653 2.41277 41.4607 2.39463 39.9844C2.39682 38.2606 2.17658 36.5437 1.73938 34.8763C1.56486 34.1231 1.85112 33.1293 2.00677 32.6758C3.76354 28.0553 5.51813 18.2215 5.4804 10.7405C5.47554 8.0276 5.31174 5.31729 4.98987 2.62354H3.60789C2.76687 2.62593 1.96098 2.96103 1.36622 3.55565C0.771465 4.15027 0.436178 4.9561 0.433594 5.79711V5.79711Z" fill="#F9B968"/>
<path d="M49.566 5.79711V42.6297C49.5636 43.4708 49.2284 44.2768 48.6336 44.8716C48.0388 45.4664 47.2328 45.8016 46.3917 45.804H43.3882C43.5403 43.8524 43.869 41.3051 43.9074 39.7206C43.921 37.941 44.3574 36.19 45.1806 34.6121C45.5202 33.8589 44.9629 32.8648 44.6617 32.4109C41.2451 27.7912 37.8331 17.957 37.9064 10.476C37.9194 7.83397 38.2187 5.2011 38.799 2.62354H46.3917C47.2327 2.62593 48.0386 2.96103 48.6333 3.55565C49.2281 4.15027 49.5634 4.9561 49.566 5.79711V5.79711Z" fill="#BC2A38"/>
<path d="M49.5664 5.79711V42.6297C49.564 43.4708 49.2288 44.2768 48.634 44.8716C48.0392 45.4664 47.2332 45.8016 46.3921 45.804H45.8115C45.9295 43.8611 46.1744 41.3544 46.2049 39.7863C46.2077 38.0376 46.5384 36.305 47.1797 34.6782C47.4402 33.9242 47.0143 32.9312 46.7832 32.4773C44.1658 27.8572 41.5524 18.0234 41.6083 10.5421C41.6173 7.88771 41.8498 5.23884 42.3035 2.62354H46.3921C47.2331 2.62593 48.039 2.96103 48.6337 3.55565C49.2285 4.15027 49.5638 4.9561 49.5664 5.79711V5.79711Z" fill="#ED4D55"/>
<path d="M49.5662 5.79711V42.6297C49.5639 43.3023 49.3489 43.9569 48.9519 44.4998C48.5548 45.0427 47.9962 45.446 47.3559 45.652C47.439 43.7653 47.5866 41.4607 47.6051 39.9844C47.6022 38.2607 47.8217 36.5438 48.2582 34.8763C48.4327 34.1231 48.1472 33.1293 47.9915 32.6758C46.2344 28.0553 44.4795 18.2215 44.5172 10.7405C44.5221 8.02758 44.6861 5.31726 45.0084 2.62354H46.3919C47.2329 2.62593 48.0388 2.96103 48.6335 3.55565C49.2283 4.15027 49.5636 4.9561 49.5662 5.79711V5.79711Z" fill="#F9B968"/>
<path d="M10.3085 34.1572H14.6986C14.9591 34.1572 15.2171 34.2085 15.4578 34.3082C15.6985 34.4079 15.9172 34.5541 16.1014 34.7383C16.2856 34.9225 16.4317 35.1412 16.5314 35.3819C16.6311 35.6226 16.6825 35.8806 16.6825 36.1411V41.1233C16.6825 41.3839 16.6311 41.6419 16.5314 41.8827C16.4317 42.1234 16.2855 42.3422 16.1013 42.5264C15.917 42.7107 15.6983 42.8568 15.4576 42.9566C15.2168 43.0563 14.9588 43.1076 14.6982 43.1076H10.3077C9.78193 43.1076 9.27764 42.8988 8.90569 42.5271C8.53375 42.1555 8.3246 41.6513 8.32422 41.1255V36.1415C8.32422 35.6152 8.53327 35.1105 8.90539 34.7384C9.27751 34.3663 9.78222 34.1572 10.3085 34.1572V34.1572Z" fill="#ED4D55"/>
<path d="M16.6794 41.3889C16.6794 42.3392 15.7916 43.1091 14.6963 43.1091H10.3062C9.21117 43.1091 8.32227 42.3392 8.32227 41.3889V37.0674C8.32227 36.1172 9.21117 35.3477 10.3062 35.3477H14.6963C15.7916 35.3477 16.6794 36.1172 16.6794 37.0674V41.3889Z" fill="#BC2A38"/>
<path d="M18.6278 34.1572H23.0179C23.544 34.1572 24.0485 34.3662 24.4205 34.7382C24.7925 35.1102 25.0014 35.6147 25.0014 36.1408V41.1233C25.0014 41.6496 24.7924 42.1543 24.4203 42.5264C24.0481 42.8985 23.5434 43.1076 23.0172 43.1076H18.6274C18.1015 43.1076 17.5971 42.8988 17.2251 42.527C16.8531 42.1553 16.6439 41.6511 16.6436 41.1252V36.1415C16.6436 35.6152 16.8526 35.1105 17.2247 34.7384C17.5968 34.3663 18.1016 34.1572 18.6278 34.1572V34.1572Z" fill="#ED4D55"/>
<path d="M24.9991 41.3889C24.9991 42.3392 24.1109 43.1091 23.0152 43.1091H18.6251C17.5294 43.1091 16.6416 42.3392 16.6416 41.3889V37.0674C16.6416 36.1172 17.5294 35.3477 18.6251 35.3477H23.0152C24.1109 35.3477 24.9991 36.1172 24.9991 37.0674V41.3889Z" fill="#BC2A38"/>
<path d="M26.9585 34.1572H31.3486C31.8747 34.1572 32.3792 34.3662 32.7512 34.7382C33.1232 35.1102 33.3321 35.6147 33.3321 36.1408V41.1233C33.3321 41.6496 33.1231 42.1543 32.751 42.5264C32.3788 42.8985 31.8741 43.1076 31.3479 43.1076H26.9589C26.4326 43.1076 25.9279 42.8985 25.5558 42.5264C25.1837 42.1543 24.9746 41.6496 24.9746 41.1233V36.1411C24.9746 35.615 25.1836 35.1103 25.5557 34.7383C25.9277 34.3662 26.4323 34.1572 26.9585 34.1572V34.1572Z" fill="#ED4D55"/>
<path d="M33.3296 41.3889C33.3296 42.3392 32.4414 43.1091 31.3457 43.1091H26.9556C25.8599 43.1091 24.9717 42.3392 24.9717 41.3889V37.0674C24.9717 36.1172 25.8599 35.3477 26.9556 35.3477H31.3457C32.4414 35.3477 33.3296 36.1172 33.3296 37.0674V41.3889Z" fill="#BC2A38"/>
<path d="M35.3026 34.1572H39.6927C40.2188 34.1572 40.7233 34.3662 41.0953 34.7382C41.4673 35.1102 41.6762 35.6147 41.6762 36.1408V41.1233C41.6762 41.6496 41.4672 42.1543 41.0951 42.5264C40.7229 42.8985 40.2182 43.1076 39.692 43.1076H35.3022C34.7763 43.1076 34.2719 42.8988 33.8999 42.527C33.5279 42.1553 33.3187 41.6511 33.3184 41.1252V36.1415C33.3184 35.6152 33.5274 35.1105 33.8995 34.7384C34.2717 34.3663 34.7764 34.1572 35.3026 34.1572V34.1572Z" fill="#ED4D55"/>
<path d="M41.6743 41.3889C41.6743 42.3392 40.7861 43.1091 39.6904 43.1091H35.3003C34.205 43.1091 33.3164 42.3392 33.3164 41.3889V37.0674C33.3164 36.1172 34.205 35.3477 35.3003 35.3477H39.6904C40.7861 35.3477 41.6743 36.1172 41.6743 37.0674V41.3889Z" fill="#BC2A38"/>
<path d="M1.98523 38.4229H6.37533C6.63586 38.4229 6.89384 38.4742 7.13454 38.5739C7.37523 38.6736 7.59394 38.8197 7.77816 39.0039C7.96238 39.1881 8.10851 39.4068 8.20821 39.6475C8.30791 39.8882 8.35923 40.1462 8.35923 40.4067V45.3908C8.35923 45.9168 8.15025 46.4214 7.77826 46.7934C7.40628 47.1653 6.90176 47.3743 6.3757 47.3743H1.98487C1.72422 47.3743 1.46612 47.3229 1.22533 47.2232C0.984539 47.1234 0.765772 46.9771 0.581532 46.7927C0.397292 46.6084 0.25119 46.3895 0.151575 46.1486C0.0519606 45.9078 0.00078642 45.6496 0.000977093 45.389V40.4071C0.000977093 39.8808 0.210032 39.3761 0.582152 39.004C0.954271 38.6319 1.45897 38.4229 1.98523 38.4229V38.4229Z" fill="#ED4D55"/>
<path d="M8.35691 45.6543C8.35691 46.6042 7.46837 47.3744 6.37302 47.3744H1.98292C0.887204 47.3744 -0.000976562 46.6042 -0.000976562 45.6543V41.3321C-0.000976562 40.3826 0.887204 39.6123 1.98292 39.6123H6.37302C7.46837 39.6123 8.35691 40.3826 8.35691 41.3321V45.6543Z" fill="#BC2A38"/>
<path d="M10.3036 38.4229H14.6937C14.9542 38.4229 15.2122 38.4742 15.4529 38.5739C15.6936 38.6736 15.9123 38.8197 16.0965 39.0039C16.2807 39.1881 16.4269 39.4068 16.5266 39.6475C16.6263 39.8882 16.6776 40.1462 16.6776 40.4067V45.3908C16.6776 45.9168 16.4686 46.4214 16.0966 46.7934C15.7246 47.1653 15.2201 47.3743 14.6941 47.3743H10.3029C9.7768 47.3743 9.27228 47.1653 8.9003 46.7934C8.52831 46.4214 8.31934 45.9168 8.31934 45.3908V40.4071C8.31934 39.8808 8.52839 39.3761 8.90051 39.004C9.27263 38.6319 9.77733 38.4229 10.3036 38.4229V38.4229Z" fill="#ED4D55"/>
<path d="M16.6769 45.6543C16.6769 46.6042 15.7887 47.3744 14.6933 47.3744H10.3032C9.20715 47.3744 8.31934 46.6042 8.31934 45.6543V41.3321C8.31934 40.3826 9.20715 39.6123 10.3032 39.6123H14.6933C15.7887 39.6123 16.6769 40.3826 16.6769 41.3321V45.6543Z" fill="#BC2A38"/>
<path d="M18.6356 38.4229H23.0257C23.5518 38.4229 24.0563 38.6318 24.4283 39.0038C24.8003 39.3758 25.0093 39.8803 25.0093 40.4064V45.3908C25.0093 45.9168 24.8003 46.4214 24.4283 46.7934C24.0563 47.1653 23.5518 47.3743 23.0257 47.3743H18.6353C18.3746 47.3743 18.1165 47.3229 17.8757 47.2232C17.6349 47.1234 17.4162 46.9771 17.2319 46.7927C17.0477 46.6084 16.9016 46.3895 16.802 46.1486C16.7024 45.9078 16.6512 45.6496 16.6514 45.389V40.4071C16.6514 39.8808 16.8604 39.3761 17.2325 39.004C17.6047 38.6319 18.1094 38.4229 18.6356 38.4229V38.4229Z" fill="#ED4D55"/>
<path d="M25.008 45.6543C25.008 46.6042 24.1195 47.3744 23.0242 47.3744H18.6362C17.5409 47.3744 16.6523 46.6042 16.6523 45.6543V41.3321C16.6523 40.3826 17.5409 39.6123 18.6362 39.6123H23.0263C24.1217 39.6123 25.0102 40.3826 25.0102 41.3321L25.008 45.6543Z" fill="#BC2A38"/>
<path d="M26.9803 38.4229H31.3704C31.631 38.4229 31.889 38.4742 32.1296 38.5739C32.3703 38.6736 32.589 38.8197 32.7733 39.0039C32.9575 39.1881 33.1036 39.4068 33.2033 39.6475C33.303 39.8882 33.3543 40.1462 33.3543 40.4067V45.3908C33.3543 45.9168 33.1454 46.4214 32.7734 46.7934C32.4014 47.1653 31.8969 47.3743 31.3708 47.3743H26.98C26.7193 47.3743 26.4612 47.3229 26.2204 47.2232C25.9797 47.1234 25.7609 46.9771 25.5766 46.7927C25.3924 46.6084 25.2463 46.3895 25.1467 46.1486C25.0471 45.9078 24.9959 45.6496 24.9961 45.389V40.4071C24.9961 39.8808 25.2051 39.3761 25.5773 39.004C25.9494 38.6319 26.4541 38.4229 26.9803 38.4229V38.4229Z" fill="#ED4D55"/>
<path d="M33.3521 45.6543C33.3521 46.6042 32.4642 47.3744 31.3682 47.3744H26.981C25.8849 47.3744 24.9971 46.6042 24.9971 45.6543V41.3321C24.9971 40.3826 25.8849 39.6123 26.981 39.6123H31.3711C32.4671 39.6123 33.355 40.3826 33.355 41.3321L33.3521 45.6543Z" fill="#BC2A38"/>
<path d="M35.2958 38.4229H39.6859C39.9464 38.4229 40.2044 38.4742 40.4451 38.5739C40.6858 38.6736 40.9045 38.8197 41.0887 39.0039C41.2729 39.1881 41.4191 39.4068 41.5188 39.6475C41.6185 39.8882 41.6698 40.1462 41.6698 40.4067V45.3908C41.6698 45.9168 41.4608 46.4214 41.0888 46.7934C40.7168 47.1653 40.2123 47.3743 39.6862 47.3743H35.2954C35.0348 47.3743 34.7767 47.3229 34.5359 47.2232C34.2951 47.1234 34.0763 46.9771 33.8921 46.7927C33.7078 46.6084 33.5617 46.3895 33.4621 46.1486C33.3625 45.9078 33.3113 45.6496 33.3115 45.389V40.4071C33.3115 39.8808 33.5206 39.3761 33.8927 39.004C34.2648 38.6319 34.7695 38.4229 35.2958 38.4229V38.4229Z" fill="#ED4D55"/>
<path d="M41.6675 45.6543C41.6675 46.6042 40.7793 47.3744 39.6836 47.3744H35.2935C34.1977 47.3744 33.3096 46.6042 33.3096 45.6543V41.3321C33.3096 40.3826 34.1977 39.6123 35.2935 39.6123H39.6836C40.7793 39.6123 41.6675 40.3826 41.6675 41.3321V45.6543Z" fill="#BC2A38"/>
<path d="M43.6288 38.4229H48.0189C48.2794 38.4229 48.5374 38.4742 48.7781 38.5739C49.0188 38.6736 49.2375 38.8197 49.4217 39.0039C49.6059 39.1881 49.7521 39.4068 49.8518 39.6475C49.9515 39.8882 50.0028 40.1462 50.0028 40.4067V45.3908C50.0028 45.9168 49.7938 46.4214 49.4218 46.7934C49.0498 47.1653 48.5453 47.3743 48.0193 47.3743H43.6284C43.3678 47.3743 43.1097 47.3229 42.8689 47.2232C42.6281 47.1234 42.4093 46.9771 42.2251 46.7927C42.0408 46.6084 41.8947 46.3895 41.7951 46.1486C41.6955 45.9078 41.6443 45.6496 41.6445 45.389V40.4071C41.6445 39.8808 41.8536 39.3761 42.2257 39.004C42.5978 38.6319 43.1025 38.4229 43.6288 38.4229V38.4229Z" fill="#ED4D55"/>
<path d="M50.0001 45.6543C50.0001 46.6042 49.1119 47.3744 48.0162 47.3744H43.6261C42.5308 47.3744 41.6426 46.6042 41.6426 45.6543V41.3321C41.6426 40.3826 42.5308 39.6123 43.6261 39.6123H48.0162C49.1119 39.6123 50.0001 40.3826 50.0001 41.3321V45.6543Z" fill="#BC2A38"/>
<path d="M49.5657 9.58239V5.79711C49.5631 4.9561 49.2279 4.15027 48.6331 3.55565C48.0383 2.96103 47.2324 2.62593 46.3914 2.62354H3.60789C2.76687 2.62593 1.96098 2.96103 1.36622 3.55565C0.771465 4.15027 0.436178 4.9561 0.433594 5.79711V9.58457C1.79307 11.5195 3.6605 12.7146 5.72385 12.7146C7.94974 12.7146 9.94343 11.3167 11.3214 9.10601C14.2708 11.8656 19.1031 13.667 24.5694 13.667C30.3857 13.667 35.4855 11.628 38.3615 8.56396C39.7402 11.087 41.8722 12.7146 44.2755 12.7146C46.3381 12.7146 48.2055 11.5195 49.5657 9.58239Z" fill="#ED4D55"/>
<path d="M49.5657 8.6624V5.79613C49.5631 4.95512 49.2279 4.14931 48.6331 3.55468C48.0383 2.96006 47.2324 2.62495 46.3914 2.62256H3.60789C2.76687 2.62495 1.96098 2.96006 1.36622 3.55468C0.771465 4.14931 0.436178 4.95512 0.433594 5.79613V8.6624C1.79307 10.36 3.66014 11.4093 5.72385 11.4093C7.94974 11.4093 9.94343 10.183 11.3214 8.24407C14.2708 10.6648 19.1031 12.2441 24.5694 12.2441C30.3857 12.2441 35.4855 10.4562 38.3615 7.76842C39.7402 9.98161 41.8722 11.4093 44.2755 11.4093C46.3385 11.4097 48.2055 10.3604 49.5657 8.6624Z" fill="#F9B968"/>
<path d="M49.5657 7.29374V5.79711C49.5631 4.9561 49.2279 4.15027 48.6331 3.55565C48.0383 2.96103 47.2324 2.62593 46.3914 2.62354H3.60789C2.76687 2.62593 1.96098 2.96103 1.36622 3.55565C0.771465 4.15027 0.436178 4.9561 0.433594 5.79711V7.29374C1.15763 8.01062 2.0199 8.57276 2.96799 8.94596C3.91608 9.31917 4.93017 9.49564 5.94859 9.46466C6.96702 9.43367 7.9685 9.19588 8.89215 8.76573C9.81579 8.33558 10.6423 7.72205 11.3214 6.96247C14.2708 8.87852 19.1031 10.1288 24.5694 10.1288C30.3857 10.1288 35.4855 8.7138 38.3615 6.58624C39.0153 7.42105 39.8383 8.10808 40.7764 8.60219C41.7146 9.09629 42.7467 9.38629 43.8049 9.45311C44.8632 9.51993 45.9235 9.36208 46.9164 8.98991C47.9093 8.61774 48.8122 8.03969 49.5657 7.29374V7.29374Z" fill="#ED4D55"/>
</g>
<defs>
<clipPath id="clip0_479_87">
<rect width="50" height="50" fill="white"/>
</clipPath>
</defs>
</svg>
