<svg width="50" height="50" viewBox="0 0 50 50" fill="none" xmlns="http://www.w3.org/2000/svg">
<g clip-path="url(#clip0_480_481)">
<path d="M7.06543 6.52148V36.9562H42.935V6.52148H7.06543Z" fill="#D7EBFF"/>
<path d="M42.9348 6.52148H25V36.9562H42.9348V6.52148Z" fill="#BDDEFF"/>
<path d="M28.4591 17.7374C27.9343 17.2126 27.3105 16.822 26.6302 16.582V14.6739C26.6302 13.7738 25.8998 13.0435 24.9997 13.0435C24.0996 13.0435 23.3692 13.7738 23.3692 14.6739V16.5819C22.6891 16.8217 22.0655 17.212 21.5414 17.7363C20.6178 18.6598 20.1084 19.8891 20.1084 21.1957C20.1084 22.5023 20.6179 23.7315 21.5414 24.6551C22.1782 25.2898 23.211 25.2909 23.848 24.654C24.4839 24.0172 24.4839 22.9844 23.847 22.3474C23.5391 22.0406 23.3692 21.631 23.3692 21.1957C23.3692 20.7604 23.5391 20.3508 23.8479 20.043C24.4615 19.4273 25.5367 19.4263 26.1524 20.044C26.4603 20.3508 26.6302 20.7604 26.6302 21.1957C26.6302 21.631 26.4603 22.0406 26.1524 22.3475C25.5156 22.9843 25.5156 24.0171 26.1514 24.6541C26.7883 25.2909 27.8199 25.2909 28.458 24.6552C29.3815 23.7315 29.891 22.5023 29.891 21.1957C29.891 19.8891 29.3815 18.6598 28.4591 17.7374Z" fill="#736056"/>
<path d="M26.1527 20.0439C26.4605 20.3508 26.6305 20.7604 26.6305 21.1957C26.6305 21.631 26.4605 22.0406 26.1527 22.3475C25.5159 22.9843 25.5159 24.0171 26.1517 24.6541C26.7886 25.2909 27.8202 25.2909 28.4583 24.6552C29.3818 23.7315 29.8913 22.5023 29.8913 21.1957C29.8913 19.8891 29.3817 18.6599 28.4594 17.7374C27.9346 17.2126 27.3107 16.822 26.6305 16.582V14.6739C26.6305 13.7738 25.9001 13.0435 25 13.0435V19.5809C25.4224 19.581 25.845 19.7352 26.1527 20.0439Z" fill="#665247"/>
<path d="M24.9997 16.3042C22.3025 16.3042 20.1084 14.1101 20.1084 11.4129V8.15195C20.1084 7.25186 20.8388 6.52148 21.7389 6.52148H28.2606C29.1607 6.52148 29.8911 7.25186 29.8911 8.15195V11.4128C29.891 14.1101 27.6969 16.3042 24.9997 16.3042Z" fill="#36D9D9"/>
<path d="M29.8913 11.4129V8.15195C29.8913 7.25186 29.1609 6.52148 28.2608 6.52148H25V16.3041C27.6972 16.3042 29.8913 14.1101 29.8913 11.4129Z" fill="#43BFBF"/>
<path d="M21.7392 36.9565H15.2174C14.3173 36.9565 13.5869 36.2262 13.5869 35.3261V30.9782C13.5869 28.2811 15.7811 26.0869 18.4782 26.0869C21.1754 26.0869 23.3695 28.2811 23.3695 30.9782V35.3261C23.3695 36.2262 22.6393 36.9565 21.7392 36.9565Z" fill="#F26C9A"/>
<path d="M34.7821 36.9565H28.2603C27.3603 36.9565 26.6299 36.2262 26.6299 35.3261V30.9782C26.6299 28.2811 28.824 26.0869 31.5212 26.0869C34.2184 26.0869 36.4125 28.2811 36.4125 30.9782V35.3261C36.4126 36.2262 35.6822 36.9565 34.7821 36.9565Z" fill="#D95782"/>
<path d="M7.06543 33.6958V45.1089C7.06543 47.8061 9.25957 50.0002 11.9567 50.0002H38.0437C40.7408 50.0002 42.935 47.8061 42.935 45.1089V33.6958H7.06543Z" fill="#FFC033"/>
<path d="M25 50.0002H38.0435C40.7406 50.0002 42.9348 47.8061 42.9348 45.1089V33.6958H25V50.0002Z" fill="#F9A926"/>
<path d="M34.7829 43.4782H31.5221C30.622 43.4782 29.8916 42.7478 29.8916 41.8478C29.8916 40.9477 30.622 40.2173 31.5221 40.2173H34.7829C35.683 40.2173 36.4134 40.9477 36.4134 41.8478C36.4134 42.7479 35.683 43.4782 34.7829 43.4782Z" fill="#665247"/>
<path d="M15.2169 44.0217C14.0186 44.0217 13.043 43.0461 13.043 41.8478C13.043 40.6494 14.0186 39.6738 15.2169 39.6738C16.4152 39.6738 17.3908 40.6494 17.3908 41.8478C17.3908 43.0461 16.4152 44.0217 15.2169 44.0217Z" fill="#736056"/>
<path d="M21.7384 44.0217C20.54 44.0217 19.5645 43.0461 19.5645 41.8478C19.5645 40.6494 20.54 39.6738 21.7384 39.6738C22.9367 39.6738 23.9123 40.6494 23.9123 41.8478C23.9123 43.0461 22.9367 44.0217 21.7384 44.0217Z" fill="#736056"/>
<path d="M38.0437 0H11.9567C9.25957 0 7.06543 2.19414 7.06543 4.89131V9.78262H42.935V4.89131C42.935 2.19414 40.7408 0 38.0437 0Z" fill="#FFC033"/>
<path d="M38.0435 0H25V9.78262H42.9348V4.89131C42.9348 2.19414 40.7406 0 38.0435 0Z" fill="#F9A926"/>
</g>
<defs>
<clipPath id="clip0_480_481">
<rect width="50" height="50" fill="white"/>
</clipPath>
</defs>
</svg>
