<svg width="50" height="50" viewBox="0 0 50 50" fill="none" xmlns="http://www.w3.org/2000/svg">
<g clip-path="url(#clip0_483_666)">
<path d="M37.759 0C36.8906 0 36.1866 0.704004 36.1866 1.57236H13.8127C13.8127 0.704004 13.1087 0 12.2403 0C11.372 0 10.668 0.704004 10.668 1.57236V48.4276C10.668 49.296 11.372 50 12.2403 50H37.7589C38.6272 50 39.3313 49.296 39.3313 48.4276V1.57236C39.3313 0.704004 38.6273 0 37.759 0Z" fill="#CFCDD6"/>
<path d="M24.9996 1.57236H13.8127C13.8127 0.704004 13.1087 0 12.2403 0C11.372 0 10.668 0.704004 10.668 1.57236V48.4276C10.668 49.296 11.372 50 12.2403 50H25.0002L24.9996 1.57236Z" fill="#DEE1E7"/>
<path d="M10.668 29.5073V48.4276C10.668 49.296 11.372 50 12.2403 50H37.7589C38.6272 50 39.3313 49.296 39.3313 48.4276V29.5073H10.668Z" fill="#BC2A46"/>
<path d="M28.8487 26.8845C27.9804 26.8845 27.2764 26.1805 27.2764 25.3121V23.2682C27.2764 22.3998 27.9804 21.6958 28.8487 21.6958C29.7171 21.6958 30.4211 22.3998 30.4211 23.2682V25.3121C30.4211 26.1805 29.7172 26.8845 28.8487 26.8845Z" fill="#0E4151"/>
<path d="M32.9806 26.8845C32.1122 26.8845 31.4082 26.1805 31.4082 25.3121V23.2682C31.4082 22.3998 32.1122 21.6958 32.9806 21.6958C33.8489 21.6958 34.5529 22.3998 34.5529 23.2682V25.3121C34.5529 26.1805 33.8489 26.8845 32.9806 26.8845Z" fill="#0E4151"/>
<path d="M25.0001 14.2875C24.1317 14.2875 23.4277 13.5835 23.4277 12.7151V7.00742C23.4277 6.13906 24.1317 5.43506 25.0001 5.43506C25.8685 5.43506 26.5725 6.13906 26.5725 7.00742V12.7151C26.5725 13.5835 25.8685 14.2875 25.0001 14.2875Z" fill="#F79D1E"/>
<path d="M25.0001 14.2875C24.1317 14.2875 23.4277 13.5835 23.4277 12.7151V7.00742C23.4277 6.13906 24.1317 5.43506 25.0001 5.43506V14.2875Z" fill="#FBB03B"/>
<path d="M26.9747 18.7427C26.8606 18.7427 26.7448 18.7302 26.6289 18.7042C25.7816 18.5141 25.2489 17.673 25.4391 16.8257L25.6405 15.9287L25.0005 15.4289L24.3606 15.9287L24.562 16.8257C24.7521 17.673 24.2195 18.514 23.3722 18.7042C22.5251 18.8944 21.6839 18.3617 21.4937 17.5144L21.0744 15.6464C20.9413 15.0534 21.1618 14.4368 21.6409 14.0628L24.0331 12.1948C24.6018 11.7508 25.3998 11.7508 25.9685 12.1948L28.3607 14.0628C28.8397 14.4368 29.0603 15.0534 28.9272 15.6464L28.5079 17.5144C28.3432 18.2457 27.6941 18.7427 26.9747 18.7427Z" fill="#0E4151"/>
<path d="M24.9996 15.4289L24.3596 15.9287L24.561 16.8257C24.7511 17.6729 24.2185 18.514 23.3712 18.7042C22.5242 18.8943 21.683 18.3617 21.4927 17.5144L21.0734 15.6464C20.9403 15.0534 21.1608 14.4368 21.6399 14.0628L24.0321 12.1948C24.3165 11.9729 24.6581 11.8618 24.9999 11.8618L24.9996 15.4289Z" fill="#144F66"/>
<path d="M10.668 29.5073V48.4276C10.668 49.296 11.372 50 12.2403 50H25.0002V29.5073H10.668Z" fill="#D62D46"/>
<path d="M31.7483 37.0152C32.5737 37.0152 33.2428 36.3462 33.2428 35.5208C33.2428 34.6954 32.5737 34.0264 31.7483 34.0264C30.923 34.0264 30.2539 34.6954 30.2539 35.5208C30.2539 36.3462 30.923 37.0152 31.7483 37.0152Z" fill="#0E4151"/>
<path d="M27.7874 37.093H16.7569C15.8886 37.093 15.1846 36.389 15.1846 35.5206C15.1846 34.6522 15.8886 33.9482 16.7569 33.9482H27.7874C28.6558 33.9482 29.3598 34.6522 29.3598 35.5206C29.3598 36.389 28.6558 37.093 27.7874 37.093Z" fill="#F79D1E"/>
<path d="M25.0002 37.093H16.7569C15.8886 37.093 15.1846 36.389 15.1846 35.5206C15.1846 34.6522 15.8886 33.9482 16.7569 33.9482H24.9997L25.0002 37.093Z" fill="#FBB03B"/>
<path d="M39.7757 24.6431H10.2237C9.35537 24.6431 8.65137 25.3471 8.65137 26.2154V30.57C8.65137 31.4384 9.35537 32.1424 10.2237 32.1424H39.7758C40.6441 32.1424 41.3481 31.4384 41.3481 30.57V26.2154C41.348 25.3471 40.644 24.6431 39.7757 24.6431Z" fill="#0E4151"/>
<path d="M25.0002 24.6431H10.2237C9.35537 24.6431 8.65137 25.3471 8.65137 26.2154V30.57C8.65137 31.4384 9.35537 32.1424 10.2237 32.1424H24.9997L25.0002 24.6431Z" fill="#144F66"/>
<path d="M39.3313 1.57236C39.3313 0.704004 38.6273 0 37.759 0C36.8906 0 36.1866 0.704004 36.1866 1.57236H13.8127C13.8127 0.704004 13.1087 0 12.2403 0C11.372 0 10.668 0.704004 10.668 1.57236V7.52051H39.3313V1.57236H39.3313Z" fill="#0E4151"/>
<path d="M39.7757 3.14473H10.2237C9.35537 3.14473 8.65137 2.44072 8.65137 1.57236C8.65137 0.704004 9.35537 0 10.2237 0H39.7758C40.6441 0 41.3481 0.704004 41.3481 1.57236C41.3481 2.44072 40.644 3.14473 39.7757 3.14473Z" fill="#BC2A46"/>
<path d="M24.9996 1.57236H13.8127C13.8127 0.704004 13.1087 0 12.2403 0C11.372 0 10.668 0.704004 10.668 1.57236V7.52051H25.0001L24.9996 1.57236Z" fill="#144F66"/>
<path d="M24.9996 3.14473H10.2237C9.35537 3.14473 8.65137 2.44072 8.65137 1.57236C8.65137 0.704004 9.35537 0 10.2237 0H24.9997V3.14473H24.9996Z" fill="#D62D46"/>
</g>
<defs>
<clipPath id="clip0_483_666">
<rect width="50" height="50" fill="white"/>
</clipPath>
</defs>
</svg>
