<svg width="50" height="50" viewBox="0 0 50 50" fill="none" xmlns="http://www.w3.org/2000/svg">
<g clip-path="url(#clip0_480_427)">
<path d="M39.6736 49.9999H10.3258C9.42568 49.9999 8.69531 49.2695 8.69531 48.3694V28.8043C8.69531 27.9042 9.42568 27.1738 10.3258 27.1738H39.6736C40.5737 27.1738 41.3041 27.9042 41.3041 28.8043V48.3695C41.3041 49.2695 40.5737 49.9999 39.6736 49.9999Z" fill="#E6563A"/>
<path d="M39.6739 27.1738H25V49.9999H39.6739C40.574 49.9999 41.3044 49.2695 41.3044 48.3694V28.8043C41.3044 27.9041 40.574 27.1738 39.6739 27.1738Z" fill="#D9472B"/>
<path d="M39.6736 16.3044H10.3258C9.42568 16.3044 8.69531 15.574 8.69531 14.6739V8.15215C8.69531 7.25205 9.42568 6.52168 10.3258 6.52168H15.3806C16.1385 2.80557 19.4322 0 23.3692 0H26.6301C30.5672 0 33.8608 2.80557 34.6188 6.52178H39.6735C40.5736 6.52178 41.304 7.25215 41.304 8.15225V14.674C41.3041 15.574 40.5737 16.3044 39.6736 16.3044Z" fill="#E6563A"/>
<path d="M39.6739 6.52178H34.6191C33.8612 2.80557 30.5675 0 26.6305 0H25V16.3044H39.6739C40.574 16.3044 41.3044 15.574 41.3044 14.6739V8.15215C41.3044 7.25205 40.574 6.52178 39.6739 6.52178Z" fill="#D9472B"/>
<path d="M41.3041 30.4348H8.69531V13.0435H41.304V30.4348H41.3041Z" fill="#D7EBFF"/>
<path d="M41.3044 13.0435H25V30.4348H41.3044V13.0435Z" fill="#BDDEFF"/>
<path d="M31.5221 30.435H18.4785V27.401C18.4785 23.8576 21.2046 20.6525 25 20.6523C28.5964 20.6522 31.522 23.5776 31.522 27.1741V30.435H31.5221Z" fill="#B8D1E6"/>
<path d="M25 20.6577V30.4349H31.5218V27.174C31.5218 23.5781 28.5958 20.6585 25 20.6577Z" fill="#A3BDCC"/>
<path d="M34.783 41.8479C32.982 41.8479 31.5222 43.3078 31.5222 45.1088H18.4786C18.4786 43.3078 17.0187 41.8479 15.2178 41.8479V38.587C17.0187 38.587 18.4786 37.1271 18.4786 35.3262H31.5221C31.5221 37.1271 32.9819 38.587 34.7829 38.587V41.8479H34.783Z" fill="#FFDFB3"/>
<path d="M31.5218 35.3262H25V45.1088H31.5218C31.5218 43.3078 32.9816 41.8479 34.7826 41.8479V38.587C32.9816 38.587 31.5218 37.1271 31.5218 35.3262Z" fill="#FFCC99"/>
</g>
<defs>
<clipPath id="clip0_480_427">
<rect width="50" height="50" fill="white"/>
</clipPath>
</defs>
</svg>
