<svg width="50" height="50" viewBox="0 0 50 50" fill="none" xmlns="http://www.w3.org/2000/svg">
<g clip-path="url(#clip0_483_812)">
<path d="M1.66602 12.0835V31.0585L15.2827 18.9585C15.591 18.6835 16.0744 18.6835 16.3827 18.9585L30.7577 31.7335L36.041 25.7002C36.3577 25.3419 36.9743 25.3419 37.291 25.7002L41.666 30.7002V12.0835H1.66602ZM29.9993 23.7502C28.1576 23.7502 26.666 22.2585 26.666 20.4169C26.666 18.5753 28.1577 17.0836 29.9993 17.0836C31.841 17.0836 33.3326 18.5753 33.3326 20.4169C33.3326 22.2585 31.841 23.7502 29.9993 23.7502Z" fill="#0091EA"/>
<path d="M41.666 33.2335V44.5835H1.66602V33.2919L15.8327 20.7002L30.2827 33.5419C30.441 33.6836 30.666 33.7502 30.8827 33.7502C31.1077 33.7335 31.316 33.6335 31.4577 33.4669L36.666 27.5169L41.666 33.2335Z" fill="#4CAF50"/>
<path d="M48.3333 3.75H8.3333C7.4166 3.75 6.6666 4.5 6.6666 5.4167V7.0834H5C4.0833 7.0834 3.3333 7.8334 3.3333 8.7501V10.4168H1.6667C0.75 10.4167 0 11.1667 0 12.0833V44.5833C0 45.5 0.75 46.25 1.6667 46.25H41.6667C42.5834 46.25 43.3334 45.5 43.3334 44.5833V42.9166H45C45.9167 42.9166 46.6667 42.1666 46.6667 41.2499V39.5832H48.3334C49.2501 39.5832 50.0001 38.8332 50.0001 37.9165V5.4165C50 4.5 49.25 3.75 48.3333 3.75ZM41.6667 44.5833H1.6667V33.2917L15.8334 20.7L30.2834 33.5417C30.4417 33.6834 30.6667 33.75 30.8834 33.75C31.1084 33.7333 31.3167 33.6333 31.4584 33.4667L36.6667 27.5167L41.6667 33.2334V44.5833ZM41.6667 30.7L37.2917 25.7C36.975 25.3417 36.3584 25.3417 36.0417 25.7L30.7584 31.7333L16.3834 18.9583C16.0751 18.6833 15.5917 18.6833 15.2834 18.9583L1.6667 31.0583V12.0833H41.6667V30.7V30.7ZM45 41.25H43.3333V12.0833C43.3333 11.1666 42.5833 10.4166 41.6666 10.4166H5V8.75H45V41.25ZM48.3333 37.9167H46.6666V8.75C46.6666 7.8333 45.9166 7.0833 44.9999 7.0833H8.3333V5.4167H48.3333V37.9167Z" fill="black"/>
<path d="M48.334 5.41699V37.917H46.6673V8.75029C46.6673 7.83359 45.9173 7.08359 45.0006 7.08359H8.33398V5.41699H48.334Z" fill="#2979FF"/>
<path d="M45 8.75049V41.2505H43.3333V12.0838C43.3333 11.1671 42.5833 10.4171 41.6666 10.4171H5V8.75049H45Z" fill="#2979FF"/>
<path d="M29.9993 17.083C28.1576 17.083 26.666 18.5747 26.666 20.4163C26.666 22.2579 28.1576 23.7497 29.9993 23.7497C31.841 23.7497 33.3326 22.258 33.3326 20.4164C33.3326 18.5748 31.841 17.083 29.9993 17.083ZM29.9993 22.083C29.0826 22.083 28.3326 21.333 28.3326 20.4163C28.3326 19.4996 29.0826 18.7497 29.9993 18.7497C30.916 18.7497 31.666 19.4997 31.666 20.4164C31.666 21.3331 30.916 22.083 29.9993 22.083Z" fill="black"/>
<path d="M30.0007 22.0834C30.9212 22.0834 31.6674 21.3372 31.6674 20.4167C31.6674 19.4962 30.9212 18.75 30.0007 18.75C29.0802 18.75 28.334 19.4962 28.334 20.4167C28.334 21.3372 29.0802 22.0834 30.0007 22.0834Z" fill="#FFC107"/>
<path d="M39.166 12.0835V27.8427L41.666 30.7002V12.0835H39.166Z" fill="#2979FF"/>
<path d="M39.166 30.375V44.5833H41.666V33.2333L39.166 30.375Z" fill="#388E3C"/>
</g>
<defs>
<clipPath id="clip0_483_812">
<rect width="50" height="50" fill="white"/>
</clipPath>
</defs>
</svg>
