<svg width="50" height="50" viewBox="0 0 50 50" fill="none" xmlns="http://www.w3.org/2000/svg">
<g clip-path="url(#clip0_482_555)">
<path d="M1.73916 49.1849C1.73916 49.635 1.37412 50.0001 0.923926 50.0001H0.815234C0.365039 50.0001 0 49.635 0 49.1849C0 48.7347 0.365039 48.3696 0.815234 48.3696H0.923926C1.37412 48.3696 1.73916 48.7347 1.73916 49.1849ZM23.2065 48.3696H23.0979C22.6477 48.3696 22.2826 48.7347 22.2826 49.1849C22.2826 49.635 22.6477 50.0001 23.0979 50.0001H23.2065C23.6567 50.0001 24.0218 49.635 24.0218 49.1849C24.0218 48.7347 23.6567 48.3696 23.2065 48.3696ZM49.1848 48.3696H49.0761C48.6259 48.3696 48.2608 48.7347 48.2608 49.1849C48.2608 49.635 48.6259 50.0001 49.0761 50.0001H49.1848C49.635 50.0001 50 49.635 50 49.1849C50 48.7347 49.635 48.3696 49.1848 48.3696ZM46.0326 48.3696H45.9239C45.4737 48.3696 45.1087 48.7347 45.1087 49.1849C45.1087 49.635 45.4737 50.0001 45.9239 50.0001H46.0326C46.4828 50.0001 46.8479 49.635 46.8479 49.1849C46.8479 48.7347 46.4828 48.3696 46.0326 48.3696ZM19.8369 48.3696H4.07607C3.62588 48.3696 3.26084 48.7347 3.26084 49.1849C3.26084 49.635 3.62588 50.0001 4.07607 50.0001H19.8369C20.2871 50.0001 20.6521 49.635 20.6521 49.1849C20.6521 48.7347 20.2872 48.3696 19.8369 48.3696ZM42.6631 48.3696H26.3587C25.9085 48.3696 25.5435 48.7347 25.5435 49.1849C25.5435 49.635 25.9085 50.0001 26.3587 50.0001H42.6631C43.1133 50.0001 43.4783 49.635 43.4783 49.1849C43.4783 48.7347 43.1133 48.3696 42.6631 48.3696Z" fill="#659F00"/>
<path d="M38.9038 49.5845L38.6962 49.9997H32.6093L31.5224 46.7389V44.5649H35.8702V46.7389H37.1451C37.4503 46.7389 37.7515 46.81 38.0245 46.9465C38.9958 47.4321 39.3895 48.6132 38.9038 49.5845ZM17.3724 46.9465C17.0993 46.81 16.7982 46.7389 16.493 46.7389H15.218V44.5649H10.8701V46.7389L11.9571 49.9997H18.044L18.2517 49.5845C18.7373 48.6132 18.3437 47.4321 17.3724 46.9465Z" fill="#3D3D3D"/>
<path d="M37.7171 29.1304L35.1275 46.7391H31.8667V31.5217L37.7171 29.1304ZM11.5215 46.7391H14.7823L17.3719 30.4347L11.5215 31.5216V46.7391V46.7391Z" fill="#4F2000"/>
<path d="M16.5947 41.3043V45.6521C16.5947 46.2524 16.1081 46.7391 15.5078 46.7391H10.8701C10.2698 46.7391 9.7832 46.2524 9.7832 45.6521V41.3043C9.7832 40.704 10.2698 40.2174 10.8701 40.2174H15.5078C16.108 40.2173 16.5947 40.7039 16.5947 41.3043ZM35.9062 40.2173H31.2686C30.6683 40.2173 30.1816 40.7039 30.1816 41.3042V45.6521C30.1816 46.2523 30.6683 46.739 31.2686 46.739H35.9062C36.5065 46.739 36.9932 46.2523 36.9932 45.6521V41.3042C36.9932 40.7039 36.5065 40.2173 35.9062 40.2173Z" fill="#BC0000"/>
<path d="M50 8.95225V10.2592C50 11.6734 48.6709 12.7112 47.2988 12.3682L43.2573 11.3578C42.1553 11.0822 41.0269 11.7018 40.6678 12.7793L38.0436 20.6521V27.1738C38.0436 30.3155 35.8218 32.9379 32.8639 33.5566L31.1062 46.7391H26.7583V33.6956L26.8622 33.6437L21.7392 32.7898L17.9962 32.166C16.2127 31.8688 14.3969 32.0696 12.7385 32.7222L10.8695 46.7391H6.52178V34.9456V33.6956V33.5081C5.25557 33.0604 4.34785 31.8543 4.34785 30.4348V31.5217C4.34785 33.9229 2.40127 35.8695 0 35.8695V25C0 22.5988 1.94658 20.6521 4.34785 20.6521C5.61484 18.7518 8.03984 17.9984 10.1605 18.8468L11.1895 19.2583C11.6972 19.4614 12.2357 19.5768 12.7821 19.5996L27.3686 20.2073L34.7826 3.26084L35.5816 0.86377C35.7536 0.347949 36.2363 0 36.7801 0C37.4778 0 38.0435 0.565625 38.0435 1.26338V3.26084H38.7384C40.4258 3.26084 42.0901 3.65381 43.5993 4.4083L48.7982 7.00772C49.5348 7.37607 50 8.12881 50 8.95225Z" fill="#8E3900"/>
<path d="M40.9239 6.08672C40.9239 6.53692 40.5589 6.90196 40.1087 6.90196H39.5652C39.115 6.90196 38.75 6.53692 38.75 6.08672C38.75 5.63652 39.115 5.27148 39.5652 5.27148H40.1087C40.5589 5.27158 40.9239 5.63652 40.9239 6.08672Z" fill="#4F2000"/>
<path d="M14.1299 21.3763V19.942C14.1299 18.7413 15.1031 17.7681 16.3038 17.7681L17.2117 17.995C19.4702 18.5597 21.833 18.5597 24.0915 17.995L24.9994 17.7681C26.2001 17.7681 27.1733 18.7413 27.1733 19.942V21.7385C27.1733 24.2821 24.9993 26.2825 22.4645 26.0713L18.1166 25.709C15.8632 25.5212 14.1299 23.6374 14.1299 21.3763Z" fill="#BF4D00"/>
<path d="M46.4678 8.80449C46.4678 9.25469 46.1027 9.61973 45.6525 9.61973H35.8699C35.4197 9.61973 35.0547 9.25469 35.0547 8.80449C35.0547 8.3543 35.4197 7.98926 35.8699 7.98926H45.6525C46.1027 7.98926 46.4678 8.3542 46.4678 8.80449Z" fill="#B2682F"/>
<path d="M33.5036 6.18522C33.2137 5.66208 34.0017 3.91989 34.3428 4.26706L39.9427 15.0038L40.0028 15.119C40.3674 15.8198 39.3634 17.4092 39.2179 17.1305L33.5036 6.18522ZM46.9898 5.71217C46.5506 5.61432 46.3008 5.62565 46.2031 6.0652L44.8987 11.9347C44.8897 11.9752 44.8839 12.0162 44.8811 12.0574L44.0647 24.3032C43.9415 26.1523 42.3932 27.6008 40.5399 27.6008H36.0457C34.4218 27.6008 33.0124 26.5006 32.6185 24.9251C32.6166 24.9173 32.6145 24.9096 32.6125 24.902L29.774 14.7828C29.703 14.5306 29.183 15.0304 28.866 15.6591C28.4651 16.4541 28.6486 16.8332 28.6996 17.0145L31.04 25.3327C31.6199 27.6288 33.6765 29.2314 36.0459 29.2314H40.5401C43.2487 29.2314 45.5115 27.1143 45.6918 24.4119L46.5041 12.2281L47.7507 6.61813C47.8481 6.17829 47.4293 5.80983 46.9898 5.71217Z" fill="#D18839"/>
<path d="M0 35.8697V25.0002C0 22.599 1.94658 20.6523 4.34785 20.6523V31.5219C4.34785 33.9231 2.40117 35.8697 0 35.8697Z" fill="#4F2000"/>
<path d="M16.3047 19.9476V17.7686L17.2126 17.9955C19.4711 18.5602 21.8339 18.5602 24.0924 17.9955L25.0003 17.7686V20.2193C25.0003 22.1808 23.2813 23.6983 21.335 23.455L19.161 23.1832C17.5292 22.9792 16.3047 21.5921 16.3047 19.9476Z" fill="#8C1A00"/>
<path d="M33.9029 49.5845L33.6953 49.9997H29.044C28.5762 49.9997 28.1607 49.7004 28.0129 49.2565L27.1736 46.7389V44.5649H31.5215V46.7389H32.1442C32.4494 46.7389 32.7506 46.81 33.0236 46.9465C33.9949 47.4321 34.3886 48.6132 33.9029 49.5845ZM12.3715 46.9465C12.0984 46.81 11.7974 46.7389 11.4921 46.7389H10.8692V44.5649H6.52148V46.7389L7.36074 49.2565C7.50869 49.7003 7.92412 49.9997 8.39189 49.9997H13.0432L13.2508 49.5845C13.7364 48.6132 13.3428 47.4321 12.3715 46.9465Z" fill="#5B5B5B"/>
<path d="M32.6812 41.3043V45.6521C32.6812 46.2524 32.1946 46.7391 31.5943 46.7391H26.9566C26.3563 46.7391 25.8697 46.2524 25.8697 45.6521V41.3043C25.8697 40.704 26.3563 40.2174 26.9566 40.2174H31.5943C32.1945 40.2173 32.6812 40.7039 32.6812 41.3043ZM11.377 40.2173H6.73926C6.13896 40.2173 5.65234 40.7039 5.65234 41.3042V45.6521C5.65234 46.2523 6.13896 46.739 6.73926 46.739H11.377C11.9772 46.739 12.4639 46.2523 12.4639 45.6521V41.3042C12.4639 40.7039 11.9771 40.2173 11.377 40.2173Z" fill="#F93100"/>
</g>
<defs>
<clipPath id="clip0_482_555">
<rect width="50" height="50" fill="white"/>
</clipPath>
</defs>
</svg>
