<svg width="50" height="50" viewBox="0 0 50 50" fill="none" xmlns="http://www.w3.org/2000/svg">
<g clip-path="url(#clip0_479_8)">
<path d="M43.6941 50H6.16566C3.49242 50 1.54555 47.473 2.23432 44.8973L4.93852 34.7852L19.5212 35.7995H13.7923C11.5453 35.7995 9.72367 37.616 9.72367 39.8568V40.8712C9.72367 43.1119 11.5454 44.9285 13.7923 44.9285H25.4898V36.2147L30.5756 36.5686V44.9285H37.1872C39.4343 44.9285 41.2559 43.112 41.2559 40.8712V39.8568C41.2559 38.8616 40.896 37.9507 40.2997 37.2449L45.8332 37.6298L47.6449 44.9737C48.2758 47.5306 46.3347 50 43.6941 50Z" fill="#AAAAAA"/>
<path d="M41.097 38.733C40.937 38.1793 40.6625 37.6739 40.2999 37.2446L41.256 37.3111V37.6101C41.256 37.9999 41.1998 38.3763 41.097 38.733ZM47.645 44.9734L47.4596 44.2221C46.8583 45.6758 45.4267 46.7392 43.694 46.7392H6.1656C4.43806 46.7392 3.01531 45.6834 2.40964 44.2415L2.23435 44.8972C1.54548 47.473 3.49236 50 6.1656 50H43.6939C46.3346 50 48.2758 47.5306 47.645 44.9734Z" fill="#939393"/>
<path d="M50.0002 29.4944C50.0002 35.4182 44.9705 40.1035 39.0441 39.701L3.44289 37.282C2.58879 37.2226 1.84855 36.6701 1.5507 35.8695C0.278339 32.4497 -0.141778 25.2839 0.326289 21.6662L2.64162 3.77305C2.92072 1.61543 4.7631 0 6.94484 0C8.44982 0 9.66984 1.2166 9.66984 2.71738C9.66984 4.21816 10.8899 5.43477 12.3948 5.43477H23.4015C24.0321 5.43477 24.5311 5.9666 24.4891 6.59404L24.0659 12.924C23.9331 14.9115 25.1716 16.7349 27.0717 17.3491L45.7883 23.4C48.3243 24.3634 50.0002 26.7884 50.0002 29.4944Z" fill="#D18839"/>
<path d="M24.3908 8.06426C24.1382 7.45947 24.0199 6.79199 24.0659 6.10479L24.0941 5.68359C24.3545 5.89805 24.5134 6.22949 24.4891 6.59395L24.3908 8.06426ZM49.2636 26.4894C47.6585 30.4713 43.6188 33.1926 39.0441 32.8817L3.44279 30.463C2.58859 30.4035 1.84846 29.8511 1.55061 29.0505C0.913789 27.3387 0.490449 24.6882 0.285176 22.0142C-0.114825 25.7264 0.317988 32.5562 1.55061 35.8696C1.84846 36.6702 2.58869 37.2228 3.44279 37.2821L39.044 39.7011C44.9705 40.1035 50.0002 35.4181 50.0002 29.4943C50.0002 28.4242 49.7373 27.3985 49.2636 26.4894Z" fill="#B2682F"/>
<path d="M22.7375 0H22.7527C23.353 0 23.8396 0.486621 23.8396 1.08691V7.60869H18.3896V4.34785C18.3896 1.94658 20.3362 0 22.7375 0Z" fill="#720000"/>
<path d="M1.45215 13.0435L2.65176 3.77305C2.93086 1.61543 4.77324 0 6.95488 0C8.45986 0 9.67988 1.2166 9.67988 2.71738C9.67988 4.21816 10.8999 5.43477 12.4049 5.43477H23.4115C24.0421 5.43477 24.5411 5.9666 24.4991 6.59404L24.076 12.924C24.0732 12.9639 24.0721 13.0037 24.0705 13.0435H1.45215Z" fill="#BC0000"/>
<path d="M45.8011 25.4608C45.8011 27.3832 43.9244 28.7493 42.0883 28.1635L21.5819 21.6199C19.7761 21.0437 18.5508 19.3697 18.5508 17.4789V5.43506H23.422C24.0525 5.43506 24.5516 5.96689 24.5096 6.59434L24.0864 12.9243C23.9536 14.9118 25.1921 16.7352 27.0922 17.3494L43.8331 22.7615C45.0064 23.1408 45.8011 24.2309 45.8011 25.4608Z" fill="#B2682F"/>
<path d="M19.4798 36.9564C19.4798 37.4352 19.4578 37.9087 19.4173 38.3769L3.30217 37.2819C2.44797 37.2226 1.70783 36.67 1.40998 35.8694C0.137716 32.4496 -0.282401 25.2837 0.185665 21.6661L0.284982 20.8986C1.20891 20.737 2.1592 20.6521 3.12951 20.6521C12.1596 20.6521 19.4798 27.9518 19.4798 36.9564ZM12.9397 10.5978H15.1196C15.5698 10.5978 15.9349 10.2327 15.9349 9.78252C15.9349 9.33232 15.5698 8.96729 15.1196 8.96729H12.9397C12.4895 8.96729 12.1244 9.33232 12.1244 9.78252C12.1244 10.2327 12.4895 10.5978 12.9397 10.5978Z" fill="#720000"/>
<path d="M23.7714 13.8587H21.5975C21.1473 13.8587 20.7822 13.4937 20.7822 13.0435C20.7822 12.5933 21.1473 12.2282 21.5975 12.2282H23.7714C24.2216 12.2282 24.5866 12.5933 24.5866 13.0435C24.5866 13.4937 24.2216 13.8587 23.7714 13.8587ZM21.5975 9.51084H23.7714C24.2216 9.51084 24.5866 9.1458 24.5866 8.69561C24.5866 8.24541 24.2216 7.88037 23.7714 7.88037H21.5975C21.1473 7.88037 20.7822 8.24541 20.7822 8.69561C20.7822 9.1459 21.1473 9.51084 21.5975 9.51084ZM24.4938 15.5752L22.3198 16.6621C21.9171 16.8634 21.7538 17.3531 21.9553 17.7558C22.0981 18.0414 22.3859 18.2065 22.6851 18.2065C22.8075 18.2065 22.9319 18.1788 23.0489 18.1203L25.2229 17.0334C25.6256 16.8321 25.7889 16.3424 25.5874 15.9397C25.3862 15.5371 24.8966 15.3738 24.4938 15.5752ZM28.0022 17.0546C27.5764 16.909 27.1129 17.1365 26.9674 17.5626L26.2065 19.7908C26.0611 20.2168 26.2885 20.6803 26.7146 20.8257C26.8019 20.8555 26.8906 20.8696 26.978 20.8696C27.3172 20.8696 27.6338 20.6564 27.7494 20.3176L28.5103 18.0894C28.6558 17.6635 28.4283 17.2001 28.0022 17.0546ZM31.8782 18.1687C31.4522 18.0232 30.9888 18.2506 30.8434 18.6767L30.0825 20.9049C29.9371 21.3309 30.1645 21.7943 30.5905 21.9397C30.6778 21.9695 30.7666 21.9837 30.854 21.9837C31.1932 21.9837 31.5098 21.7705 31.6254 21.4316L32.3862 19.2034C32.5318 18.7776 32.3043 18.3143 31.8782 18.1687ZM35.7448 19.3807C35.319 19.2351 34.8555 19.4626 34.71 19.8887L33.9491 22.1169C33.8037 22.5429 34.0311 23.0063 34.4571 23.1518C34.5444 23.1815 34.6332 23.1957 34.7206 23.1957C35.0598 23.1957 35.3764 22.9825 35.492 22.6437L36.2528 20.4154C36.3984 19.9896 36.1709 19.5262 35.7448 19.3807Z" fill="#FFB150"/>
</g>
<defs>
<clipPath id="clip0_479_8">
<rect width="50" height="50" fill="white"/>
</clipPath>
</defs>
</svg>
