<svg width="50" height="50" viewBox="0 0 50 50" fill="none" xmlns="http://www.w3.org/2000/svg">
<g clip-path="url(#clip0_483_801)">
<path d="M11.9589 36.4092H7.62305V44.3895H11.9589V36.4092Z" fill="#C3C6C8"/>
<path d="M36.1924 36.4092H31.8564V44.3895H36.1924V36.4092Z" fill="#C3C6C8"/>
<path d="M42.3906 46.5688H2.17926C0.97574 46.5688 0 45.5932 0 44.3895C0 43.1859 0.97574 42.2101 2.17926 42.2101H42.3906C44.1829 42.2101 45.6414 40.7518 45.6414 38.9593C45.6414 37.7556 46.6171 36.7798 47.8206 36.7798C49.0243 36.7798 50 37.7555 50 38.9593C50 43.1553 46.5865 46.5688 42.3906 46.5688Z" fill="#C3C6C8"/>
<path d="M31.3899 21.2204H22.8951V9.91144C22.8951 6.33254 19.9942 3.43164 16.4153 3.43164C13.7212 3.43164 11.4119 5.07578 10.4342 7.41559C10.4331 7.41867 10.4318 7.42104 10.4304 7.42424C9.69672 9.23094 8.09277 9.91144 7.65915 9.91144H5.07579C3.78844 9.91144 2.74512 10.9549 2.74512 12.242V35.1201C2.74512 36.6169 3.95836 37.8302 5.45523 37.8302H42.0155C43.2584 37.8302 44.2661 36.8227 44.2661 35.5797V34.0961C44.2659 26.9853 38.501 21.2204 31.3899 21.2204Z" fill="#0071CE"/>
<path d="M39.3056 23.9404C34.9438 27.0603 32.052 32.103 31.8672 37.83H42.0156C43.2585 37.83 44.2662 36.8225 44.2662 35.5795V34.0959C44.2662 29.9696 42.3248 26.2968 39.3056 23.9404Z" fill="#00B3E3"/>
<path d="M22.8951 11.8867C23.5338 11.8867 24.0513 12.4044 24.0513 13.043V17.3789C24.0513 18.0176 23.5338 18.5351 22.8951 18.5351H18.6074C16.7718 18.5351 15.2832 17.0468 15.2832 15.2109C15.2832 13.3752 16.7718 11.8867 18.6074 11.8867H22.8951V11.8867Z" fill="#454F58"/>
<path d="M24.0518 21.2202C24.0518 20.5817 24.5696 20.064 25.2082 20.064H29.5441C30.1827 20.064 30.7003 20.5817 30.7003 21.2202V25.508C30.7003 27.3439 29.2119 28.8323 27.3761 28.8323C25.5402 28.8323 24.0518 27.3439 24.0518 25.508V21.2202Z" fill="#454F58"/>
<path d="M11.1404 26.918C13.4287 26.918 15.2837 25.0629 15.2837 22.7747C15.2837 20.4864 13.4287 18.6313 11.1404 18.6313C8.85209 18.6313 6.99707 20.4864 6.99707 22.7747C6.99707 25.0629 8.85209 26.918 11.1404 26.918Z" fill="#00B3E3"/>
<path d="M2.74512 28.6162V35.1201C2.74512 36.6168 3.95836 37.8302 5.45523 37.8302H11.9591C11.9591 32.7415 7.83381 28.6162 2.74512 28.6162Z" fill="#454F58"/>
</g>
<defs>
<clipPath id="clip0_483_801">
<rect width="50" height="50" fill="white"/>
</clipPath>
</defs>
</svg>
