<svg width="50" height="50" viewBox="0 0 50 50" fill="none" xmlns="http://www.w3.org/2000/svg">
<path d="M2.6178 14.5286C4.06357 14.5286 5.2356 13.3565 5.2356 11.9108C5.2356 10.465 4.06357 9.29297 2.6178 9.29297C1.17203 9.29297 0 10.465 0 11.9108C0 13.3565 1.17203 14.5286 2.6178 14.5286Z" fill="#2488FF"/>
<path d="M50.0005 9.29297H10.4717V14.5286H50.0005V9.29297Z" fill="#005ECE"/>
<path d="M2.6178 40.7068C4.06357 40.7068 5.2356 39.5348 5.2356 38.089C5.2356 36.6432 4.06357 35.4712 2.6178 35.4712C1.17203 35.4712 0 36.6432 0 38.089C0 39.5348 1.17203 40.7068 2.6178 40.7068Z" fill="#2488FF"/>
<path d="M50.0005 35.4712H10.4717V40.7068H50.0005V35.4712Z" fill="#005ECE"/>
<path d="M2.6178 27.6174C4.06357 27.6174 5.2356 26.4454 5.2356 24.9996C5.2356 23.5539 4.06357 22.3818 2.6178 22.3818C1.17203 22.3818 0 23.5539 0 24.9996C0 26.4454 1.17203 27.6174 2.6178 27.6174Z" fill="#2488FF"/>
<path d="M50.0005 22.3818H10.4717V27.6174H50.0005V22.3818Z" fill="#005ECE"/>
</svg>
