<svg width="50" height="50" viewBox="0 0 50 50" fill="none" xmlns="http://www.w3.org/2000/svg">
<g clip-path="url(#clip0_519_2)">
<path d="M35.6253 10.5869C35.178 10.5383 34.7798 10.8597 34.7312 11.3048C34.4812 13.592 33.3555 15.6449 31.5615 17.0852C29.7676 18.5256 27.5203 19.1817 25.2328 18.9312H21.4053V20.6047L26.1886 20.6051C28.5081 20.6051 30.7422 19.8229 32.577 18.3497C34.7087 16.6381 36.0464 14.1988 36.3435 11.4812C36.3918 11.0359 36.0703 10.6356 35.6253 10.5869Z" fill="#FF5700"/>
<path d="M19.7954 48.0803L18.9166 31.3418L17.2973 31.4269L18.1436 47.5467L18.1746 47.5566L15.8237 48.4189C15.3984 48.5592 15.1674 49.0177 15.3076 49.443C15.4478 49.8684 15.9063 50.0992 16.3316 49.9591L19.2386 48.8929C19.5936 48.7757 19.8125 48.4362 19.7954 48.0803Z" fill="#FF5700"/>
<path d="M23.0156 48.0803L23.8944 31.3418L25.5137 31.4269L24.6673 47.5467L24.6364 47.5566L26.9873 48.4189C27.4126 48.5592 27.6436 49.0177 27.5034 49.443C27.3631 49.8684 26.9046 50.0992 26.4793 49.9591L23.5724 48.8929C23.2172 48.7757 22.9985 48.4362 23.0156 48.0803Z" fill="#FF5700"/>
<path d="M25.7618 8.75635H17.0479C16.833 9.29414 16.7148 9.88125 16.7148 10.4958C16.7148 13.0866 18.8148 15.185 21.404 15.185C23.9948 15.185 26.0949 13.0867 26.0949 10.4958C26.0949 9.88125 25.9768 9.29424 25.7618 8.75635Z" fill="#F7D0BC"/>
<path d="M24.1081 1.76709H18.7024C17.5132 1.76709 16.6108 2.7375 16.6971 3.92354L17.0488 8.75674H25.7617L26.1133 3.92354C26.1997 2.7374 25.2973 1.76709 24.1081 1.76709Z" fill="#5C4853"/>
<path d="M26.2157 9.56748H16.594C16.1462 9.56748 15.7832 9.20449 15.7832 8.75664C15.7832 8.30889 16.1461 7.9458 16.594 7.9458H26.2157C26.6636 7.9458 27.0266 8.30879 27.0266 8.75664C27.0266 9.20449 26.6637 9.56748 26.2157 9.56748Z" fill="#FF5700"/>
<path d="M17.6648 20.5479V18.9263C14.5579 18.9263 12.0303 21.4539 12.0303 24.5608C12.0303 27.6678 14.5579 30.1954 17.6648 30.1954V28.5738C15.4521 28.5738 13.6519 26.7736 13.6519 24.5608C13.6519 22.348 15.4521 20.5479 17.6648 20.5479Z" fill="#FF5700"/>
<path d="M16.8545 17.9165V30.2984C16.8545 32.8116 18.8919 34.849 21.4051 34.849C23.9183 34.849 25.9557 32.8116 25.9557 30.2984V17.9165H16.8545Z" fill="#FF5700"/>
<path d="M22.7128 28.4571H20.0979C19.6501 28.4571 19.2871 28.0941 19.2871 27.6463C19.2871 27.1985 19.65 26.8354 20.0979 26.8354H22.7128C23.1606 26.8354 23.5236 27.1984 23.5236 27.6463C23.5236 28.0941 23.1605 28.4571 22.7128 28.4571Z" fill="#FFB13A"/>
<path d="M22.7128 25.2135H20.0979C19.6501 25.2135 19.2871 24.8505 19.2871 24.4026C19.2871 23.9549 19.65 23.5918 20.0979 23.5918H22.7128C23.1606 23.5918 23.5236 23.9548 23.5236 24.4026C23.5236 24.8505 23.1605 25.2135 22.7128 25.2135Z" fill="#FFB13A"/>
<path d="M22.7128 21.9703H20.0979C19.6501 21.9703 19.2871 21.6073 19.2871 21.1595C19.2871 20.7116 19.65 20.3486 20.0979 20.3486H22.7128C23.1606 20.3486 23.5236 20.7116 23.5236 21.1595C23.5236 21.6073 23.1605 21.9703 22.7128 21.9703Z" fill="#FFB13A"/>
<path d="M26.2263 18.7271H16.5843C16.1364 18.7271 15.7734 18.3642 15.7734 17.9163C15.7734 17.4685 16.1363 17.1055 16.5843 17.1055H26.2263C26.6741 17.1055 27.0371 17.4685 27.0371 17.9163C27.0371 18.3642 26.6741 18.7271 26.2263 18.7271Z" fill="#FFB13A"/>
<path d="M21.4056 5.78379C20.9577 5.78379 20.5947 5.4208 20.5947 4.97295V0.81084C20.5947 0.363086 20.9576 0 21.4056 0C21.8534 0 22.2164 0.362988 22.2164 0.81084V4.97305C22.2164 5.4208 21.8535 5.78379 21.4056 5.78379Z" fill="#FFB13A"/>
<path d="M34.7266 4.70264V23.3222C34.7266 23.7699 35.0895 24.133 35.5374 24.133C35.9854 24.133 36.3482 23.77 36.3482 23.3222V4.70264H34.7266Z" fill="#FFB13A"/>
<path d="M35.5369 6.59483C36.8803 6.59483 37.9693 5.50579 37.9693 4.1624C37.9693 2.81901 36.8803 1.72998 35.5369 1.72998C34.1935 1.72998 33.1045 2.81901 33.1045 4.1624C33.1045 5.50579 34.1935 6.59483 35.5369 6.59483Z" fill="#FFD089"/>
</g>
<defs>
<clipPath id="clip0_519_2">
<rect width="50" height="50" fill="white"/>
</clipPath>
</defs>
</svg>
