<svg width="50" height="50" viewBox="0 0 50 50" fill="none" xmlns="http://www.w3.org/2000/svg">
<g clip-path="url(#clip0_480_248)">
<path d="M8.69561 47.8264H1.63047C0.730371 47.8264 0 47.0961 0 46.1959V20.109C0 19.2089 0.730371 18.4785 1.63047 18.4785H8.6957C9.5958 18.4785 10.3262 19.2089 10.3262 20.109V46.1959C10.3261 47.0961 9.5958 47.8264 8.69561 47.8264Z" fill="#C9D2D9"/>
<path d="M48.3695 47.8264H41.3043C40.4042 47.8264 39.6738 47.096 39.6738 46.1959V20.109C39.6738 19.2089 40.4042 18.4785 41.3043 18.4785H48.3695C49.2696 18.4785 50 19.2089 50 20.109V46.1959C50 47.0961 49.2696 47.8264 48.3695 47.8264Z" fill="#B7C4CC"/>
<path d="M42.935 47.826H7.06543V3.8043C7.06543 2.90391 7.79541 2.17383 8.6959 2.17383H15.2177C16.1181 2.17383 16.8481 2.90381 16.8481 3.8043V8.69561H20.109V3.8043C20.109 2.90391 20.839 2.17383 21.7395 2.17383H28.2612C29.1616 2.17383 29.8917 2.90381 29.8917 3.8043V8.69561H33.1525V3.8043C33.1525 2.90391 33.8825 2.17383 34.783 2.17383H41.3048C42.2052 2.17383 42.9353 2.90381 42.9353 3.8043V47.826H42.935Z" fill="#EDF0F2"/>
<path d="M41.3044 2.17383H34.7826C33.8822 2.17383 33.1521 2.90381 33.1521 3.8043V8.69561H29.8913V3.8043C29.8913 2.90391 29.1613 2.17383 28.2608 2.17383H25V47.826H42.9348V3.8043C42.9348 2.90381 42.2048 2.17383 41.3044 2.17383Z" fill="#DAE1E6"/>
<path d="M24.9998 28.2607C20.5045 28.2607 16.8477 31.9176 16.8477 36.4129V47.826H33.152V36.413C33.152 31.9176 29.4951 28.2607 24.9998 28.2607Z" fill="#A6673A"/>
<path d="M33.1521 47.8259V36.4129C33.1521 31.9176 29.4953 28.2607 25 28.2607V47.826H33.1521V47.8259Z" fill="#99522E"/>
<path d="M34.7821 24.9999H28.2603C27.3603 24.9999 26.6299 24.2695 26.6299 23.3694V20.1086C26.6299 17.4114 28.824 15.2173 31.5212 15.2173C34.2184 15.2173 36.4125 17.4114 36.4125 20.1086V23.3694C36.4126 24.2695 35.6822 24.9999 34.7821 24.9999Z" fill="#736056"/>
<path d="M34.7823 24.9999C35.6824 24.9999 36.4128 24.2695 36.4128 23.3694V20.1086C36.4128 17.4114 34.2187 15.2173 31.5215 15.2173V24.9999H34.7823Z" fill="#665247"/>
<path d="M21.7392 24.9999H15.2174C14.3173 24.9999 13.5869 24.2695 13.5869 23.3694V20.1086C13.5869 17.4114 15.7811 15.2173 18.4782 15.2173C21.1754 15.2173 23.3695 17.4114 23.3695 20.1086V23.3694C23.3695 24.2695 22.6393 24.9999 21.7392 24.9999Z" fill="#736056"/>
<path d="M21.7394 24.9999C22.6395 24.9999 23.3698 24.2695 23.3698 23.3694V20.1086C23.3698 17.4114 21.1757 15.2173 18.4785 15.2173V24.9999H21.7394Z" fill="#665247"/>
</g>
<defs>
<clipPath id="clip0_480_248">
<rect width="50" height="50" fill="white"/>
</clipPath>
</defs>
</svg>
