<svg width="50" height="50" viewBox="0 0 50 50" fill="none" xmlns="http://www.w3.org/2000/svg">
<g clip-path="url(#clip0_480_215)">
<path d="M47.8256 50H2.17344C1.27305 50 0.542969 49.27 0.542969 48.3695V28.8044C0.542969 27.904 1.27295 27.1739 2.17344 27.1739H3.80391V22.2826C3.80391 21.3822 4.53389 20.6521 5.43438 20.6521H11.9562C12.8565 20.6521 13.5866 21.3821 13.5866 22.2826V27.1739H20.1084V14.6739C20.1084 13.7735 20.8384 13.0435 21.7389 13.0435H28.2606C29.161 13.0435 29.8911 13.7734 29.8911 14.6739V27.1739H36.4129V22.2826C36.4129 21.3822 37.1429 20.6521 38.0434 20.6521H44.5651C45.4655 20.6521 46.1956 21.3821 46.1956 22.2826V27.1739H47.8261C48.7265 27.1739 49.4565 27.9039 49.4565 28.8044V48.3696C49.4561 49.27 48.7261 50 47.8256 50Z" fill="#D7EBFF"/>
<path d="M47.8261 27.1739H46.1956V22.2826C46.1956 21.3822 45.4656 20.6521 44.5651 20.6521H38.0434C37.143 20.6521 36.4129 21.3821 36.4129 22.2826V27.1739H29.8911V14.6739C29.8911 13.7735 29.1611 13.0435 28.2606 13.0435H25V50H47.8261C48.7265 50 49.4565 49.27 49.4565 48.3695V28.8044C49.4565 27.9039 48.7266 27.1739 47.8261 27.1739Z" fill="#BDDEFF"/>
<path d="M41.2247 10.8675C40.348 10.8258 39.6738 10.0703 39.6738 9.19262V6.02445C39.6738 5.14672 40.348 4.39135 41.2247 4.34955C42.161 4.30502 42.9347 5.0516 42.9347 5.97816V9.239C42.9347 10.1655 42.161 10.9121 41.2247 10.8675Z" fill="#99522E"/>
<path d="M8.61631 10.8675C7.73955 10.8258 7.06543 10.0703 7.06543 9.19262V6.02445C7.06543 5.14672 7.73955 4.39135 8.61631 4.34955C9.55264 4.30502 10.3263 5.0516 10.3263 5.97816V9.239C10.3263 10.1655 9.55264 10.9121 8.61631 10.8675Z" fill="#A6673A"/>
<path d="M32.5781 16.3044H17.4218C16.9744 16.3044 16.5367 16.1362 16.2255 15.8148C15.7011 15.2734 15.6209 14.4729 15.9828 13.8523L23.5914 0.808789C23.8843 0.307812 24.4204 0 25 0C25.5796 0 26.1156 0.307812 26.4086 0.808789L34.0173 13.8522C34.3791 14.4728 34.2989 15.2733 33.7746 15.8147C33.4633 16.1362 33.0257 16.3044 32.5781 16.3044Z" fill="#FF6698"/>
<path d="M32.5781 16.3044C33.0256 16.3044 33.4633 16.1362 33.7745 15.8148C34.2988 15.2734 34.3791 14.4729 34.0172 13.8523L26.4086 0.808789C26.1156 0.307812 25.5796 0 25 0V16.3044H32.5781Z" fill="#E65C89"/>
<path d="M47.8263 23.9132H34.7828C34.2182 23.9132 33.6927 23.6202 33.3954 23.1405C33.0992 22.6596 33.0716 22.0588 33.3243 21.5535L39.8285 8.54514C40.0594 8.08352 40.4833 7.73684 40.99 7.63909C41.7246 7.49739 42.4407 7.86545 42.763 8.51008L49.2848 21.5535C49.5374 22.0587 49.5098 22.6596 49.2137 23.1405C48.9164 23.6202 48.3909 23.9132 47.8263 23.9132Z" fill="#E65C89"/>
<path d="M15.2169 23.9132H2.17343C1.60878 23.9132 1.08329 23.6202 0.786027 23.1405C0.489835 22.6596 0.462198 22.0588 0.714933 21.5535L7.21913 8.54514C7.44999 8.08352 7.87392 7.73684 8.38066 7.63909C9.11523 7.49739 9.83134 7.86545 10.1536 8.51008L16.6754 21.5535C16.928 22.0587 16.9004 22.6596 16.6043 23.1405C16.307 23.6202 15.7815 23.9132 15.2169 23.9132Z" fill="#FF6698"/>
<path d="M41.3046 43.4783H34.7828C33.8824 43.4783 33.1523 42.7484 33.1523 41.8479V38.6738C33.1523 35.9366 35.3922 33.6494 38.1291 33.6965C40.787 33.7421 42.935 35.9184 42.935 38.587V41.8479C42.935 42.7484 42.205 43.4783 41.3046 43.4783Z" fill="#736056"/>
<path d="M15.2176 43.4783H8.6959C7.79551 43.4783 7.06543 42.7484 7.06543 41.8479V38.6738C7.06543 35.9366 9.30527 33.6494 12.0422 33.6965C14.7001 33.7421 16.848 35.9184 16.848 38.587V41.8479C16.848 42.7484 16.1181 43.4783 15.2176 43.4783Z" fill="#736056"/>
<path d="M15.2174 43.4781C16.1178 43.4781 16.8479 42.7481 16.8479 41.8477V38.5868C16.8479 35.9182 14.6999 33.7419 12.042 33.6963V43.4781H15.2174Z" fill="#665247"/>
<path d="M41.3043 43.4781C42.2047 43.4781 42.9348 42.7481 42.9348 41.8477V38.5868C42.9348 35.9182 40.7868 33.7419 38.1289 33.6963V43.4781H41.3043Z" fill="#665247"/>
<path d="M29.891 50.0002H20.1084V38.5871C20.1084 35.8857 22.2982 33.6958 24.9997 33.6958C27.7011 33.6958 29.891 35.8856 29.891 38.5871V50.0002Z" fill="#A6673A"/>
<path d="M29.8913 50.0002V38.5871C29.8913 35.8857 27.7015 33.6958 25 33.6958V50.0002H29.8913Z" fill="#99522E"/>
</g>
<defs>
<clipPath id="clip0_480_215">
<rect width="50" height="50" fill="white"/>
</clipPath>
</defs>
</svg>
