<svg width="50" height="50" viewBox="0 0 50 50" fill="none" xmlns="http://www.w3.org/2000/svg">
<g clip-path="url(#clip0_480_274)">
<path d="M44.5652 9.78241H38.0435C37.1434 9.78241 36.4131 9.05205 36.4131 8.15197V1.63043C36.4132 0.730355 37.1435 0 38.0436 0H44.5653C45.4653 0 46.1957 0.730355 46.1957 1.63043V8.15207C46.1956 9.05205 45.4652 9.78241 44.5652 9.78241Z" fill="#665247"/>
<path d="M11.9567 9.78241H5.43512C4.53504 9.78241 3.80469 9.05205 3.80469 8.15197V1.63043C3.80469 0.730355 4.53504 0 5.43512 0H11.9568C12.8568 0 13.5872 0.730355 13.5872 1.63043V8.15207C13.5871 9.05205 12.8567 9.78241 11.9567 9.78241Z" fill="#736056"/>
<path d="M46.1953 49.9988H3.82715V19.5869H46.1953V49.9988Z" fill="#FFC033"/>
<path d="M46.1952 19.5879H25V50.0003H46.1952V19.5879Z" fill="#F9A926"/>
<path d="M47.8256 6.52148H2.17438C1.2743 6.52148 0.543945 7.25184 0.543945 8.15192V21.1951C0.543945 22.0952 1.2743 22.8255 2.17438 22.8255H47.8255C48.7256 22.8255 49.456 22.0952 49.456 21.1951V8.15182C49.456 7.25174 48.7257 6.52148 47.8256 6.52148Z" fill="#A6673A"/>
<path d="M47.8256 6.52148H25V22.8255H47.8256C48.7257 22.8255 49.456 22.0952 49.456 21.1951V8.15182C49.4559 7.25174 48.7257 6.52148 47.8256 6.52148Z" fill="#99522E"/>
<path d="M5.43515 13.043H0.543945V16.3037H5.43515C6.33523 16.3037 7.06558 15.5734 7.06558 14.6733C7.06558 13.7732 6.33523 13.043 5.43515 13.043Z" fill="#736056"/>
<path d="M44.565 13.043C43.6649 13.043 42.9346 13.7733 42.9346 14.6734C42.9346 15.5735 43.6649 16.3038 44.565 16.3038H49.4562V13.0431H44.565V13.043Z" fill="#665247"/>
<path d="M35.9348 28.1944L26.1524 18.412C25.5158 17.7754 24.4835 17.7754 23.8469 18.412L14.0645 28.1944C13.7695 28.4894 13.5869 28.8971 13.5869 29.3471V49.9989H36.4125V29.3471C36.4125 28.8971 36.2299 28.4894 35.9348 28.1944Z" fill="#D7EBFF"/>
<path d="M36.4128 49.9991V29.3474C36.4128 28.8973 36.2302 28.4897 35.9351 28.1947L26.1527 18.4123C25.8343 18.0938 25.4171 17.9346 25 17.9346V49.9991H36.4128Z" fill="#BDDEFF"/>
<path d="M38.043 32.6082C37.6258 32.6082 37.2086 32.4489 36.8903 32.1305L24.9998 20.2401L13.1093 32.1305C12.4725 32.7673 11.4407 32.7673 10.8038 32.1305C10.1669 31.4937 10.167 30.4619 10.8038 29.825L23.847 16.7818C24.4838 16.145 25.5156 16.145 26.1525 16.7818L39.1957 29.825C39.8325 30.4618 39.8325 31.4936 39.1957 32.1305C38.8772 32.4489 38.4602 32.6082 38.043 32.6082Z" fill="#E6563A"/>
<path d="M36.8906 32.1301C37.209 32.4486 37.6262 32.6078 38.0433 32.6078C38.4604 32.6078 38.8776 32.4486 39.196 32.1301C39.8328 31.4933 39.8328 30.4615 39.196 29.8246L26.1527 16.7814C25.8343 16.463 25.4171 16.3037 25 16.3037V20.2396L36.8906 32.1301Z" fill="#D9472B"/>
<path d="M40.6248 38.2502H43.75C44.095 38.2502 44.375 37.9702 44.375 37.6251V35.125C44.375 34.78 44.095 34.5 43.75 34.5H40.6248C40.2798 34.5 39.9998 34.78 39.9998 35.125V37.6252C39.9998 37.9702 40.2798 38.2502 40.6248 38.2502Z" fill="#1567E0"/>
<path d="M43.75 34.5V43.0243C43.75 43.3608 44.0084 43.6504 44.3445 43.6664C44.7034 43.6835 45 43.3973 45 43.0421V35.125C45 34.7798 44.7202 34.5 44.375 34.5H43.75Z" fill="#736056"/>
<path d="M1.62482 38.2502H4.74996C5.09501 38.2502 5.375 37.9702 5.375 37.6251V35.125C5.375 34.78 5.09505 34.5 4.74996 34.5H1.62482C1.27977 34.5 0.999781 34.78 0.999781 35.125V37.6252C0.999781 37.9702 1.27977 38.2502 1.62482 38.2502Z" fill="#3677D9"/>
<path d="M4.74995 34.5V43.0243C4.74995 43.3608 5.00838 43.6504 5.34448 43.6664C5.70343 43.6835 6 43.3973 6 43.0421V35.125C6.00004 34.7798 5.72016 34.5 5.375 34.5H4.74995Z" fill="#736056"/>
<path d="M8.69602 49.9992H2.17438C1.2743 49.9992 0.543945 49.2688 0.543945 48.3688V45.108C0.543945 42.4109 2.73804 40.2168 5.43515 40.2168C8.13226 40.2168 10.3264 42.4109 10.3264 45.108V48.3688C10.3265 49.2688 9.5961 49.9992 8.69602 49.9992Z" fill="#A6673A"/>
<path d="M47.8259 49.9987H41.3043C40.4042 49.9987 39.6738 49.2684 39.6738 48.3683V45.1075C39.6738 42.4104 41.8679 40.2163 44.565 40.2163C47.2621 40.2163 49.4562 42.4104 49.4562 45.1075V48.3683C49.4562 49.2684 48.726 49.9987 47.8259 49.9987Z" fill="#99522E"/>
<path d="M29.8907 39.4557H20.1084V35.3253C20.1084 32.624 22.2982 30.4341 24.9996 30.4341C27.7009 30.4341 29.8908 32.6239 29.8908 35.3253V39.4557H29.8907Z" fill="#736056"/>
<path d="M29.8912 39.4557V35.3253C29.8912 32.624 27.7014 30.4341 25 30.4341V39.4557H29.8912Z" fill="#665247"/>
<path d="M20.1084 36.9556V49.9987H29.8908V36.9556H20.1084Z" fill="#A6673A"/>
<path d="M29.8912 36.9556H25V49.9987H29.8912V36.9556Z" fill="#99522E"/>
</g>
<defs>
<clipPath id="clip0_480_274">
<rect width="50" height="50" fill="white"/>
</clipPath>
</defs>
</svg>
