<svg width="50" height="50" viewBox="0 0 50 50" fill="none" xmlns="http://www.w3.org/2000/svg">
<g clip-path="url(#clip0_480_453)">
<path d="M27.7174 50.0002C26.8173 50.0002 26.0869 49.2698 26.0869 48.3697V32.8605C26.0869 31.9604 26.8173 31.23 27.7174 31.23C28.6175 31.23 29.3478 31.9604 29.3478 32.8605V48.3698C29.3478 49.2698 28.6175 50.0002 27.7174 50.0002Z" fill="#99522E"/>
<path d="M34.2389 50C33.3388 50 32.6084 49.2696 32.6084 48.3695V41.7491C32.6084 40.849 33.3388 40.1187 34.2389 40.1187C35.139 40.1187 35.8693 40.849 35.8693 41.7491V48.3695C35.8692 49.2696 35.139 50 34.2389 50Z" fill="#99522E"/>
<path d="M48.3698 50.0001H48.079C40.3694 50.0001 33.3913 45.4368 30.3023 38.3737C28.7696 34.8719 25.3103 32.6089 21.4868 32.6089H21.1959C20.2958 32.6089 19.5654 31.8785 19.5654 30.9784V24.4566C19.5654 23.5565 20.2958 22.8262 21.1959 22.8262H21.4868C29.1964 22.8262 36.1745 27.3895 39.2635 34.4525C40.7962 37.9544 44.2556 40.2174 48.079 40.2174H48.3698C49.2699 40.2174 50.0003 40.9478 50.0003 41.8479V48.3696C50.0003 49.2697 49.2699 50.0001 48.3698 50.0001Z" fill="#43BFBF"/>
<path d="M14.6737 39.1306H8.15195C7.25186 39.1306 6.52148 38.4002 6.52148 37.5001C6.52148 36.6 7.25186 35.8696 8.15195 35.8696H14.6737C15.5738 35.8696 16.3042 36.6 16.3042 37.5001C16.3042 38.4002 15.5738 39.1306 14.6737 39.1306Z" fill="#E6563A"/>
<path d="M14.6739 35.8696H11.4131V39.1305H14.6739C15.574 39.1305 16.3044 38.4001 16.3044 37.5C16.3044 36.6 15.574 35.8696 14.6739 35.8696Z" fill="#D9472B"/>
<path d="M14.6737 45.6525H8.15195C7.25186 45.6525 6.52148 44.9222 6.52148 44.0221C6.52148 43.122 7.25186 42.3916 8.15195 42.3916H14.6737C15.5738 42.3916 16.3042 43.122 16.3042 44.0221C16.3042 44.9223 15.5738 45.6525 14.6737 45.6525Z" fill="#E6563A"/>
<path d="M14.6739 42.3911H11.4131V45.652H14.6739C15.574 45.652 16.3044 44.9216 16.3044 44.0215C16.3044 43.1214 15.574 42.3911 14.6739 42.3911Z" fill="#D9472B"/>
<path d="M22.2794 10.8694H0.760644L0.477539 10.2601L10.2602 0.477612C10.897 -0.159204 11.9288 -0.159204 12.5657 0.477612L22.3483 10.2602L22.2794 10.8694Z" fill="#E6563A"/>
<path d="M22.2796 10.8695H11.4131V0C11.8303 0 12.2475 0.159277 12.5658 0.477734L22.3484 10.2604L22.2796 10.8695Z" fill="#D9472B"/>
<path d="M21.1956 9.78271H1.63047C0.730371 9.78271 0 10.513 0 11.4132V48.3697C0 49.2697 0.730371 50.0001 1.63047 50.0001H6.52178C7.42187 50.0001 8.15225 49.2697 8.15225 48.3696V32.6088H14.674V48.3696C14.674 49.2697 15.4044 50.0001 16.3045 50.0001H21.1958C22.0959 50.0001 22.8263 49.2697 22.8263 48.3696V11.4132C22.8261 10.513 22.0958 9.78271 21.1956 9.78271ZM16.3044 24.4566C16.3044 25.3567 15.574 26.0871 14.6739 26.0871H8.15215C7.25205 26.0871 6.52168 25.3567 6.52168 24.4566V21.1958C6.52168 18.4986 8.71582 16.3045 11.413 16.3045C14.1102 16.3045 16.3043 18.4986 16.3043 21.1958V24.4566H16.3044Z" fill="#FFC033"/>
<path d="M21.1956 9.78271H11.4131V16.3045C14.1103 16.3045 16.3044 18.4986 16.3044 21.1958V24.4566C16.3044 25.3567 15.574 26.0871 14.6739 26.0871H11.4131V32.6089H14.6739V48.3697C14.6739 49.2698 15.4043 50.0002 16.3044 50.0002H21.1957C22.0958 50.0002 22.8262 49.2698 22.8262 48.3697V11.4132C22.8261 10.513 22.0958 9.78271 21.1956 9.78271Z" fill="#F9A926"/>
</g>
<defs>
<clipPath id="clip0_480_453">
<rect width="50" height="50" fill="white"/>
</clipPath>
</defs>
</svg>
