<svg width="50" height="50" viewBox="0 0 50 50" fill="none" xmlns="http://www.w3.org/2000/svg">
<path d="M11.2076 36.2067H16.38V32.7585H11.2076V36.2067ZM17.242 37.9308H10.3455C9.86875 37.9308 9.4834 37.5446 9.4834 37.0687V31.8963C9.4834 31.4195 9.86875 31.0342 10.3455 31.0342H17.242C17.7188 31.0342 18.1041 31.4195 18.1041 31.8963V37.0687C18.1041 37.5447 17.7188 37.9308 17.242 37.9308Z" fill="#D1D4D1"/>
<path d="M11.2076 41.3791H16.38V37.9308H11.2076V41.3791ZM17.242 43.1032H10.3455C9.86875 43.1032 9.4834 42.717 9.4834 42.2411V37.0686C9.4834 36.5919 9.86875 36.2065 10.3455 36.2065H17.242C17.7188 36.2065 18.1041 36.5919 18.1041 37.0686V42.2411C18.1041 42.717 17.7188 43.1032 17.242 43.1032Z" fill="#D1D4D1"/>
<path d="M11.2076 46.5514H16.38V43.1032H11.2076V46.5514ZM17.242 48.2755H10.3455C9.86875 48.2755 9.4834 47.8893 9.4834 47.4134V42.241C9.4834 41.7643 9.86875 41.3789 10.3455 41.3789H17.242C17.7188 41.3789 18.1041 41.7643 18.1041 42.241V47.4134C18.1041 47.8894 17.7188 48.2755 17.242 48.2755Z" fill="#D1D4D1"/>
<path d="M10.3455 49.9996C9.86875 49.9996 9.4834 49.6134 9.4834 49.1375V47.4134C9.4834 46.9375 9.86875 46.5513 10.3455 46.5513C10.8223 46.5513 11.2076 46.9375 11.2076 47.4134V49.1375C11.2076 49.6134 10.8223 49.9996 10.3455 49.9996Z" fill="#D1D4D1"/>
<path d="M17.242 49.9996C16.7652 49.9996 16.3799 49.6134 16.3799 49.1375V47.4134C16.3799 46.9375 16.7652 46.5513 17.242 46.5513C17.7187 46.5513 18.1041 46.9375 18.1041 47.4134V49.1375C18.1041 49.6134 17.7187 49.9996 17.242 49.9996Z" fill="#D1D4D1"/>
<path d="M1.72363 32.7589H25.8615V10.3452H1.72363V32.7589Z" fill="#E04B3F"/>
<path d="M13.7941 0L27.587 10.3448H0.000976562L13.7941 0Z" fill="#F3D55B"/>
<path d="M3.44824 50.0001H6.89647V32.7588H3.44824V50.0001Z" fill="#F3D55B"/>
<path d="M20.6895 50.0001H24.1378V32.7588H20.6895V50.0001Z" fill="#F3D55B"/>
<path d="M18.9649 32.7584H8.62012V22.4136C8.62012 19.5567 10.9356 17.2412 13.7925 17.2412C16.6495 17.2412 18.965 19.5567 18.965 22.4136V32.7584H18.9649Z" fill="#C03A2B"/>
<path d="M31.0347 18.103H25.8623V14.6548H27.5864C29.4908 14.6548 31.0347 16.1987 31.0347 18.103Z" fill="#F3D55B"/>
<path d="M48.276 46.5514C43.351 46.5514 38.7933 45.6117 38.7933 38.7928C38.7933 30.6541 30.3235 26.6558 25.8623 25.7109V29.3514C27.5373 29.7514 35.345 31.985 35.345 38.7928C35.345 46.229 39.6958 49.9997 48.276 49.9997H50.0001V46.5515H48.276V46.5514Z" fill="#D1D4D1"/>
</svg>
