<svg width="50" height="50" viewBox="0 0 50 50" fill="none" xmlns="http://www.w3.org/2000/svg">
<path d="M0 23.9131V4.34785C0 1.94658 1.94658 0 4.34785 0H20.6522C23.0533 0 25 1.94658 25 4.34785V23.9131H0Z" fill="#FFDB80"/>
<path d="M25 4.34785V23.9131H12.5V0H20.6521C23.0533 0 25 1.94658 25 4.34785Z" fill="#FFEB99"/>
<path d="M0 7.60869V4.34785C0 1.94658 1.94658 0 4.34785 0H20.6522C23.0533 0 25 1.94658 25 4.34785V7.60869H0Z" fill="#D15D39"/>
<path d="M35.8692 22.8263V11.9567C34.6686 11.9567 33.6953 10.9835 33.6953 9.78281C33.6953 8.58213 34.6686 7.60889 35.8692 7.60889H42.391C43.5917 7.60889 44.5649 8.58213 44.5649 9.78281C44.5649 10.9835 43.5917 11.9567 42.391 11.9567V22.8263H35.8692Z" fill="#967A56"/>
<path d="M4.66465 44.5654H4.34775C1.94658 44.5654 0 42.6187 0 40.2176V20.6523H45.6521C48.0533 20.6523 50 22.599 50 25.0002V40.2176C50 42.6187 48.0534 44.5654 45.6521 44.5654H4.66465Z" fill="#B79969"/>
<path d="M50 29.3477V40.2172C50 42.6184 48.0534 44.565 45.6521 44.565H4.66465H4.34775C1.94658 44.565 0 42.6184 0 40.2172V29.3477H50Z" fill="#4C443B"/>
<path d="M4.34766 41.304C4.34766 36.5015 8.24082 32.6084 13.0433 32.6084C17.8457 32.6084 21.7389 36.5016 21.7389 41.304C21.7389 46.1064 17.8458 49.9996 13.0433 49.9996C8.24072 49.9996 4.34766 46.1064 4.34766 41.304ZM40.2172 49.9996C43.2188 49.9996 45.652 47.5663 45.652 44.5648C45.652 41.5634 43.2187 39.1301 40.2172 39.1301C37.2157 39.1301 34.7824 41.5634 34.7824 44.5648C34.7824 47.5663 37.2156 49.9996 40.2172 49.9996Z" fill="#7A9390"/>
<path d="M9.78223 41.3043C9.78223 39.5033 11.2421 38.0435 13.0431 38.0435C14.844 38.0435 16.3039 39.5033 16.3039 41.3043C16.3039 43.1053 14.844 44.5651 13.0431 44.5651C11.2421 44.5651 9.78223 43.1053 9.78223 41.3043ZM40.217 46.7391C41.4177 46.7391 42.3909 45.7658 42.3909 44.5651C42.3909 43.3645 41.4177 42.3912 40.217 42.3912C39.0163 42.3912 38.0431 43.3645 38.0431 44.5651C38.0431 45.7658 39.0163 46.7391 40.217 46.7391Z" fill="#EAB250"/>
</svg>
