<svg width="50" height="50" viewBox="0 0 50 50" fill="none" xmlns="http://www.w3.org/2000/svg">
<g clip-path="url(#clip0_480_390)">
<path d="M41.8476 21.7394H35.3258C34.4257 21.7394 33.6953 21.009 33.6953 20.1089V10.3263C33.6953 9.42617 34.4257 8.6958 35.3258 8.6958H41.8476C42.7477 8.6958 43.478 9.42617 43.478 10.3263V20.1089C43.478 21.009 42.7478 21.7394 41.8476 21.7394Z" fill="#99522E"/>
<path d="M24.5325 11.9564H4.81515C4.19728 11.9564 3.63263 11.6072 3.35666 11.0553L0.171891 4.5335C-0.0807453 4.02832 -0.0531086 3.42744 0.242985 2.94658C0.540251 2.4668 1.06574 2.17383 1.63039 2.17383H27.7173C28.2819 2.17383 28.8074 2.4668 29.1047 2.94658C29.4009 3.42744 29.4285 4.02822 29.1758 4.5335L25.991 11.0553C25.7151 11.6072 25.1504 11.9564 24.5325 11.9564Z" fill="#736056"/>
<path d="M48.3697 34.7829H24.4566C23.5565 34.7829 22.8262 34.0525 22.8262 33.1524V20.109C22.8262 19.2089 23.5565 18.4785 24.4566 18.4785H45.1088C45.8571 18.4785 46.5089 18.9881 46.6904 19.713L49.9513 32.7564C50.0733 33.2436 49.964 33.7596 49.6551 34.1555C49.3462 34.5514 48.8719 34.7829 48.3697 34.7829Z" fill="#D9472B"/>
<path d="M3.26074 10.8696V33.1523C3.26074 34.0524 3.99111 34.7827 4.89121 34.7827H24.4564C25.3565 34.7827 26.0869 34.0524 26.0869 33.1523V10.8696H3.26074Z" fill="#E6563A"/>
<path d="M40.7615 28.2609H36.4137C35.5136 28.2609 34.7832 27.5306 34.7832 26.6305C34.7832 25.7304 35.5136 25 36.4137 25H40.7615C41.6616 25 42.392 25.7304 42.392 26.6305C42.392 27.5307 41.6618 28.2609 40.7615 28.2609Z" fill="#665247"/>
<path d="M48.3694 31.5215H3.26074V42.9346C3.26074 43.835 3.99072 44.565 4.89121 44.565H48.3694C49.2698 44.565 49.9999 43.8351 49.9999 42.9346V33.1519C49.9998 32.2515 49.2699 31.5215 48.3694 31.5215Z" fill="#FFC033"/>
<path d="M48.3695 31.5215H26.0869V44.5649H48.3695C49.2696 44.5649 50 43.8346 50 42.9345V33.1519C49.9999 32.2518 49.2697 31.5215 48.3695 31.5215Z" fill="#F9A926"/>
<path d="M45.1085 11.9567H32.065C31.1649 11.9567 30.4346 11.2264 30.4346 10.3263C30.4346 9.42617 31.1649 8.6958 32.065 8.6958H45.1085C46.0086 8.6958 46.739 9.42617 46.739 10.3263C46.739 11.2264 46.0087 11.9567 45.1085 11.9567Z" fill="#665247"/>
<path d="M17.9354 25H11.4137C10.5136 25 9.7832 24.2696 9.7832 23.3695V16.8478C9.7832 15.9477 10.5136 15.2173 11.4137 15.2173H17.9354C18.8355 15.2173 19.5659 15.9477 19.5659 16.8478V23.3695C19.5659 24.2696 18.8357 25 17.9354 25Z" fill="#D7EBFF"/>
<path d="M11.4128 47.8261C8.71563 47.8261 6.52148 45.6319 6.52148 42.9348C6.52148 40.2376 8.71563 38.0435 11.4128 38.0435C14.11 38.0435 16.3041 40.2376 16.3041 42.9348C16.3041 45.6319 14.1101 47.8261 11.4128 47.8261Z" fill="#736056"/>
<path d="M16.3044 42.9348C16.3044 40.2376 14.1103 38.0435 11.4131 38.0435V47.8261C14.1104 47.8261 16.3044 45.6319 16.3044 42.9348Z" fill="#665247"/>
<path d="M11.4127 44.5651C10.5137 44.5651 9.78223 43.8337 9.78223 42.9347C9.78223 42.0356 10.5137 41.3042 11.4127 41.3042C12.3117 41.3042 13.0432 42.0356 13.0432 42.9347C13.0432 43.8337 12.3118 44.5651 11.4127 44.5651Z" fill="#D7EBFF"/>
<path d="M13.0436 42.9347C13.0436 42.0356 12.3121 41.3042 11.4131 41.3042V44.565C12.3123 44.5651 13.0436 43.8338 13.0436 42.9347Z" fill="#BDDEFF"/>
<path d="M26.0866 47.8261C23.3895 47.8261 21.1953 45.6319 21.1953 42.9348C21.1953 40.2376 23.3895 38.0435 26.0866 38.0435C28.7838 38.0435 30.9779 40.2376 30.9779 42.9348C30.9779 45.6319 28.7839 47.8261 26.0866 47.8261Z" fill="#736056"/>
<path d="M30.9782 42.9348C30.9782 40.2376 28.7841 38.0435 26.0869 38.0435V47.8261C28.7842 47.8261 30.9782 45.6319 30.9782 42.9348Z" fill="#665247"/>
<path d="M26.0875 44.5651C25.1885 44.5651 24.457 43.8337 24.457 42.9347C24.457 42.0356 25.1885 41.3042 26.0875 41.3042C26.9865 41.3042 27.718 42.0356 27.718 42.9347C27.718 43.8337 26.9866 44.5651 26.0875 44.5651Z" fill="#D7EBFF"/>
<path d="M27.7174 42.9347C27.7174 42.0356 26.9859 41.3042 26.0869 41.3042V44.565C26.9861 44.5651 27.7174 43.8338 27.7174 42.9347Z" fill="#BDDEFF"/>
<path d="M40.2175 47.8261C37.5203 47.8261 35.3262 45.6319 35.3262 42.9348C35.3262 40.2376 37.5203 38.0435 40.2175 38.0435C42.9146 38.0435 45.1088 40.2376 45.1088 42.9348C45.1088 45.6319 42.9147 47.8261 40.2175 47.8261Z" fill="#736056"/>
<path d="M45.1081 42.9348C45.1081 40.2376 42.914 38.0435 40.2168 38.0435V47.8261C42.9141 47.8261 45.1081 45.6319 45.1081 42.9348Z" fill="#665247"/>
<path d="M40.2174 44.5651C39.3184 44.5651 38.5869 43.8337 38.5869 42.9347C38.5869 42.0356 39.3184 41.3042 40.2174 41.3042C41.1164 41.3042 41.8479 42.0356 41.8479 42.9347C41.8479 43.8337 41.1165 44.5651 40.2174 44.5651Z" fill="#D7EBFF"/>
<path d="M41.8473 42.9347C41.8473 42.0356 41.1158 41.3042 40.2168 41.3042V44.565C41.1159 44.5651 41.8473 43.8338 41.8473 42.9347Z" fill="#BDDEFF"/>
</g>
<defs>
<clipPath id="clip0_480_390">
<rect width="50" height="50" fill="white"/>
</clipPath>
</defs>
</svg>
