<svg width="50" height="50" viewBox="0 0 50 50" fill="none" xmlns="http://www.w3.org/2000/svg">
<g clip-path="url(#clip0_480_189)">
<path d="M25.0006 47.8258C24.1005 47.8258 23.3701 47.0954 23.3701 46.1953V23.3692C23.3701 22.4691 24.1005 21.7388 25.0006 21.7388C25.9007 21.7388 26.6311 22.4691 26.6311 23.3692V46.1953C26.6311 47.0955 25.9007 47.8258 25.0006 47.8258Z" fill="#99522E"/>
<path d="M48.3707 41.3043C47.4706 41.3043 46.7402 40.5739 46.7402 39.6738V16.8478C46.7402 15.9477 47.4706 15.2173 48.3707 15.2173C49.2708 15.2173 50.0012 15.9477 50.0012 16.8478V39.6738C50.0012 40.5739 49.2708 41.3043 48.3707 41.3043Z" fill="#99522E"/>
<path d="M1.63047 41.3043C0.730371 41.3043 0 40.5739 0 39.6738V16.8478C0 15.9477 0.730371 15.2173 1.63047 15.2173C2.53057 15.2173 3.26094 15.9477 3.26094 16.8478V39.6738C3.26084 40.5739 2.53057 41.3043 1.63047 41.3043Z" fill="#A6673A"/>
<path d="M25 31.5219C10.7475 31.5219 0 26.6157 0 20.1088V13.587C0 12.6869 0.730371 11.9565 1.63047 11.9565C2.53057 11.9565 3.26094 12.6869 3.26094 13.587C3.26094 17.4435 12.1891 21.7392 25.0001 21.7392C37.8111 21.7392 46.7393 17.4434 46.7393 13.587C46.7393 12.6869 47.4696 11.9565 48.3697 11.9565C49.2698 11.9565 50.0002 12.6869 50.0002 13.587V20.1088C50 26.6156 39.2525 31.5219 25 31.5219Z" fill="#E6563A"/>
<path d="M50.0001 20.1088V13.587C50.0001 12.6869 49.2697 11.9565 48.3696 11.9565C47.4695 11.9565 46.7392 12.6869 46.7392 13.587C46.7392 17.4435 37.811 21.7392 25 21.7392V31.5218C39.2526 31.5219 50.0001 26.6156 50.0001 20.1088Z" fill="#D9472B"/>
<path d="M25 25C10.7475 25 0 20.0938 0 13.5869C0 7.07998 10.7475 2.17383 25 2.17383C39.2525 2.17383 50 7.08008 50 13.5869C50 20.0938 39.2525 25 25 25Z" fill="#D7EBFF"/>
<path d="M50 13.5869C50 7.08008 39.2525 2.17383 25 2.17383V25C39.2525 25 50 20.0938 50 13.5869Z" fill="#BDDEFF"/>
<path d="M25.0005 18.4784C22.4985 18.4784 10.0156 18.2428 10.0156 13.5871C10.0156 8.93145 22.4985 8.6958 25.0005 8.6958C27.5024 8.6958 39.9854 8.93145 39.9854 13.5871C39.9854 18.2428 27.5024 18.4784 25.0005 18.4784ZM36.8339 13.9768H36.8445H36.8339Z" fill="#36D9D9"/>
<path d="M39.9849 13.5871C39.9849 8.93145 27.5019 8.6958 25 8.6958V18.4784C27.502 18.4784 39.9849 18.2428 39.9849 13.5871Z" fill="#43BFBF"/>
</g>
<defs>
<clipPath id="clip0_480_189">
<rect width="50" height="50" fill="white"/>
</clipPath>
</defs>
</svg>
