<svg width="50" height="50" viewBox="0 0 50 50" fill="none" xmlns="http://www.w3.org/2000/svg">
<path d="M25 0C11.1928 0 0 11.1928 0 25C0 38.8068 11.1928 50 25 50C38.8072 50 50 38.8068 50 25C50 11.1928 38.8072 0 25 0ZM32.618 26.6932C32.4962 26.815 32.3625 26.918 32.2233 27.0075L22.8408 36.39C22.3852 36.846 21.7878 37.0738 21.1905 37.0738C20.5932 37.0738 19.9962 36.846 19.5402 36.39C18.6285 35.4783 18.6285 34 19.5402 33.0887L27.625 25.0027L19.5808 16.9585C18.6692 16.0463 18.6692 14.5685 19.5808 13.6572C20.4925 12.7455 21.9705 12.746 22.8822 13.6567L32.2232 22.9972C32.3623 23.0867 32.496 23.1895 32.6173 23.3115C33.0833 23.7775 33.3082 24.3913 33.2977 25.0025C33.3087 25.6133 33.0843 26.2268 32.618 26.6932Z" fill="#72CBC2"/>
</svg>
