<svg width="50" height="50" viewBox="0 0 50 50" fill="none" xmlns="http://www.w3.org/2000/svg">
<path d="M25 0C38.8072 0 50 11.1928 50 25C50 38.8068 38.8072 50 25 50C11.1928 50 -1.49012e-06 38.8068 -1.49012e-06 25C-1.49012e-06 11.1928 11.1928 0 25 0ZM17.382 26.6932C17.5038 26.815 17.6375 26.918 17.7767 27.0075L27.1592 36.39C27.6148 36.846 28.2122 37.0738 28.8095 37.0738C29.4068 37.0738 30.0038 36.846 30.4598 36.39C31.3715 35.4783 31.3715 34 30.4598 33.0887L22.375 25.0027L30.4192 16.9585C31.3308 16.0463 31.3308 14.5685 30.4192 13.6572C29.5075 12.7455 28.0295 12.746 27.1178 13.6567L17.7768 22.9972C17.6377 23.0867 17.504 23.1895 17.3827 23.3115C16.9167 23.7775 16.6918 24.3913 16.7023 25.0025C16.6913 25.6133 16.9157 26.2268 17.382 26.6932Z" fill="#72CBC2"/>
</svg>
