<svg width="453" height="172" viewBox="0 0 453 172" fill="none" xmlns="http://www.w3.org/2000/svg">
<path d="M78.7489 163.767C78.1578 163.767 77.6458 163.321 77.5666 162.714C77.4782 162.046 77.9343 161.43 78.5907 161.339L90.1064 159.756C90.7627 159.661 91.3632 160.135 91.4516 160.799C91.54 161.467 91.0792 162.084 90.4276 162.169L78.9118 163.757C78.856 163.762 78.8048 163.767 78.7489 163.767Z" fill="#030404"/>
<path d="M97.4972 161.186C96.9061 161.186 96.394 160.74 96.3149 160.129C96.2265 159.465 96.6826 158.849 97.339 158.759L122.339 155.317C122.991 155.227 123.596 155.696 123.685 156.365C123.773 157.028 123.312 157.645 122.661 157.735L97.6601 161.176C97.6043 161.181 97.5531 161.186 97.4972 161.186Z" fill="#030404"/>
<path d="M130.422 156.653C129.83 156.653 129.318 156.207 129.239 155.6C129.151 154.932 129.607 154.316 130.263 154.225L206.13 143.782C206.791 143.692 207.387 144.161 207.48 144.83C207.569 145.493 207.108 146.11 206.451 146.2L130.584 156.643C130.529 156.648 130.477 156.653 130.422 156.653Z" fill="#030404"/>
<path d="M93.3322 153.634C92.7411 153.634 92.2244 153.184 92.1499 152.572C92.0615 151.904 92.527 151.292 93.1786 151.207L141.285 144.883C141.941 144.793 142.537 145.267 142.621 145.936C142.709 146.604 142.244 147.211 141.592 147.301L93.4858 153.625C93.4346 153.63 93.3834 153.634 93.3322 153.634Z" fill="#030404"/>
<path d="M75.5092 155.976C74.9181 155.976 74.4014 155.526 74.3269 154.914C74.2385 154.246 74.704 153.634 75.3556 153.549L88.5331 151.819C89.1801 151.729 89.7852 152.203 89.8736 152.871C89.9574 153.54 89.4966 154.146 88.8403 154.232L75.6628 155.967C75.6116 155.972 75.5604 155.976 75.5092 155.976Z" fill="#030404"/>
<path d="M64.9939 157.36C64.4027 157.36 63.886 156.91 63.8116 156.298C63.7231 155.63 64.1886 155.018 64.8403 154.933L70.7052 154.165C71.3568 154.075 71.9573 154.549 72.0411 155.212C72.1295 155.881 71.664 156.492 71.0124 156.578L65.1475 157.35C65.0963 157.355 65.0451 157.36 64.9939 157.36Z" fill="#030404"/>
<path d="M144.337 164.768C143.75 164.768 143.238 164.327 143.154 163.715C143.061 163.052 143.517 162.435 144.174 162.345L187.677 156.187C188.324 156.092 188.933 156.557 189.026 157.225C189.115 157.889 188.659 158.505 188.002 158.6L144.504 164.753C144.448 164.763 144.393 164.768 144.337 164.768Z" fill="#030404"/>
<path d="M129.209 166.909C128.623 166.909 128.11 166.468 128.027 165.857C127.934 165.193 128.39 164.577 129.046 164.487L139.203 163.045C139.854 162.955 140.459 163.42 140.552 164.084C140.641 164.752 140.185 165.368 139.528 165.458L129.377 166.895C129.321 166.904 129.265 166.909 129.209 166.909Z" fill="#030404"/>
<path d="M119.455 168.289C118.868 168.289 118.356 167.848 118.272 167.237C118.179 166.573 118.635 165.957 119.292 165.867L124.533 165.122C125.185 165.028 125.794 165.497 125.883 166.161C125.976 166.829 125.52 167.445 124.863 167.535L119.622 168.275C119.566 168.284 119.51 168.289 119.455 168.289Z" fill="#030404"/>
<path d="M336.213 121.147C335.622 121.147 335.105 120.701 335.031 120.085C334.942 119.416 335.408 118.81 336.059 118.72L343.726 117.705C344.377 117.615 344.983 118.089 345.066 118.757C345.15 119.426 344.689 120.037 344.033 120.123L336.367 121.137C336.316 121.142 336.264 121.147 336.213 121.147Z" fill="#030404"/>
<path d="M312.272 124.312C311.681 124.312 311.164 123.867 311.089 123.251C311.001 122.582 311.466 121.971 312.118 121.885L329.676 119.567C330.323 119.477 330.932 119.946 331.016 120.615C331.1 121.283 330.639 121.895 329.983 121.98L312.425 124.303C312.374 124.308 312.323 124.312 312.272 124.312Z" fill="#030404"/>
<path d="M163.864 143.937C163.273 143.937 162.757 143.491 162.682 142.875C162.594 142.207 163.059 141.595 163.711 141.51L304.995 122.827C305.642 122.737 306.247 123.211 306.335 123.88C306.419 124.548 305.958 125.16 305.302 125.245L164.018 143.928C163.967 143.932 163.916 143.937 163.864 143.937Z" fill="#030404"/>
<path d="M373.481 116.3C372.895 116.3 372.383 115.863 372.299 115.252C372.206 114.588 372.662 113.972 373.314 113.877L400.73 109.895C401.386 109.805 401.991 110.26 402.085 110.929C402.178 111.592 401.722 112.208 401.07 112.308L373.654 116.285C373.593 116.295 373.537 116.3 373.481 116.3Z" fill="#030404"/>
<path d="M227.054 150.219L225.285 150.451L225.881 164.943L231.774 164.161L231.639 160.932L236.074 160.345L236.438 169.243L218.829 171.565L218.601 166.014L220.151 165.806L219.55 151.21L218 151.413L217.772 145.857L226.826 144.663L227.054 150.219Z" fill="#030404"/>
<path d="M250.809 161.649L250.213 147.162L247.979 147.456L247.751 141.9L257.395 140.625L257.623 146.181L255.948 146.404L256.59 161.981C256.613 162.541 256.553 163.1 256.408 163.664C256.264 164.233 256.036 164.754 255.724 165.233C255.412 165.717 255.003 166.12 254.495 166.456C253.993 166.793 253.387 167.001 252.685 167.096L243.538 168.305C242.877 168.39 242.286 168.343 241.769 168.153C241.253 167.969 240.815 167.684 240.457 167.305C240.098 166.926 239.814 166.471 239.605 165.94C239.4 165.409 239.284 164.849 239.256 164.271L238.651 148.689L237.161 148.883L236.933 143.327L246.108 142.114L246.336 147.67L244.353 147.935L244.948 162.422L250.809 161.649Z" fill="#030404"/>
<path d="M276.081 152.397L275.727 143.793L274.145 144.002L273.917 138.446L281.853 137.398L282.081 142.954L280.284 143.191L281.118 163.485L275.755 164.196L266.311 149.78L266.157 149.799L266.562 159.679L268.145 159.47L268.373 165.026L260.93 166.007L260.702 160.451L262.285 160.243L261.684 145.647L260.102 145.855L259.874 140.299L267.191 139.332L275.928 152.416L276.081 152.397Z" fill="#030404"/>
<path d="M293.747 142.361L292.076 149.519L296.046 148.993L293.933 142.337L293.747 142.361ZM297.634 153.458L290.935 154.34L290.433 156.525L292.788 156.212L293.016 161.768L284.586 162.882L284.358 157.326L285.815 157.137L291.364 135.885L297.503 135.074L304.602 154.653L306.091 154.458L306.319 160.014L295.902 161.389L295.674 155.833L298.309 155.487L297.634 153.458Z" fill="#030404"/>
<path d="M323.444 137.599L323.63 142.136L328.439 141.506L328.252 136.964L323.444 137.599ZM317.644 138.254L316.062 138.467L315.834 132.906L330.096 131.024C330.715 130.944 331.269 130.991 331.753 131.171C332.237 131.351 332.647 131.617 332.986 131.977C333.321 132.333 333.577 132.755 333.754 133.243C333.931 133.731 334.029 134.229 334.052 134.736L334.341 141.818C334.364 142.326 334.304 142.857 334.173 143.411C334.038 143.966 333.824 144.483 333.536 144.976C333.242 145.464 332.865 145.886 332.404 146.237C331.939 146.587 331.385 146.81 330.747 146.891L323.863 147.801L324.04 152.086L325.962 151.835L326.19 157.391L316.89 158.619L316.662 153.063L318.245 152.854L317.644 138.254Z" fill="#030404"/>
<path d="M344.219 135.695L342.548 142.854L346.519 142.327L344.406 135.672L344.219 135.695ZM348.106 146.793L341.408 147.675L340.905 149.86L343.26 149.547L343.489 155.103L335.059 156.217L334.831 150.661L336.288 150.472L341.836 129.22L347.976 128.409L355.074 147.988L356.564 147.793L356.792 153.349L346.374 154.724L346.146 149.168L348.781 148.822L348.106 146.793Z" fill="#030404"/>
<path d="M365.236 132.081L365.394 135.892L370.198 135.257L370.039 131.446L365.236 132.081ZM366.581 141.249L365.617 141.377L365.831 146.568L367.381 146.364L367.61 151.92L358.682 153.1L358.454 147.544L360.032 147.336L359.431 132.74L357.853 132.948L357.625 127.388L371.887 125.506C372.506 125.425 373.056 125.472 373.544 125.653C374.028 125.833 374.438 126.098 374.778 126.459C375.113 126.814 375.369 127.236 375.546 127.724C375.723 128.213 375.82 128.71 375.839 129.217L376.114 135.902C376.137 136.409 376.095 136.916 375.993 137.414C375.886 137.916 375.709 138.371 375.457 138.779C375.201 139.192 374.857 139.547 374.424 139.846C373.987 140.149 373.451 140.344 372.809 140.424L372.348 140.486L374.671 145.549L377.059 145.231L377.282 150.64L371.049 151.465L366.581 141.249Z" fill="#030404"/>
<path d="M389.309 123.206L398.27 122.021L398.465 127.581L396.17 127.885L392.866 132.36L398.107 142.305L399.624 142.106L399.852 147.662L390.771 148.862L390.538 143.306L391.748 143.144L388.877 137.721L386.158 141.424L386.265 143.908L387.69 143.718L387.918 149.236L379.144 150.397L378.915 144.879L380.438 144.676L379.832 130.042L378.315 130.245L378.087 124.69L386.861 123.528L387.089 129.084L385.66 129.274L385.916 135.446L390.869 128.586L389.537 128.762L389.309 123.206Z" fill="#030404"/>
<path d="M94.3364 57.5365L98.4558 56.9724V50.9614L54.4828 56.9724V62.9881L57.6853 62.5472L48.334 86.5865L35.3474 65.4958L39.1456 65.1213V59.1056L7.42383 63.1303V69.1413L10.9847 68.6578L36.1294 113.456V136.704L32.1589 137.239L32.5266 142.378L34.3652 142.127L63.7085 138.04V138.031L68.568 137.367V131.356L63.7085 132.02L63.5316 117.291L94.3364 57.5365Z" fill="#F2788F"/>
<path d="M387.905 21.4473L387.682 15.0333L354.322 20.229L354.373 26.2447L359.223 25.5384L359.814 95.2907L354.964 95.9971L355.015 102.008L388.548 97.2154L388.497 91.1996L383.646 91.906L383.055 22.1536L387.905 21.4473Z" fill="#F2788F"/>
<path d="M439.723 14.3549L445.844 7.45737L417.734 11.3493L400.605 12.9374L399.614 13.1034L395.75 13.6011V20.3659L400.605 19.7022L400.6 89.3455L395.746 90.0091L395.75 96.1387L400.605 95.475V95.4845L434.868 90.8008V90.7866L439.723 90.1229V84.1119L434.868 84.7756V15.0185L439.723 14.3549Z" fill="#F2788F"/>
<path d="M187.403 45.2708V39.2598L165.414 42.2653L148.285 44.6072L143.43 45.2708V52.0403L148.285 51.3766V53.3534V95.0797V96.9854C147.828 100.361 144.989 102.963 141.549 102.963C138.272 102.963 135.54 100.607 134.888 97.4689L134.865 94.7242L134.535 55.5294L134.507 52.1541L139.357 51.4477L139.133 45.7875L105.773 50.2294L105.824 56.2452L110.675 55.5388L111.014 89.8035C111.014 107.566 123.48 123.111 139.985 126.372C141.116 126.595 142.261 126.765 143.43 126.879C144.551 126.988 145.692 127.045 146.842 127.045C148.038 127.045 149.215 126.984 150.379 126.87C151.18 126.789 151.971 126.675 152.758 126.543C168.816 123.826 181.258 109.472 182.548 92.681C182.618 91.7281 182.669 90.7753 182.669 89.8035C182.669 88.8364 182.618 87.8788 182.548 86.9307V45.9345L187.403 45.2708Z" fill="#F2788F"/>
<path d="M246.586 75.7956L243.328 76.3644L234.381 77.9241L234.307 59.3174L242.644 57.9379L243.882 57.8811C250.826 58.1276 252.381 60.6258 252.563 66.7269C252.712 71.567 250.217 74.4398 246.586 75.7956ZM271.088 61.6403C269.455 40.9905 253.117 31.9171 234.372 33.5052L217.271 35.8423L200.141 37.4304L195.287 38.8525V44.8635L200.141 44.1998V70.799V84.8595V113.957L199.988 113.976L195.287 114.621V120.632L200.141 119.968V119.977L234.405 115.294V115.284L239.26 114.621V108.605L234.405 109.269V106.656V101.366L238.478 101.058C275.175 95.5731 271.154 62.4509 271.088 61.6403Z" fill="#F2788F"/>
<path d="M325.848 64.9789L322.59 65.5478L313.644 67.1074L313.569 48.5008L321.906 47.1213L323.144 47.0644C330.089 47.3109 331.643 49.8092 331.825 55.9102C331.974 60.7503 329.479 63.6231 325.848 64.9789ZM350.351 50.8236C348.717 30.1739 332.379 21.1005 313.634 22.6885L296.533 25.0256L279.404 27.3722L274.549 28.0359V34.0469L279.404 33.3832V59.9824V74.0428V103.14L279.25 103.159L274.549 103.804V109.815L279.404 109.151V109.161L313.667 104.477V104.468L318.522 103.804V97.7882L313.667 98.4519V95.8398V90.5494L317.74 90.2412C354.437 84.7564 350.416 51.6343 350.351 50.8236Z" fill="#F2788F"/>
<path d="M99.5013 56.9413L103.621 56.3771V50.3661L63.162 55.0024L62.8502 61.952L53.4989 85.9913L40.5123 64.9006L44.3105 64.5261L44.385 58.2212L16.1216 61.4922L16.103 62.1653L16.1496 68.0626L41.2943 112.861V136.108L41.3129 141.536L37.6915 141.783L39.5301 141.531L68.8733 137.445V137.436L73.7329 136.772V130.761L68.8733 131.425L68.6965 116.696L99.5013 56.9413Z" fill="#F59CBB"/>
<path d="M393.236 20.4786L393.287 14.5908L364.47 18.6061L364.554 24.5697L365.145 94.322L365.205 101.48L393.878 96.2467L393.827 90.2309L388.977 90.9373L388.386 21.1849L393.236 20.4786Z" fill="#F59CBB"/>
<path d="M444.728 14.3008L444.863 7.04308L422.879 10.0486L405.745 12.3904L405.61 13.6372L400.89 13.0541L405.61 13.6372V19.6482V89.4053L405.647 96.9048L400.755 96.0847L405.61 95.421V95.4305L439.873 90.7468V90.7326L444.728 90.0689L444.863 82.8443L440.008 83.508L439.873 14.9645L444.728 14.3008Z" fill="#F59CBB"/>
<path d="M192.87 45.0398V39.0288L170.882 42.0343L153.752 44.3761L148.897 45.0398L153.752 44.3761V50.3871V53.1224V94.8487V96.7544C153.296 100.13 150.457 102.732 147.017 102.732C143.74 102.732 141.008 100.376 140.356 97.2379L140.333 94.4931L140.002 55.2983L139.974 52.6815L144.825 51.9752L144.601 45.5565L116.226 48.4767L116.142 55.3078L116.482 89.5724C116.482 107.335 128.947 122.126 145.453 125.387C146.584 125.61 147.729 125.781 148.897 125.89C150.019 125.999 151.35 126.331 152.5 126.331C153.696 126.331 154.73 126.52 155.889 126.402C156.694 126.321 157.439 125.691 158.225 125.558C174.284 122.837 186.726 109.241 188.016 92.4499C188.085 91.4971 188.137 90.5442 188.137 89.5724C188.137 88.6054 188.085 87.6478 188.016 86.6997V45.7035L192.87 45.0398Z" fill="#F59CBB"/>
<path d="M251.857 74.9569L248.599 75.5258L239.652 77.0854L239.578 58.4788L247.915 57.0993L249.153 57.0424C256.097 57.2889 257.652 59.7872 257.834 65.8882C257.983 70.7283 255.488 73.6011 251.857 74.9569ZM276.359 60.8016C274.726 40.1518 258.388 31.0785 239.643 32.6665L222.542 35.0036L205.412 37.3502L200.558 38.0139L205.412 37.3502V43.3612V69.9604V84.0208L205.18 119.499L205.412 119.129V119.139L239.462 114.484L239.676 114.455V114.446L244.531 113.782V107.766L239.676 108.43V105.818L239.75 100.85L243.749 100.219C280.446 94.7344 276.425 61.6123 276.359 60.8016Z" fill="#F59CBB"/>
<path d="M331.016 64.5083L327.758 65.0772L318.812 66.6368L318.737 48.0302L327.074 46.6507L328.312 46.5938C335.257 46.8403 336.812 49.3386 336.993 55.4396C337.142 60.2797 334.647 63.1525 331.016 64.5083ZM284.572 108.681V108.69L318.835 104.006V103.997L323.69 103.333V97.3176L318.835 97.9813V95.3692V90.0788L322.908 89.7706C359.606 84.2858 355.584 51.1637 355.519 50.353C353.885 29.7032 337.547 20.6298 318.803 22.2179L301.482 23.2656L284.572 24.9295L280.075 25.5932L284.488 25.7638L284.572 32.9126V59.5118V73.5722V102.67L284.325 108.738" fill="#F59CBB"/>
<path d="M444.724 13.5723L439.869 14.2359V83.993L444.724 83.3293V89.3403L439.869 90.004V90.0182L395.747 95.9913V89.9803L400.602 89.3166V87.1075V21.3088V19.5596L395.747 20.2232V14.2075L400.337 13.5817L400.602 13.5438L417.731 11.202L439.72 8.19649L444.724 7.56126V13.5723ZM355.009 101.945L354.958 95.9344L359.808 95.2281L359.613 71.734L359.305 35.5352L359.217 25.4758L354.372 26.1821L354.32 20.1664L388.323 15.3784L393.285 14.5583L393.234 20.4176L388.383 21.1239V21.1287L388.942 86.9748L388.975 90.8763L393.825 90.1699L393.871 96.1809L355.009 101.945ZM352.174 70.1506C348.232 78.6267 339.975 87.1597 322.901 89.7101L318.828 90.0182V95.3087V97.9207L323.683 97.257V103.268L318.828 103.936V103.946L284.877 108.35L284.542 108.397L279.71 109.056L274.543 109.753V103.742L279.249 103.097L279.398 103.078V83.993V73.981V59.9205V45.0258V33.3214L274.543 33.985V27.9693L279.398 27.3056L296.528 24.9638L313.634 22.6267C314.588 22.5461 318.8 22.1574 318.8 22.1574C320.192 22.0389 321.565 21.9772 322.929 21.9772C335.441 21.9772 346.403 26.9927 351.9 37.2987C353.85 40.9584 355.116 45.2817 355.517 50.2925C355.549 50.7239 356.713 60.3993 352.174 70.1506ZM243.478 100.196L242.352 100.277C241.402 100.49 240.415 100.675 239.405 100.846V105.79V108.407L244.26 107.743V113.754L239.256 114.555L234.397 115.224V115.233L200.138 119.917V119.907L195.283 120.571V114.555L199.984 113.915L200.138 113.892V84.7989V70.7384V46.4195V44.1393L195.283 44.8029V38.7872L205.142 37.3224L222.271 34.9806L239.373 32.6387C240.764 32.5202 242.142 32.4633 243.501 32.4633C255.645 32.4633 266.333 37.1802 271.979 46.884C274.213 50.7286 275.661 55.3507 276.089 60.7786C276.126 61.2337 277.415 71.9426 271.979 82.1916C267.762 90.132 259.504 97.7975 243.478 100.196ZM158.181 125.653C157.394 125.786 151.273 126.705 150.468 126.781C149.309 126.9 148.126 126.961 146.935 126.961C145.78 126.961 144.645 126.9 143.523 126.791C142.355 126.682 141.205 126.511 140.074 126.288C123.573 123.027 111.108 108.236 111.108 90.4733L110.786 58.3846L110.731 55.564L105.88 56.2703L105.829 50.2593L153.707 44.4758L170.841 42.1293L187.859 39.8064L192.826 39.1238V45.1395L187.971 45.8032V46.0355V86.7994C188.045 87.7475 188.092 88.7051 188.092 89.6722C188.092 90.6392 188.045 91.5968 187.971 92.5449C186.681 109.341 174.239 122.937 158.181 125.653ZM99.4988 57.0051L98.6796 58.5932L68.6987 116.755L68.8756 131.484L73.7304 130.82V136.836L68.8756 137.499V137.509L37.6751 141.605L34.361 142.065L32.5224 142.311L32.1546 137.172L36.1251 136.641V113.394L10.9804 68.5957L7.4196 69.0793V63.0683L44.3081 58.5742V64.5852L40.5099 64.9597L50.443 81.0918L57.681 62.4852L54.4786 62.9213V56.9103L103.618 50.4252V56.441L99.4988 57.0051ZM452.143 13.5723V7.56126C452.143 5.38062 451.222 3.30424 449.611 1.8726C448.247 0.659027 446.511 9.15527e-05 444.724 9.15527e-05C444.398 9.15527e-05 444.068 0.0238037 443.737 0.0711975L439.562 0.64006C439.283 0.644806 439.008 0.668503 438.733 0.706436L416.744 3.71193L399.615 6.05376L394.76 6.71744C394.137 6.80278 393.541 6.97343 392.982 7.20097C392.67 7.20097 392.358 7.21994 392.047 7.2626L358.686 11.7045C358.03 11.7898 357.402 11.9652 356.811 12.2117L353.357 12.6763C349.638 13.1693 346.863 16.4118 346.896 20.2327L346.905 21.0813C340.426 16.7911 332.266 14.4208 322.929 14.4208C321.37 14.4208 319.773 14.4919 318.186 14.6247C318.06 14.6341 317.935 14.6484 317.814 14.6673L315.868 14.9328C314.853 14.966 313.918 15.0181 313.019 15.094C312.893 15.1035 312.768 15.1177 312.642 15.1366L295.541 17.4737L278.411 19.8156L273.557 20.4792C269.87 20.9865 267.124 24.1863 267.124 27.9693V31.3208C260.7 27.1824 252.671 24.9069 243.501 24.9069C241.942 24.9069 240.35 24.9733 238.758 25.106C238.637 25.1202 238.511 25.1344 238.386 25.1487L221.284 27.4857L204.155 29.8323L199.3 30.496C198.858 30.5529 198.425 30.6524 198.016 30.7899L194.292 31.2971C193.873 31.354 193.463 31.4536 193.068 31.5768C192.988 31.5768 192.905 31.5674 192.826 31.5674C192.5 31.5674 192.169 31.5911 191.839 31.6337L169.85 34.6392L152.721 36.9811L147.866 37.6495C147.517 37.6969 147.177 37.768 146.846 37.8628L145.003 38.114C144.854 38.1046 144.705 38.0998 144.556 38.0998C144.235 38.0998 143.914 38.1188 143.593 38.1615L110.233 42.6033C109.842 42.6555 109.465 42.7408 109.097 42.8498L105.969 43.267C105.215 43.011 104.424 42.8688 103.618 42.8688C103.292 42.8688 102.962 42.8925 102.631 42.9352L99.3126 43.3903C99.0287 43.3571 98.7401 43.3381 98.4515 43.3381C98.1257 43.3381 97.7952 43.3618 97.4647 43.4092L53.4918 49.4202C51.4577 49.6999 49.7075 50.7997 48.5485 52.3689C47.301 51.4871 45.8255 51.0131 44.3081 51.0131C44.0055 51.0131 43.6983 51.032 43.3911 51.0747L39.8629 51.5203C39.6208 51.4966 39.3834 51.4871 39.1413 51.4871C38.8341 51.4871 38.5316 51.5061 38.2244 51.544L6.50259 55.5687C2.78814 56.038 0 59.2569 0 63.0683V69.0793C0 71.2599 0.921624 73.3363 2.53215 74.7679C3.7703 75.8725 5.32497 76.5172 6.93549 76.6215L28.7009 115.399V130.483C26.1594 131.844 24.5349 134.646 24.7537 137.722L25.1214 142.861C25.275 144.985 26.2944 146.938 27.9375 148.256C29.2548 149.308 30.87 149.872 32.5224 149.872C32.9273 149.872 33.337 149.839 33.7419 149.768L34.6356 149.616C34.8777 149.607 35.1197 149.588 35.3664 149.55L36.8233 149.351C37.1119 149.384 37.4005 149.403 37.6937 149.403C38.0987 149.403 38.5037 149.365 38.9133 149.299L39.8023 149.147C40.0444 149.138 40.2911 149.114 40.5331 149.081L69.881 144.999C70.0067 144.98 70.1277 144.961 70.2534 144.937L74.7172 144.326C78.4037 143.823 81.15 140.619 81.15 136.836V130.82C81.15 128.644 80.2284 126.568 78.6179 125.131C77.901 124.496 77.0772 124.013 76.2021 123.695L76.1416 118.575L103.437 65.6234L103.688 90.516C103.707 111.545 118.411 129.706 138.663 133.707C140.046 133.977 141.442 134.186 142.825 134.319C144.217 134.451 145.604 134.518 146.935 134.518C148.331 134.518 149.765 134.447 151.194 134.304C152.111 134.214 153.051 134.086 154.066 133.916C154.648 133.816 155.239 133.698 155.904 133.555C156.109 133.541 156.319 133.522 156.524 133.503C157.441 133.408 158.381 133.28 159.395 133.11C168.812 131.517 177.577 126.682 184.075 119.5C185.452 117.973 186.714 116.347 187.859 114.65V120.571C187.859 122.752 188.785 124.823 190.396 126.26C191.755 127.473 193.496 128.127 195.279 128.127C195.609 128.127 195.94 128.104 196.27 128.061L200.739 127.45C200.869 127.44 200.995 127.426 201.125 127.407L235.388 122.723C235.518 122.704 235.649 122.685 235.774 122.657L240.243 122.05C240.685 121.988 241.113 121.889 241.523 121.756L245.247 121.244C248.929 120.742 251.68 117.542 251.68 113.754V107.743C251.68 107.231 251.628 106.724 251.531 106.231C260.789 103.752 267.338 99.4946 271.979 94.7398V96.6455C269.111 97.7216 267.124 100.519 267.124 103.742V109.753C267.124 111.934 268.045 114.005 269.656 115.442C271.02 116.655 272.756 117.31 274.543 117.31C274.869 117.31 275.2 117.291 275.53 117.243L278.849 116.788C279.133 116.826 279.422 116.84 279.71 116.84C280.041 116.84 280.371 116.821 280.697 116.774L285.17 116.162C285.296 116.153 285.426 116.139 285.552 116.12L319.815 111.436C319.945 111.417 320.076 111.398 320.206 111.37L324.67 110.763C328.356 110.256 331.107 107.056 331.107 103.268V97.257C331.107 96.7451 331.056 96.2426 330.958 95.7495C340.817 93.1043 347.608 88.4491 352.286 83.3198L352.333 88.8663C349.479 89.9613 347.51 92.7772 347.538 96.0008L347.59 102.012C347.608 104.188 348.548 106.25 350.164 107.672C351.523 108.862 353.245 109.507 355.009 109.507C355.354 109.507 355.698 109.483 356.043 109.431L389.575 104.638C390.161 104.553 390.72 104.401 391.251 104.188L394.905 103.666C395.128 103.633 395.347 103.59 395.561 103.543C395.626 103.543 395.687 103.548 395.747 103.548C396.073 103.548 396.403 103.529 396.734 103.481L400.918 102.908C401.193 102.903 401.463 102.884 401.738 102.846L406.211 102.235C406.337 102.225 406.467 102.211 406.593 102.192L440.856 97.5083C440.986 97.4893 441.116 97.4656 441.247 97.4419L445.711 96.8304C449.397 96.3279 452.143 93.128 452.143 89.3403V83.3293C452.143 81.1487 451.222 79.0771 449.611 77.6407C448.918 77.0244 448.131 76.5504 447.289 76.2375V20.6641C450.156 19.5928 452.143 16.7958 452.143 13.5723Z" fill="#030404"/>
<path d="M143.521 51.5304L139.927 52.0518L139.96 55.4271L140.291 94.6219L140.314 97.3667C140.84 99.9266 142.753 101.96 145.215 102.629C146.9 101.567 148.092 99.7749 148.376 97.689V95.7786V54.0571L148.366 50.8098L143.521 51.5304Z" fill="#030404"/>
<path d="M243.88 57.8493L242.852 57.8967L239.309 58.4845L239.384 77.02L243.326 76.3326L246.585 75.7638C250.211 74.408 252.706 71.5352 252.561 66.6999C252.375 60.594 250.825 58.1005 243.88 57.8493Z" fill="#030404"/>
<path d="M324.195 47.0946L318.735 48.0001L318.809 66.1753L322.589 65.5164L325.847 64.9475C329.473 63.5917 331.968 60.7189 331.824 55.8836C331.651 50.1001 330.241 47.5592 324.195 47.0946Z" fill="#030404"/>
</svg>
