<svg width="100" height="100" viewBox="0 0 100 100" fill="none" xmlns="http://www.w3.org/2000/svg">
<path d="M50 0C22.3856 0 0 22.3856 0 50C0 77.6136 22.3856 100 50 100C77.6144 100 100 77.6136 100 50C100 22.3856 77.6144 0 50 0ZM65.236 53.3864C64.9924 53.63 64.725 53.836 64.4466 54.015L45.6816 72.78C44.7704 73.692 43.5756 74.1476 42.381 74.1476C41.1864 74.1476 39.9924 73.692 39.0804 72.78C37.257 70.9566 37.257 68 39.0804 66.1774L55.25 50.0054L39.1616 33.917C37.3384 32.0926 37.3384 29.137 39.1616 27.3144C40.985 25.491 43.941 25.492 45.7644 27.3134L64.4464 45.9944C64.7246 46.1734 64.992 46.379 65.2346 46.623C66.1666 47.555 66.6164 48.7826 66.5954 50.005C66.6174 51.2266 66.1686 52.4536 65.236 53.3864Z" fill="#F2788F"/>
</svg>
