<svg width="100" height="100" viewBox="0 0 100 100" fill="none" xmlns="http://www.w3.org/2000/svg">
<path d="M50 0C77.6144 0 100 22.3856 100 50C100 77.6136 77.6144 100 50 100C22.3856 100 0 77.6136 0 50C0 22.3856 22.3856 0 50 0ZM34.764 53.3864C35.0076 53.63 35.275 53.836 35.5534 54.015L54.3184 72.78C55.2296 73.692 56.4244 74.1476 57.619 74.1476C58.8136 74.1476 60.0076 73.692 60.9196 72.78C62.743 70.9566 62.743 68 60.9196 66.1774L44.75 50.0054L60.8384 33.917C62.6616 32.0926 62.6616 29.137 60.8384 27.3144C59.015 25.491 56.059 25.492 54.2356 27.3134L35.5536 45.9944C35.2754 46.1734 35.008 46.379 34.7654 46.623C33.8334 47.555 33.3836 48.7826 33.4046 50.005C33.3826 51.2266 33.8314 52.4536 34.764 53.3864Z" fill="#F59FBA"/>
</svg>
