<svg xmlns="http://www.w3.org/2000/svg" width="150" height="95" fill="none" xmlns:v="https://vecta.io/nano"><rect x=".5" y=".5" width="149" height="94" rx="2.5" fill="#72cbc2" stroke="#030404"/><g fill="#030404"><path d="M107.668 69.481c-.048-.013-.118-.021-.177-.05-.079-.04-.127-.112-.133-.201a.23.23 0 0 1 .103-.216c.101-.071.22-.089.339-.105l2.182-.305 3.298-.459.305-.037c.189-.005.315.094.326.247.011.134-.074.251-.237.282l-.81.125-4.972.695-.224.026zM57.35 79.839c-.06-.011-.111-.014-.158-.03-.104-.036-.166-.112-.173-.219s.039-.191.136-.244a.27.27 0 0 1 .092-.037l1.097-.139c.06-.007.132.023.188.053a.24.24 0 0 1 .031.381c-.053.038-.116.073-.179.083l-1.035.153zm26.601-2.174v.753c.001.131.057.222.2.248.118.021.168.102.177.213l.004.05c.007.992.206.914-.858 1.03l-.558.07a.17.17 0 0 1-.204-.174l-.025-.703c-.004-.141.022-.264.182-.322.114-.041.13-.146.131-.249l-.007-.352c-.07-.684-.072-1.371-.091-2.057a2.17 2.17 0 0 0-.021-.25c-.01-.068-.038-.14-.112-.153-.248-.044-.264-.221-.263-.413l-.003-.603c.002-.114.07-.192.184-.207l1.169-.14c.196-.025.321.062.425.214l1.097 1.577.501.698c.014.019.063.031.087.022s.053-.047.053-.072l-.034-1.305c-.003-.088-.039-.17-.138-.186-.197-.031-.237-.164-.241-.327l-.012-.603c.003-.183.058-.255.228-.278l1.322-.155c.129-.015.187.055.197.173l.059.7c.012.147-.031.268-.19.314-.164.047-.198.164-.193.31l.023.803c.072.718.063 1.438.093 2.157l.053.801c.009.21-.041.262-.257.296l-.659.093a.39.39 0 0 1-.433-.191l-.341-.501-1.28-1.88a1.97 1.97 0 0 0-.154-.2c-.018-.02-.061-.033-.086-.026s-.056.044-.056.068l-.003.753h.035zm21.857-4.469c.002.396.051.441.433.393l.399-.07c.139-.022.205-.103.205-.237l-.008-.347c-.015-.169-.085-.224-.273-.204l-.55.083c-.156.029-.194.078-.205.234-.004.049-.001.099-.001.149zm2.374-.159l.001.653c.011.407-.136.723-.542.877-.197.075-.214.171-.127.351l.167.367c.094.235.222.411.525.365.118-.018.189.064.207.176a2.31 2.31 0 0 1 .029.299c.02.701.083.649-.609.741-.914.121-.741.129-1.08-.594l-.46-1.008a3.56 3.56 0 0 0-.191-.354c-.025-.041-.077-.072-.13-.035-.025.017-.056.047-.057.072l-.007.601c-.001.162.035.294.225.34.117.028.149.132.153.236l.02.702c.004.134-.055.236-.192.254l-1.625.196c-.099.011-.16-.065-.166-.154l-.034-.801c-.002-.087.035-.167.12-.206.167-.077.194-.216.189-.376l-.104-2.457c-.013-.145-.049-.259-.216-.295-.072-.016-.111-.081-.118-.148l-.061-.8c-.006-.144.055-.208.21-.232l1.318-.184 1.471-.188a1.62 1.62 0 0 1 .306-.016c.32.022.55.178.657.476a1.61 1.61 0 0 1 .085.441c.014.233.004.468.004.702h.032zm4.923-1.694l.016.251c.005.23-.007.266-.234.306a.62.62 0 0 0-.42.255l-.4.523c-.122.151-.125.293-.03.462l.855 1.547.101.175c.036.063.095.112.161.11.219-.007.25.123.249.292l.011.654c.002.133-.056.236-.194.255l-1.625.206c-.075.009-.134-.041-.148-.112a3.67 3.67 0 0 1-.071-.849c.003-.049.007-.118.039-.142.217-.163.094-.326.006-.487l-.3-.526c-.071-.118-.163-.132-.242-.035l-.372.481c-.111.149-.091.317-.062.483.005.03.025.065.05.084.089.068.231.075.247.224.03.283.09.564.051.85-.012.092-.082.148-.173.16l-1.524.197c-.147.017-.217-.042-.238-.198l-.054-.6c-.011-.171-.007-.333.202-.415.106-.041.105-.164.102-.265l-.057-1.86-.047-.652c-.009-.139-.025-.268-.195-.311-.097-.024-.129-.103-.135-.191l-.047-.752c-.005-.14.062-.22.207-.24l1.525-.194c.117-.014.207.053.216.167l.034.802c.002.087-.034.167-.123.202-.134.053-.165.158-.166.282l.003.201c.022.212-.036.431.067.635.282-.037.314-.317.475-.472.084-.081.145-.186.215-.281l.203-.289c.086-.145-.122-.182-.125-.295l-.017-.903c0-.091.076-.151.167-.163l1.576-.2c.117-.014.194.056.203.175l.022.452zm-51.616 3.992c-.099 0-.168.004-.236-.001-.136-.01-.233-.092-.254-.207-.023-.128.064-.249.224-.288a3.79 3.79 0 0 1 .404-.071l1.882-.236 3.56-.453 2.746-.351 2.797-.354 2.746-.35 2.797-.354 2.797-.355 2.746-.351 2.797-.354 2.746-.351 3.001-.373c.101-.012.205-.021.305-.008.109.015.184.091.201.201s-.029.207-.127.253a1.01 1.01 0 0 1-.294.075l-2.186.287-2.797.356-2.695.345-2.899.369-3.611.452-3.407.438-3.56.454-3.661.466-2.644.337-2.899.368-.479.055zm18.954 3.009l-.093-2.007c-.012-.236-.018-.237-.263-.259-.214-.019-.237-.035-.247-.23l-.016-.653c.003-.234.044-.288.296-.325l1.625-.209c.117-.014.203.051.209.167l.022.803c.001.087-.033.167-.122.203-.171.07-.207.206-.201.368l.076 2.109.039.853a1.2 1.2 0 0 1-.083.492c-.124.319-.343.543-.694.603l-1.216.175-.864.105c-.531.04-.843-.187-.964-.693a2.12 2.12 0 0 1-.046-.398l-.106-2.61c-.008-.198.023-.414-.251-.485-.034-.009-.068-.078-.072-.122l-.064-.801c-.008-.14.077-.218.213-.236l1.625-.207c.097-.012.173.034.184.13l.067.75c.012.147-.03.27-.191.312-.19.049-.223.182-.218.346l.107 2.459c.022.221.074.264.289.252.051-.003.105-.002.153-.016.244-.073.558.02.734-.155.203-.202.035-.513.071-.724zm20.671-4.613l-.22.865c-.103.464-.228.594.473.441l.049-.01c.127-.034.182-.101.152-.213-.098-.367-.222-.725-.454-1.083zm.466 3.26v-.251c.007-.226.019-.24.247-.307.033-.01.067-.012.101-.019.072-.014.135-.05.137-.124.003-.104-.038-.198-.139-.248a.28.28 0 0 0-.147-.027l-1.118.136c-.09.012-.141.084-.171.168-.038.107.008.201.121.228.049.012.102.009.152.015.123.014.173.092.185.203l.004.05c.004.99.213.918-.853 1.033l-.711.087c-.197.016-.251-.029-.275-.21l-.059-.599c-.013-.174-.006-.332.215-.397.154-.045.157-.204.192-.331l.794-2.91.297-1.066c.034-.127.109-.203.244-.22l1.016-.129c.092-.011.168.026.205.114l.149.374 1.21 3.202c.075.197.102.437.399.454.029.002.074.071.078.112l.066.8c.008.169-.06.243-.236.27l-.863.115-.812.102c-.357.042-.4.004-.417-.371v-.251h-.011z"/><path d="M89.936 76.506l.29-.057c.155-.038.211-.11.168-.249l-.316-.947c-.008-.022-.049-.047-.074-.046s-.069.028-.074.051l-.261 1.065c-.033.145.037.2.268.183zm-2.011 2.195l-.018-.301c-.003-.088.017-.182.109-.207.226-.061.258-.249.306-.424l.55-2.042.488-1.798a.38.38 0 0 1 .383-.332l.814-.095a.3.3 0 0 1 .352.222l.143.377 1.207 3.209c.06.16.114.318.339.313.073-.002.113.07.122.14a1.98 1.98 0 0 1 .021.25c.008.79.139.78-.714.857l-1.117.151a1.99 1.99 0 0 1-.256.016c-.151 0-.214-.053-.223-.214l-.018-.754c-.001-.112.056-.19.175-.213l.151-.027c.09-.018.162-.058.161-.161-.002-.127-.094-.229-.217-.238a1.37 1.37 0 0 0-.256.006l-.864.109c-.165.02-.228.128-.26.269-.022.096.024.17.121.177.068.005.136-.011.204-.008.076.004.134.051.137.123l.016.903c0 .071-.057.118-.125.142-.032.012-.065.024-.098.028l-1.373.164c-.156.016-.225-.049-.239-.194l-.024-.452m9.688-4.295l-.017-.292c-.01-.112-.064-.189-.188-.193-.24-.007-.475.022-.704.096-.069.022-.122.071-.123.142-.005.245-.108.538.085.716.158.146.422.031.639.006.017-.002.033-.007.049-.011.209-.05.249-.097.259-.305v-.158zm1.331-.103v.603c-.011.71-.319 1.042-1.034 1.121l-.915.112c-.296.039-.33.081-.332.393l.007.251c.001.151.05.26.228.27.118.006.182.075.201.188a3.54 3.54 0 0 1 .052.8c-.006.115-.075.184-.192.199l-1.625.205c-.183.02-.251-.044-.265-.224l-.026-.702c-.002-.105.027-.203.137-.247.157-.061.18-.185.175-.326l-.057-1.858-.047-.601c-.01-.139-.027-.266-.2-.307-.092-.022-.132-.098-.14-.189l-.058-.701c-.008-.229.047-.291.29-.33l.964-.127 1.575-.198a3.28 3.28 0 0 1 .46-.027c.352.008.576.168.685.499.047.141.056.294.081.443.005.033.003.067.003.1v.653h.03m-21.662 5.547l-.001.704c-.002.113-.065.189-.183.207l-1.115.164-2.289.286c-.225.028-.289-.018-.302-.223l-.019-.653c-.004-.145.032-.259.184-.325.106-.046.125-.152.124-.256l-.015-.754-.084-1.707c-.008-.173-.008-.34-.243-.373-.069-.01-.109-.075-.122-.146-.003-.016-.011-.033-.011-.049-.004-.299-.071-.599.018-.897.254-.166.554-.134.834-.183l.762-.098c.322-.031.368.007.386.307l.015.503c.006.176-.005.338-.221.4-.07.02-.097.089-.111.156a.43.43 0 0 0-.01.1l.102 2.461.025.148c.022.094.09.148.182.144l.663-.06c.281-.05.428.002.401-.435a.65.65 0 0 1 .011-.15c.012-.069.042-.134.118-.147l.657-.1a.17.17 0 0 1 .204.175l.002.804h.038zm-23.312-1.798c-.055-.009-.141-.012-.22-.038-.086-.029-.133-.103-.145-.191a.21.21 0 0 1 .101-.215.9.9 0 0 1 .289-.088l1.876-.263 3.452-.452 3.502-.465 4.213-.562 3.249-.429a1.63 1.63 0 0 1 .407 0c.109.014.178.099.19.209s-.039.207-.142.242a2.33 2.33 0 0 1-.445.106l-5.279.701-6.499.849-4.161.562-.388.037zm-8.211-.628c-.057-.006-.11-.005-.158-.019-.106-.032-.175-.108-.193-.214s.031-.204.129-.251a.98.98 0 0 1 .292-.082l3.353-.42 3.606-.462 3.251-.412a1 1 0 0 1 .304.005c.108.02.176.102.191.211s-.024.203-.126.252c-.075.036-.159.062-.242.073l-2.541.319-2.794.353-2.692.345-2.083.263-.299.039zm11.409 2.345c-.132 0-.22.014-.301-.003-.109-.024-.171-.11-.186-.216a.22.22 0 0 1 .141-.243c.092-.038.196-.054.297-.068l2.741-.382 4.062-.556 2.386-.326a.96.96 0 0 1 .304.008c.109.021.175.106.186.215s-.035.202-.14.244a1.21 1.21 0 0 1-.294.081l-3.911.527-3.249.447-2.035.273zm-10.507-.737c-.036-.004-.089-.003-.137-.017a.26.26 0 0 1-.194-.211c-.019-.105.03-.203.127-.251a.94.94 0 0 1 .29-.085l4-.525 1.063-.145c.101-.013.203-.026.304-.021.12.006.225.111.246.222s-.048.229-.172.276a.9.9 0 0 1-.196.052l-5.214.694-.117.01zm51.195-8.857h.102c.134.01.233.095.248.212s-.056.247-.175.274l-.654.117-2.998.379a1.28 1.28 0 0 1-.355.005c-.106-.016-.178-.098-.196-.207s.028-.201.127-.251a.74.74 0 0 1 .241-.077l3.507-.437.153-.015z"/><path d="M44.499 77.033c.046.005.134.002.214.024.108.03.169.117.174.224.004.087-.038.176-.121.206a2.17 2.17 0 0 1-.443.115l-1.83.228-.558.074a.9.9 0 0 1-.302-.019c-.105-.028-.165-.115-.17-.226-.003-.09.034-.17.116-.208.091-.043.19-.079.289-.093l2.388-.306.243-.019zm-1.857 2.529l-.25-.013c-.111-.016-.185-.08-.209-.189a.25.25 0 0 1 .161-.28c.063-.023.13-.038.197-.047l2.271-.301c.067-.009.136-.011.203-.001a.23.23 0 0 1 .206.193c.022.108-.021.2-.114.257a.5.5 0 0 1-.189.065l-2.275.315zm13.044-.136c.05.003.138-.004.218.016.107.027.17.11.184.217s-.044.197-.142.242a.9.9 0 0 1-.245.064l-1.87.266a1.14 1.14 0 0 1-.303-.007c-.09-.013-.147-.08-.17-.167-.029-.106-.004-.209.088-.267a.75.75 0 0 1 .284-.102l1.957-.263zm43.878-8.927l-.261-.023c-.091-.017-.145-.083-.167-.17-.027-.107.002-.207.095-.265a.61.61 0 0 1 .239-.08l1.421-.173a.69.69 0 0 1 .203.007c.109.021.184.085.197.2.013.108-.021.199-.121.255-.043.024-.094.041-.144.048l-1.463.202zm-59.066 7.034l.256.026c.09.018.143.084.165.17a.23.23 0 0 1-.096.263.48.48 0 0 1-.188.069l-1.157.155c-.063.008-.135-.011-.197-.033-.168-.062-.207-.302-.063-.408a.54.54 0 0 1 .227-.102l1.053-.139zm11.03 3.008c-.061-.011-.112-.014-.159-.03a.24.24 0 0 1-.175-.221c-.007-.108.04-.193.138-.246a.3.3 0 0 1 .093-.038l1.107-.141a.36.36 0 0 1 .19.053c.136.072.153.297.031.385-.053.038-.117.073-.18.084l-1.044.155zm7.443-26.33c-.641.022-1.275.111-1.906.216l-2.077.213-3.141.369c-.402.052-.814.042-1.203.179-.686-.002-1.357.134-2.035.206-.017.002-.033.006-.05.01-.074.016-.125.059-.128.133-.013.365-.034.731.023 1.098l.171.012c.282.001.557-.141.843-.034.086.278.05.564.053.846l.053 6.333c.006.672.066 1.338.231 1.992.954 3.777 4.502 6.255 8.46 5.909.153-.013.308-.02.448-.094.48-.007.948-.106 1.418-.189 3.66-.643 6.448-3.814 6.462-7.559.002-.368-.014-.737-.015-1.105l-.001-7.689c0-.134-.003-.268.002-.402.007-.173.043-.213.196-.241.279-.052.581.002.833-.175.059-.281.018-.566.026-.849.003-.097.024-.202-.076-.322-.175.015-.375.025-.573.051l-1.878.256-4.977.65c-.387.053-.786.056-1.16.186zm29.432 13.471c.136-.005.274-.001.409-.018l2.645-.33 3.713-.466 1.218-.169c.087-.012.179-.037.18-.14.004-.365.044-.732-.031-1.127l-.823.096c-.132.015-.189-.028-.19-.165l.004-1.358c.001-.098.063-.148.162-.155l.358-.024c1.254-.12 2.455-.428 3.584-.981 1.628-.797 2.801-2.016 3.461-3.683.597-1.507.731-3.067.405-4.646-.503-2.437-2.004-4.013-4.418-4.755-1.005-.309-2.041-.422-3.09-.366a27.32 27.32 0 0 0-2.398.232l-3.405.449c-.761.106-1.529.164-2.282.324l-1.623.192c-.622.092-.556.016-.561.644-.001.167-.001.335.008.502.007.126.063.173.204.161.271-.022.541-.053.811-.08.106.183.06.371.06.55l.002 13.706-.004.402c-.002.117-.063.181-.183.196l-.71.1c-.123.016-.181.089-.182.201l.002.903c.003.127.07.178.202.162l1.673-.225c.267-.041.55.005.801-.132h0zm-17.654 2.315c.703-.017 1.391-.157 2.085-.242l4.42-.581 1.521-.22c.201-.031.238-.072.239-.258 0-.332.02-.665-.02-1.033l-.577.059c-.102.011-.203.03-.304.041-.079.009-.139-.034-.14-.106l-.006-1.356c0-.071.041-.128.117-.143.201-.04.401-.084.604-.11 1.125-.145 2.215-.416 3.24-.9 1.994-.942 3.29-2.458 3.87-4.558a8.13 8.13 0 0 0 .178-3.636c-.409-2.292-1.691-3.911-3.914-4.777-1.179-.459-2.411-.603-3.672-.544-.667.031-1.324.146-1.985.232l-5.691.74c-.117.015-.23.058-.345.088-.398-.031-.777.097-1.167.132-.271.024-.54.079-.81.123-.088.015-.171.056-.172.154-.004.363-.056.73.038 1.111.186-.015.357-.017.523-.045.517-.09.487-.101.487.433v.101 13.673l-.003.402c-.003.113-.052.187-.178.204l-.71.1c-.073.01-.143.043-.147.114-.024.38-.059.761.031 1.16l1.692-.221c.267-.042.551.003.8-.137h0zm-35.771 4.616l1.628-.189 3.509-.442c.386-.054.786-.05 1.173-.196.055-.346.023-.697.022-1.047 0-.1-.065-.157-.162-.148-.255.023-.509.06-.764.084-.074.007-.135-.037-.144-.112-.013-.099-.013-.2-.014-.301l-.026-2.263a1.65 1.65 0 0 1 .214-.86l6.366-11.878.171-.309c.043-.079.103-.129.197-.137.085-.007.171-.013.255-.03.587-.114.508.012.509-.574 0-.232.042-.467-.037-.696-.253-.088-.501-.003-.748.027l-3.559.456-3.56.45c-.354.049-.72.032-1.059.169-.311-.037-.611.048-.913.091-1.229.174-.946-.09-.983 1.117a.61.61 0 0 0 .005.1c.013.094.062.15.166.147.163-.005.328-.097.511.011l-1.53 3.828c-.116-.022-.155-.121-.208-.204l-1.878-2.936c-.045-.071-.097-.138-.046-.24l.547-.076c.09-.013.17-.054.169-.153-.006-.362.059-.729-.043-1.098-.154.008-.291.008-.426.024l-4.425.523c-.44.056-.887.06-1.317.183l-1.729.186c-.16.018-.187.055-.191.24a18.76 18.76 0 0 0-.001.754c.002.094-.026.203.099.273.14-.017.293-.029.444-.055.178-.031.284.038.371.189l1.268 2.183 3.948 6.757c.159.271.238.541.228.854-.017.552-.005 1.106-.005 1.659l-.002 2.564c-.001.245-.012.246-.255.288-.199.035-.449-.007-.575.151s.008.386.004.584c-.002.1.013.2.027.3a.12.12 0 0 0 .143.11c.608-.087 1.224-.121 1.824-.259l.031.01.03-.013c.255.029.499-.022.74-.095h0zm79.376-27.079c-.532-.01-1.049.114-1.573.175-.205.024-.238.07-.243.254a17.93 17.93 0 0 0 0 .803c.005.187.047.22.258.202.251-.022.501-.054.756-.082.077.184.051.353.051.517l.001 13.81c0 .593.021.486-.508.576-.597.102-.567-.054-.558.636.003.227-.065.467.077.696l1.678-.221c.266-.042.55.005.799-.135.736-.019 1.457-.167 2.185-.254l3.504-.456 2.387-.312c.123-.016.181-.083.183-.199l.002-.754c-.004-.35-.006-.35-.384-.294-.05.008-.1.019-.151.025-.574.06-.535.102-.535-.455l.001-13.818.005-.351c.002-.096.056-.155.147-.179.066-.017.134-.027.201-.041.228-.05.532.048.673-.154.128-.185.034-.456.043-.69a4.58 4.58 0 0 0-.006-.352c-.004-.105-.07-.141-.168-.136-.069.004-.137.006-.205.015l-3.351.439-3.452.456c-.607.084-1.222.121-1.817.278h0zm-8.005 18.435c.153-.012.307-.015.459-.037l4.056-.579 1.062-.164c.087-.014.172-.05.169-.154-.012-.363.048-.731-.055-1.088-.087 0-.156-.007-.223.001-.204.024-.406.056-.609.082-.1.013-.166-.026-.173-.13s-.009-.201-.011-.301l-.044-4.472-.076-9.398c0-.117-.003-.235.004-.352.008-.152.045-.184.221-.212.033-.005.068-.005.102-.012.229-.05.525.007.675-.157s.05-.45.059-.681c.006-.147.038-.301-.058-.472-.154.016-.32.029-.485.053l-.961.149-4.721.634c-.065.009-.125.045-.188.069-.499-.014-.983.099-1.471.17-.228.033-.529-.05-.669.16-.128.19-.048.457-.043.689.013.486-.057.561.544.432.016-.004.033-.005.05-.008.49-.065.492-.065.496.405l.115 13.77c.002.151-.001.301-.003.452 0 .096-.049.161-.144.177-.201.034-.405.059-.607.091-.263.043-.293.071-.297.314a17.22 17.22 0 0 0 .006.754c.006.204.041.239.244.212l1.774-.255c.268-.043.551-.01.802-.141h0zm-4.674-16.908c.029-.138.054-.283.09-.425.161-.645.571-1.052 1.227-1.216.132-.033.268-.047.403-.067s.275-.023.406-.057c.731-.19 1.484-.233 2.228-.337l3.711-.481 1.933-.241c.507-.069 1.011-.163 1.518-.233l2.744-.364 3.354-.439 2.949-.377c.305-.039.609-.088.916-.115 1.052-.092 1.826.591 1.843 1.624.007.386-.004.771.003 1.157a1.57 1.57 0 0 1-.85 1.498c-.151.085-.229.184-.214.357.009.117.001.234.001.352v10.615c0 .117.01.236-.002.352-.018.176.067.272.216.356.585.331.861.836.849 1.498-.008.402.006.805-.004 1.207a1.55 1.55 0 0 1-1.333 1.554c-.656.118-1.319.192-1.979.28l-3.558.471-3.457.446c-.983.126-1.971.22-2.948.385-1.448.245-2.907.418-4.361.625l-3.248.454a5.52 5.52 0 0 1-.664.05c-.751.011-1.517-.626-1.558-1.451-.026-.519-.031-1.04-.01-1.559.023-.561.315-.985.809-1.262.169-.095.248-.202.234-.394-.016-.217-.007-.436-.013-.653a.1.1 0 0 0-.045-.076c-.024-.012-.07-.012-.09.004a2.03 2.03 0 0 0-.192.165c-1.108 1.044-2.429 1.723-3.882 2.175-.098.03-.196.059-.295.085-.134.034-.187.106-.184.251.011.452.006.905.007 1.358 0 .219-.022.434-.112.639a1.6 1.6 0 0 1-1.314.998l-3.202.421-3.404.455-3.152.407c-.389.045-.782.068-1.174.102-.975.085-1.654-.622-1.754-1.293a3.98 3.98 0 0 1-.04-.5c-.006-.319.001-.637-.002-.956-.007-.695.263-1.237.905-1.571.161-.084.227-.192.127-.383l-.995.783c-.34.254-.708.469-1.086.666-.363.189-.733.362-1.119.498l-1.242.423v.988c0 .218.006.436-.003.654a1.59 1.59 0 0 1-1.374 1.526l-2.738.395-3.608.476-3.457.446-1.067.141c-1.019.132-1.843-.651-1.857-1.51l-.013-1.006c-.001-.046-.013-.095-.072-.115-.069-.024-.091.033-.121.067-.057.062-.106.132-.159.197a9.46 9.46 0 0 1-6.007 3.446c-.944.149-1.885.32-2.851.293-2.759-.077-5.083-1.102-6.936-3.1-1.619-1.745-2.423-3.827-2.469-6.182l-.041-4.728a5.12 5.12 0 0 0-.012-.351c-.002-.021-.041-.041-.066-.056-.008-.005-.035.007-.042.019-.078.128-.16.255-.231.388l-4.885 9.125-.624 1.155c-.13.226-.208.456-.178.716a.68.68 0 0 1 0 .151.67.67 0 0 0 .394.768c.479.256.691.733.713 1.265.018.452.02.906 0 1.358-.036.833-.616 1.454-1.457 1.567l-4.726.626-3.15.417c-.457.058-.917.12-1.376.129a1.61 1.61 0 0 1-1.685-1.442c-.04-.366-.066-.735-.089-1.103-.037-.574.157-1.064.625-1.415.202-.151.266-.311.263-.548l-.002-2.515c.002-.21-.054-.389-.159-.569l-4.476-7.684a.75.75 0 0 0-.503-.374c-.736-.197-1.188-.763-1.213-1.5-.015-.452-.015-.906 0-1.358.027-.831.609-1.464 1.447-1.57l3.461-.419 3.461-.42c.441-.052.884-.091 1.327-.125a1.57 1.57 0 0 1 .843.171c.124.063.218.071.318-.03.325-.332.734-.456 1.191-.513l5.337-.698 4.116-.546c.44-.054.887-.051 1.326-.123.083-.014.177-.016.255.008.324.101.64.038.963-.006l4.066-.533 3.508-.451c.918-.096 1.828-.238 2.744-.35l3.456-.456 3.303-.437 3.35-.461 2.643-.349 3.507-.462c.814-.105 1.625-.242 2.443-.298 1.983-.134 3.885.172 5.647 1.127.075.04.149.087.229.111.042.013.105-.012.108-.074l.019-.552c.037-.72.434-1.264 1.093-1.496.111-.039.23-.064.347-.08l2.947-.394 3.355-.439c1.051-.134 2.097-.297 3.155-.379.581-.045 1.159-.096 1.74-.082 1.649.041 3.217.392 4.66 1.202.073.041.152.072.229.105.014.006.034-.002.071-.004"/></g><g fill="#f59cba"><path d="M50.643 55.186c.389-.137.801-.128 1.203-.179l3.141-.369 2.077-.213-.049 1.175-.297.074-.407.048c-.36.053-.365.061-.364.405l.003.151.057 5.671.021 3.212c.006.633.367 1.128.96 1.344.088.032.166.017.249 0 .766.135 1.503-.296 1.717-1.002.055-.18.039-.365.039-.549V54.71l-.022-.501c.375-.13.774-.133 1.161-.186l4.977-.65 1.878-.256.573-.051c.1.12.079.225.076.322-.008.283.033.567-.026.849-.252.176-.554.123-.833.175-.153.028-.189.069-.196.241l-.002.402.001 7.689.015 1.105c-.015 3.745-2.802 6.916-6.462 7.559-.47.083-.938.181-1.419.189l-1.618-.242c-.739-.149-1.433-.427-2.112-.753-1.024-.492-1.802-1.259-2.533-2.083-.464-.523-.787-1.137-1.059-1.771-.379-.885-.618-1.806-.615-2.777l-.005-3.719c-.001-.184.005-.372-.032-.55a3.43 3.43 0 0 1-.057-.699l-.004-3.217-.033-.6zm46.632 3.299c.477.084.921-.033 1.32-.27.465-.276.817-.665.908-1.214.057-.346.055-.699-.011-1.047a3.13 3.13 0 0 0-.114-.436c-.127-.37-.369-.636-.756-.757-.276-.086-.554-.155-.848-.166-.328-.013-.643.056-.963.105l-1.159.194c-.1.017-.142.079-.149.171l-.005.15.012 3.309c0 .083-.001.168.071.252a15.99 15.99 0 0 0 1.693-.291h0zM87.901 50.4c.753-.16 1.521-.217 2.282-.324l3.405-.449 2.398-.232a8.85 8.85 0 0 1 3.09.366c2.415.742 3.916 2.318 4.419 4.755.326 1.579.192 3.139-.405 4.646-.661 1.668-1.833 2.886-3.461 3.683-1.129.553-2.33.861-3.584.981l-.358.024c-.099.006-.161.056-.162.155l-.004 1.358c.001.137.058.18.19.165l.823-.096c.076.395.035.762.031 1.127-.001.103-.093.128-.18.14l-1.218.169-3.713.466-2.645.33c-.135.016-.272.012-.409.018l-.152-.019c-.274-.045-.301-.068-.314-.299l-.002-.351V50.949c0-.183-.02-.366-.03-.549"/><path d="M79.928 60.694c.48.065.918-.063 1.307-.323.428-.286.705-.686.741-1.204a5.17 5.17 0 0 0-.005-1.003c-.099-.786-.438-1.047-1.023-1.231a2.26 2.26 0 0 0-.602-.109 6.13 6.13 0 0 0-1.561.175l-.653.114c-.164.03-.192.064-.203.232l-.002.2.023 3.301c.001.065.017.129.026.191.496.01 1.421-.153 1.952-.341zm-9.562-8.005c.115-.03.228-.073.345-.088l5.691-.74 1.985-.232c1.26-.059 2.493.085 3.672.544 2.224.866 3.505 2.485 3.914 4.777.218 1.221.153 2.436-.178 3.636-.58 2.1-1.876 3.616-3.871 4.557-1.025.484-2.115.754-3.24.9-.203.026-.403.071-.604.11-.075.015-.117.071-.117.143l.006 1.356c.001.073.061.115.14.106l.304-.041.577-.058c.04.367.02.701.02 1.033 0 .186-.038.227-.239.258l-1.521.22-4.42.581-2.085.242c-.349-.087-.352-.087-.362-.37l-.002-.452.005-15.93-.023-.551m-41.787 5.244c.43-.123.878-.127 1.317-.183l4.426-.523c.135-.016.271-.016.425-.024.102.369.037.736.043 1.098.002.099-.078.14-.169.153l-.547.076c-.051.102.001.169.046.24l1.877 2.936c.053.083.092.182.208.204.005.016.007.034.015.048l.438.733c.083.132.208.133.278.006a4.12 4.12 0 0 0 .19-.409l.215-.562 1.342-3.301c.24-.584.335-1.184.265-1.81.339-.136.706-.12 1.059-.169l3.56-.45 3.559-.456c.247-.03.495-.115.748-.027.079.228.037.464.037.696-.001.586.078.46-.509.574-.084.016-.169.023-.255.029-.095.008-.155.058-.197.137l-.171.309-6.366 11.878a1.65 1.65 0 0 0-.214.86l.026 2.263.014.301c.009.075.071.119.144.112l.764-.084c.097-.009.162.048.162.148.001.35.033.701-.022 1.047-.387.146-.787.142-1.173.196l-3.509.442-1.628.189c-.253-.015-.509-.053-.74.095l-.03.013-.032-.01-.026-.6.002-4.917c.001-.294-.051-.562-.206-.814l-.384-.651-1.414-2.441-1.86-3.172-1.499-2.566a1.23 1.23 0 0 1-.189-.663l-.023-.952zm85.777-10.399c.595-.157 1.21-.194 1.817-.278l3.452-.456 3.352-.439c.067-.009.136-.011.204-.015.098-.005.165.031.169.136l.005.351c-.009.233.085.505-.043.69-.14.202-.444.105-.673.154l-.2.041c-.092.024-.145.082-.147.179l-.006.352v13.818c0 .557-.039.516.534.455.051-.005.101-.017.152-.025.377-.056.379-.056.384.294l-.003.754c-.001.115-.06.183-.183.198l-2.387.312-3.504.456-2.185.254c-.351-.087-.353-.086-.365-.369l-.003-.402V48.352l-.005-.503c-.014-.23-.04-.247-.365-.314zm-8.8 1.216c.062-.024.123-.061.188-.069l4.72-.634.962-.149.485-.053c.095.171.064.326.058.472-.01.231.093.513-.06.681s-.445.107-.675.157c-.033.007-.068.006-.102.012-.175.028-.212.06-.221.212l-.003.352.075 9.398.045 4.472.011.301c.007.104.073.143.172.13l.609-.082c.067-.008.136-.001.223-.001.103.358.044.726.056 1.088.003.104-.083.14-.169.154l-1.063.164-4.056.579c-.151.021-.305.025-.459.037l-.204-.018c-.311-.027-.344-.052-.349-.362l-.006-1.405c-.001-.234.021-.474-.024-.7-.062-.316-.065-.631-.065-.948l-.014-10.187c0-.184.015-.373-.024-.55-.067-.299-.064-.598-.065-.898l-.003-1.606c-.001-.183.016-.369-.042-.548z"/></g><path d="M105.55 48.747c.058.179.041.365.042.548l.003 1.606c.001.301-.002.599.065.898.039.177.024.366.024.55l.014 10.187c0 .317.003.632.065.948.044.227.023.466.024.7l.006 1.405c.005.31.038.335.349.362l.204.018c-.251.131-.534.097-.801.141l-1.775.255c-.203.027-.237-.008-.243-.212a15.79 15.79 0 0 1-.006-.754c.004-.244.033-.272.296-.314l.608-.091c.094-.016.143-.081.144-.177l.003-.452-.116-13.77c-.004-.469-.006-.47-.495-.405l-.051.008c-.601.129-.531.054-.543-.432-.006-.232-.086-.499.042-.689.141-.21.441-.126.669-.159.488-.071.973-.184 1.472-.17zm-54.904 6.445l.033.6.004 3.217a3.43 3.43 0 0 0 .057.699c.037.178.031.366.032.55l.005 3.719c-.004.971.236 1.892.614 2.777.271.633.595 1.248 1.059 1.771.731.824 1.509 1.591 2.533 2.083.68.326 1.374.604 2.112.753.533.108 1.078.163 1.618.242-.14.074-.295.08-.447.094-3.959.346-7.507-2.132-8.46-5.91-.165-.654-.225-1.32-.231-1.992l-.052-6.333c-.003-.282.033-.568-.053-.846-.286-.108-.562.035-.843.034-.049 0-.099-.007-.171-.012-.057-.367-.035-.733-.023-1.098.003-.074.055-.117.128-.133.017-.004.033-.008.05-.01.678-.072 1.349-.208 2.035-.207zm37.259-4.793l.03.549v16.063l.002.351c.013.231.04.254.314.299l.152.019c-.25.138-.533.091-.8.132l-1.673.225c-.132.017-.199-.034-.202-.162a27.76 27.76 0 0 1-.002-.903c.001-.112.06-.185.183-.201l.709-.1c.121-.016.181-.079.184-.196l.004-.401-.002-13.706c0-.179.046-.367-.06-.55l-.811.08c-.14.011-.197-.035-.203-.161l-.008-.502c.004-.627-.061-.552.561-.643l1.623-.192zm-17.538 2.296l.023.551-.005 15.93.002.452c.011.284.013.283.362.37-.249.14-.533.095-.8.137l-1.692.221c-.09-.399-.055-.78-.031-1.16.004-.071.075-.104.147-.114l.71-.1c.126-.016.175-.091.178-.204l.003-.402V54.703v-.101c-.001-.534.03-.523-.487-.433-.166.029-.337.03-.523.045-.094-.381-.043-.747-.038-1.11.001-.098.084-.139.172-.154l.81-.123c.39-.035.77-.162 1.167-.132zm43.984-5.161c.325.067.351.084.364.314.011.167.006.335.006.503v15.643l.003.402c.012.282.014.282.365.369-.249.14-.532.093-.799.135l-1.678.221c-.142-.229-.074-.469-.077-.695-.008-.69-.038-.533.559-.636.529-.091.507.017.507-.576l-.001-13.81c0-.165.026-.333-.05-.517l-.756.082c-.212.018-.254-.015-.258-.202a15.37 15.37 0 0 1 0-.803c.004-.184.037-.23.242-.254.524-.061 1.041-.185 1.573-.175zM28.576 57.936l.023.951a1.23 1.23 0 0 0 .189.664l1.499 2.566 1.86 3.172 1.414 2.441.384.651c.156.251.207.519.206.814l-.002 4.917.026.6c-.6.138-1.216.172-1.824.259a.12.12 0 0 1-.143-.11c-.014-.099-.029-.2-.027-.3.004-.198-.131-.424-.004-.584s.376-.117.575-.151c.243-.042.253-.043.255-.288l.002-2.564.005-1.659c.01-.314-.069-.583-.228-.854l-3.948-6.757-1.268-2.183c-.087-.151-.193-.22-.371-.189l-.444.055c-.125-.07-.098-.179-.099-.273l.001-.754c.004-.185.031-.222.191-.24l1.729-.186zM57.017 55.6l.049-1.175c.632-.104 1.265-.194 1.907-.216l.021.501v10.244c0 .184.016.368-.039.549-.214.706-.951 1.137-1.717 1.003.437-.378.606-.847.603-1.424l-.008-9.027-.013-.4c-.007-.074-.068-.119-.143-.112-.22.021-.435.084-.66.058zm-18.073 1.02c.07.626-.026 1.226-.265 1.81l-1.342 3.301-.215.562-.19.409c-.07.128-.195.126-.278-.006l-.438-.733c-.008-.014-.01-.032-.015-.048l1.53-3.828c-.183-.107-.348-.015-.511-.011-.104.003-.153-.053-.166-.147a.62.62 0 0 1-.005-.1c.037-1.207-.246-.943.983-1.117.302-.043.602-.128.913-.091z" fill="#ee778d"/><path d="M34.236 74.707c.231-.151.487-.112.74-.097-.241.074-.485.126-.74.097z" fill="#576463"/><path d="M57.015 55.599c.224.026.44-.037.66-.058.075-.007.136.038.143.112.012.133.013.267.013.4l.008 9.027c.003.576-.165 1.045-.603 1.424-.082.017-.161.032-.248 0-.593-.217-.954-.711-.96-1.344l-.021-3.212-.057-5.671-.003-.151c-.001-.344.005-.352.364-.405l.407-.048c.1-.016.198-.048.297-.074zm40.262 2.89a15.96 15.96 0 0 1-1.693.291c-.072-.085-.071-.169-.071-.252l-.012-3.309.006-.15c.007-.092.048-.154.149-.171l1.159-.194c.152.088.329.074.491.116.541.141.885.467 1 1.013.069.327.11.657.088.991-.042.636-.309 1.149-.869 1.498l-.249.166z" fill="#030404"/><path d="M97.277 58.485l.249-.166c.56-.349.827-.862.869-1.498.022-.334-.019-.664-.088-.991-.115-.546-.459-.873-1-1.013-.163-.042-.34-.028-.492-.116.319-.049.634-.118.962-.105.294.011.572.081.848.166.387.121.63.386.756.757a3.14 3.14 0 0 1 .114.436c.065.348.068.701.011 1.047-.091.549-.443.938-.908 1.214-.399.237-.843.353-1.32.27z" fill="#ee778d"/><path d="M79.928 60.697a6.99 6.99 0 0 1-1.951.341c-.009-.062-.026-.126-.026-.191l-.023-3.301.002-.2c.011-.168.039-.202.203-.232l.653-.114c.34.027.683.037 1.014.125.503.133.832.434.962.94.089.346.109.695.097 1.047a1.75 1.75 0 0 1-.737 1.425c-.067.05-.129.106-.193.16z" fill="#030404"/><path d="M79.925 60.7l.193-.16a1.75 1.75 0 0 0 .737-1.425c.012-.352-.008-.701-.097-1.047-.13-.506-.459-.807-.962-.94-.332-.088-.674-.097-1.014-.125.513-.119 1.034-.19 1.561-.175.202.006.409.048.602.109.586.184.925.446 1.023 1.232.041.33.028.67.005 1.003-.037.518-.314.919-.741 1.205-.389.26-.827.389-1.307.323z" fill="#ee778d"/><g fill="#030404"><path d="M104.546 36.18l.289-.024 2.177-.279c.114-.015.25.003.292-.147.028-.101-.099-.157-.324-.129l-2.38.303c-.081.011-.16.049-.235.084-.021.01-.035.058-.032.086s.026.068.05.075c.063.02.13.026.163.032zm-.007 4.828l.24-.019 2.283-.289c.101-.013.209-.019.241-.143.023-.087-.095-.156-.274-.134l-2.537.316c-.046.006-.093.039-.131.07-.021.018-.033.059-.031.088s.025.069.048.078c.062.022.129.029.161.035h0zm.037-2.416l.218-.018 1.777-.219.653-.111c.034-.007.076-.075.075-.114s-.048-.104-.081-.107c-.117-.011-.238-.012-.355.001l-1.625.198-.808.124c-.065.012-.111.072-.1.151.008.062.058.078.107.087s.102.006.139.008h0zm-.017 4.828l.214-.017 2.284-.289c.182-.023.277-.101.24-.187-.053-.123-.165-.089-.262-.092-.034-.001-.068.002-.102.007l-2.385.3c-.05.006-.105.017-.144.045s-.067.075-.075.119c-.011.054.038.091.088.103s.101.009.142.012h0zm-18.237-.094l.001.005 2.832-.339a1.1 1.1 0 0 0 .15-.03c.085-.022.172-.057.166-.157-.007-.105-.095-.122-.187-.113l-.152.018-2.934.348c-.051.006-.1.017-.15.028-.146.033-.216.103-.186.185.037.102.122.1.209.09l.252-.035h0zm2.732 1.806l-1.063.12-1.77.216a1.84 1.84 0 0 0-.249.053c-.071.019-.124.067-.117.141s.063.116.14.116c.05 0 .101-.01.151-.016l2.984-.354c.067-.008.135-.021.199-.041.082-.027.161-.065.136-.174-.019-.084-.091-.091-.159-.088-.085.004-.169.018-.253.028h0zm-2.655-4.218l1.046-.125 1.668-.207c.1-.013.2-.04.292-.078.034-.014.067-.082.063-.12s-.054-.091-.092-.099c-.064-.014-.135 0-.202.008l-2.985.355a1.17 1.17 0 0 0-.246.062c-.072.025-.108.087-.074.157.019.038.072.085.109.084.135-.002.27-.022.422-.036zm-.069-2.406l1.099-.131 1.729-.213c.101-.013.205-.024.281-.103.038-.039.046-.089.021-.137-.014-.027-.041-.059-.068-.066a.42.42 0 0 0-.15-.007l-3.051.378c-.099.013-.199.047-.289.09-.031.015-.046.084-.048.129-.002.056.05.095.1.093.136-.005.271-.024.376-.034zm3.766-2.345l.002.802a.18.18 0 0 0 .231.198l.812-.095 1.012-.14c.29-.049.322-.086.326-.352l-.001-1.404c-.005-.271-.058-.319-.351-.288l-1.776.217c-.193.025-.246.094-.253.31l-.002.753h0zm11.223-1.425h-.01l.001.702c.008.298.061.335.379.294l.558-.072 1.214-.171c.255-.042.275-.069.278-.332l.001-1.404a.84.84 0 0 0-.006-.1c-.017-.14-.084-.2-.238-.202a1.84 1.84 0 0 0-.255.012l-1.673.209c-.181.024-.24.083-.247.262l-.002.802h0zm5.456 1.733l-2.028.233c-.427.053-.456.088-.462.495l.005.35c.013.18.079.241.262.219l2.532-.311c.017-.002.034-.005.05-.01.106-.031.185-.09.189-.206l.007-.6c-.006-.19-.068-.239-.253-.218l-.302.048h0zm.558 2.873v-.251c-.013-.243-.066-.285-.319-.255l-1.47.178-1.012.134c-.179.028-.233.095-.241.27l.001.551c.009.178.076.226.269.211.068-.005.135-.02.203-.028l2.078-.253c.486-.056.491-.056.491-.556h0zm.001 2.371l-.001-.2c-.013-.249-.065-.293-.311-.264l-2.281.279c-.101.013-.201.035-.299.062-.069.018-.126.069-.135.137-.034.249-.039.499.001.748.011.073.072.117.144.118.101 0 .203-.013.304-.026l2.027-.249c.554-.063.554-.057.551-.604h0zm-17.84-2.489c.005-.117.005-.235-.007-.352s-.094-.18-.21-.169l-.814.091-2.238.28c-.333.038-.407.073-.407.438l.005.352c.013.187.072.243.25.243.085 0 .171-.005.256-.015l1.932-.244 1.016-.137a.22.22 0 0 0 .215-.234l.001-.251zm.003 2.391l-.001-.25c-.015-.215-.067-.267-.288-.249l-.759.091-2.225.279c-.329.038-.406.073-.405.435l.009.4c.012.143.083.209.239.196l.912-.101 2.024-.246c.499-.068.498-.078.494-.557h0zm-.002 2.433h.006V44c-.003-.482-.035-.511-.528-.452l-1.619.203-1.262.173c-.212.032-.249.082-.269.296-.003.033-.002.067-.004.1-.027.631.014.667.636.587l1.517-.189 1.313-.181c.142-.02.205-.104.209-.237v-.25h0zm11.81-3.435v3.721l-.001.151c.008.241-.09.355-.256.368-.179.013-.272-.117-.283-.393l-.002-.402v-6.892c.001-.803.04-.765-.753-.671l-4.373.56-1.934.235-.102.011c-.53.073-.533.073-.534.587l-.001 7.244-.006.453c-.003.065-.017.136-.048.193-.051.093-.137.148-.252.141-.092-.006-.167-.051-.204-.131-.034-.075-.059-.158-.065-.239-.011-.15-.008-.301-.008-.453v-6.842l-.001-.402c-.012-.357-.056-.398-.437-.353l-1.627.208c-.267.037-.313.093-.325.359l-.003.402-.004 7.043-.004.453c-.003.143-.044.27-.195.322-.157.055-.278-.023-.335-.155-.088-.202-.244-.206-.422-.183l-2.95.374c-.194.023-.326.084-.352.289-.002.016-.01.032-.017.047-.04.1-.108.17-.222.183-.137.015-.25-.045-.281-.168-.057-.225-.206-.235-.391-.206l-.457.056c-.191.006-.311-.101-.319-.255-.007-.136.079-.248.238-.284.116-.026.237-.028.355-.048l.399-.084c.038-.011.084-.064.09-.103.014-.091-.07-.109-.134-.107l-.459.037c-.084.007-.17.021-.254.015-.121-.008-.222-.115-.236-.23s.055-.241.171-.28c.08-.027.165-.038.249-.053l.506-.083c.113-.018.194-.076.196-.194l-.003-.653c-.004-.111-.087-.167-.215-.156-.102.008-.203.03-.304.042l-.306.024c-.158-.003-.272-.099-.291-.232s.061-.266.212-.3.304-.041.456-.064c.134-.02.276-.019.384-.117.02-.018.032-.06.027-.087s-.033-.062-.058-.069c-.153-.042-.304 0-.457.017-.118.013-.238.027-.355.018s-.207-.128-.211-.25c-.003-.111.045-.208.147-.242.127-.043.265-.058.399-.077.599-.084.599-.083.586-.692-.008-.391-.024-.405-.405-.358l-.356.039c-.232.007-.363-.087-.372-.255s.101-.27.337-.307c.135-.021.273-.019.408-.041a1.16 1.16 0 0 0 .29-.087c.03-.014.042-.083.044-.128.001-.019-.045-.055-.071-.056-.102-.005-.205-.006-.306.003l-.355.05c-.189.012-.323-.083-.346-.229-.023-.152.076-.279.257-.319.083-.018.17-.019.254-.033l.404-.07c.136-.024.212-.099.211-.238l-.006-.603c-.005-.12-.079-.173-.207-.164-.221.016-.437.086-.662.058-.134-.017-.226-.098-.248-.217-.025-.135.053-.263.201-.307a1.51 1.51 0 0 1 .251-.046l.357-.035a.88.88 0 0 0 .194-.059c.049-.02.077-.059.08-.115.004-.068-.049-.086-.096-.094-.172-.03-.34.014-.508.043-.102.017-.203.031-.303-.007s-.169-.113-.18-.223.031-.203.131-.252c.074-.036.16-.058.243-.069l3.102-.399 1.474-.192c.401-.054.404-.057.408-.474l.001-1.258.004-.352c.031-.394.195-.582.589-.642l1.525-.202.61-.081c.346-.045.671-.016.993.151l1.617.766c.122.058.242.125.351.204.099.072.108.213.042.32-.059.095-.15.144-.259.124a1.3 1.3 0 0 1-.288-.102l-1.02-.473-.373-.169c-.122-.05-.206-.002-.215.119l-.011.352.003.905c.006.248.067.304.307.279l1.017-.126 2.899-.368 3.153-.403c.27-.035.309-.076.314-.36l.004-1.459.008-.402c.029-.27.168-.435.44-.485l1.066-.153 1.272-.156c.171-.019.339-.013.497.076.594.336 1.236.573 1.852.863a3.29 3.29 0 0 1 .404.215c.106.069.135.208.089.314s-.171.171-.3.138a2.53 2.53 0 0 1-.385-.135l-1.072-.483c-.23-.1-.308-.05-.313.207l.009 1.106c.004.141.094.208.241.191l1.781-.221 2.289-.288c.157-.021.305-.01.454.037l2.298.715a1.29 1.29 0 0 1 .235.099c.109.06.155.181.126.303-.027.113-.139.201-.269.183a2.48 2.48 0 0 1-.398-.092l-1.955-.611c-.383-.133-.739-.038-1.105.032-.053.01-.07.065-.065.119.006.06.051.094.1.092.136-.004.272-.018.408-.033.276-.032.541-.006.808.08l2.006.621a2.6 2.6 0 0 1 .336.123c.13.061.178.21.125.344-.042.106-.155.17-.294.147-.117-.019-.232-.054-.346-.089l-1.86-.573c-.374-.126-.741-.089-1.115-.04-.138.018-.201.113-.213.243-.004.033-.006.067-.006.1-.007.681-.018.706.665.623.21-.026.406-.007.607.044l4.719 1.192c.132.033.264.072.389.124.113.046.161.172.133.297-.025.118-.13.207-.262.193-.152-.017-.303-.05-.452-.087l-4.57-1.153c-.386-.101-.743-.022-1.11.047-.055.01-.07.064-.068.117.002.062.05.08.098.096.016.005.035.007.051.004.645-.148 1.253.036 1.867.19l3.877.967a3.42 3.42 0 0 1 .439.136c.111.045.16.182.125.299-.032.109-.113.163-.225.174-.156.015-.304-.027-.454-.064l-4.376-1.087c-.41-.105-.81-.101-1.219-.045a.24.24 0 0 0-.226.233c-.002.017-.005.033-.005.05-.015.744-.044.779.697.683.193-.025.375-.005.559.035l3.908.836a2.93 2.93 0 0 1 .394.111c.115.043.186.177.169.284-.019.128-.154.24-.298.223-.186-.023-.37-.062-.554-.101l-3.707-.8c-.37-.083-.71.018-1.06.079-.048.008-.07.065-.058.121s.053.083.106.087.103-.001.153-.008c.446-.071.882-.024 1.322.071l3.362.696c.151.031.307.05.435.139.088.062.138.15.108.261-.028.105-.1.173-.211.194-.138.026-.271-.009-.405-.037l-3.412-.71a3.61 3.61 0 0 0-1.273-.032.24.24 0 0 0-.229.23l-.006.05c-.015.743-.047.781.693.689a1.42 1.42 0 0 1 .458.01l2.665.525c.098.02.198.056.282.108.091.055.136.151.107.261s-.102.171-.21.197c-.121.029-.236-.011-.353-.034l-2.464-.485c-.369-.079-.711.015-1.062.077-.055.01-.071.063-.068.117.003.062.051.095.099.093l.664-.044c.228-.007.331.059.358.204.033.172-.057.28-.297.329a3.58 3.58 0 0 1-.508.068c-.209.012-.371.065-.392.304-.001.017-.006.033-.011.049-.038.121-.111.213-.247.222-.164.011-.235-.095-.289-.233-.083-.215-.091-.21-.282-.187l-2.24.267c-.085.01-.169.028-.252.045-.123.025-.226.076-.26.209a.58.58 0 0 1-.052.142c-.069.122-.183.176-.295.145-.131-.037-.199-.129-.206-.258l-.01-.503v-6.59-.453c0-.634.041-.658-.651-.574l-1.424.182c-.264.035-.317.086-.323.356l-.004 1.056-.001 2.918h-.035z"/><path d="M63.099 43.181h.005l-.002-.956c-.006-.259-.056-.299-.302-.268l-1.118.146-3.612.445-.965.133c-.328.056-.344.074-.347.383l-.002 1.71.006.151c.018.169.083.225.271.222l.358-.024 1.017-.127 2.949-.374 1.524-.203c.154-.021.21-.078.214-.232l.002-1.006zm.006 3.085h-.002l-.002-1.056c-.004-.2-.055-.242-.245-.221l-.864.108-2.745.342-2.133.281c-.346.048-.352.059-.357.416l-.001 1.357.005.603c.009.208.075.256.299.227l1.778-.23 2.744-.345 1.118-.137c.375-.055.397-.085.403-.442l.001-.905h0zm-15.5-1.081h.001v-.602l-.01-.552c-.007-.124-.079-.18-.2-.175-.051.002-.102.009-.152.015l-4.568.576-.963.128c-.236.038-.27.087-.299.333-.069.583-.043 1.17-.054 1.755l.007.401c.007.115.074.191.194.188l.612-.044 2.841-.365 2.283-.296c.278-.037.302-.066.308-.357l.001-1.004h0zm-.001 3.263h.002l-.003-.452c-.028-.293.088-.599-.08-.88l-.863.067-3.756.476-1.267.177c-.259.041-.286.071-.291.322l-.019 1.707c-.004.781-.082.77.795.66l2.74-.353 2.436-.309c.26-.033.297-.067.302-.311l.002-1.105h0zm8.61-2.995v-4.276-.352c.003-.337-.042-.427-.415-.356-.201.038-.409.039-.611.073-.242.041-.287.098-.299.329l-.003.352v2.414l-.003.352c-.015.312-.075.384-.378.437l-.761.113c-.116.017-.186.085-.193.199l-.011.452-.001 5.03-.02.451c-.019.147-.151.253-.277.249s-.245-.11-.269-.26a1.88 1.88 0 0 1-.017-.3v-5.734-.101c.014-.391.057-.439.474-.508l.558-.085c.271-.043.3-.077.315-.36l.001-.101-.001-2.314a2.32 2.32 0 0 0-.021-.3c-.012-.094-.078-.153-.172-.155a2.87 2.87 0 0 0-.409.019l-3.204.405c-.555.071-.556.075-.558.618v2.163l.008.301c.011.125.071.174.205.162l.765-.079c.29-.026.411.072.44.354.009.083.006.167.006.251l-.001 5.684-.016.351c-.026.181-.157.293-.306.277-.134-.015-.236-.119-.248-.278-.012-.15-.008-.302-.008-.452l-.001-4.98c-.001-.622-.007-.627-.627-.558l-.355.054c-.295.03-.42-.067-.442-.348-.009-.117-.005-.234-.005-.352V41.93l-.004-.352c-.013-.237-.069-.283-.326-.26-.119.01-.236.036-.355.052-.453.059-.483.028-.483.57v8.601l-.005.402c-.003.066-.019.133-.04.196a.29.29 0 0 1-.274.19c-.111-.006-.221-.102-.243-.224-.015-.082-.014-.166-.019-.25-.027-.434-.031-.443-.491-.399l-1.171.141-3.713.47-.609.087c-.273.045-.297.073-.31.363l-.015.654a1.48 1.48 0 0 1-.051.346c-.03.104-.118.162-.235.156s-.198-.07-.222-.175a1.69 1.69 0 0 1-.033-.348l-.003-.654c-.006-.148-.065-.195-.227-.212-.051-.006-.103.002-.154-.003-.209-.022-.325-.111-.329-.248s.098-.227.307-.283l.2-.044c.218-.059.25-.086.254-.311l.022-2.163a.84.84 0 0 0-.007-.1c-.014-.123-.068-.173-.2-.173l-.357.007c-.118-.009-.214-.131-.217-.246s.052-.203.154-.238c.144-.05.296-.079.446-.113.114-.026.179-.091.185-.206l.012-.352.018-1.509-.005-.352c-.011-.156-.069-.213-.219-.221-.119-.007-.239.003-.358-.008s-.231-.123-.233-.231.05-.202.151-.243c.109-.044.227-.075.345-.09l2.646-.328 2.696-.341 1.425-.176c.101-.013.21-.023.259-.13.044-.095.051-.199-.008-.288-.053-.08-.148-.074-.233-.064l-1.781.222-3.764.475-1.118.15c-.134.016-.273.025-.407.011-.107-.011-.182-.093-.205-.2s.029-.195.114-.261.185-.081.288-.094l2.339-.3 3.713-.47.913-.13c.116-.018.177-.096.179-.21l-.007-.351c-.007-.099-.076-.146-.173-.142-.085.004-.169.02-.254.028-.068.007-.136.017-.204.013a.28.28 0 0 1-.269-.256.27.27 0 0 1 .189-.269c.081-.025.167-.035.251-.046l2.949-.383 2.848-.36 3.611-.453.508-.07c.101-.01.205-.013.305 0 .118.015.204.133.206.255.002.112-.052.202-.153.239-.111.04-.232.052-.348.077-.206.044-.252.096-.266.303a1.65 1.65 0 0 0-.003.151c.007.3.065.351.373.312l4.932-.633 1.678-.212a1.22 1.22 0 0 1 .604.064l.962.348a.82.82 0 0 1 .222.123c.086.068.117.166.081.271s-.116.173-.228.171a1.03 1.03 0 0 1-.299-.051l-.674-.243a1.54 1.54 0 0 0-.803-.098l-2.644.34-2.848.359-.967.121c-.099.014-.205.043-.287.096-.092.059-.1.167-.067.272.023.073.081.109.152.111a1.97 1.97 0 0 0 .306-.012l5.847-.752c.931-.121.931-.124 1.839.2l.478.181c.178.08.245.215.197.359s-.187.207-.377.157c-.115-.031-.227-.074-.34-.114l-.627-.224a1.64 1.64 0 0 0-.296-.078c-.193-.027-.307.052-.309.239l.003 2.061c.001.094.06.151.163.155.598.019 1.107.316 1.647.514.14.051.183.218.128.342s-.188.191-.343.142l-.969-.331c-.112-.038-.227-.077-.343-.094-.154-.022-.262.07-.282.223a2 2 0 0 0-.012.251v1.66l.009.251c.01.109.055.196.183.202.562.026 1.043.306 1.559.475a.38.38 0 0 1 .13.079.24.24 0 0 1 .072.274c-.037.104-.117.173-.228.172a1 1 0 0 1-.299-.052l-.772-.273a1.65 1.65 0 0 0-.347-.081.23.23 0 0 0-.298.254l-.011.754a2.26 2.26 0 0 1-.041.398c-.027.126-.145.204-.262.199s-.236-.094-.255-.211-.019-.233-.021-.351l-.008-.704c-.007-.177-.076-.237-.264-.219l-1.069.127-3.764.475-.966.122c-.206.03-.258.099-.262.301l-.018.954a.81.81 0 0 1-.047.244c-.031.084-.11.127-.2.136a.23.23 0 0 1-.246-.141.65.65 0 0 1-.044-.244l-.003-.855v-3.823m35.339-34.45c2.414-.053 4.877 1.857 4.89 4.784.012 2.815-2.392 4.834-4.933 4.808-2.474-.025-4.876-1.928-4.865-4.826.011-2.917 2.479-4.831 4.908-4.767z"/><path d="M67.01 34.62c.002-.132 0-.264-.018-.394a.16.16 0 0 0-.085-.107c-.192-.073-.43.07-.437.269l.011.693c.007.136.1.19.249.17.194-.027.267-.096.279-.284.008-.115.001-.231.001-.347zm5.93-.863h.004l.001.349c.007.136.057.18.188.173l.253-.026c.176-.031.246-.093.243-.263a8.47 8.47 0 0 0-.051-.746c-.01-.095-.085-.133-.185-.124-.413.035-.447.071-.454.487v.15zm-1.832.269h.004l.001.3c.011.186.074.248.251.228l.605-.095c.176-.034.219-.088.236-.275.006-.066.006-.133.006-.2.002-.779.037-.675-.692-.595-.385.043-.403.083-.411.486v.15zm-2.29.331c-.002-.553-.002-.554-.574-.478l-.251.043c-.184.045-.233.095-.243.269l-.005.451c.007.432.044.475.474.389.599-.12.604.032.6-.674zm.556-.09l.002.4c.003.071.047.139.124.133.304-.025.613-.019.908-.114.069-.022.124-.07.133-.138a3.15 3.15 0 0 0-.002-.848c-.01-.072-.071-.123-.144-.118l-.505.06c-.572.058-.525.08-.516.625h0zm.341-3.402l-1.739.291c-.189.033-.228.078-.231.271l-.001 1.254c.004.538.006.547.532.471l3.031-.454.655-.107c.188-.039.235-.09.237-.271l-.002-1.605c-.003-.185-.074-.237-.263-.208l-1.513.245c-.197.033-.221.077-.104.267.229.369.212.766.159 1.167a.9.9 0 0 1-.098.283c-.078.152-.176.294-.376.297s-.299-.135-.379-.289a1.03 1.03 0 0 1-.057-.139c-.112-.326-.132-.655-.025-.985l.174-.488h0zm.556-3.559c-1.063-.047-1.797.504-2.24 1.493-.201.449-.308.921-.38 1.403-.026.177.047.249.228.234.085-.007.169-.024.253-.037l2.273-.37 1.614-.28c.187-.034.229-.095.226-.273-.006-.338-.09-.664-.197-.982-.302-.891-.753-1.238-1.777-1.187h0zM67.799 42.52l-.001 6.033c0 .167.001.336-.026.5-.031.188-.18.302-.354.304s-.327-.109-.358-.297c-.027-.164-.03-.333-.03-.5l-.008-4.324-.009-7.592c-.001-.198.075-.432-.059-.586-.151-.173-.381-.036-.577-.022-.305.022-.498-.128-.512-.426l-.047-1.658c-.001-.351.079-.425.442-.498l.555-.097c.117-.021.185-.092.186-.205l.002-1.608c0-.115-.063-.178-.175-.213a.61.61 0 0 1-.219-.123c-.144-.129-.133-.365.012-.493.013-.011.026-.027.041-.03.321-.071.336-.316.373-.576.094-.649.255-1.283.587-1.862.553-.965 1.364-1.525 2.521-1.539l.564-.001c.75.021 1.296.376 1.666 1.002.27.457.401.96.467 1.479.027.208.061.362.304.463.307.127.31.436.017.623-.169.107-.227.223-.225.406l.005 1.458c.004.262.047.29.302.263l.561-.049c.276-.001.38.09.393.353l.057 1.658a.84.84 0 0 1-.002.1c-.024.282-.099.371-.394.446-.115.029-.235.041-.353.061l-.352.066c-.132.029-.205.11-.206.247l-.005.402.014 12.017-.017.502a.37.37 0 0 1-.348.314.37.37 0 0 1-.348-.313c-.02-.149-.017-.301-.017-.451l-.006-6.184-.04-5.882v-.1c.004-.369-.059-.409-.412-.354l-3.597.538-.152.024c-.133.026-.214.106-.225.238a5.02 5.02 0 0 0-.011.401v6.084h.019zm-.577-20.961l7.847-.001.512-.019c.097-.009.149-.084.141-.177-.007-.082-.025-.167-.056-.243-.271-.669-1.051-.958-1.754-.654-.513.222-.513.222-.779-.29-.308-.593-.956-.844-1.607-.622l-.335.124c-.188.049-.341-.051-.376-.24-.018-.098-.013-.2-.026-.3-.183-1.386-1.713-2.13-2.947-1.433l-.307.179a.26.26 0 0 1-.326-.069c-.088-.102-.154-.221-.237-.327-.438-.561-1.025-.846-1.738-.786-1.113.094-1.887 1.026-1.804 2.118.006.083.03.166.029.249-.004.18-.161.313-.344.288-.118-.017-.231-.062-.349-.079a1.26 1.26 0 0 0-1.448.849l-.06.192c-.11.288-.381.401-.654.272-.092-.043-.175-.108-.27-.143-.6-.226-1.329-.095-1.685.631-.119.244-.014.434.264.467.169.02.341.014.512.014h7.796zm.106.594c-2.65 0-5.299.001-7.948-.002-.221 0-.447-.002-.663-.04-.591-.102-.878-.619-.667-1.171.329-.862 1.215-1.342 2.136-1.169.165.031.324.156.493.09s.192-.266.291-.399c.34-.457.784-.739 1.366-.793.085-.008.171-.007.256-.011.116-.006.19-.061.211-.177l.067-.345c.258-1.162 1.215-1.983 2.416-2.039a2.54 2.54 0 0 1 1.755.587 1.77 1.77 0 0 1 .15.136c.352.36.312.32.792.164 1.386-.45 2.755.226 3.246 1.458.17.426.087.472.644.436a1.79 1.79 0 0 1 1.607.722c.155.201.286.27.548.198.62-.17 1.189-.019 1.676.386.425.353.66.807.649 1.364-.007.338-.172.533-.513.583-.184.027-.375.022-.562.022l-7.948.001zm7.337 20.665v-4.925c0-.233.076-.329.323-.372l.761-.105 5.741-.744 1.775-.249c.365-.057.707-.054 1.04.139.219.127.466.208.697.317a1.23 1.23 0 0 1 .26.158c.084.069.111.168.075.273a.27.27 0 0 1-.285.168 1.08 1.08 0 0 1-.242-.076l-.795-.351a.81.81 0 0 0-.497-.075c-.113.02-.193.074-.201.19l-.013.502-.001 8.696-.016.502c-.016.157-.127.254-.263.263-.153.01-.278-.101-.295-.283-.014-.15-.01-.301-.01-.452l-.001-8.646c-.001-.667.085-.703-.697-.595l-6.399.842-.201.037c-.105.032-.18.099-.185.213l-.012.502-.001 8.696-.018.502c-.012.121-.13.206-.252.207s-.237-.084-.251-.208c-.017-.149-.019-.301-.019-.451v-4.675h-.017zm32.934-13.509h5.079l.461-.015c.139-.012.202-.14.136-.256-.16-.283-.519-.441-.83-.355-.114.032-.218.098-.331.136-.274.092-.452.009-.571-.256-.028-.061-.043-.128-.073-.187a.76.76 0 0 0-.792-.44c-.084.007-.167.037-.251.048-.221.029-.377-.089-.385-.292-.003-.066.017-.133.021-.199a1.2 1.2 0 0 0-.241-.802c-.479-.658-1.5-.655-1.949-.048-.276.373-.4.428-.834.198-.734-.39-1.557.006-1.768.799-.035.129-.048.264-.084.393-.039.139-.178.219-.319.186-.099-.023-.192-.07-.29-.098-.362-.106-.683.004-.892.308-.048.069-.078.149-.121.221-.123.205-.231.242-.467.158-.096-.034-.185-.089-.283-.117-.347-.099-.744.096-.879.431-.027.066-.004.147.075.158a3.33 3.33 0 0 0 .457.031l5.131.001zm-.109.593c-1.761 0-3.521 0-5.282-.001-.171 0-.343.004-.511-.02-.285-.04-.414-.194-.429-.476-.038-.733.632-1.376 1.409-1.349a1.25 1.25 0 0 1 .253.038c.133.033.23-.011.315-.11.305-.357.702-.525 1.172-.524a.31.31 0 0 0 .32-.198 1.75 1.75 0 0 1 .088-.181c.449-.787 1.223-1.126 2.124-.93.066.015.131.038.196.058.123.038.235.026.333-.064l.152-.135c.816-.714 2.513-.58 2.972.9.02.064.031.13.044.196.025.131.101.204.239.218a1.36 1.36 0 0 1 1.054.633c.099.155.224.171.394.134.58-.125 1.036.091 1.401.526.098.118.15.259.21.399.12.28-.073.728-.458.834-.202.055-.406.05-.611.05h-5.385zm-70.04 4.443h3.686l.409-.006c.072-.002.142-.025.151-.101s-.051-.12-.109-.157c-.157-.101-.312-.089-.486-.025-.421.155-.515.13-.681-.238-.133-.294-.34-.381-.649-.363-.416.024-.45-.021-.478-.446l-.003-.1c-.05-.502-.431-.814-.943-.778-.275.02-.472.154-.64.364-.232.289-.255.285-.596.137l-.138-.065c-.542-.235-1.056.141-1.163.576-.024.097-.025.2-.052.296-.046.162-.195.268-.353.205-.452-.18-.751-.059-.955.371-.063.132-.204.153-.358.103-.081-.026-.154-.075-.236-.097a.46.46 0 0 0-.502.16c-.018.021-.025.065-.015.091s.043.057.069.059l.357.014h3.686zm-.066.601c-1.315 0-2.63 0-3.945-.001-.137 0-.275.005-.409-.013-.28-.037-.419-.201-.424-.477-.008-.449.31-.868.777-1.008a1.34 1.34 0 0 1 .402-.06c.18.005.331-.021.466-.151.189-.182.424-.285.692-.282.203.002.301-.105.385-.269a1.43 1.43 0 0 1 .969-.757c.221-.055.44-.071.657-.002.234.073.411.009.611-.132a1.47 1.47 0 0 1 1.918.137 1.44 1.44 0 0 1 .384.643c.048.162.127.26.306.289a.89.89 0 0 1 .564.323c.142.18.285.228.52.21a1.09 1.09 0 0 1 1.12.712.57.57 0 0 1-.436.806c-.165.034-.339.03-.509.031l-4.048.001zm37.183-4.817c-.067-.019-.129-.042-.156-.114-.034-.09-.012-.177.064-.222a1.52 1.52 0 0 1 .328-.136l5.778-1.758 5.681-1.727 8.131-2.467c.13-.039.263-.071.397-.09.093-.013.168.042.194.13s-.016.173-.098.21a3.4 3.4 0 0 1-.429.161l-5.043 1.538-5.632 1.712-8.815 2.68c-.129.039-.256.098-.398.083zm20.645-1.401l.249.001c.124.008.206.082.204.18-.003.122-.088.172-.194.198-.05.012-.101.016-.152.022l-3.459.407-3 .361-3.002.343-3 .36-2.9.338-3.052.362-1.73.201c-.216.024-.353-.053-.354-.189-.001-.12.09-.203.289-.228l1.933-.226 3.967-.468 3.053-.35 3-.361 2.849-.333 3.102-.367 2.195-.252zm-47.45 8.398c-.138-.007-.21-.048-.237-.137s.007-.174.092-.211a1.88 1.88 0 0 1 .34-.103l3.711-.777 7.976-1.655 5.819-1.205c.1-.021.201-.042.302-.047.092-.004.168.048.193.136s-.005.176-.09.214c-.108.048-.223.084-.339.108l-5.317 1.106-7.524 1.562-4.565.949-.361.061zm26.163-6.141c-.127 0-.202-.03-.242-.116a.19.19 0 0 1 .112-.247 4.16 4.16 0 0 1 .444-.117l5.41-1.145 7.415-1.562 4.408-.93a2.49 2.49 0 0 1 .456-.054c.088-.002.157.061.17.157.01.072-.026.128-.082.172-.099.077-.222.081-.338.105l-3.555.759-7.916 1.665-5.911 1.249-.369.064zm-16.876.574l5.176.044 2.92.048a1.62 1.62 0 0 1 .353.04c.061.015.105.079.11.154s-.04.133-.099.162a.5.5 0 0 1-.197.042l-.461.003-6.867-.054-8.865-.082-.461-.011a.67.67 0 0 1-.196-.047c-.07-.026-.104-.091-.107-.158s.035-.126.097-.165c.108-.069.229-.056.348-.056l1.281.01 6.969.089zm-6.315 2.818c-.069-.006-.172-.006-.271-.026-.07-.014-.109-.076-.118-.147s.027-.135.088-.168a.56.56 0 0 1 .193-.057l2.698-.302 3.361-.368 2.139-.233 3.412-.373 3.209-.343.917-.097a1.14 1.14 0 0 1 .304.018c.069.013.111.074.117.146s-.021.139-.087.167a.9.9 0 0 1-.244.063l-1.526.18-5.398.592-4.127.439-4.124.459-.544.049zM30.195 48.199c.14-.102.181-.271.265-.412.659-1.107 1.598-1.86 2.877-2.172.28-.069.57-.102.856-.146.066-.01.137-.005.204.004.15.02.254.125.268.26s-.065.264-.212.302a3.05 3.05 0 0 1-.402.072c-1.722.206-2.812 1.172-3.413 2.725-.073.187-.123.383-.184.574-.026.082-.068.152-.14.203-.14.1-.367.041-.428-.124-.046-.125-.066-.259-.093-.389-.126-.59-.472-1.028-.969-1.364-.371-.251-.786-.397-1.223-.492-.132-.029-.266-.059-.391-.109-.102-.041-.142-.139-.142-.247 0-.123.079-.222.196-.266s.235-.02.352.002c.972.189 1.804.601 2.384 1.423.047.067.088.146.195.156zm26.882-9.519c.09 0 .194-.013.292.004.109.019.175.099.187.211s-.028.215-.129.251a2.43 2.43 0 0 1-.495.117l-1.879.233-3.604.46-2.844.352-1.166.155a3.62 3.62 0 0 1-.509.027c-.126-.003-.223-.109-.239-.224s.052-.232.176-.274a1.53 1.53 0 0 1 .298-.068l4.265-.531 5.126-.661.521-.052zm20.495 6.555l.017.25c.01.096.078.151.171.15l.457-.028 1.517-.18c.829-.11.718-.042.719-.81 0-.241-.069-.3-.31-.272l-2.174.261c-.373.041-.396.084-.397.431v.199zm-.039 1.005l-.051.003c-.39.011-.477-.066-.49-.459l-.004-.752c-.001-.139-.023-.265-.168-.337a.35.35 0 0 1-.111-.101c-.096-.126-.053-.327.094-.384a1.48 1.48 0 0 1 .346-.074l1.471-.179 2.286-.253c.084-.009.17-.024.253-.016.107.01.192.066.231.172s.013.198-.063.276c-.035.035-.078.067-.124.085-.137.053-.158.163-.159.285l-.004.702-.013.35c-.015.147-.101.246-.249.284l-.251.051-2.893.341-.102.007zm.036-3.607v.2c.013.255.056.3.297.294a5.26 5.26 0 0 0 .457-.039l1.415-.171c.823-.105.705-.053.712-.818a.81.81 0 0 0-.008-.099c-.017-.116-.084-.169-.209-.167l-.102.006-2.072.25c-.498.051-.492.059-.49.545zm-.033 1.098c-.462.03-.538-.036-.55-.489l-.001-.602c.002-.206-.021-.374-.23-.514-.199-.134-.118-.398.127-.449.316-.066.639-.099.96-.138l2.589-.301.662-.052c.127-.007.238.036.29.161s.017.262-.097.305c-.252.095-.253.284-.251.49l-.004.802c-.011.272-.089.356-.349.416a1.85 1.85 0 0 1-.201.035l-2.639.31-.306.025m2.916-3.919v-.2c-.013-.268-.065-.309-.35-.275l-2.225.267c-.259.032-.293.066-.306.305l-.002.25c.004.473.015.495.486.45l1.873-.212c.516-.06.528-.074.526-.585zm.362-1.114l.364.002a.23.23 0 0 1 .199.136.24.24 0 0 1-.046.278.33.33 0 0 1-.122.087c-.133.051-.168.154-.169.28l-.003.652-.001.201c-.013.42-.082.505-.491.553l-2.997.342c-.459.051-.547-.027-.561-.471l-.001-.502c.004-.251.019-.486-.255-.653-.155-.095-.089-.339.085-.406a1.25 1.25 0 0 1 .297-.071l2.845-.324.857-.103m21.993 1.907l-.001 3.367c0 .15-.005.302-.026.45-.017.121-.133.201-.255.205s-.243-.072-.264-.194c-.026-.147-.035-.299-.035-.448l-.002-3.015.001-3.669c0-.166-.02-.335.043-.497.046-.117.162-.199.273-.188s.229.103.245.222c.018.132.02.267.02.401l.001 3.367zm-11.796 1.462l.001-3.314c0-.15.005-.301.026-.45.017-.118.147-.203.262-.191s.2.073.219.179a2.7 2.7 0 0 1 .032.449l.001 4.017-.001 2.762a2.72 2.72 0 0 1-.025.4c-.017.115-.153.206-.263.192s-.201-.075-.22-.18c-.026-.147-.031-.299-.031-.449l-.001-3.415zm-36.709 5.785l.002-2.16a1.89 1.89 0 0 1 .042-.397c.026-.12.154-.195.27-.186a.27.27 0 0 1 .246.218c.016.098.019.2.019.3l-.001 4.572a1.76 1.76 0 0 1-.03.348c-.023.113-.159.198-.271.186s-.186-.075-.229-.174c-.063-.144-.047-.296-.048-.446l-.001-2.261zm-4.951.672l.001-2.155c.001-.133.004-.268.024-.399.018-.116.14-.201.257-.206s.242.076.264.194a2.2 2.2 0 0 1 .033.397l.002 2.055-.001 2.306-.017.4c-.02.157-.13.251-.267.253a.27.27 0 0 1-.278-.24c-.017-.132-.017-.267-.017-.4l-.001-2.205zm49.478-7.905h-.006v.2l.006.1a.17.17 0 0 0 .197.178c.162.001.267-.051.283-.155.036-.231.037-.464-.003-.694-.007-.038-.059-.084-.1-.096-.186-.053-.359.05-.376.219-.008.082-.001.166-.001.249zm-.563.066l.003-.703a.31.31 0 0 1 .279-.315l1.016-.129c.144-.014.263.085.304.222a.75.75 0 0 1 .035.198l-.004 1.206c-.013.296-.104.382-.4.429l-.864.111c-.24.018-.352-.079-.37-.316s-.004-.469-.004-.703m.568-2.462c-.006.1-.001.199.005.299.001.016.001.038.011.048.033.034.065.082.106.093.191.05.359-.05.37-.226a5.01 5.01 0 0 0 0-.548c-.007-.135-.097-.19-.251-.172s-.227.075-.239.208c-.009.099-.002.199-.002.299zm-.568.021l.003-.649c.018-.242.104-.337.334-.372l.909-.11c.226-.019.375.089.383.307v1.397a.31.31 0 0 1-.272.319l-1.006.145c-.197.02-.328-.092-.343-.289-.018-.248-.004-.499-.004-.748m1.059 4.779h.007v-.198c-.012-.236-.085-.285-.319-.224-.111.029-.178.088-.18.203l.003.543c.007.135.094.188.247.173s.228-.072.24-.201c.009-.098.002-.197.002-.296zm.574-.034l-.004.65c-.02.243-.105.335-.338.372l-.961.119c-.188.015-.283-.074-.306-.263-.059-.482-.052-.966-.014-1.449.013-.166.093-.288.274-.312l1.012-.121c.181-.015.299.078.32.255.029.248.03.499.042.748h-.025zm-2.747.324h.003l-.001-.247c-.013-.185-.126-.255-.308-.198-.104.032-.181.091-.182.206l.007.591c.004.097.076.139.171.14.195.002.292-.073.309-.246.008-.082.001-.164.001-.247zm.55-.023l-.002.651c-.011.221-.086.316-.291.351l-.96.128c-.233.019-.364-.09-.37-.315l.002-1.4c.006-.201.107-.305.313-.338l.961-.118c.198-.017.328.096.339.291.014.249.004.5.004.75h.004z"/><path d="M94.994 38.687h.004v-.199c-.014-.194-.098-.245-.309-.202-.115.023-.182.084-.184.2l.004.546c.002.066.032.126.106.153.176.066.362-.028.379-.2.009-.099.002-.199.002-.298zm.541-.038l-.002.75c-.005.149-.092.258-.242.283l-1.059.148c-.165.017-.293-.097-.31-.267-.019-.182-.014-.366-.015-.549l.005-.85c.01-.246.083-.335.321-.376l.909-.12c.275-.025.382.069.396.331l.002.65m-.542 2.404c-.001-.009-.001-.11-.021-.207-.008-.042-.048-.089-.087-.111-.157-.088-.376.011-.385.18a5.98 5.98 0 0 0 .002.599c.004.1.078.138.176.131.237-.017.301-.077.314-.301.004-.066.001-.133.001-.291zm.542.03l-.002.653c-.011.261-.066.339-.311.386l-.962.143c-.186.021-.338-.102-.344-.295l-.003-1.456a.28.28 0 0 1 .242-.287c.353-.061.705-.137 1.066-.123.186.007.292.097.302.276.014.234.003.469.003.703h.007zm-1.037 2.506h.002l.003.344c.004.044.03.105.065.126.108.063.403-.002.41-.164a7.05 7.05 0 0 0-.008-.639c-.002-.036-.052-.085-.092-.102-.172-.076-.36.018-.379.188-.009.081-.002.164-.002.246zm1.034-.015l-.001.654c-.004.172-.097.29-.269.32l-1.012.15c-.163.018-.291-.1-.328-.261a.68.68 0 0 1-.017-.149l.002-1.257c.007-.273.09-.358.362-.398l.814-.099c.34-.023.434.066.454.387l.001.101v.553h-.005zm1.615-2.682h-.002l-.001-.297c0-.016-.002-.036-.012-.048-.03-.037-.057-.085-.097-.102-.175-.072-.368.026-.377.197-.011.197-.002.396.006.594.003.067.039.124.118.14.193.039.346-.057.364-.236.008-.082.001-.165.001-.248zm.552-.044l-.002.6c-.011.281-.078.373-.334.421l-.908.127c-.23.023-.375-.087-.381-.303v-1.4c.006-.221.117-.326.349-.362l.859-.107c.288-.024.4.081.414.374l.002.65h.001z"/><path d="M96.657 38.498h.003l.002.296c.012.136.103.187.252.153.178-.041.231-.092.239-.264a4.69 4.69 0 0 0-.004-.493c-.008-.138-.091-.193-.241-.182a.22.22 0 0 0-.25.244c-.006.082-.001.164-.001.247zm1.042-.04l-.002.653c-.004.147-.071.269-.226.296l-1.061.162c-.162.019-.287-.101-.323-.264a.7.7 0 0 1-.017-.149l.002-1.206c.009-.317.097-.405.427-.452l.864-.095c.211-.011.319.094.33.302.014.251.003.502.003.753h.001zm-27.44 3.938h-.001l-.002-.497c-.005-.115-.075-.177-.197-.178-.155-.001-.263.054-.267.168l-.004 1.043c.001.038.043.093.081.11.153.069.376-.045.387-.199.011-.148.002-.298.002-.447zm.447-.081l-.001.85c-.001.127-.056.229-.187.269-.311.095-.635.108-.956.137-.116.01-.225-.094-.25-.213a1.23 1.23 0 0 1-.024-.248v-1.351c0-.066.005-.134.017-.199.02-.105.079-.192.186-.218.314-.077.632-.139.957-.129a.23.23 0 0 1 .255.252l.003.85h.002zm-.927 4.275l.01.497c.004.097.073.143.169.146.192.006.293-.07.301-.254l.008-.797a.58.58 0 0 0-.023-.196.17.17 0 0 0-.106-.092c-.181-.038-.347.077-.357.248-.009.149-.002.299-.002.448zm.925-.077l-.001.851c-.002.13-.075.23-.203.257-.299.063-.599.133-.908.127-.181-.004-.289-.092-.293-.28l-.003-1.651c.002-.168.096-.29.269-.319l.858-.119a.24.24 0 0 1 .274.235l.003.9h.003zm-.927-7.964h-.001v.399c0 .033.006.066.012.099.019.097.084.136.179.135.194-.002.286-.076.292-.265l.003-.897c0-.016-.005-.033-.008-.049-.019-.107-.104-.156-.228-.13-.182.039-.239.091-.248.259l-.002.449zm.926-.089l-.002.851a.25.25 0 0 1-.203.258c-.299.062-.599.135-.908.128-.18-.004-.289-.093-.293-.28l-.003-1.652c.001-.168.095-.291.268-.32l.858-.119a.24.24 0 0 1 .275.235l.003.901M57.644 27.336c-.001.11-.049.2-.148.245-.091.041-.193.063-.292.085-.455.104-.743.389-.911.803-.044.108-.069.224-.111.333-.061.155-.169.234-.303.223a.3.3 0 0 1-.271-.198.63.63 0 0 1-.032-.095c-.08-.341-.284-.563-.64-.64a.62.62 0 0 1-.143-.054c-.133-.067-.204-.21-.169-.331.043-.148.19-.252.354-.223a2.4 2.4 0 0 1 .438.131c.094.036.18.095.263.152.117.08.215.073.315-.03.117-.121.232-.247.365-.349.274-.211.588-.339.941-.346.202-.004.344.125.343.293zm38.784 3.751a1.83 1.83 0 0 1 .609.248c.235.146.248.146.418-.049.24-.276.533-.462.881-.574a1.04 1.04 0 0 1 .453-.052c.089.011.16.055.215.121.099.12.066.317-.074.392a.8.8 0 0 1-.239.078c-.503.088-.812.392-.991.844l-.141.375a.28.28 0 0 1-.291.163.29.29 0 0 1-.238-.166.51.51 0 0 1-.046-.142c-.054-.313-.251-.501-.546-.604l-.191-.072c-.166-.079-.233-.214-.186-.363s.191-.224.366-.2zm-35.34 6.889c-.09.002-.17-.024-.226-.095-.031-.039-.069-.083-.076-.129-.073-.435-.348-.665-.768-.778-.173-.047-.234-.213-.184-.363s.194-.226.371-.193c.239.044.45.149.654.279.19.122.211.121.375-.08.211-.257.474-.431.782-.55a1.16 1.16 0 0 1 .552-.084c.146.017.255.127.266.263.008.112-.066.237-.178.281a1.02 1.02 0 0 1-.197.051c-.507.088-.811.401-.985.856l-.14.378c-.044.096-.133.15-.243.163zM44.422 51.518l.002-.249c.015-.149.103-.253.252-.275l1.009-.119c.234-.015.34.094.355.328.009.148.004.3-.018.447-.016.102-.098.174-.206.199s-.203-.01-.27-.096c-.04-.052-.061-.119-.099-.173-.102-.14-.344-.135-.424.011-.039.072-.053.157-.084.234-.05.124-.149.178-.281.17-.121-.008-.213-.098-.232-.228-.012-.082-.011-.166-.016-.248z"/><path d="M43.754 51.765c-.005.026-.012.128-.045.221-.07.195-.319.232-.452.071a.39.39 0 0 1-.069-.133c-.037-.118-.124-.148-.236-.142-.126.008-.233.038-.267.183-.019.08-.042.163-.086.232-.094.148-.355.137-.427-.021a.85.85 0 0 1-.007-.727c.043-.097.141-.144.246-.158l.911-.112c.299-.022.404.079.43.364.005.05.001.1.001.223zm18.733-2.495c.002-.018.002.084-.024.179-.047.172-.28.229-.411.103-.047-.045-.072-.111-.114-.162-.15-.181-.383-.161-.484.042-.03.059-.039.129-.073.185-.057.092-.148.138-.258.125a.26.26 0 0 1-.225-.178.94.94 0 0 1-.007-.541c.025-.102.094-.192.197-.212.366-.072.732-.154 1.108-.143.176.005.272.107.292.287.008.066.001.133.001.317zm-2.863-.321l.297.001c.152.014.257.101.274.25.015.131.02.268 0 .397-.035.231-.275.315-.46.169-.039-.031-.062-.08-.1-.113-.184-.159-.348-.135-.5.074-.029.04-.045.091-.077.128-.135.153-.392.104-.45-.088-.049-.163-.044-.331-.006-.495.03-.127.131-.195.256-.215l.766-.11zm42.854-14.181c.129-.005.207-.084.263-.191.049-.096.013-.212-.077-.249-.113-.047-.253.018-.327.151-.048.086-.027.229.043.266.028.015.063.015.098.023zm.18-1.006c.368.02.664.319.677.684.017.475-.402.905-.89.912-.383.005-.718-.311-.731-.689-.017-.494.441-.933.944-.906zm-11.143 2.162c-.004-.072-.1-.145-.18-.135a.31.31 0 0 0-.281.293c-.004.072.082.164.154.165.163.001.315-.158.307-.322zm-.334.876a.68.68 0 0 1-.69-.762c.026-.443.435-.83.871-.824.422.006.727.326.714.75a.86.86 0 0 1-.895.837M44.964 48.718h-.004l.001.248c.013.197.096.247.307.202.114-.024.183-.084.185-.199l-.005-.546c-.003-.066-.034-.125-.106-.153-.175-.068-.359.026-.377.2-.008.082-.002.165-.002.248zm-.547.055l.002-.649c.012-.252.081-.335.323-.37l.961-.105c.211-.013.327.09.333.295l-.001 1.398c-.002.143-.087.263-.234.294-.348.074-.698.15-1.057.145a.28.28 0 0 1-.321-.309c-.013-.233-.003-.466-.003-.699h-.003z"/><path d="M43.179 48.987h.005l-.001-.248a.83.83 0 0 0-.01-.099.15.15 0 0 0-.172-.141c-.224.009-.312.085-.32.292-.006.165 0 .331.008.496.003.066.032.126.108.15.185.06.362-.031.38-.203.008-.082.002-.165.002-.248zm.541-.032l-.003.653c-.01.19-.083.282-.27.315l-.963.133c-.214.019-.335-.082-.34-.287l.003-1.457c.003-.152.104-.24.255-.273.335-.073.674-.114 1.017-.114.188 0 .286.088.296.276l.003.754zm1.243-3.494h-.002l.001.298c.012.179.085.23.265.198.164-.029.221-.074.226-.216.007-.182.004-.364-.007-.546-.008-.12-.096-.162-.213-.16-.182.004-.253.06-.269.226-.007.066-.001.132-.001.198zm-.543.084l.002-.7c.004-.147.081-.267.233-.29.352-.053.701-.138 1.061-.127.204.006.316.103.322.311v1.35c-.006.219-.09.315-.294.349l-.959.123c-.242.018-.349-.084-.362-.318s-.003-.467-.003-.7h.001z"/><path d="M43.179 45.773c.006-.116.005-.232-.007-.346-.01-.098-.078-.141-.174-.136-.226.01-.309.082-.316.294-.006.165 0 .331.009.495.003.066.032.13.111.147.183.039.368-.005.377-.206l.001-.248zm.539-.053l-.002.704c-.004.153-.097.259-.244.284l-1.014.139c-.187.017-.305-.082-.309-.261l.003-1.506c.002-.129.095-.215.226-.24.352-.068.706-.133 1.067-.121.161.005.258.091.266.249l.003.753m15.91 1.055h.013l-.035-.394c-.011-.073-.074-.106-.146-.111-.188-.014-.316.067-.325.229a5.1 5.1 0 0 0 .008.594c.006.095.086.133.18.133.2 0 .288-.071.304-.251.006-.066.001-.132.001-.198zm-1.041.054l.003-.703a.32.32 0 0 1 .305-.346l.964-.117c.17-.014.317.093.332.251.05.5.036 1.002.008 1.503-.007.125-.098.211-.22.253a1.12 1.12 0 0 1-.197.052l-.76.108c-.294.033-.422-.068-.436-.349l-.002-.653h.003zm3.366-.371a2.16 2.16 0 0 0-.017-.345c-.006-.041-.046-.09-.084-.11-.147-.075-.38.034-.389.187-.012.197-.006.395.002.593.004.093.067.146.165.151.219.012.308-.063.322-.278.004-.066.001-.132.001-.198zm.536-.037l-.002.699a.28.28 0 0 1-.243.283l-1.007.143c-.208.02-.32-.083-.359-.274a.51.51 0 0 1-.012-.099l.001-1.249c.008-.275.086-.351.347-.413.299-.071.605-.091.911-.1.269-.008.35.081.369.361l.002.1v.55h-.007zm-.539-3.089a1.59 1.59 0 0 0-.008-.249c-.014-.119-.092-.169-.21-.17-.157-.001-.259.055-.265.172-.011.199-.008.398.001.597.004.097.081.137.175.142.202.012.29-.056.305-.244.007-.083.001-.166.001-.25zm.539-.004l-.002.7c-.005.149-.093.256-.244.28l-1.009.133c-.233.019-.356-.092-.362-.322l.002-1.35c.008-.234.102-.321.346-.357l.911-.103c.248-.014.348.083.361.319l.003.7h-.003z"/><path d="M59.621 43.637a1.68 1.68 0 0 0-.015-.344.17.17 0 0 0-.084-.11c-.145-.067-.381.046-.39.195a5.69 5.69 0 0 0 .002.591c.004.095.076.14.17.146.198.013.298-.058.315-.232.008-.082.001-.165.001-.247zm-1.041.052l.003-.652c.011-.217.075-.301.302-.34l1.013-.126c.14-.013.259.095.291.234.015.065.021.132.021.199l-.002 1.153c-.008.318-.1.414-.417.463l-.81.107c-.27.022-.385-.077-.399-.336-.012-.233-.003-.468-.003-.702"/></g></svg>